<svg xmlns="http://www.w3.org/2000/svg" viewBox="0 0 536.67 137.08"><defs><style>.cls-1{fill:#fff;}.cls-1,.cls-2{stroke:#231815;stroke-miterlimit:10;}.cls-2{fill:none;}.cls-3{fill:#231815;}</style></defs><title>Asset 3</title><g id="Layer_2" data-name="Layer 2"><g id="Layer_1-2" data-name="Layer 1"><rect class="cls-1" x="95.16" y="75.07" width="12.45" height="22.57" transform="translate(202.77 172.71) rotate(-180)"/><polygon class="cls-1" points="107.61 97.64 120.07 106.6 120.07 66.12 107.61 75.07 107.61 97.64"/><circle class="cls-1" cx="125.91" cy="47.74" r="8.79"/><polygon class="cls-1" points="94.52 42.71 125.37 38.71 125.37 56.77 94.52 52.78 94.52 42.71"/><rect class="cls-1" x="430.54" y="75.07" width="12.45" height="22.57"/><polygon class="cls-1" points="430.54 97.64 418.08 106.6 418.08 66.12 430.54 75.07 430.54 97.64"/><circle class="cls-1" cx="413.24" cy="47.74" r="8.79"/><polygon class="cls-1" points="444.63 42.71 413.78 38.71 413.78 56.77 444.63 52.78 444.63 42.71"/><path class="cls-2" d="M203.47,213.92"/><path class="cls-2" d="M204.46,182.85"/><polygon class="cls-2" points="231.01 88.85 231.48 93.21 247.69 78.93 228.8 68.44 229.29 72.94 229.31 73.17 157.25 80.97 158.94 96.52 231 88.72 231.01 88.85"/><polygon class="cls-2" points="159.64 38.98 159.96 34.62 141.45 45.76 158.15 59.46 158.48 54.95 158.49 54.72 230.78 59.99 231.92 44.39 159.63 39.11 159.64 38.98"/><polygon class="cls-2" points="312.22 89.4 311.75 93.76 295.55 79.47 314.43 68.99 313.95 73.49 313.92 73.72 385.98 81.52 384.3 97.07 312.24 89.27 312.22 89.4"/><polygon class="cls-2" points="383.59 39.53 383.27 35.16 401.78 46.3 385.08 60.01 384.76 55.49 384.74 55.27 312.45 60.54 311.31 44.93 383.6 39.66 383.59 39.53"/><path class="cls-2" d="M203.47,213.92"/><path class="cls-2" d="M203.47,182.32"/><path class="cls-2" d="M203.47,213.92"/><path class="cls-3" d="M169.2,87a4.39,4.39,0,0,0,.85,0l.57-.06a6.61,6.61,0,0,0,.84-.15,8.41,8.41,0,0,0,.08,1.16l.24,2.12a2.06,2.06,0,0,0,1.31,1,7.66,7.66,0,0,0,2.44,0,30.08,30.08,0,0,0,4.21-.7,2.71,2.71,0,0,0-.16.83c-1.5.23-2.38.35-3.48.47a10,10,0,0,1-2.9.11,2.57,2.57,0,0,1-1.71-1A11.44,11.44,0,0,1,170.29,92l-.35.38-.44-.68a6.76,6.76,0,0,0,1.61-1.53l-.3-2.63-.72.08a4.3,4.3,0,0,0-.79.15Zm.3-4.11a14.83,14.83,0,0,1,2,1.74l-.5.56A10.44,10.44,0,0,0,169,83.44Zm3.76,2a7.18,7.18,0,0,0-1,.18l-.08-.73a7.17,7.17,0,0,0,1-.05l2.33-.27a11.85,11.85,0,0,0,.78-2.15l.7.2a15.12,15.12,0,0,1-.76,1.87l1-.11a6.9,6.9,0,0,0,1-.18l.08.73a7.45,7.45,0,0,0-1.06.05l-1.86.21a11.78,11.78,0,0,1,.08,1.73l2.31-.26a6.93,6.93,0,0,0,1-.19l.09.75a7.57,7.57,0,0,0-1.1.06l-2,.23a4.49,4.49,0,0,0,1,1.13,5.28,5.28,0,0,0,2.43,1.11,1.8,1.8,0,0,0-.33.7,5.9,5.9,0,0,1-2.15-1,4.76,4.76,0,0,1-1.36-1.53A5,5,0,0,1,173,90.57a1.53,1.53,0,0,0-.56-.51,4.1,4.1,0,0,0,2.27-2.89l-1.53.17a7.56,7.56,0,0,0-1.06.19l-.09-.75a7.45,7.45,0,0,0,1.08-.06l1.66-.19a11.35,11.35,0,0,0-.09-1.73Zm0-2.71a9,9,0,0,1,1.14,1.5l-.55.41a8.17,8.17,0,0,0-1.15-1.52Z"/><path class="cls-3" d="M182.42,90a11.12,11.12,0,0,0,.2,1.27l-.79.09a11.34,11.34,0,0,0-.08-1.32l-.42-3.65c-.06-.55-.08-.73-.12-1.33a7.66,7.66,0,0,1-.84,1.74,1.9,1.9,0,0,0-.51-.55,9.38,9.38,0,0,0,1.48-3.35,6.36,6.36,0,0,0,.24-1.59l.77.14a5.57,5.57,0,0,0-.14.64,13.85,13.85,0,0,1-.49,1.85Zm0-6.7a5.61,5.61,0,0,0,.93,0l5.22-.6a7.11,7.11,0,0,0,1-.19l.09.75a7.72,7.72,0,0,0-1.07.06l-5.21.59a5.89,5.89,0,0,0-.91.17ZM184.77,91l-.72.08a8.17,8.17,0,0,0-.06-1l-.15-1.3c0-.4-.11-.75-.16-1a6.88,6.88,0,0,0,.91-.06l3.61-.41a7.87,7.87,0,0,0,1-.16,9.35,9.35,0,0,0,.07,1l.15,1.3a7.12,7.12,0,0,0,.17,1l-.73.08-.07-.58-4.11.47ZM189,84.8a5.67,5.67,0,0,0-.95.05l-3.63.41a4.92,4.92,0,0,0-.87.15l-.08-.7a4.63,4.63,0,0,0,.88,0l3.62-.41a5.5,5.5,0,0,0,.94-.16Zm.17,1.5a5.6,5.6,0,0,0-.95.05l-3.63.41a6.41,6.41,0,0,0-.87.14l-.08-.69a4.63,4.63,0,0,0,.88,0l3.63-.41a5.44,5.44,0,0,0,.93-.16Zm-.51-4.51a9,9,0,0,0-1.1.07l-3.39.39a5.55,5.55,0,0,0-.93.16l-.08-.73a6.33,6.33,0,0,0,1,0l3.33-.38a6.8,6.8,0,0,0,1.11-.19Zm.13,7.57-.17-1.52-4.11.47.17,1.52Z"/><path class="cls-3" d="M194.65,86.06c.2-.29.42-.62.62-.92l2.37-3.77a12.35,12.35,0,0,0,.69-1.21l.82-.09a18,18,0,0,0,.14,1.85l.41,3.59.42,0a7.38,7.38,0,0,0,1.13-.21l.1.91a7.59,7.59,0,0,0-1.16.05l-.4,0,.11.94a6.28,6.28,0,0,0,.22,1.17l-1,.11a6.44,6.44,0,0,0,0-1.19l-.11-.94-2.93.33c-.61.07-.94.12-1.3.19Zm3.93-3.23a13.47,13.47,0,0,1-.1-1.49c-.19.35-.42.75-.7,1.19L195.63,86l3.27-.37Z"/><path class="cls-3" d="M202.67,79.67a7.8,7.8,0,0,0,.06,1.24l.45,4,1.76-2.14a4.77,4.77,0,0,0,.68-1l1.3-.15-.4.46-.35.42a2.42,2.42,0,0,0-.16.2l-1.36,1.58,2.12,2.17a10.11,10.11,0,0,0,1.08,1l-1.25.14a4.7,4.7,0,0,0-.81-1l-1.68-1.82-.83,1,.1.92a8.12,8.12,0,0,0,.22,1.22l-1,.11a8.2,8.2,0,0,0-.06-1.24L201.91,81a8,8,0,0,0-.22-1.23Z"/><path class="cls-3" d="M214.87,78.28a6.77,6.77,0,0,0,0,1.21l.67,5.88a7,7,0,0,0,.23,1.21l-1,.12a6.78,6.78,0,0,0-.05-1.23l-.32-2.77-4.94.56.32,2.77a6.63,6.63,0,0,0,.23,1.21l-1,.12a6.47,6.47,0,0,0-.05-1.23l-.67-5.86a6.62,6.62,0,0,0-.23-1.21l1-.12a6.69,6.69,0,0,0,0,1.21l.27,2.34,4.94-.56-.26-2.32a6.63,6.63,0,0,0-.23-1.21Z"/><path class="cls-3" d="M220.94,80.66a9.26,9.26,0,0,0-.63,1l-2,3.41-.36.56.75-.11,1.73-.2a7.5,7.5,0,0,0,1.23-.22l.1.9a7.86,7.86,0,0,0-1.24.06l-2.32.26c-.68.08-.91.11-1.21.17l-.08-.72a8.72,8.72,0,0,0,.64-1l2-3.49a4,4,0,0,1,.28-.43c-.29.06-.39.07-.54.08l-1.49.17a8.78,8.78,0,0,0-1.21.22l-.1-.89a8.75,8.75,0,0,0,1.23-.06l1.95-.22a9.92,9.92,0,0,0,1.15-.16Z"/><path class="cls-3" d="M178.6,48.95a3.27,3.27,0,0,0-.4.37,10,10,0,0,1-2.38,1.95,11.56,11.56,0,0,0,4.24,1.67,3.32,3.32,0,0,0-.45.68,11.15,11.15,0,0,1-4.46-2,13.28,13.28,0,0,1-4.58,1.32,2.74,2.74,0,0,0-.35-.72,11.87,11.87,0,0,0,4.37-1.07,7.28,7.28,0,0,1-1.79-2.48,7.76,7.76,0,0,0-.82,0l.05-.73a7.15,7.15,0,0,0,1.09.15l4.08.3a5.26,5.26,0,0,0,1,0ZM173,46.2a9.35,9.35,0,0,0-.48-1.51l-1,0a1.92,1.92,0,0,0-.21-.67,35.32,35.32,0,0,0,5.16.05,11.41,11.41,0,0,0,2.92-.43l.44.68a3.13,3.13,0,0,0-.45.07,30.92,30.92,0,0,1-3.8.35,10.78,10.78,0,0,1,.46,1.72l1.27.09a9.17,9.17,0,0,0,1.06-1.89l.7.3a18.6,18.6,0,0,1-1,1.64l.93.07a11.64,11.64,0,0,0,1.25,0,6.48,6.48,0,0,0-.1.83l-.05.71a3.23,3.23,0,0,0,0,.68l-.75-.05.11-1.54-7.94-.57-.12,1.59-.75-.05a5.52,5.52,0,0,0,.11-.78l0-.69c0-.29,0-.53,0-.83a10.32,10.32,0,0,0,1.35.15Zm2.39.17a10.21,10.21,0,0,0-.46-1.66c-.55,0-.93,0-1.73,0a10.52,10.52,0,0,1,.51,1.55Zm-1.82,2.35a6,6,0,0,0,1.69,2.11A8.63,8.63,0,0,0,177.55,49Z"/><path class="cls-3" d="M183,52.6a10.89,10.89,0,0,0,0,1.29l-.79-.06a11.34,11.34,0,0,0,.16-1.31l.27-3.66c0-.55.05-.74.13-1.33a7.66,7.66,0,0,1-1.15,1.55,1.9,1.9,0,0,0-.4-.64,9.38,9.38,0,0,0,2.07-3,6.36,6.36,0,0,0,.53-1.52l.73.28a5.57,5.57,0,0,0-.25.6,13.85,13.85,0,0,1-.82,1.73ZM184.28,46a5.61,5.61,0,0,0,.92.13l5.25.38a7.11,7.11,0,0,0,1.06,0l-.05.76a7.72,7.72,0,0,0-1.06-.14l-5.23-.38a5.89,5.89,0,0,0-.93,0Zm.84,8L184.4,54a8.17,8.17,0,0,0,.13-1l.09-1.31c0-.41,0-.76,0-1a6.88,6.88,0,0,0,.91.11l3.62.26a7.87,7.87,0,0,0,1,0,9.35,9.35,0,0,0-.12,1L190,53.38a7.12,7.12,0,0,0,0,1l-.74-.05,0-.58-4.12-.3Zm5.26-5.32a5.67,5.67,0,0,0-.94-.12l-3.64-.26a4.92,4.92,0,0,0-.88,0l.05-.7a4.63,4.63,0,0,0,.87.12l3.63.26a5.5,5.5,0,0,0,1,0Zm-.11,1.5a5.6,5.6,0,0,0-.94-.12l-3.64-.26a6.41,6.41,0,0,0-.88,0l0-.69a4.63,4.63,0,0,0,.87.12l3.64.26a5.44,5.44,0,0,0,.95,0Zm.33-4.53a9,9,0,0,0-1.09-.13l-3.4-.25a5.55,5.55,0,0,0-.95,0l.05-.74a6.33,6.33,0,0,0,1,.14l3.35.24a6.8,6.8,0,0,0,1.12,0Zm-1.27,7.46.11-1.52-4.12-.3-.11,1.52Z"/><path class="cls-3" d="M197.58,45.63a5.28,5.28,0,0,0,.91.12l.69.05a6.21,6.21,0,0,0,.91,0,18,18,0,0,0-.23,1.81L199.48,53a7.08,7.08,0,0,0,0,1.25l-1-.08a6.91,6.91,0,0,0,.18-1.23l.46-6.35-.59,0a6.65,6.65,0,0,0-1,0Z"/><path class="cls-3" d="M204.77,46.21a7.8,7.8,0,0,0-.17,1.23l-.29,4,2.12-1.78a4.77,4.77,0,0,0,.84-.81l1.31.09-.48.37-.42.34a2.42,2.42,0,0,0-.19.16l-1.63,1.3,1.68,2.53a10.11,10.11,0,0,0,.87,1.22l-1.25-.09a4.7,4.7,0,0,0-.62-1.09l-1.32-2.1-1,.82-.07.92a8.12,8.12,0,0,0,0,1.23l-1-.07a8.2,8.2,0,0,0,.17-1.23l.42-5.86a8,8,0,0,0,0-1.25Z"/><path class="cls-3" d="M217,47.09a6.77,6.77,0,0,0-.17,1.2l-.43,5.9a7,7,0,0,0,0,1.24l-1-.07a6.78,6.78,0,0,0,.18-1.22l.2-2.78-5-.36-.2,2.78a6.63,6.63,0,0,0,0,1.24l-1-.07a6.47,6.47,0,0,0,.18-1.22l.43-5.88a6.62,6.62,0,0,0,0-1.24l1,.07a6.69,6.69,0,0,0-.17,1.2l-.17,2.35,5,.36.17-2.33A6.63,6.63,0,0,0,216,47Z"/><path class="cls-3" d="M222.55,50.56a9.26,9.26,0,0,0-.8.85l-2.59,3-.45.49.76,0,1.73.13a7.5,7.5,0,0,0,1.25,0l-.07.9a7.86,7.86,0,0,0-1.23-.17l-2.33-.17c-.68,0-.91-.06-1.22-.06l.05-.72a8.72,8.72,0,0,0,.81-.83l2.65-3.05a4,4,0,0,1,.36-.37c-.3,0-.4,0-.55,0l-1.49-.11a8.78,8.78,0,0,0-1.23,0l.06-.89a8.75,8.75,0,0,0,1.22.17l2,.14a9.92,9.92,0,0,0,1.17.05Z"/><path class="cls-3" d="M329.76,51.83a3.27,3.27,0,0,0-.34.42,10,10,0,0,1-2.08,2.27,11.56,11.56,0,0,0,4.43,1,3.36,3.36,0,0,0-.34.74,11.15,11.15,0,0,1-4.7-1.34,13.28,13.28,0,0,1-4.35,2,2.74,2.74,0,0,0-.45-.66,11.87,11.87,0,0,0,4.17-1.69,7.28,7.28,0,0,1-2.13-2.2,7.76,7.76,0,0,0-.81.12l-.05-.73a7.15,7.15,0,0,0,1.1,0l4.08-.29a5.26,5.26,0,0,0,1-.12Zm-6-1.91a9.35,9.35,0,0,0-.69-1.43l-1,.09a1.92,1.92,0,0,0-.3-.63,35.31,35.31,0,0,0,5.11-.69,11.41,11.41,0,0,0,2.83-.84l.53.61a3.13,3.13,0,0,0-.43.13,30.92,30.92,0,0,1-3.71.89,10.76,10.76,0,0,1,.7,1.64l1.27-.09a9.17,9.17,0,0,0,.78-2l.73.2a18.6,18.6,0,0,1-.77,1.77l.93-.07a11.64,11.64,0,0,0,1.25-.13,6.48,6.48,0,0,0,0,.84l.05.71a3.23,3.23,0,0,0,.1.68l-.75.05-.11-1.54-7.94.57.11,1.59-.75.05a5.53,5.53,0,0,0,0-.78l0-.69c0-.29-.06-.53-.1-.82A10.32,10.32,0,0,0,323,50Zm2.39-.17a10.21,10.21,0,0,0-.7-1.57c-.55.08-.92.14-1.72.23a10.52,10.52,0,0,1,.72,1.46Zm-1.47,2.59a6,6,0,0,0,2,1.84,8.64,8.64,0,0,0,2-2.13Z"/><path class="cls-3" d="M334.65,54.81a11.12,11.12,0,0,0,.15,1.28l-.79.06a11.34,11.34,0,0,0,0-1.32l-.26-3.66c0-.55-.05-.74-.06-1.33a7.66,7.66,0,0,1-.91,1.7,1.9,1.9,0,0,0-.48-.57,9.38,9.38,0,0,0,1.62-3.28,6.36,6.36,0,0,0,.31-1.58l.76.18a5.52,5.52,0,0,0-.16.63,13.85,13.85,0,0,1-.56,1.83Zm.31-6.7a5.61,5.61,0,0,0,.93,0l5.25-.38a7.11,7.11,0,0,0,1-.14l.05.76a7.72,7.72,0,0,0-1.07,0l-5.23.38a5.89,5.89,0,0,0-.92.13Zm2,7.82-.72.05a8.17,8.17,0,0,0,0-1l-.09-1.31c0-.41-.08-.76-.12-1a6.88,6.88,0,0,0,.91,0l3.62-.26a7.87,7.87,0,0,0,1-.12,9.35,9.35,0,0,0,0,1l.09,1.31a7.12,7.12,0,0,0,.13,1l-.74.05,0-.58-4.13.3Zm4.44-6a5.67,5.67,0,0,0-.95,0l-3.64.26a4.92,4.92,0,0,0-.87.12l-.05-.7a4.63,4.63,0,0,0,.88,0l3.63-.26a5.5,5.5,0,0,0,1-.12Zm.11,1.5a5.6,5.6,0,0,0-.95,0l-3.64.26a6.41,6.41,0,0,0-.87.11l0-.69a4.63,4.63,0,0,0,.88,0l3.64-.26a5.44,5.44,0,0,0,.94-.12Zm-.33-4.53a9.08,9.08,0,0,0-1.1,0l-3.4.24a5.61,5.61,0,0,0-.94.12l-.05-.73a6.33,6.33,0,0,0,1,0l3.35-.24a6.8,6.8,0,0,0,1.11-.15ZM341,54.45l-.11-1.52-4.13.3.11,1.52Z"/><path class="cls-3" d="M347,51.41c.21-.28.44-.61.65-.9l2.53-3.67a12.35,12.35,0,0,0,.74-1.18l.82-.06a18,18,0,0,0,.07,1.86l.26,3.6.42,0a7.38,7.38,0,0,0,1.14-.16l.07.91a7.59,7.59,0,0,0-1.16,0l-.41,0,.07.94A6.28,6.28,0,0,0,352.4,54l-1,.07a6.44,6.44,0,0,0,0-1.19l-.07-.94-2.94.21c-.61,0-.94.08-1.3.14Zm4.06-3.06a13.47,13.47,0,0,1,0-1.5c-.21.35-.45.73-.74,1.16L348,51.38l3.28-.24Z"/><path class="cls-3" d="M355.31,45.36a7.8,7.8,0,0,0,0,1.25l.29,4,1.85-2.06a4.77,4.77,0,0,0,.72-.92l1.31-.09-.42.44-.37.4a2.42,2.42,0,0,0-.16.19l-1.42,1.52,2,2.26a10.11,10.11,0,0,0,1,1.08l-1.25.09a4.7,4.7,0,0,0-.77-1l-1.6-1.89-.87,1,.07.92a8.12,8.12,0,0,0,.17,1.22l-1,.07a8.2,8.2,0,0,0,0-1.25l-.42-5.86a8,8,0,0,0-.17-1.23Z"/><path class="cls-3" d="M367.55,44.48a6.77,6.77,0,0,0,0,1.21l.42,5.9a7,7,0,0,0,.18,1.22l-1,.07a6.78,6.78,0,0,0,0-1.24l-.2-2.78-5,.36.2,2.78a6.63,6.63,0,0,0,.18,1.22l-1,.07a6.47,6.47,0,0,0,0-1.24l-.42-5.88A6.62,6.62,0,0,0,360.7,45l1-.07a6.69,6.69,0,0,0,0,1.21l.17,2.35,5-.36-.17-2.33a6.63,6.63,0,0,0-.18-1.22Z"/><path class="cls-3" d="M373.52,47.12a9.26,9.26,0,0,0-.67,1l-2.13,3.32-.38.55.76-.08,1.73-.12a7.5,7.5,0,0,0,1.23-.17l.06.9a7.86,7.86,0,0,0-1.25,0l-2.33.17c-.68,0-.91.08-1.22.12l-.05-.72a8.72,8.72,0,0,0,.68-.94l2.18-3.4a4,4,0,0,1,.3-.42c-.29,0-.39.05-.55.06l-1.49.11a8.78,8.78,0,0,0-1.22.17l-.06-.89a8.75,8.75,0,0,0,1.23,0l2-.14a9.92,9.92,0,0,0,1.16-.12Z"/><path class="cls-3" d="M322.63,81.62a4.39,4.39,0,0,0,.84.15l.57.06a6.61,6.61,0,0,0,.85,0A8.41,8.41,0,0,0,324.7,83l-.24,2.12a2.06,2.06,0,0,0,1.05,1.25,7.66,7.66,0,0,0,2.39.5,30.08,30.08,0,0,0,4.26.26,2.71,2.71,0,0,0-.34.77c-1.52-.12-2.4-.2-3.5-.32a10,10,0,0,1-2.85-.55A2.57,2.57,0,0,1,324,85.68a11.44,11.44,0,0,1-1.45,1l-.43.29-.28-.76a6.76,6.76,0,0,0,1.91-1.13l.3-2.63-.72-.08a4.3,4.3,0,0,0-.8,0Zm1.21-3.94a14.83,14.83,0,0,1,1.53,2.13l-.61.43a10.44,10.44,0,0,0-1.47-2.17Zm3.21,2.82a7.18,7.18,0,0,0-1-.05l.08-.73a7.17,7.17,0,0,0,1,.18l2.33.27a11.85,11.85,0,0,0,1.25-1.92l.64.35a15.12,15.12,0,0,1-1.16,1.65l1,.11a6.9,6.9,0,0,0,1,.05l-.08.73a7.45,7.45,0,0,0-1-.19l-1.86-.21a11.78,11.78,0,0,1-.32,1.7l2.31.26a6.93,6.93,0,0,0,1.06.05l-.09.75a7.57,7.57,0,0,0-1.09-.19l-2-.23a4.49,4.49,0,0,0,.69,1.32A5.28,5.28,0,0,0,331.91,86a1.8,1.8,0,0,0-.48.61,5.9,5.9,0,0,1-1.87-1.48,4.76,4.76,0,0,1-1-1.79,5,5,0,0,1-3,2.53,1.53,1.53,0,0,0-.43-.62A4.1,4.1,0,0,0,328,83l-1.53-.17a7.56,7.56,0,0,0-1.08-.06l.09-.75a7.44,7.44,0,0,0,1.06.19l1.66.19a11.35,11.35,0,0,0,.31-1.7Zm.59-2.65a9,9,0,0,1,.78,1.72l-.63.27a8.17,8.17,0,0,0-.78-1.74Z"/><path class="cls-3" d="M334.86,87.45a10.89,10.89,0,0,0-.09,1.29l-.79-.09a11.34,11.34,0,0,0,.22-1.3l.42-3.65c.06-.55.08-.73.18-1.32a7.66,7.66,0,0,1-1.21,1.5,1.9,1.9,0,0,0-.37-.65,9.38,9.38,0,0,0,2.19-2.93A6.36,6.36,0,0,0,336,78.8l.72.31a5.57,5.57,0,0,0-.28.59,13.85,13.85,0,0,1-.89,1.69Zm1.54-6.52a5.61,5.61,0,0,0,.91.17l5.22.6a7.11,7.11,0,0,0,1.06.05l-.09.75a7.72,7.72,0,0,0-1.05-.19l-5.21-.59a5.89,5.89,0,0,0-.93,0Zm.51,8.05-.72-.08a8.17,8.17,0,0,0,.17-1l.15-1.3c0-.4.06-.76.07-1a6.88,6.88,0,0,0,.9.15l3.61.41a7.87,7.87,0,0,0,1,.07,9.35,9.35,0,0,0-.16,1l-.15,1.3a7.12,7.12,0,0,0-.06,1l-.73-.08.07-.58L337,88.4Zm5.47-5.1a5.67,5.67,0,0,0-.93-.16l-3.63-.41a4.92,4.92,0,0,0-.88,0l.08-.7a4.63,4.63,0,0,0,.87.15l3.62.41a5.5,5.5,0,0,0,1,.05Zm-.17,1.5a5.6,5.6,0,0,0-.93-.16l-3.63-.41a6.41,6.41,0,0,0-.88-.06l.08-.69a4.63,4.63,0,0,0,.87.15l3.63.41a5.44,5.44,0,0,0,.95.05Zm.51-4.51a9,9,0,0,0-1.09-.18l-3.39-.39a5.55,5.55,0,0,0-.95-.05l.08-.73a6.33,6.33,0,0,0,1,.18l3.33.38a6.8,6.8,0,0,0,1.12.06Zm-1.57,7.4.17-1.52-4.11-.47L337,87.8Z"/><path class="cls-3" d="M349.7,81.09a5.28,5.28,0,0,0,.9.16l.69.08a6.21,6.21,0,0,0,.91,0,18,18,0,0,0-.31,1.8l-.61,5.31a7.08,7.08,0,0,0-.05,1.25l-1-.12a6.91,6.91,0,0,0,.23-1.23l.72-6.33-.59-.07a6.65,6.65,0,0,0-1,0Z"/><path class="cls-3" d="M356.86,82a7.8,7.8,0,0,0-.22,1.23l-.45,4,2.2-1.69a4.77,4.77,0,0,0,.87-.78l1.3.15-.49.35-.44.33a2.42,2.42,0,0,0-.2.16l-1.68,1.24,1.57,2.59a10.11,10.11,0,0,0,.82,1.26l-1.25-.14a4.7,4.7,0,0,0-.57-1.12l-1.23-2.15-1,.78L356,89a8.12,8.12,0,0,0-.06,1.23l-1-.11a8.2,8.2,0,0,0,.22-1.23l.66-5.84a8,8,0,0,0,.06-1.24Z"/><path class="cls-3" d="M369.06,83.35a6.77,6.77,0,0,0-.22,1.19l-.67,5.88a7,7,0,0,0-.05,1.23l-1-.12a6.78,6.78,0,0,0,.23-1.21l.32-2.77L362.68,87l-.32,2.77a6.63,6.63,0,0,0-.05,1.23l-1-.12a6.47,6.47,0,0,0,.23-1.21l.67-5.86a6.62,6.62,0,0,0,.05-1.23l1,.12a6.69,6.69,0,0,0-.22,1.19l-.27,2.34,4.94.56.26-2.32a6.63,6.63,0,0,0,.05-1.23Z"/><path class="cls-3" d="M374.44,87a9.26,9.26,0,0,0-.83.81l-2.71,2.87-.47.47.76.06,1.73.2a7.5,7.5,0,0,0,1.24.06l-.1.9a7.86,7.86,0,0,0-1.23-.22l-2.32-.26c-.68-.08-.91-.09-1.22-.11l.08-.72a8.72,8.72,0,0,0,.84-.8L373,87.36a4,4,0,0,1,.37-.36c-.3,0-.4,0-.55,0l-1.49-.17a8.78,8.78,0,0,0-1.23-.06l.1-.89a8.75,8.75,0,0,0,1.21.22l1.95.22a9.92,9.92,0,0,0,1.16.1Z"/><rect class="cls-2" x="12.5" y="41.7" width="59.6" height="54.59"/><path class="cls-3" d="M31.75,49.91a7.88,7.88,0,0,0-.09-1.25c.39,0,.68,0,1.21,0h1.86c2.45,0,3.85,1.5,3.85,4.13a4.45,4.45,0,0,1-1.18,3.26,3.69,3.69,0,0,1-2.67,1H32.87c-.53,0-.83,0-1.21,0a7.68,7.68,0,0,0,.09-1.31Zm3,6.37a2.69,2.69,0,0,0,2.06-.78,3.75,3.75,0,0,0,.92-2.68,3.56,3.56,0,0,0-.87-2.61,2.71,2.71,0,0,0-2.07-.75H32.61v6.82Z"/><path class="cls-3" d="M44.83,50.86a1.79,1.79,0,0,0-.38-.91,2,2,0,0,0-1.63-.64c-1.13,0-1.92.6-1.92,1.5a1.29,1.29,0,0,0,1,1.24,8,8,0,0,0,1.57.4c1.76.37,2.46,1,2.46,2.32,0,1.55-1.07,2.43-3,2.43a3.14,3.14,0,0,1-2.65-1,2.83,2.83,0,0,1-.52-1.45l1-.12a1.71,1.71,0,0,0,.34,1.09,2.23,2.23,0,0,0,1.84.76c1.31,0,2.1-.62,2.1-1.64a1.26,1.26,0,0,0-.64-1.18,5.4,5.4,0,0,0-1.82-.54,5,5,0,0,1-1.5-.51,1.88,1.88,0,0,1-1-1.74c0-1.39,1.11-2.28,2.82-2.28a2.9,2.9,0,0,1,2.43,1,2.54,2.54,0,0,1,.48,1.17Z"/><path class="cls-3" d="M47.36,57.05a6.77,6.77,0,0,0,.09-1.23V49.91a8.07,8.07,0,0,0-.09-1.25c.4,0,.7,0,1.21,0h2.24c1.69,0,2.65.87,2.65,2.4a2.4,2.4,0,0,1-2.71,2.55H48.3v2.17a6.76,6.76,0,0,0,.09,1.24Zm3.4-4.17a1.62,1.62,0,0,0,1.83-1.75c0-1.1-.64-1.68-1.83-1.68H48.3v3.43Z"/><path class="cls-3" d="M21.38,67.32c-.13,2.85-1.06,4.19-3.54,5.16a1.93,1.93,0,0,0-.52-.72c2.28-.76,3.14-1.94,3.22-4.44h-3a8.66,8.66,0,0,0-1.27.06v-.81a7.34,7.34,0,0,0,1.28.07H24a7.24,7.24,0,0,0,1.28-.07v.81A8.64,8.64,0,0,0,24,67.32Zm-4-3.49a5.72,5.72,0,0,0,1.27.08H22a10,10,0,0,0,1.27-.06v.79l-1.25,0H18.66a7.69,7.69,0,0,0-1.25.05Zm6.45-.92a8.62,8.62,0,0,1,1.08,1.74l-.56.31a8.39,8.39,0,0,0-1.07-1.78Zm1.35-.42a9.23,9.23,0,0,1,1.08,1.74l-.56.31a8.59,8.59,0,0,0-1.07-1.77Z"/><path class="cls-3" d="M27.25,67.44a7.77,7.77,0,0,0,1.36.07H35a8.72,8.72,0,0,0,1.33-.05v.89a12.55,12.55,0,0,0-1.34,0H28.62a12,12,0,0,0-1.36,0Z"/><path class="cls-3" d="M42.29,63.28a3.6,3.6,0,0,0-.39.73,5.52,5.52,0,0,1-.34.61c.15,0,.15,0,3.4-.06a1.9,1.9,0,0,0,.64-.11l.5.5a2.45,2.45,0,0,0-.32.73,12.52,12.52,0,0,1-2.87,4.73,12.27,12.27,0,0,1-3.48,2.27,2,2,0,0,0-.54-.68,10,10,0,0,0,2.28-1.2A7.73,7.73,0,0,0,43.07,69a13.82,13.82,0,0,0-2.46-1.78l.51-.56a15.71,15.71,0,0,1,2.43,1.71,13.12,13.12,0,0,0,1.53-3.19l-3.85.06a10.94,10.94,0,0,1-2.62,2.93,2,2,0,0,0-.64-.53,9.57,9.57,0,0,0,2.81-3.14A6,6,0,0,0,41.42,63Z"/><path class="cls-3" d="M49.34,71.48a12.1,12.1,0,0,0,.07,1.35h-.81a10.46,10.46,0,0,0,.07-1.32V69.16c0-.46,0-.79,0-1.28A5,5,0,0,1,47.64,69a1.81,1.81,0,0,0-.4-.62,7.76,7.76,0,0,0,2-2.41,3.55,3.55,0,0,0,.31-.63l.64.37c-.1.15-.12.18-.22.35a8.62,8.62,0,0,1-.67,1Zm1-8.21c-.09.1-.13.15-.31.38a8.83,8.83,0,0,1-2.14,2.1,1.78,1.78,0,0,0-.46-.55,6.44,6.44,0,0,0,2-1.88,1.7,1.7,0,0,0,.26-.47Zm6,6.27a4.18,4.18,0,0,0-.29.31,8.42,8.42,0,0,1-1.58,1.42,9.64,9.64,0,0,0,3.13.89,2.46,2.46,0,0,0-.34.68,10.08,10.08,0,0,1-3.39-1.2,10.59,10.59,0,0,1-3.7,1.22,2.35,2.35,0,0,0-.32-.62,9.37,9.37,0,0,0,3.42-1A6.58,6.58,0,0,1,51.86,70a7.87,7.87,0,0,1-1.51,1.06,2.1,2.1,0,0,0-.45-.52,6.23,6.23,0,0,0,2.58-2.08h-.2a7,7,0,0,0-1,0,7.68,7.68,0,0,0,0-1V66.15c0-.36,0-.64,0-.83a7.88,7.88,0,0,1-.63.77,1.71,1.71,0,0,0-.53-.45,6.55,6.55,0,0,0,1.51-2.18,2.2,2.2,0,0,0,.21-.63l.73.23a4.64,4.64,0,0,0-.22.43,3.44,3.44,0,0,1-.18.36h3.71a8.31,8.31,0,0,0,1.33-.07v.74A9.48,9.48,0,0,0,56,64.47H51.89a7.25,7.25,0,0,1-.43.68c.27,0,.51,0,.88,0h3.12a7.86,7.86,0,0,0,1,0,9.7,9.7,0,0,0,0,1v1.31a10.27,10.27,0,0,0,0,1,7.85,7.85,0,0,0-1,0H53.2a7.26,7.26,0,0,1-.54.71h2.41a3.62,3.62,0,0,0,.85-.05Zm-4.33-3H55.8v-.83H52Zm0,1.38H55.8V67.1H52Zm.34,1.8a6.81,6.81,0,0,0,1.51,1.2,6.75,6.75,0,0,0,1.45-1.2Z"/><path class="cls-3" d="M59.66,67.86a7.87,7.87,0,0,0-1.13.07v-.78a7.63,7.63,0,0,0,1.13.07h7.53a7.79,7.79,0,0,0,1.14-.07v.78a8,8,0,0,0-1.14-.07H62.11A11.72,11.72,0,0,1,61.57,69h4a10.46,10.46,0,0,0,1.23,0,1.15,1.15,0,0,0,0,.2c0,.39,0,.39-.08.57A6.12,6.12,0,0,1,66,72.46c-.22.26-.57.36-1.27.36-.51,0-1.19,0-1.84-.11a2.39,2.39,0,0,0-.17-.74,14.91,14.91,0,0,0,2,.19c.5,0,.66-.06.78-.27A7.75,7.75,0,0,0,66,69.62H61.24c-.21.35-.31.51-.62,1l-.78-.17a10.22,10.22,0,0,0,1.49-2.55ZM60,64.13a6.3,6.3,0,0,0,0-.83,11.19,11.19,0,0,0,1.23.06h4.41a8.51,8.51,0,0,0,1.24-.06,6.3,6.3,0,0,0,0,.83v1.43a6.13,6.13,0,0,0,0,.81,11,11,0,0,0-1.16,0H61.13a11.56,11.56,0,0,0-1.17,0,6.46,6.46,0,0,0,0-.81ZM60.7,64v1.75h5.4V64Z"/><path class="cls-3" d="M27.51,81.33a9.64,9.64,0,0,0,0-1,7.62,7.62,0,0,0,1,0h2.43V79.05H27.64a8.87,8.87,0,0,0-1.16.07v-.76a8.41,8.41,0,0,0,1.16.07h7.44a8.76,8.76,0,0,0,1.16-.07v.76a9.11,9.11,0,0,0-1.16-.07H31.57v1.29H34.2a7.82,7.82,0,0,0,1,0,9.08,9.08,0,0,0,0,1v3h.09a6.71,6.71,0,0,0,1.06-.07V85A7.32,7.32,0,0,0,35.24,85h-.09v2c0,.74-.26.89-1.55.89-.36,0-.75,0-1.11,0a2.61,2.61,0,0,0-.17-.73,10.87,10.87,0,0,0,1.54.11c.48,0,.58-.07.58-.36V85H28.22v1.83a7.86,7.86,0,0,0,.07,1.16h-.85a9.05,9.05,0,0,0,.07-1.17V85h-.18a7.49,7.49,0,0,0-1,.07v-.75a6.81,6.81,0,0,0,1.06.07h.17Zm3.38,1V81H28.22v1.35Zm0,2V82.9H28.22v1.44Zm3.56-2V81H31.57v1.35Zm0,2V82.9H31.57v1.44Z"/><path class="cls-3" d="M45.17,84.29l-.34.35A9.38,9.38,0,0,1,43,86.16a11.61,11.61,0,0,0,4.33,1,2.79,2.79,0,0,0-.4.73,13,13,0,0,1-4.57-1.4,11.26,11.26,0,0,1-2.42.91,18,18,0,0,1-2.33.43,1.88,1.88,0,0,0-.37-.68,11.37,11.37,0,0,0,4.48-1.06,8.15,8.15,0,0,1-1.57-1.35,9.26,9.26,0,0,1-1.89,1.13,3.54,3.54,0,0,0-.42-.53,7.59,7.59,0,0,0,2.5-1.54,4.2,4.2,0,0,0,.9-1.09l.65.29c-.08.08-.09.1-.17.19s-.4.46-.58.66H43.7a7.32,7.32,0,0,0,1-.05Zm-5-3.89a6.24,6.24,0,0,1-.95,1.45,6.51,6.51,0,0,1-1.08,1,2.68,2.68,0,0,0-.57-.47,5,5,0,0,0,1.09-.9,4.4,4.4,0,0,0,.88-1.37Zm-1.37-.69a8,8,0,0,0-1.18.06V79a7.9,7.9,0,0,0,1.21.07h3.13v-.32a3.78,3.78,0,0,0-.07-.77h.86a3.86,3.86,0,0,0-.07.77v.32h3.15A8.45,8.45,0,0,0,47,79v.74c-.35,0-.75-.06-1.22-.06H43.86v2.51c0,.54-.19.7-.78.7-.26,0-.63,0-.92,0a1.58,1.58,0,0,0-.2-.65,6,6,0,0,0,.93.08c.24,0,.3,0,.3-.25V79.7H41.84c-.06,1.89-.51,2.72-2,3.59a2.11,2.11,0,0,0-.57-.48,2.83,2.83,0,0,0,1.54-1.34,3.9,3.9,0,0,0,.33-1.76Zm1.93,4.76a7.88,7.88,0,0,0,1.68,1.35,7.05,7.05,0,0,0,1.71-1.35Zm4.2-4.26a17.82,17.82,0,0,1,2.06,2.21l-.62.47a11.38,11.38,0,0,0-1.95-2.3Z"/><path class="cls-3" d="M48.43,79.88a4.81,4.81,0,0,0,.88.06h1.78a4.33,4.33,0,0,0,.88-.06v.72a5,5,0,0,0-.8,0H49.31a6.44,6.44,0,0,0-.88,0Zm.33,8c0-.32.05-.7.05-1.07V85.35a7.7,7.7,0,0,0,0-.9,3.5,3.5,0,0,0,.7,0h2.17a6.32,6.32,0,0,0,0,.85v1.28c0,.32,0,.53,0,.67-.12,0-.33,0-.62,0H49.44v.65Zm0-6.45a4.39,4.39,0,0,0,.75,0h1.41a4.21,4.21,0,0,0,.73,0v.68a4.56,4.56,0,0,0-.73,0H49.54a4.5,4.5,0,0,0-.75,0Zm0,1.51a4.23,4.23,0,0,0,.75,0h1.4a4.18,4.18,0,0,0,.74,0v.68a4.62,4.62,0,0,0-.74,0H49.53a4.36,4.36,0,0,0-.74,0Zm0-4.59a3.86,3.86,0,0,0,.79.06h1.33a3.92,3.92,0,0,0,.79-.06v.69a5.39,5.39,0,0,0-.79,0H49.61a5.49,5.49,0,0,0-.79,0Zm.62,8.31H51V85H49.43Zm8.5.26a.78.78,0,0,1-.29.69,1.7,1.7,0,0,1-.87.14c-.24,0-.39,0-1.06-.05a2.29,2.29,0,0,0-.14-.7,7.59,7.59,0,0,0,1.3.12c.32,0,.4-.07.4-.33V79h-4.1V80.3a40.3,40.3,0,0,1-.26,5.46,6.32,6.32,0,0,1-.69,2.2,1.35,1.35,0,0,0-.56-.48,5,5,0,0,0,.64-2.1,44.21,44.21,0,0,0,.23-5.25,12.33,12.33,0,0,0-.07-1.75,8.8,8.8,0,0,0,1.07,0h3.39a8.45,8.45,0,0,0,1.07,0,9,9,0,0,0,0,1.08Zm-3.6-6.06a5.59,5.59,0,0,0-.78,0v-.64a4.62,4.62,0,0,0,.77.05h.55v-.15a4.44,4.44,0,0,0-.06-.86h.69a4.51,4.51,0,0,0-.05.87v.14H56a4.38,4.38,0,0,0,.8-.05v.64a5.24,5.24,0,0,0-.8,0h-.57V82h.73A3.76,3.76,0,0,0,57,82v.66a3.75,3.75,0,0,0-.77-.05h-2a3.72,3.72,0,0,0-.75.05V82a3.61,3.61,0,0,0,.75.06h.69V80.87Zm2.17,4.65a4.16,4.16,0,0,0,0,.59h-.26l-.52,0H54.37v.73h-.64a5.29,5.29,0,0,0,0-.84V84.08a6.39,6.39,0,0,0,0-.71,7.44,7.44,0,0,0,.76,0h1.25a6.64,6.64,0,0,0,.78,0,5.64,5.64,0,0,0,0,.68Zm-2.13,0h1.55V83.95H54.37Z"/><line class="cls-2" x1="94.52" y1="47.74" x2="77.63" y2="47.74"/><polygon class="cls-3" points="78.75 43.9 72.1 47.74 78.75 51.58 78.75 43.9"/><line class="cls-2" x1="72.1" y1="87.93" x2="89" y2="87.93"/><polygon class="cls-3" points="87.87 91.77 94.52 87.93 87.87 84.09 87.87 91.77"/><rect class="cls-2" x="466.77" y="41.7" width="59.6" height="54.59"/><path class="cls-3" d="M486,49.91a7.88,7.88,0,0,0-.09-1.25c.39,0,.68,0,1.21,0H489c2.45,0,3.85,1.5,3.85,4.13a4.45,4.45,0,0,1-1.18,3.26,3.69,3.69,0,0,1-2.67,1h-1.86c-.53,0-.83,0-1.21,0a7.68,7.68,0,0,0,.09-1.31Zm3,6.37A2.69,2.69,0,0,0,491,55.5a3.75,3.75,0,0,0,.92-2.68,3.56,3.56,0,0,0-.87-2.61,2.71,2.71,0,0,0-2.07-.75h-2.15v6.82Z"/><path class="cls-3" d="M499.09,50.86a1.79,1.79,0,0,0-.38-.91,2,2,0,0,0-1.63-.64c-1.13,0-1.92.6-1.92,1.5a1.29,1.29,0,0,0,1,1.24,8,8,0,0,0,1.57.4c1.76.37,2.46,1,2.46,2.32,0,1.55-1.07,2.43-3,2.43a3.14,3.14,0,0,1-2.65-1A2.83,2.83,0,0,1,494,54.7l1-.12a1.71,1.71,0,0,0,.34,1.09,2.23,2.23,0,0,0,1.84.76c1.31,0,2.1-.62,2.1-1.64a1.26,1.26,0,0,0-.64-1.18,5.4,5.4,0,0,0-1.82-.54,5,5,0,0,1-1.5-.51,1.88,1.88,0,0,1-1-1.74c0-1.39,1.11-2.28,2.82-2.28a2.9,2.9,0,0,1,2.43,1,2.54,2.54,0,0,1,.48,1.17Z"/><path class="cls-3" d="M501.62,57.05a6.77,6.77,0,0,0,.09-1.23V49.91a8.07,8.07,0,0,0-.09-1.25c.4,0,.7,0,1.21,0h2.24c1.69,0,2.65.87,2.65,2.4A2.4,2.4,0,0,1,505,53.64h-2.45v2.17a6.76,6.76,0,0,0,.09,1.24Zm3.4-4.17a1.62,1.62,0,0,0,1.83-1.75c0-1.1-.64-1.68-1.83-1.68h-2.45v3.43Z"/><path class="cls-3" d="M475.65,67.32c-.13,2.85-1.06,4.19-3.54,5.16a1.93,1.93,0,0,0-.52-.72c2.28-.76,3.14-1.94,3.22-4.44h-3a8.66,8.66,0,0,0-1.27.06v-.81a7.34,7.34,0,0,0,1.28.07h6.44a7.24,7.24,0,0,0,1.28-.07v.81a8.64,8.64,0,0,0-1.26-.06Zm-4-3.49a5.72,5.72,0,0,0,1.27.08h3.32a10,10,0,0,0,1.27-.06v.79l-1.25,0h-3.34a7.69,7.69,0,0,0-1.25.05Zm6.45-.92a8.62,8.62,0,0,1,1.08,1.74l-.56.31a8.39,8.39,0,0,0-1.07-1.78Zm1.35-.42a9.23,9.23,0,0,1,1.08,1.74l-.56.31a8.59,8.59,0,0,0-1.07-1.77Z"/><path class="cls-3" d="M481.52,67.44a7.77,7.77,0,0,0,1.36.07h6.39a8.72,8.72,0,0,0,1.33-.05v.89a12.55,12.55,0,0,0-1.34,0h-6.38a12,12,0,0,0-1.36,0Z"/><path class="cls-3" d="M496.56,63.28a3.6,3.6,0,0,0-.39.73,5.52,5.52,0,0,1-.34.61c.15,0,.15,0,3.4-.06a1.9,1.9,0,0,0,.64-.11l.5.5a2.45,2.45,0,0,0-.32.73,12.52,12.52,0,0,1-2.87,4.73,12.27,12.27,0,0,1-3.48,2.27,2,2,0,0,0-.54-.68,10,10,0,0,0,2.28-1.2,7.73,7.73,0,0,0,1.9-1.74,13.82,13.82,0,0,0-2.46-1.78l.51-.56a15.71,15.71,0,0,1,2.43,1.71,13.12,13.12,0,0,0,1.53-3.19l-3.85.06a10.94,10.94,0,0,1-2.62,2.93,2,2,0,0,0-.64-.53A9.57,9.57,0,0,0,495,64.54a6,6,0,0,0,.65-1.51Z"/><path class="cls-3" d="M503.61,71.48a12.1,12.1,0,0,0,.07,1.35h-.81a10.46,10.46,0,0,0,.07-1.32V69.16c0-.46,0-.79,0-1.28A5,5,0,0,1,501.9,69a1.81,1.81,0,0,0-.4-.62,7.76,7.76,0,0,0,2-2.41,3.55,3.55,0,0,0,.31-.63l.64.37c-.1.15-.12.18-.22.35a8.62,8.62,0,0,1-.67,1Zm1-8.21c-.09.1-.13.15-.31.38a8.83,8.83,0,0,1-2.14,2.1,1.78,1.78,0,0,0-.46-.55,6.44,6.44,0,0,0,2-1.88,1.7,1.7,0,0,0,.26-.47Zm6,6.27a4.18,4.18,0,0,0-.29.31,8.42,8.42,0,0,1-1.58,1.42,9.64,9.64,0,0,0,3.13.89,2.46,2.46,0,0,0-.34.68,10.08,10.08,0,0,1-3.39-1.2,10.59,10.59,0,0,1-3.7,1.22,2.35,2.35,0,0,0-.32-.62,9.37,9.37,0,0,0,3.42-1A6.58,6.58,0,0,1,506.13,70a7.87,7.87,0,0,1-1.51,1.06,2.1,2.1,0,0,0-.45-.52,6.23,6.23,0,0,0,2.58-2.08h-.2a7,7,0,0,0-1,0,7.68,7.68,0,0,0,0-1V66.15c0-.36,0-.64,0-.83a7.88,7.88,0,0,1-.63.77,1.71,1.71,0,0,0-.53-.45A6.55,6.55,0,0,0,506,63.47a2.2,2.2,0,0,0,.21-.63l.73.23a4.64,4.64,0,0,0-.22.43,3.44,3.44,0,0,1-.18.36h3.71a8.31,8.31,0,0,0,1.33-.07v.74a9.48,9.48,0,0,0-1.31-.07h-4.06a7.25,7.25,0,0,1-.43.68c.27,0,.51,0,.88,0h3.12a7.86,7.86,0,0,0,1,0,9.7,9.7,0,0,0,0,1v1.31a10.27,10.27,0,0,0,0,1,7.85,7.85,0,0,0-1,0h-2.31a7.26,7.26,0,0,1-.54.71h2.41a3.62,3.62,0,0,0,.85-.05Zm-4.33-3h3.78v-.83h-3.78Zm0,1.38h3.78V67.1h-3.78Zm.34,1.8a6.81,6.81,0,0,0,1.51,1.2,6.75,6.75,0,0,0,1.45-1.2Z"/><path class="cls-3" d="M513.93,67.86a7.87,7.87,0,0,0-1.13.07v-.78a7.63,7.63,0,0,0,1.13.07h7.53a7.79,7.79,0,0,0,1.14-.07v.78a8,8,0,0,0-1.14-.07h-5.07a11.72,11.72,0,0,1-.54,1.14h4a10.46,10.46,0,0,0,1.23,0,1.15,1.15,0,0,0,0,.2c0,.39,0,.39-.08.57a6.12,6.12,0,0,1-.73,2.73c-.22.26-.57.36-1.27.36-.51,0-1.19,0-1.84-.11A2.39,2.39,0,0,0,517,72a14.91,14.91,0,0,0,2,.19c.5,0,.66-.06.78-.27a7.75,7.75,0,0,0,.51-2.27h-4.75c-.21.35-.31.51-.62,1l-.78-.17a10.22,10.22,0,0,0,1.49-2.55Zm.35-3.73a6.3,6.3,0,0,0,0-.83,11.19,11.19,0,0,0,1.23.06h4.41a8.51,8.51,0,0,0,1.24-.06,6.3,6.3,0,0,0,0,.83v1.43a6.13,6.13,0,0,0,0,.81,11,11,0,0,0-1.16,0H515.4a11.56,11.56,0,0,0-1.17,0,6.46,6.46,0,0,0,0-.81ZM515,64v1.75h5.4V64Z"/><path class="cls-3" d="M481.77,81.33a9.64,9.64,0,0,0,0-1,7.62,7.62,0,0,0,1,0h2.43V79.05h-3.25a8.87,8.87,0,0,0-1.16.07v-.76a8.41,8.41,0,0,0,1.16.07h7.44a8.76,8.76,0,0,0,1.16-.07v.76a9.11,9.11,0,0,0-1.16-.07h-3.51v1.29h2.63a7.82,7.82,0,0,0,1,0,9.08,9.08,0,0,0,0,1v3h.09a6.71,6.71,0,0,0,1.06-.07V85a7.32,7.32,0,0,0-1.06-.07h-.09v2c0,.74-.26.89-1.55.89-.36,0-.75,0-1.11,0a2.61,2.61,0,0,0-.17-.73,10.87,10.87,0,0,0,1.54.11c.48,0,.58-.07.58-.36V85h-6.23v1.83a7.86,7.86,0,0,0,.07,1.16h-.85a9.05,9.05,0,0,0,.07-1.17V85h-.18a7.49,7.49,0,0,0-1,.07v-.75a6.81,6.81,0,0,0,1.06.07h.17Zm3.38,1V81h-2.66v1.35Zm0,2V82.9h-2.66v1.44Zm3.56-2V81h-2.88v1.35Zm0,2V82.9h-2.88v1.44Z"/><path class="cls-3" d="M499.44,84.29l-.34.35a9.38,9.38,0,0,1-1.82,1.52,11.61,11.61,0,0,0,4.33,1,2.79,2.79,0,0,0-.4.73,13,13,0,0,1-4.57-1.4,11.26,11.26,0,0,1-2.42.91,18,18,0,0,1-2.33.43,1.88,1.88,0,0,0-.37-.68A11.37,11.37,0,0,0,496,86.14a8.15,8.15,0,0,1-1.57-1.35,9.26,9.26,0,0,1-1.89,1.13,3.54,3.54,0,0,0-.42-.53,7.59,7.59,0,0,0,2.5-1.54,4.2,4.2,0,0,0,.9-1.09l.65.29c-.08.08-.09.1-.17.19s-.4.46-.58.66H498a7.32,7.32,0,0,0,1-.05Zm-5-3.89a6.24,6.24,0,0,1-.95,1.45,6.51,6.51,0,0,1-1.08,1,2.68,2.68,0,0,0-.57-.47,5,5,0,0,0,1.09-.9,4.4,4.4,0,0,0,.88-1.37ZM493,79.7a8,8,0,0,0-1.18.06V79a7.9,7.9,0,0,0,1.21.07h3.13v-.32a3.78,3.78,0,0,0-.07-.77H497a3.86,3.86,0,0,0-.07.77v.32h3.15a8.45,8.45,0,0,0,1.23-.07v.74c-.35,0-.75-.06-1.22-.06h-1.94v2.51c0,.54-.19.7-.78.7-.26,0-.63,0-.92,0a1.58,1.58,0,0,0-.2-.65,6,6,0,0,0,.93.08c.24,0,.3,0,.3-.25V79.7h-1.35c-.06,1.89-.51,2.72-2,3.59a2.11,2.11,0,0,0-.57-.48,2.83,2.83,0,0,0,1.54-1.34,3.9,3.9,0,0,0,.33-1.76ZM495,84.47a7.88,7.88,0,0,0,1.68,1.35,7.05,7.05,0,0,0,1.71-1.35Zm4.2-4.26a17.82,17.82,0,0,1,2.06,2.21l-.62.47a11.38,11.38,0,0,0-1.95-2.3Z"/><path class="cls-3" d="M502.7,79.88a4.81,4.81,0,0,0,.88.06h1.78a4.33,4.33,0,0,0,.88-.06v.72a5,5,0,0,0-.8,0h-1.86a6.44,6.44,0,0,0-.88,0Zm.33,8c0-.32.05-.7.05-1.07V85.35a7.7,7.7,0,0,0,0-.9,3.5,3.5,0,0,0,.7,0h2.17a6.32,6.32,0,0,0,0,.85v1.28c0,.32,0,.53,0,.67-.12,0-.33,0-.62,0h-1.57v.65Zm0-6.45a4.39,4.39,0,0,0,.75,0h1.41a4.21,4.21,0,0,0,.73,0v.68a4.56,4.56,0,0,0-.73,0h-1.41a4.5,4.5,0,0,0-.75,0Zm0,1.51a4.23,4.23,0,0,0,.75,0h1.4a4.18,4.18,0,0,0,.74,0v.68a4.62,4.62,0,0,0-.74,0H503.8a4.36,4.36,0,0,0-.74,0Zm0-4.59a3.86,3.86,0,0,0,.79.06h1.33a3.92,3.92,0,0,0,.79-.06v.69a5.39,5.39,0,0,0-.79,0h-1.33a5.49,5.49,0,0,0-.79,0Zm.62,8.31h1.58V85H503.7Zm8.5.26a.78.78,0,0,1-.29.69,1.7,1.7,0,0,1-.87.14c-.24,0-.39,0-1.06-.05a2.29,2.29,0,0,0-.14-.7,7.59,7.59,0,0,0,1.3.12c.32,0,.4-.07.4-.33V79h-4.1V80.3a40.3,40.3,0,0,1-.26,5.46,6.32,6.32,0,0,1-.69,2.2,1.35,1.35,0,0,0-.56-.48,5,5,0,0,0,.64-2.1,44.21,44.21,0,0,0,.23-5.25,12.33,12.33,0,0,0-.07-1.75,8.8,8.8,0,0,0,1.07,0h3.39a8.45,8.45,0,0,0,1.07,0,9,9,0,0,0,0,1.08Zm-3.6-6.06a5.59,5.59,0,0,0-.78,0v-.64a4.62,4.62,0,0,0,.77.05h.55v-.15a4.44,4.44,0,0,0-.06-.86h.69a4.51,4.51,0,0,0-.05.87v.14h.57a4.38,4.38,0,0,0,.8-.05v.64a5.24,5.24,0,0,0-.8,0h-.57V82h.73a3.76,3.76,0,0,0,.78-.06v.66a3.75,3.75,0,0,0-.77-.05h-2a3.72,3.72,0,0,0-.75.05V82a3.61,3.61,0,0,0,.75.06h.69V80.87Zm2.17,4.65a4.16,4.16,0,0,0,0,.59h-.26l-.52,0h-1.39v.73H508a5.29,5.29,0,0,0,0-.84V84.08a6.39,6.39,0,0,0,0-.71,7.44,7.44,0,0,0,.76,0H510a6.64,6.64,0,0,0,.78,0,5.64,5.64,0,0,0,0,.68Zm-2.13,0h1.55V83.95h-1.55Z"/><line class="cls-2" x1="444.37" y1="47.74" x2="461.26" y2="47.74"/><polygon class="cls-3" points="460.14 51.58 466.79 47.74 460.14 43.9 460.14 51.58"/><line class="cls-2" x1="466.79" y1="87.93" x2="449.9" y2="87.93"/><polygon class="cls-3" points="451.02 84.09 444.37 87.93 451.02 91.77 451.02 84.09"/><rect class="cls-2" x="0.5" y="0.5" width="535.67" height="136.08"/></g></g></svg>