<svg xmlns="http://www.w3.org/2000/svg" viewBox="0 0 536.67 382.44"><defs><style>.cls-1{fill:#fff;}.cls-1,.cls-2{stroke:#231815;stroke-miterlimit:10;}.cls-2{fill:none;}.cls-3{fill:#231815;}</style></defs><title>Asset 12</title><g id="Layer_2" data-name="Layer 2"><g id="Layer_1-2" data-name="Layer 1"><rect class="cls-1" x="95.16" y="75.07" width="12.45" height="22.57" transform="translate(202.77 172.71) rotate(-180)"/><polygon class="cls-1" points="107.61 97.64 120.07 106.6 120.07 66.12 107.61 75.07 107.61 97.64"/><circle class="cls-1" cx="125.91" cy="47.74" r="8.79"/><polygon class="cls-1" points="94.52 42.71 125.37 38.71 125.37 56.77 94.52 52.78 94.52 42.71"/><rect class="cls-1" x="430.54" y="75.07" width="12.45" height="22.57"/><polygon class="cls-1" points="430.54 97.64 418.08 106.6 418.08 66.12 430.54 75.07 430.54 97.64"/><circle class="cls-1" cx="413.24" cy="47.74" r="8.79"/><polygon class="cls-1" points="444.63 42.71 413.78 38.71 413.78 56.77 444.63 52.78 444.63 42.71"/><path class="cls-2" d="M203.47,213.92"/><path class="cls-2" d="M204.46,182.85"/><polygon class="cls-2" points="231.01 88.85 231.48 93.21 247.69 78.93 228.8 68.44 229.29 72.94 229.31 73.17 157.25 80.97 158.94 96.52 231 88.72 231.01 88.85"/><polygon class="cls-2" points="159.64 38.98 159.96 34.62 141.45 45.76 158.15 59.46 158.48 54.95 158.49 54.72 230.78 59.99 231.92 44.39 159.63 39.11 159.64 38.98"/><polygon class="cls-2" points="312.22 89.4 311.75 93.76 295.55 79.47 314.43 68.99 313.95 73.49 313.92 73.72 385.98 81.52 384.3 97.07 312.24 89.27 312.22 89.4"/><polygon class="cls-2" points="383.59 39.53 383.27 35.16 401.78 46.3 385.08 60.01 384.76 55.49 384.74 55.27 312.45 60.54 311.31 44.93 383.6 39.66 383.59 39.53"/><path class="cls-2" d="M203.47,213.92"/><path class="cls-2" d="M203.47,182.32"/><path class="cls-2" d="M203.47,213.92"/><path class="cls-3" d="M169.2,87a4.39,4.39,0,0,0,.85,0l.57-.06a6.61,6.61,0,0,0,.84-.15,8.41,8.41,0,0,0,.08,1.16l.24,2.12a2.06,2.06,0,0,0,1.31,1,7.66,7.66,0,0,0,2.44,0,30.08,30.08,0,0,0,4.21-.7,2.71,2.71,0,0,0-.16.83c-1.5.23-2.38.35-3.48.47a10,10,0,0,1-2.9.11,2.57,2.57,0,0,1-1.71-1A11.44,11.44,0,0,1,170.29,92l-.35.38-.44-.68a6.76,6.76,0,0,0,1.61-1.53l-.3-2.63-.72.08a4.3,4.3,0,0,0-.79.15Zm.3-4.11a14.83,14.83,0,0,1,2,1.74l-.5.56A10.44,10.44,0,0,0,169,83.44Zm3.76,2a7.18,7.18,0,0,0-1,.18l-.08-.73a7.17,7.17,0,0,0,1-.05l2.33-.27a11.85,11.85,0,0,0,.78-2.15l.7.2a15.12,15.12,0,0,1-.76,1.87l1-.11a6.9,6.9,0,0,0,1-.18l.08.73a7.45,7.45,0,0,0-1.06.05l-1.86.21a11.78,11.78,0,0,1,.08,1.73l2.31-.26a6.93,6.93,0,0,0,1-.19l.09.75a7.57,7.57,0,0,0-1.1.06l-2,.23a4.49,4.49,0,0,0,1,1.13,5.28,5.28,0,0,0,2.43,1.11,1.8,1.8,0,0,0-.33.7,5.9,5.9,0,0,1-2.15-1,4.76,4.76,0,0,1-1.36-1.53A5,5,0,0,1,173,90.57a1.53,1.53,0,0,0-.56-.51,4.1,4.1,0,0,0,2.27-2.89l-1.53.17a7.56,7.56,0,0,0-1.06.19l-.09-.75a7.45,7.45,0,0,0,1.08-.06l1.66-.19a11.35,11.35,0,0,0-.09-1.73Zm0-2.71a9,9,0,0,1,1.14,1.5l-.55.41a8.17,8.17,0,0,0-1.15-1.52Z"/><path class="cls-3" d="M182.42,90a11.12,11.12,0,0,0,.2,1.27l-.79.09a11.34,11.34,0,0,0-.08-1.32l-.42-3.65c-.06-.55-.08-.73-.12-1.33a7.66,7.66,0,0,1-.84,1.74,1.9,1.9,0,0,0-.51-.55,9.38,9.38,0,0,0,1.48-3.35,6.36,6.36,0,0,0,.24-1.59l.77.14a5.57,5.57,0,0,0-.14.64,13.85,13.85,0,0,1-.49,1.85Zm0-6.7a5.61,5.61,0,0,0,.93,0l5.22-.6a7.11,7.11,0,0,0,1-.19l.09.75a7.72,7.72,0,0,0-1.07.06l-5.21.59a5.89,5.89,0,0,0-.91.17ZM184.77,91l-.72.08a8.17,8.17,0,0,0-.06-1l-.15-1.3c0-.4-.11-.75-.16-1a6.88,6.88,0,0,0,.91-.06l3.61-.41a7.87,7.87,0,0,0,1-.16,9.35,9.35,0,0,0,.07,1l.15,1.3a7.12,7.12,0,0,0,.17,1l-.73.08-.07-.58-4.11.47ZM189,84.8a5.67,5.67,0,0,0-.95.05l-3.63.41a4.92,4.92,0,0,0-.87.15l-.08-.7a4.63,4.63,0,0,0,.88,0l3.62-.41a5.5,5.5,0,0,0,.94-.16Zm.17,1.5a5.6,5.6,0,0,0-.95.05l-3.63.41a6.41,6.41,0,0,0-.87.14l-.08-.69a4.63,4.63,0,0,0,.88,0l3.63-.41a5.44,5.44,0,0,0,.93-.16Zm-.51-4.51a9,9,0,0,0-1.1.07l-3.39.39a5.55,5.55,0,0,0-.93.16l-.08-.73a6.33,6.33,0,0,0,1,0l3.33-.38a6.8,6.8,0,0,0,1.11-.19Zm.13,7.57-.17-1.52-4.11.47.17,1.52Z"/><path class="cls-3" d="M194.65,86.06c.2-.29.42-.62.62-.92l2.37-3.77a12.35,12.35,0,0,0,.69-1.21l.82-.09a18,18,0,0,0,.14,1.85l.41,3.59.42,0a7.38,7.38,0,0,0,1.13-.21l.1.91a7.59,7.59,0,0,0-1.16.05l-.4,0,.11.94a6.28,6.28,0,0,0,.22,1.17l-1,.11a6.44,6.44,0,0,0,0-1.19l-.11-.94-2.93.33c-.61.07-.94.12-1.3.19Zm3.93-3.23a13.47,13.47,0,0,1-.1-1.49c-.19.35-.42.75-.7,1.19L195.63,86l3.27-.37Z"/><path class="cls-3" d="M202.67,79.67a7.8,7.8,0,0,0,.06,1.24l.45,4,1.76-2.14a4.77,4.77,0,0,0,.68-1l1.3-.15-.4.46-.35.42a2.42,2.42,0,0,0-.16.2l-1.36,1.58,2.12,2.17a10.11,10.11,0,0,0,1.08,1l-1.25.14a4.7,4.7,0,0,0-.81-1l-1.68-1.82-.83,1,.1.92a8.12,8.12,0,0,0,.22,1.22l-1,.11a8.2,8.2,0,0,0-.06-1.24L201.91,81a8,8,0,0,0-.22-1.23Z"/><path class="cls-3" d="M214.87,78.28a6.77,6.77,0,0,0,0,1.21l.67,5.88a7,7,0,0,0,.23,1.21l-1,.12a6.78,6.78,0,0,0-.05-1.23l-.32-2.77-4.94.56.32,2.77a6.63,6.63,0,0,0,.23,1.21l-1,.12a6.47,6.47,0,0,0-.05-1.23l-.67-5.86a6.62,6.62,0,0,0-.23-1.21l1-.12a6.69,6.69,0,0,0,0,1.21l.27,2.34,4.94-.56-.26-2.32a6.63,6.63,0,0,0-.23-1.21Z"/><path class="cls-3" d="M220.94,80.66a9.26,9.26,0,0,0-.63,1l-2,3.41-.36.56.75-.11,1.73-.2a7.5,7.5,0,0,0,1.23-.22l.1.9a7.86,7.86,0,0,0-1.24.06l-2.32.26c-.68.08-.91.11-1.21.17l-.08-.72a8.72,8.72,0,0,0,.64-1l2-3.49a4,4,0,0,1,.28-.43c-.29.06-.39.07-.54.08l-1.49.17a8.78,8.78,0,0,0-1.21.22l-.1-.89a8.75,8.75,0,0,0,1.23-.06l1.95-.22a9.92,9.92,0,0,0,1.15-.16Z"/><polygon class="cls-2" points="232.01 118.4 231.96 122.78 251.87 110.54 232.23 97.87 232.18 102.4 232.18 102.63 150.97 101.74 150.8 117.39 232.01 118.27 232.01 118.4"/><path class="cls-3" d="M178.6,48.95a3.27,3.27,0,0,0-.4.37,10,10,0,0,1-2.38,1.95,11.56,11.56,0,0,0,4.24,1.67,3.32,3.32,0,0,0-.45.68,11.15,11.15,0,0,1-4.46-2,13.28,13.28,0,0,1-4.58,1.32,2.74,2.74,0,0,0-.35-.72,11.87,11.87,0,0,0,4.37-1.07,7.28,7.28,0,0,1-1.79-2.48,7.76,7.76,0,0,0-.82,0l.05-.73a7.15,7.15,0,0,0,1.09.15l4.08.3a5.26,5.26,0,0,0,1,0ZM173,46.2a9.35,9.35,0,0,0-.48-1.51l-1,0a1.92,1.92,0,0,0-.21-.67,35.32,35.32,0,0,0,5.16.05,11.41,11.41,0,0,0,2.92-.43l.44.68a3.13,3.13,0,0,0-.45.07,30.92,30.92,0,0,1-3.8.35,10.78,10.78,0,0,1,.46,1.72l1.27.09a9.17,9.17,0,0,0,1.06-1.89l.7.3a18.6,18.6,0,0,1-1,1.64l.93.07a11.64,11.64,0,0,0,1.25,0,6.48,6.48,0,0,0-.1.83l-.05.71a3.23,3.23,0,0,0,0,.68l-.75-.05.11-1.54-7.94-.57-.12,1.59-.75-.05a5.52,5.52,0,0,0,.11-.78l0-.69c0-.29,0-.53,0-.83a10.32,10.32,0,0,0,1.35.15Zm2.39.17a10.21,10.21,0,0,0-.46-1.66c-.55,0-.93,0-1.73,0a10.52,10.52,0,0,1,.51,1.55Zm-1.82,2.35a6,6,0,0,0,1.69,2.11A8.63,8.63,0,0,0,177.55,49Z"/><path class="cls-3" d="M183,52.6a10.89,10.89,0,0,0,0,1.29l-.79-.06a11.34,11.34,0,0,0,.16-1.31l.27-3.66c0-.55.05-.74.13-1.33a7.66,7.66,0,0,1-1.15,1.55,1.9,1.9,0,0,0-.4-.64,9.38,9.38,0,0,0,2.07-3,6.36,6.36,0,0,0,.53-1.52l.73.28a5.57,5.57,0,0,0-.25.6,13.85,13.85,0,0,1-.82,1.73ZM184.28,46a5.61,5.61,0,0,0,.92.13l5.25.38a7.11,7.11,0,0,0,1.06,0l-.05.76a7.72,7.72,0,0,0-1.06-.14l-5.23-.38a5.89,5.89,0,0,0-.93,0Zm.84,8L184.4,54a8.17,8.17,0,0,0,.13-1l.09-1.31c0-.41,0-.76,0-1a6.88,6.88,0,0,0,.91.11l3.62.26a7.87,7.87,0,0,0,1,0,9.35,9.35,0,0,0-.12,1L190,53.38a7.12,7.12,0,0,0,0,1l-.74-.05,0-.58-4.12-.3Zm5.26-5.32a5.67,5.67,0,0,0-.94-.12l-3.64-.26a4.92,4.92,0,0,0-.88,0l.05-.7a4.63,4.63,0,0,0,.87.12l3.63.26a5.5,5.5,0,0,0,1,0Zm-.11,1.5a5.6,5.6,0,0,0-.94-.12l-3.64-.26a6.41,6.41,0,0,0-.88,0l0-.69a4.63,4.63,0,0,0,.87.12l3.64.26a5.44,5.44,0,0,0,.95,0Zm.33-4.53a9,9,0,0,0-1.09-.13l-3.4-.25a5.55,5.55,0,0,0-.95,0l.05-.74a6.33,6.33,0,0,0,1,.14l3.35.24a6.8,6.8,0,0,0,1.12,0Zm-1.27,7.46.11-1.52-4.12-.3-.11,1.52Z"/><path class="cls-3" d="M197.58,45.63a5.28,5.28,0,0,0,.91.12l.69.05a6.21,6.21,0,0,0,.91,0,18,18,0,0,0-.23,1.81L199.48,53a7.08,7.08,0,0,0,0,1.25l-1-.08a6.91,6.91,0,0,0,.18-1.23l.46-6.35-.59,0a6.65,6.65,0,0,0-1,0Z"/><path class="cls-3" d="M204.77,46.21a7.8,7.8,0,0,0-.17,1.23l-.29,4,2.12-1.78a4.77,4.77,0,0,0,.84-.81l1.31.09-.48.37-.42.34a2.42,2.42,0,0,0-.19.16l-1.63,1.3,1.68,2.53a10.11,10.11,0,0,0,.87,1.22l-1.25-.09a4.7,4.7,0,0,0-.62-1.09l-1.32-2.1-1,.82-.07.92a8.12,8.12,0,0,0,0,1.23l-1-.07a8.2,8.2,0,0,0,.17-1.23l.42-5.86a8,8,0,0,0,0-1.25Z"/><path class="cls-3" d="M217,47.09a6.77,6.77,0,0,0-.17,1.2l-.43,5.9a7,7,0,0,0,0,1.24l-1-.07a6.78,6.78,0,0,0,.18-1.22l.2-2.78-5-.36-.2,2.78a6.63,6.63,0,0,0,0,1.24l-1-.07a6.47,6.47,0,0,0,.18-1.22l.43-5.88a6.62,6.62,0,0,0,0-1.24l1,.07a6.69,6.69,0,0,0-.17,1.2l-.17,2.35,5,.36.17-2.33A6.63,6.63,0,0,0,216,47Z"/><path class="cls-3" d="M222.55,50.56a9.26,9.26,0,0,0-.8.85l-2.59,3-.45.49.76,0,1.73.13a7.5,7.5,0,0,0,1.25,0l-.07.9a7.86,7.86,0,0,0-1.23-.17l-2.33-.17c-.68,0-.91-.06-1.22-.06l.05-.72a8.72,8.72,0,0,0,.81-.83l2.65-3.05a4,4,0,0,1,.36-.37c-.3,0-.4,0-.55,0l-1.49-.11a8.78,8.78,0,0,0-1.23,0l.06-.89a8.75,8.75,0,0,0,1.22.17l2,.14a9.92,9.92,0,0,0,1.17.05Z"/><path class="cls-3" d="M329.76,51.83a3.27,3.27,0,0,0-.34.42,10,10,0,0,1-2.08,2.27,11.56,11.56,0,0,0,4.43,1,3.36,3.36,0,0,0-.34.74,11.15,11.15,0,0,1-4.7-1.34,13.28,13.28,0,0,1-4.35,2,2.74,2.74,0,0,0-.45-.66,11.87,11.87,0,0,0,4.17-1.69,7.28,7.28,0,0,1-2.13-2.2,7.76,7.76,0,0,0-.81.12l-.05-.73a7.15,7.15,0,0,0,1.1,0l4.08-.29a5.26,5.26,0,0,0,1-.12Zm-6-1.91a9.35,9.35,0,0,0-.69-1.43l-1,.09a1.92,1.92,0,0,0-.3-.63,35.31,35.31,0,0,0,5.11-.69,11.41,11.41,0,0,0,2.83-.84l.53.61a3.13,3.13,0,0,0-.43.13,30.92,30.92,0,0,1-3.71.89,10.76,10.76,0,0,1,.7,1.64l1.27-.09a9.17,9.17,0,0,0,.78-2l.73.2a18.6,18.6,0,0,1-.77,1.77l.93-.07a11.64,11.64,0,0,0,1.25-.13,6.48,6.48,0,0,0,0,.84l.05.71a3.23,3.23,0,0,0,.1.68l-.75.05-.11-1.54-7.94.57.11,1.59-.75.05a5.53,5.53,0,0,0,0-.78l0-.69c0-.29-.06-.53-.1-.82A10.32,10.32,0,0,0,323,50Zm2.39-.17a10.21,10.21,0,0,0-.7-1.57c-.55.08-.92.14-1.72.23a10.52,10.52,0,0,1,.72,1.46Zm-1.47,2.59a6,6,0,0,0,2,1.84,8.64,8.64,0,0,0,2-2.13Z"/><path class="cls-3" d="M334.65,54.81a11.12,11.12,0,0,0,.15,1.28l-.79.06a11.34,11.34,0,0,0,0-1.32l-.26-3.66c0-.55-.05-.74-.06-1.33a7.66,7.66,0,0,1-.91,1.7,1.9,1.9,0,0,0-.48-.57,9.38,9.38,0,0,0,1.62-3.28,6.36,6.36,0,0,0,.31-1.58l.76.18a5.52,5.52,0,0,0-.16.63,13.85,13.85,0,0,1-.56,1.83Zm.31-6.7a5.61,5.61,0,0,0,.93,0l5.25-.38a7.11,7.11,0,0,0,1-.14l.05.76a7.72,7.72,0,0,0-1.07,0l-5.23.38a5.89,5.89,0,0,0-.92.13Zm2,7.82-.72.05a8.17,8.17,0,0,0,0-1l-.09-1.31c0-.41-.08-.76-.12-1a6.88,6.88,0,0,0,.91,0l3.62-.26a7.87,7.87,0,0,0,1-.12,9.35,9.35,0,0,0,0,1l.09,1.31a7.12,7.12,0,0,0,.13,1l-.74.05,0-.58-4.13.3Zm4.44-6a5.67,5.67,0,0,0-.95,0l-3.64.26a4.92,4.92,0,0,0-.87.12l-.05-.7a4.63,4.63,0,0,0,.88,0l3.63-.26a5.5,5.5,0,0,0,1-.12Zm.11,1.5a5.6,5.6,0,0,0-.95,0l-3.64.26a6.41,6.41,0,0,0-.87.11l0-.69a4.63,4.63,0,0,0,.88,0l3.64-.26a5.44,5.44,0,0,0,.94-.12Zm-.33-4.53a9.08,9.08,0,0,0-1.1,0l-3.4.24a5.61,5.61,0,0,0-.94.12l-.05-.73a6.33,6.33,0,0,0,1,0l3.35-.24a6.8,6.8,0,0,0,1.11-.15ZM341,54.45l-.11-1.52-4.13.3.11,1.52Z"/><path class="cls-3" d="M347,51.41c.21-.28.44-.61.65-.9l2.53-3.67a12.35,12.35,0,0,0,.74-1.18l.82-.06a18,18,0,0,0,.07,1.86l.26,3.6.42,0a7.38,7.38,0,0,0,1.14-.16l.07.91a7.59,7.59,0,0,0-1.16,0l-.41,0,.07.94A6.28,6.28,0,0,0,352.4,54l-1,.07a6.44,6.44,0,0,0,0-1.19l-.07-.94-2.94.21c-.61,0-.94.08-1.3.14Zm4.06-3.06a13.47,13.47,0,0,1,0-1.5c-.21.35-.45.73-.74,1.16L348,51.38l3.28-.24Z"/><path class="cls-3" d="M355.31,45.36a7.8,7.8,0,0,0,0,1.25l.29,4,1.85-2.06a4.77,4.77,0,0,0,.72-.92l1.31-.09-.42.44-.37.4a2.42,2.42,0,0,0-.16.19l-1.42,1.52,2,2.26a10.11,10.11,0,0,0,1,1.08l-1.25.09a4.7,4.7,0,0,0-.77-1l-1.6-1.89-.87,1,.07.92a8.12,8.12,0,0,0,.17,1.22l-1,.07a8.2,8.2,0,0,0,0-1.25l-.42-5.86a8,8,0,0,0-.17-1.23Z"/><path class="cls-3" d="M367.55,44.48a6.77,6.77,0,0,0,0,1.21l.42,5.9a7,7,0,0,0,.18,1.22l-1,.07a6.78,6.78,0,0,0,0-1.24l-.2-2.78-5,.36.2,2.78a6.63,6.63,0,0,0,.18,1.22l-1,.07a6.47,6.47,0,0,0,0-1.24l-.42-5.88A6.62,6.62,0,0,0,360.7,45l1-.07a6.69,6.69,0,0,0,0,1.21l.17,2.35,5-.36-.17-2.33a6.63,6.63,0,0,0-.18-1.22Z"/><path class="cls-3" d="M373.52,47.12a9.26,9.26,0,0,0-.67,1l-2.13,3.32-.38.55.76-.08,1.73-.12a7.5,7.5,0,0,0,1.23-.17l.06.9a7.86,7.86,0,0,0-1.25,0l-2.33.17c-.68,0-.91.08-1.22.12l-.05-.72a8.72,8.72,0,0,0,.68-.94l2.18-3.4a4,4,0,0,1,.3-.42c-.29,0-.39.05-.55.06l-1.49.11a8.78,8.78,0,0,0-1.22.17l-.06-.89a8.75,8.75,0,0,0,1.23,0l2-.14a9.92,9.92,0,0,0,1.16-.12Z"/><path class="cls-3" d="M322.63,81.62a4.39,4.39,0,0,0,.84.15l.57.06a6.61,6.61,0,0,0,.85,0A8.41,8.41,0,0,0,324.7,83l-.24,2.12a2.06,2.06,0,0,0,1.05,1.25,7.66,7.66,0,0,0,2.39.5,30.08,30.08,0,0,0,4.26.26,2.71,2.71,0,0,0-.34.77c-1.52-.12-2.4-.2-3.5-.32a10,10,0,0,1-2.85-.55A2.57,2.57,0,0,1,324,85.68a11.44,11.44,0,0,1-1.45,1l-.43.29-.28-.76a6.76,6.76,0,0,0,1.91-1.13l.3-2.63-.72-.08a4.3,4.3,0,0,0-.8,0Zm1.21-3.94a14.83,14.83,0,0,1,1.53,2.13l-.61.43a10.44,10.44,0,0,0-1.47-2.17Zm3.21,2.82a7.18,7.18,0,0,0-1-.05l.08-.73a7.17,7.17,0,0,0,1,.18l2.33.27a11.85,11.85,0,0,0,1.25-1.92l.64.35a15.12,15.12,0,0,1-1.16,1.65l1,.11a6.9,6.9,0,0,0,1,.05l-.08.73a7.45,7.45,0,0,0-1-.19l-1.86-.21a11.78,11.78,0,0,1-.32,1.7l2.31.26a6.93,6.93,0,0,0,1.06.05l-.09.75a7.57,7.57,0,0,0-1.09-.19l-2-.23a4.49,4.49,0,0,0,.69,1.32A5.28,5.28,0,0,0,331.91,86a1.8,1.8,0,0,0-.48.61,5.9,5.9,0,0,1-1.87-1.48,4.76,4.76,0,0,1-1-1.79,5,5,0,0,1-3,2.53,1.53,1.53,0,0,0-.43-.62A4.1,4.1,0,0,0,328,83l-1.53-.17a7.56,7.56,0,0,0-1.08-.06l.09-.75a7.44,7.44,0,0,0,1.06.19l1.66.19a11.35,11.35,0,0,0,.31-1.7Zm.59-2.65a9,9,0,0,1,.78,1.72l-.63.27a8.17,8.17,0,0,0-.78-1.74Z"/><path class="cls-3" d="M334.86,87.45a10.89,10.89,0,0,0-.09,1.29l-.79-.09a11.34,11.34,0,0,0,.22-1.3l.42-3.65c.06-.55.08-.73.18-1.32a7.66,7.66,0,0,1-1.21,1.5,1.9,1.9,0,0,0-.37-.65,9.38,9.38,0,0,0,2.19-2.93A6.36,6.36,0,0,0,336,78.8l.72.31a5.57,5.57,0,0,0-.28.59,13.85,13.85,0,0,1-.89,1.69Zm1.54-6.52a5.61,5.61,0,0,0,.91.17l5.22.6a7.11,7.11,0,0,0,1.06.05l-.09.75a7.72,7.72,0,0,0-1.05-.19l-5.21-.59a5.89,5.89,0,0,0-.93,0Zm.51,8.05-.72-.08a8.17,8.17,0,0,0,.17-1l.15-1.3c0-.4.06-.76.07-1a6.88,6.88,0,0,0,.9.15l3.61.41a7.87,7.87,0,0,0,1,.07,9.35,9.35,0,0,0-.16,1l-.15,1.3a7.12,7.12,0,0,0-.06,1l-.73-.08.07-.58L337,88.4Zm5.47-5.1a5.67,5.67,0,0,0-.93-.16l-3.63-.41a4.92,4.92,0,0,0-.88,0l.08-.7a4.63,4.63,0,0,0,.87.15l3.62.41a5.5,5.5,0,0,0,1,.05Zm-.17,1.5a5.6,5.6,0,0,0-.93-.16l-3.63-.41a6.41,6.41,0,0,0-.88-.06l.08-.69a4.63,4.63,0,0,0,.87.15l3.63.41a5.44,5.44,0,0,0,.95.05Zm.51-4.51a9,9,0,0,0-1.09-.18l-3.39-.39a5.55,5.55,0,0,0-.95-.05l.08-.73a6.33,6.33,0,0,0,1,.18l3.33.38a6.8,6.8,0,0,0,1.12.06Zm-1.57,7.4.17-1.52-4.11-.47L337,87.8Z"/><path class="cls-3" d="M349.7,81.09a5.28,5.28,0,0,0,.9.16l.69.08a6.21,6.21,0,0,0,.91,0,18,18,0,0,0-.31,1.8l-.61,5.31a7.08,7.08,0,0,0-.05,1.25l-1-.12a6.91,6.91,0,0,0,.23-1.23l.72-6.33-.59-.07a6.65,6.65,0,0,0-1,0Z"/><path class="cls-3" d="M356.86,82a7.8,7.8,0,0,0-.22,1.23l-.45,4,2.2-1.69a4.77,4.77,0,0,0,.87-.78l1.3.15-.49.35-.44.33a2.42,2.42,0,0,0-.2.16l-1.68,1.24,1.57,2.59a10.11,10.11,0,0,0,.82,1.26l-1.25-.14a4.7,4.7,0,0,0-.57-1.12l-1.23-2.15-1,.78L356,89a8.12,8.12,0,0,0-.06,1.23l-1-.11a8.2,8.2,0,0,0,.22-1.23l.66-5.84a8,8,0,0,0,.06-1.24Z"/><path class="cls-3" d="M369.06,83.35a6.77,6.77,0,0,0-.22,1.19l-.67,5.88a7,7,0,0,0-.05,1.23l-1-.12a6.78,6.78,0,0,0,.23-1.21l.32-2.77L362.68,87l-.32,2.77a6.63,6.63,0,0,0-.05,1.23l-1-.12a6.47,6.47,0,0,0,.23-1.21l.67-5.86a6.62,6.62,0,0,0,.05-1.23l1,.12a6.69,6.69,0,0,0-.22,1.19l-.27,2.34,4.94.56.26-2.32a6.63,6.63,0,0,0,.05-1.23Z"/><path class="cls-3" d="M374.44,87a9.26,9.26,0,0,0-.83.81l-2.71,2.87-.47.47.76.06,1.73.2a7.5,7.5,0,0,0,1.24.06l-.1.9a7.86,7.86,0,0,0-1.23-.22l-2.32-.26c-.68-.08-.91-.09-1.22-.11l.08-.72a8.72,8.72,0,0,0,.84-.8L373,87.36a4,4,0,0,1,.37-.36c-.3,0-.4,0-.55,0l-1.49-.17a8.78,8.78,0,0,0-1.23-.06l.1-.89a8.75,8.75,0,0,0,1.21.22l1.95.22a9.92,9.92,0,0,0,1.16.1Z"/><rect class="cls-2" x="12.5" y="41.7" width="59.6" height="54.59"/><path class="cls-3" d="M31.75,49.91a7.88,7.88,0,0,0-.09-1.25c.39,0,.68,0,1.21,0h1.86c2.45,0,3.85,1.5,3.85,4.13a4.45,4.45,0,0,1-1.18,3.26,3.69,3.69,0,0,1-2.67,1H32.87c-.53,0-.83,0-1.21,0a7.68,7.68,0,0,0,.09-1.31Zm3,6.37a2.69,2.69,0,0,0,2.06-.78,3.75,3.75,0,0,0,.92-2.68,3.56,3.56,0,0,0-.87-2.61,2.71,2.71,0,0,0-2.07-.75H32.61v6.82Z"/><path class="cls-3" d="M44.83,50.86a1.79,1.79,0,0,0-.38-.91,2,2,0,0,0-1.63-.64c-1.13,0-1.92.6-1.92,1.5a1.29,1.29,0,0,0,1,1.24,8,8,0,0,0,1.57.4c1.76.37,2.46,1,2.46,2.32,0,1.55-1.07,2.43-3,2.43a3.14,3.14,0,0,1-2.65-1,2.83,2.83,0,0,1-.52-1.45l1-.12a1.71,1.71,0,0,0,.34,1.09,2.23,2.23,0,0,0,1.84.76c1.31,0,2.1-.62,2.1-1.64a1.26,1.26,0,0,0-.64-1.18,5.4,5.4,0,0,0-1.82-.54,5,5,0,0,1-1.5-.51,1.88,1.88,0,0,1-1-1.74c0-1.39,1.11-2.28,2.82-2.28a2.9,2.9,0,0,1,2.43,1,2.54,2.54,0,0,1,.48,1.17Z"/><path class="cls-3" d="M47.36,57.05a6.77,6.77,0,0,0,.09-1.23V49.91a8.07,8.07,0,0,0-.09-1.25c.4,0,.7,0,1.21,0h2.24c1.69,0,2.65.87,2.65,2.4a2.4,2.4,0,0,1-2.71,2.55H48.3v2.17a6.76,6.76,0,0,0,.09,1.24Zm3.4-4.17a1.62,1.62,0,0,0,1.83-1.75c0-1.1-.64-1.68-1.83-1.68H48.3v3.43Z"/><path class="cls-3" d="M21.38,67.32c-.13,2.85-1.06,4.19-3.54,5.16a1.93,1.93,0,0,0-.52-.72c2.28-.76,3.14-1.94,3.22-4.44h-3a8.66,8.66,0,0,0-1.27.06v-.81a7.34,7.34,0,0,0,1.28.07H24a7.24,7.24,0,0,0,1.28-.07v.81A8.64,8.64,0,0,0,24,67.32Zm-4-3.49a5.72,5.72,0,0,0,1.27.08H22a10,10,0,0,0,1.27-.06v.79l-1.25,0H18.66a7.69,7.69,0,0,0-1.25.05Zm6.45-.92a8.62,8.62,0,0,1,1.08,1.74l-.56.31a8.39,8.39,0,0,0-1.07-1.78Zm1.35-.42a9.23,9.23,0,0,1,1.08,1.74l-.56.31a8.59,8.59,0,0,0-1.07-1.77Z"/><path class="cls-3" d="M27.25,67.44a7.77,7.77,0,0,0,1.36.07H35a8.72,8.72,0,0,0,1.33-.05v.89a12.55,12.55,0,0,0-1.34,0H28.62a12,12,0,0,0-1.36,0Z"/><path class="cls-3" d="M42.29,63.28a3.6,3.6,0,0,0-.39.73,5.52,5.52,0,0,1-.34.61c.15,0,.15,0,3.4-.06a1.9,1.9,0,0,0,.64-.11l.5.5a2.45,2.45,0,0,0-.32.73,12.52,12.52,0,0,1-2.87,4.73,12.27,12.27,0,0,1-3.48,2.27,2,2,0,0,0-.54-.68,10,10,0,0,0,2.28-1.2A7.73,7.73,0,0,0,43.07,69a13.82,13.82,0,0,0-2.46-1.78l.51-.56a15.71,15.71,0,0,1,2.43,1.71,13.12,13.12,0,0,0,1.53-3.19l-3.85.06a10.94,10.94,0,0,1-2.62,2.93,2,2,0,0,0-.64-.53,9.57,9.57,0,0,0,2.81-3.14A6,6,0,0,0,41.42,63Z"/><path class="cls-3" d="M49.34,71.48a12.1,12.1,0,0,0,.07,1.35h-.81a10.46,10.46,0,0,0,.07-1.32V69.16c0-.46,0-.79,0-1.28A5,5,0,0,1,47.64,69a1.81,1.81,0,0,0-.4-.62,7.76,7.76,0,0,0,2-2.41,3.55,3.55,0,0,0,.31-.63l.64.37c-.1.15-.12.18-.22.35a8.62,8.62,0,0,1-.67,1Zm1-8.21c-.09.1-.13.15-.31.38a8.83,8.83,0,0,1-2.14,2.1,1.78,1.78,0,0,0-.46-.55,6.44,6.44,0,0,0,2-1.88,1.7,1.7,0,0,0,.26-.47Zm6,6.27a4.18,4.18,0,0,0-.29.31,8.42,8.42,0,0,1-1.58,1.42,9.64,9.64,0,0,0,3.13.89,2.46,2.46,0,0,0-.34.68,10.08,10.08,0,0,1-3.39-1.2,10.59,10.59,0,0,1-3.7,1.22,2.35,2.35,0,0,0-.32-.62,9.37,9.37,0,0,0,3.42-1A6.58,6.58,0,0,1,51.86,70a7.87,7.87,0,0,1-1.51,1.06,2.1,2.1,0,0,0-.45-.52,6.23,6.23,0,0,0,2.58-2.08h-.2a7,7,0,0,0-1,0,7.68,7.68,0,0,0,0-1V66.15c0-.36,0-.64,0-.83a7.88,7.88,0,0,1-.63.77,1.71,1.71,0,0,0-.53-.45,6.55,6.55,0,0,0,1.51-2.18,2.2,2.2,0,0,0,.21-.63l.73.23a4.64,4.64,0,0,0-.22.43,3.44,3.44,0,0,1-.18.36h3.71a8.31,8.31,0,0,0,1.33-.07v.74A9.48,9.48,0,0,0,56,64.47H51.89a7.25,7.25,0,0,1-.43.68c.27,0,.51,0,.88,0h3.12a7.86,7.86,0,0,0,1,0,9.7,9.7,0,0,0,0,1v1.31a10.27,10.27,0,0,0,0,1,7.85,7.85,0,0,0-1,0H53.2a7.26,7.26,0,0,1-.54.71h2.41a3.62,3.62,0,0,0,.85-.05Zm-4.33-3H55.8v-.83H52Zm0,1.38H55.8V67.1H52Zm.34,1.8a6.81,6.81,0,0,0,1.51,1.2,6.75,6.75,0,0,0,1.45-1.2Z"/><path class="cls-3" d="M59.66,67.86a7.87,7.87,0,0,0-1.13.07v-.78a7.63,7.63,0,0,0,1.13.07h7.53a7.79,7.79,0,0,0,1.14-.07v.78a8,8,0,0,0-1.14-.07H62.11A11.72,11.72,0,0,1,61.57,69h4a10.46,10.46,0,0,0,1.23,0,1.15,1.15,0,0,0,0,.2c0,.39,0,.39-.08.57A6.12,6.12,0,0,1,66,72.46c-.22.26-.57.36-1.27.36-.51,0-1.19,0-1.84-.11a2.39,2.39,0,0,0-.17-.74,14.91,14.91,0,0,0,2,.19c.5,0,.66-.06.78-.27A7.75,7.75,0,0,0,66,69.62H61.24c-.21.35-.31.51-.62,1l-.78-.17a10.22,10.22,0,0,0,1.49-2.55ZM60,64.13a6.3,6.3,0,0,0,0-.83,11.19,11.19,0,0,0,1.23.06h4.41a8.51,8.51,0,0,0,1.24-.06,6.3,6.3,0,0,0,0,.83v1.43a6.13,6.13,0,0,0,0,.81,11,11,0,0,0-1.16,0H61.13a11.56,11.56,0,0,0-1.17,0,6.46,6.46,0,0,0,0-.81ZM60.7,64v1.75h5.4V64Z"/><path class="cls-3" d="M27.51,81.33a9.64,9.64,0,0,0,0-1,7.62,7.62,0,0,0,1,0h2.43V79.05H27.64a8.87,8.87,0,0,0-1.16.07v-.76a8.41,8.41,0,0,0,1.16.07h7.44a8.76,8.76,0,0,0,1.16-.07v.76a9.11,9.11,0,0,0-1.16-.07H31.57v1.29H34.2a7.82,7.82,0,0,0,1,0,9.08,9.08,0,0,0,0,1v3h.09a6.71,6.71,0,0,0,1.06-.07V85A7.32,7.32,0,0,0,35.24,85h-.09v2c0,.74-.26.89-1.55.89-.36,0-.75,0-1.11,0a2.61,2.61,0,0,0-.17-.73,10.87,10.87,0,0,0,1.54.11c.48,0,.58-.07.58-.36V85H28.22v1.83a7.86,7.86,0,0,0,.07,1.16h-.85a9.05,9.05,0,0,0,.07-1.17V85h-.18a7.49,7.49,0,0,0-1,.07v-.75a6.81,6.81,0,0,0,1.06.07h.17Zm3.38,1V81H28.22v1.35Zm0,2V82.9H28.22v1.44Zm3.56-2V81H31.57v1.35Zm0,2V82.9H31.57v1.44Z"/><path class="cls-3" d="M45.17,84.29l-.34.35A9.38,9.38,0,0,1,43,86.16a11.61,11.61,0,0,0,4.33,1,2.79,2.79,0,0,0-.4.73,13,13,0,0,1-4.57-1.4,11.26,11.26,0,0,1-2.42.91,18,18,0,0,1-2.33.43,1.88,1.88,0,0,0-.37-.68,11.37,11.37,0,0,0,4.48-1.06,8.15,8.15,0,0,1-1.57-1.35,9.26,9.26,0,0,1-1.89,1.13,3.54,3.54,0,0,0-.42-.53,7.59,7.59,0,0,0,2.5-1.54,4.2,4.2,0,0,0,.9-1.09l.65.29c-.08.08-.09.1-.17.19s-.4.46-.58.66H43.7a7.32,7.32,0,0,0,1-.05Zm-5-3.89a6.24,6.24,0,0,1-.95,1.45,6.51,6.51,0,0,1-1.08,1,2.68,2.68,0,0,0-.57-.47,5,5,0,0,0,1.09-.9,4.4,4.4,0,0,0,.88-1.37Zm-1.37-.69a8,8,0,0,0-1.18.06V79a7.9,7.9,0,0,0,1.21.07h3.13v-.32a3.78,3.78,0,0,0-.07-.77h.86a3.86,3.86,0,0,0-.07.77v.32h3.15A8.45,8.45,0,0,0,47,79v.74c-.35,0-.75-.06-1.22-.06H43.86v2.51c0,.54-.19.7-.78.7-.26,0-.63,0-.92,0a1.58,1.58,0,0,0-.2-.65,6,6,0,0,0,.93.08c.24,0,.3,0,.3-.25V79.7H41.84c-.06,1.89-.51,2.72-2,3.59a2.11,2.11,0,0,0-.57-.48,2.83,2.83,0,0,0,1.54-1.34,3.9,3.9,0,0,0,.33-1.76Zm1.93,4.76a7.88,7.88,0,0,0,1.68,1.35,7.05,7.05,0,0,0,1.71-1.35Zm4.2-4.26a17.82,17.82,0,0,1,2.06,2.21l-.62.47a11.38,11.38,0,0,0-1.95-2.3Z"/><path class="cls-3" d="M48.43,79.88a4.81,4.81,0,0,0,.88.06h1.78a4.33,4.33,0,0,0,.88-.06v.72a5,5,0,0,0-.8,0H49.31a6.44,6.44,0,0,0-.88,0Zm.33,8c0-.32.05-.7.05-1.07V85.35a7.7,7.7,0,0,0,0-.9,3.5,3.5,0,0,0,.7,0h2.17a6.32,6.32,0,0,0,0,.85v1.28c0,.32,0,.53,0,.67-.12,0-.33,0-.62,0H49.44v.65Zm0-6.45a4.39,4.39,0,0,0,.75,0h1.41a4.21,4.21,0,0,0,.73,0v.68a4.56,4.56,0,0,0-.73,0H49.54a4.5,4.5,0,0,0-.75,0Zm0,1.51a4.23,4.23,0,0,0,.75,0h1.4a4.18,4.18,0,0,0,.74,0v.68a4.62,4.62,0,0,0-.74,0H49.53a4.36,4.36,0,0,0-.74,0Zm0-4.59a3.86,3.86,0,0,0,.79.06h1.33a3.92,3.92,0,0,0,.79-.06v.69a5.39,5.39,0,0,0-.79,0H49.61a5.49,5.49,0,0,0-.79,0Zm.62,8.31H51V85H49.43Zm8.5.26a.78.78,0,0,1-.29.69,1.7,1.7,0,0,1-.87.14c-.24,0-.39,0-1.06-.05a2.29,2.29,0,0,0-.14-.7,7.59,7.59,0,0,0,1.3.12c.32,0,.4-.07.4-.33V79h-4.1V80.3a40.3,40.3,0,0,1-.26,5.46,6.32,6.32,0,0,1-.69,2.2,1.35,1.35,0,0,0-.56-.48,5,5,0,0,0,.64-2.1,44.21,44.21,0,0,0,.23-5.25,12.33,12.33,0,0,0-.07-1.75,8.8,8.8,0,0,0,1.07,0h3.39a8.45,8.45,0,0,0,1.07,0,9,9,0,0,0,0,1.08Zm-3.6-6.06a5.59,5.59,0,0,0-.78,0v-.64a4.62,4.62,0,0,0,.77.05h.55v-.15a4.44,4.44,0,0,0-.06-.86h.69a4.51,4.51,0,0,0-.05.87v.14H56a4.38,4.38,0,0,0,.8-.05v.64a5.24,5.24,0,0,0-.8,0h-.57V82h.73A3.76,3.76,0,0,0,57,82v.66a3.75,3.75,0,0,0-.77-.05h-2a3.72,3.72,0,0,0-.75.05V82a3.61,3.61,0,0,0,.75.06h.69V80.87Zm2.17,4.65a4.16,4.16,0,0,0,0,.59h-.26l-.52,0H54.37v.73h-.64a5.29,5.29,0,0,0,0-.84V84.08a6.39,6.39,0,0,0,0-.71,7.44,7.44,0,0,0,.76,0h1.25a6.64,6.64,0,0,0,.78,0,5.64,5.64,0,0,0,0,.68Zm-2.13,0h1.55V83.95H54.37Z"/><rect class="cls-2" x="228.15" y="147.95" width="80.36" height="68.74"/><path class="cls-3" d="M257.78,156a7.88,7.88,0,0,0-.09-1.25c.39,0,.68,0,1.21,0h1.86c2.45,0,3.85,1.5,3.85,4.13a4.45,4.45,0,0,1-1.18,3.26,3.69,3.69,0,0,1-2.67,1H258.9c-.53,0-.83,0-1.21,0a7.68,7.68,0,0,0,.09-1.31Zm3,6.37a2.69,2.69,0,0,0,2.06-.78,3.75,3.75,0,0,0,.92-2.68,3.56,3.56,0,0,0-.87-2.61,2.71,2.71,0,0,0-2.07-.75h-2.15v6.82Z"/><path class="cls-3" d="M270.86,157a1.79,1.79,0,0,0-.38-.91,2,2,0,0,0-1.63-.64c-1.13,0-1.92.6-1.92,1.5a1.29,1.29,0,0,0,1,1.24,8,8,0,0,0,1.57.4c1.76.37,2.46,1,2.46,2.32,0,1.55-1.07,2.43-3,2.43a3.14,3.14,0,0,1-2.65-1,2.83,2.83,0,0,1-.52-1.45l1-.12a1.71,1.71,0,0,0,.34,1.09,2.23,2.23,0,0,0,1.84.76c1.31,0,2.1-.62,2.1-1.64a1.26,1.26,0,0,0-.64-1.18,5.4,5.4,0,0,0-1.82-.54,5,5,0,0,1-1.5-.51,1.88,1.88,0,0,1-1-1.74c0-1.39,1.11-2.28,2.82-2.28a2.9,2.9,0,0,1,2.43,1,2.54,2.54,0,0,1,.48,1.17Z"/><path class="cls-3" d="M273.39,163.18a6.77,6.77,0,0,0,.09-1.23V156a8.07,8.07,0,0,0-.09-1.25c.4,0,.7,0,1.21,0h2.24c1.69,0,2.65.87,2.65,2.4a2.4,2.4,0,0,1-2.71,2.55h-2.45v2.17a6.76,6.76,0,0,0,.09,1.24Zm3.4-4.17a1.62,1.62,0,0,0,1.83-1.75c0-1.1-.64-1.68-1.83-1.68h-2.45V159Z"/><path class="cls-3" d="M247.41,173.45c-.13,2.85-1.06,4.19-3.54,5.16a1.93,1.93,0,0,0-.52-.72c2.28-.76,3.14-1.94,3.22-4.44h-3a8.66,8.66,0,0,0-1.27.06v-.81a7.34,7.34,0,0,0,1.28.07H250a7.24,7.24,0,0,0,1.28-.07v.81a8.64,8.64,0,0,0-1.26-.06Zm-4-3.49a5.72,5.72,0,0,0,1.27.08H248a10,10,0,0,0,1.27-.06v.79l-1.25,0H244.7a7.69,7.69,0,0,0-1.25.05Zm6.45-.92a8.62,8.62,0,0,1,1.08,1.74l-.56.31a8.39,8.39,0,0,0-1.07-1.78Zm1.35-.42a9.23,9.23,0,0,1,1.08,1.74l-.56.31a8.59,8.59,0,0,0-1.07-1.77Z"/><path class="cls-3" d="M253.29,173.57a7.77,7.77,0,0,0,1.36.07H261a8.72,8.72,0,0,0,1.33-.05v.89a12.55,12.55,0,0,0-1.34,0h-6.38a12,12,0,0,0-1.36,0Z"/><path class="cls-3" d="M268.33,169.41a3.6,3.6,0,0,0-.39.73,5.52,5.52,0,0,1-.34.61c.15,0,.15,0,3.4-.06a1.9,1.9,0,0,0,.64-.11l.5.5a2.45,2.45,0,0,0-.32.73,12.52,12.52,0,0,1-2.87,4.73,12.27,12.27,0,0,1-3.48,2.27,2,2,0,0,0-.54-.68,10,10,0,0,0,2.28-1.2,7.73,7.73,0,0,0,1.9-1.74,13.82,13.82,0,0,0-2.46-1.78l.51-.56a15.71,15.71,0,0,1,2.43,1.71,13.12,13.12,0,0,0,1.53-3.19l-3.85.06a10.94,10.94,0,0,1-2.62,2.93,2,2,0,0,0-.64-.53,9.57,9.57,0,0,0,2.81-3.14,6,6,0,0,0,.65-1.51Z"/><path class="cls-3" d="M275.38,177.61a12.1,12.1,0,0,0,.07,1.35h-.81a10.46,10.46,0,0,0,.07-1.32v-2.35c0-.46,0-.79,0-1.28a5,5,0,0,1-1.06,1.17,1.81,1.81,0,0,0-.4-.62,7.76,7.76,0,0,0,2-2.41,3.55,3.55,0,0,0,.31-.63l.64.37c-.1.15-.12.18-.22.35a8.62,8.62,0,0,1-.67,1Zm1-8.21c-.09.1-.13.15-.31.38a8.83,8.83,0,0,1-2.14,2.1,1.78,1.78,0,0,0-.46-.55,6.44,6.44,0,0,0,2-1.88,1.7,1.7,0,0,0,.26-.47Zm6,6.27a4.18,4.18,0,0,0-.29.31,8.42,8.42,0,0,1-1.58,1.42,9.64,9.64,0,0,0,3.13.89,2.46,2.46,0,0,0-.34.68,10.08,10.08,0,0,1-3.39-1.2,10.59,10.59,0,0,1-3.7,1.22,2.35,2.35,0,0,0-.32-.62,9.37,9.37,0,0,0,3.42-1,6.58,6.58,0,0,1-1.42-1.23,7.87,7.87,0,0,1-1.51,1.06,2.1,2.1,0,0,0-.45-.52,6.23,6.23,0,0,0,2.58-2.08h-.2a7,7,0,0,0-1,0,7.68,7.68,0,0,0,0-1v-1.35c0-.36,0-.64,0-.83a7.88,7.88,0,0,1-.63.77,1.71,1.71,0,0,0-.53-.45,6.55,6.55,0,0,0,1.51-2.18,2.2,2.2,0,0,0,.21-.63l.73.23a4.64,4.64,0,0,0-.22.43,3.44,3.44,0,0,1-.18.36H282a8.31,8.31,0,0,0,1.33-.07v.74a9.48,9.48,0,0,0-1.31-.07h-4.06a7.25,7.25,0,0,1-.43.68c.27,0,.51,0,.88,0h3.12a7.86,7.86,0,0,0,1,0,9.7,9.7,0,0,0,0,1v1.31a10.27,10.27,0,0,0,0,1,7.85,7.85,0,0,0-1,0h-2.31a7.26,7.26,0,0,1-.54.71h2.41a3.62,3.62,0,0,0,.85-.05Zm-4.33-3h3.78v-.83H278Zm0,1.38h3.78v-.84H278Zm.34,1.8a6.81,6.81,0,0,0,1.51,1.2,6.75,6.75,0,0,0,1.45-1.2Z"/><path class="cls-3" d="M285.69,174a7.87,7.87,0,0,0-1.13.07v-.78a7.63,7.63,0,0,0,1.13.07h7.53a7.79,7.79,0,0,0,1.14-.07v.78a8,8,0,0,0-1.14-.07h-5.07a11.72,11.72,0,0,1-.54,1.14h4a10.46,10.46,0,0,0,1.23,0,1.15,1.15,0,0,0,0,.2c0,.39,0,.39-.08.57a6.12,6.12,0,0,1-.73,2.73c-.22.26-.57.36-1.27.36-.51,0-1.19,0-1.84-.11a2.39,2.39,0,0,0-.17-.74,14.91,14.91,0,0,0,2,.19c.5,0,.66-.06.78-.27a7.75,7.75,0,0,0,.51-2.27h-4.75c-.21.35-.31.51-.62,1l-.78-.17a10.22,10.22,0,0,0,1.49-2.55Zm.35-3.73a6.3,6.3,0,0,0,0-.83,11.19,11.19,0,0,0,1.23.06h4.41a8.51,8.51,0,0,0,1.24-.06,6.3,6.3,0,0,0,0,.83v1.43a6.13,6.13,0,0,0,0,.81,11,11,0,0,0-1.16,0h-4.57a11.56,11.56,0,0,0-1.17,0,6.46,6.46,0,0,0,0-.81Zm.69-.15v1.75h5.4v-1.75Z"/><path class="cls-3" d="M244.69,184.82a6.69,6.69,0,0,0-.09,1.24v4.08a3.29,3.29,0,0,1-.85,2.34,3.44,3.44,0,0,1-2.5.87,3.37,3.37,0,0,1-2.51-.89,3.24,3.24,0,0,1-.81-2.32v-4.06a6.78,6.78,0,0,0-.09-1.27h1a6.49,6.49,0,0,0-.09,1.27v4a2.26,2.26,0,0,0,2.48,2.49,2.46,2.46,0,0,0,1.92-.74,2.74,2.74,0,0,0,.55-1.75v-4a6.85,6.85,0,0,0-.09-1.27Z"/><path class="cls-3" d="M249.5,191.94a6.74,6.74,0,0,0,.09,1.24h-1a6.61,6.61,0,0,0,.09-1.24v-6.35h-1.72a7.88,7.88,0,0,0-1.26.08v-.92a7.73,7.73,0,0,0,1.25.08h4.29a7.72,7.72,0,0,0,1.3-.08v.92a7.89,7.89,0,0,0-1.3-.08H249.5Z"/><path class="cls-3" d="M254.45,191.89a6.89,6.89,0,0,0,.09,1.29h-1a6.88,6.88,0,0,0,.09-1.29V186a7.61,7.61,0,0,0-.09-1.25c.39,0,.68,0,1.21,0h2.92a8.55,8.55,0,0,0,1.27-.08v.94a7.72,7.72,0,0,0-1.27-.08h-3.17v2.84H257a8.4,8.4,0,0,0,1.25-.08v.92a7.64,7.64,0,0,0-1.25-.08h-2.57Z"/><path class="cls-3" d="M259.58,189.52a6.34,6.34,0,0,0,1,.06h1.31a6.4,6.4,0,0,0,1-.06v.92a6.43,6.43,0,0,0-1-.06h-1.31a6.45,6.45,0,0,0-1,.06Z"/><path class="cls-3" d="M265,184.76a5.28,5.28,0,0,0,.91.06h.69a6.21,6.21,0,0,0,.91-.06,18,18,0,0,0-.1,1.83v5.35a7.08,7.08,0,0,0,.09,1.24h-1a6.91,6.91,0,0,0,.09-1.24v-6.37h-.59a6.65,6.65,0,0,0-1,.07Z"/><path class="cls-3" d="M276,186.65a2.08,2.08,0,0,0-.38-.69,1.68,1.68,0,0,0-1.31-.55,2,2,0,0,0-1.9,1.36,6.21,6.21,0,0,0-.46,2.37,2.31,2.31,0,0,1,.55-.7,2.61,2.61,0,0,1,1.86-.67,2.56,2.56,0,0,1,2.76,2.75,2.69,2.69,0,0,1-2.88,2.83,3,3,0,0,1-2-.69,4.69,4.69,0,0,1-1.11-3.45,5.87,5.87,0,0,1,.84-3.32,2.76,2.76,0,0,1,2.32-1.2,2.91,2.91,0,0,1,1.67.46,2.79,2.79,0,0,1,.92,1.23Zm-1.77,1.85a2.22,2.22,0,0,0-1.52.63,1.92,1.92,0,0,0-.55,1.4,2.09,2.09,0,0,0,3.79,1.18,2.37,2.37,0,0,0,.29-1.17A1.84,1.84,0,0,0,274.19,188.49Z"/><path class="cls-3" d="M286,190.42l-.34.35a9.38,9.38,0,0,1-1.82,1.52,11.61,11.61,0,0,0,4.33,1,2.79,2.79,0,0,0-.4.73,13,13,0,0,1-4.57-1.4,11.27,11.27,0,0,1-2.42.91,18.05,18.05,0,0,1-2.33.43,1.88,1.88,0,0,0-.37-.68,11.37,11.37,0,0,0,4.48-1.06,8.15,8.15,0,0,1-1.57-1.35,9.26,9.26,0,0,1-1.89,1.13,3.48,3.48,0,0,0-.42-.53,7.59,7.59,0,0,0,2.5-1.54,4.2,4.2,0,0,0,.9-1.09l.65.29c-.08.08-.09.1-.17.19s-.4.46-.58.66h2.54a7.32,7.32,0,0,0,1-.05Zm-5-3.89A6.24,6.24,0,0,1,280,188a6.51,6.51,0,0,1-1.08,1,2.68,2.68,0,0,0-.57-.47,5,5,0,0,0,1.09-.9,4.4,4.4,0,0,0,.88-1.37Zm-1.37-.69a8,8,0,0,0-1.18.06v-.74a7.9,7.9,0,0,0,1.21.07h3.13v-.32a3.78,3.78,0,0,0-.07-.77h.86a3.86,3.86,0,0,0-.07.77v.32h3.15a8.45,8.45,0,0,0,1.23-.07v.74c-.35,0-.75-.06-1.22-.06h-1.94v2.51c0,.54-.19.7-.78.7-.26,0-.63,0-.92,0a1.59,1.59,0,0,0-.2-.65,6,6,0,0,0,.93.08c.24,0,.3,0,.3-.25v-2.35H282.7c-.06,1.89-.51,2.72-2,3.59a2.11,2.11,0,0,0-.57-.48,2.83,2.83,0,0,0,1.54-1.34,3.9,3.9,0,0,0,.33-1.76Zm1.93,4.76a7.88,7.88,0,0,0,1.68,1.35,7.05,7.05,0,0,0,1.71-1.35Zm4.2-4.26a17.82,17.82,0,0,1,2.06,2.21l-.62.47a11.38,11.38,0,0,0-1.95-2.3Z"/><path class="cls-3" d="M297.64,186.66a7.31,7.31,0,0,0,.93,0,8.71,8.71,0,0,0,0,1v3.09a4.14,4.14,0,0,0,.72-.05v.73a5.09,5.09,0,0,0-1-.07H296a4.67,4.67,0,0,0,3.37,2,3.08,3.08,0,0,0-.37.65,5.35,5.35,0,0,1-3.48-2.41,3.51,3.51,0,0,1-1.17,1.41,5.64,5.64,0,0,1-2.46,1,2.13,2.13,0,0,0-.37-.64,5.1,5.1,0,0,0,2.41-.84,2.84,2.84,0,0,0,1-1.22h-2a6.23,6.23,0,0,0-.92.05v-.7a4.93,4.93,0,0,0,.7,0v-3c0-.21,0-.29,0-.55a5.14,5.14,0,0,1-.42.34,1.53,1.53,0,0,0-.44-.48l.24-.15a5.23,5.23,0,0,0-.64,0h-.22v2.27c.37-.15.54-.24,1-.48v.65c-.52.25-.72.34-1.06.48v3.38c0,.63-.2.76-1.13.76l-.63,0a2.65,2.65,0,0,0-.14-.67,6.15,6.15,0,0,0,.95.08c.22,0,.28-.06.28-.24v-3c-.3.12-.46.18-.69.25a4.73,4.73,0,0,0-.52.21l-.17-.73a6,6,0,0,0,1.38-.4v-2.53H290a4.67,4.67,0,0,0-.74.05v-.73a4.13,4.13,0,0,0,.74.06h.52v-1a7.42,7.42,0,0,0-.07-1.13h.81a6.1,6.1,0,0,0-.07,1.12v1h.21a4.35,4.35,0,0,0,.7,0v.66a5.43,5.43,0,0,0,2.15-2.89l.74.14c0,.09-.07.12-.11.22s-.12.26-.23.47H296a7,7,0,0,0,.81,0l.38.41a3.2,3.2,0,0,0-.22.33,11.34,11.34,0,0,1-.8,1.17Zm-2.19,0a8.7,8.7,0,0,0,.89-1.29h-2a6.66,6.66,0,0,1-1.07,1.29h2.2Zm-.35,4.09a4.08,4.08,0,0,0,.07-.69v-.18l.71,0-.05.4c0,.14,0,.23-.07.43h2.13v-1.29h-.79c-.9,0-1.09-.11-1.09-.63v-1.61h-.84a3.2,3.2,0,0,1-1.31,2.89,1.37,1.37,0,0,0-.47-.42c.88-.56,1.14-1.12,1.19-2.48h-1.27v3.51Zm2.79-3.51h-1.3v1.42c0,.22.07.26.43.26h.87Z"/><path class="cls-3" d="M247.33,200.93a4.73,4.73,0,0,0,.88.05h1.72a4.36,4.36,0,0,0,.88-.05v.71a5,5,0,0,0-.8,0h-1.79a6.53,6.53,0,0,0-.88,0Zm.36,8c0-.35.06-.72.06-1.07v-1.52a7.62,7.62,0,0,0,0-.89,3.47,3.47,0,0,0,.7,0H250a4.06,4.06,0,0,0,.66,0,4.92,4.92,0,0,0,0,.86v1.25a7,7,0,0,0,0,.73l-.65,0h-1.58V209Zm0-6.51a4.35,4.35,0,0,0,.75,0h1.4a4,4,0,0,0,.74,0v.67a4.5,4.5,0,0,0-.74,0h-1.4a4.58,4.58,0,0,0-.75,0Zm0,1.52a4.35,4.35,0,0,0,.75,0h1.4a4.2,4.2,0,0,0,.74,0v.67a4.62,4.62,0,0,0-.74,0h-1.4a4.43,4.43,0,0,0-.75,0Zm0-4.57a4,4,0,0,0,.79.06h1.29a4.11,4.11,0,0,0,.79-.06v.69a5.45,5.45,0,0,0-.79,0h-1.29a5.66,5.66,0,0,0-.79,0Zm.65,8.34H250v-1.66h-1.61Zm5-3.06c0,.13,0,.29,0,.46a4.66,4.66,0,0,1-.7,2.64A3.81,3.81,0,0,1,251,209.1a1.69,1.69,0,0,0-.47-.57,3.59,3.59,0,0,0,1.35-.86,2.5,2.5,0,0,0,.62-1.13,5.44,5.44,0,0,0,.19-1.38,2.44,2.44,0,0,0,0-.52Zm3.09.66V204h-4.85v1.3h-.68a5.23,5.23,0,0,0,0-.7v-.51a4,4,0,0,0,0-.73l.3,0H256a8.21,8.21,0,0,0,1.17-.06,6.46,6.46,0,0,0,0,.7v.6a5,5,0,0,0,0,.65ZM252,200.81a7.28,7.28,0,0,0-1.07.07v-.74a6.93,6.93,0,0,0,1.09.07h1.52v-.3a5.37,5.37,0,0,0-.07-.89h.78a5.19,5.19,0,0,0-.07.91v.28h1.87a7.24,7.24,0,0,0,1.11-.07v.74a7.13,7.13,0,0,0-1.08-.07h-1.9V202h1.44a6.9,6.9,0,0,0,1.06-.07v.71a6.91,6.91,0,0,0-1.06-.07H252.3a7,7,0,0,0-1.06.07v-.71a6.81,6.81,0,0,0,1.06.07h1.28v-1.14Zm3.09,3.87a5.32,5.32,0,0,0-.07.92V208c0,.23.11.28.7.28s.64-.07.73-.24a5.2,5.2,0,0,0,.19-1.43,2,2,0,0,0,.65.29c-.15,1.85-.3,2-1.61,2-1.08,0-1.32-.13-1.32-.76v-2.53a5.42,5.42,0,0,0-.07-.92Z"/><path class="cls-3" d="M259.63,200a5.28,5.28,0,0,0,1.07.07c.61,0,1.49,0,1.85-.08a.81.81,0,0,0,.41-.13l.58.46a5.8,5.8,0,0,0-.61,1.6c-.24.75-.32,1-.52,1.54a8.64,8.64,0,0,1,3,.87,12.5,12.5,0,0,0,.13-2.23,2.65,2.65,0,0,0,0-.54h.83a4.13,4.13,0,0,0,0,.68,15,15,0,0,1-.2,2.39c.59.31,1,.51,1.51.83a2.05,2.05,0,0,0,.32.17l-.3.85a12.76,12.76,0,0,0-1.72-1.09,5.2,5.2,0,0,1-1.13,2,5.94,5.94,0,0,1-1.75,1.34,2.83,2.83,0,0,0-.58-.57,4.85,4.85,0,0,0,1.78-1.27,4.28,4.28,0,0,0,1-1.85,8.11,8.11,0,0,0-3-.91,21.18,21.18,0,0,1-1,2.65c-.4.76-.8,1.09-1.33,1.09a1.63,1.63,0,0,1-1.45-1.8,2.47,2.47,0,0,1,1.31-2.18,3.59,3.59,0,0,1,2-.47c.36-1.08.5-1.5.88-2.77-.87.07-1,.08-2.08.11a6,6,0,0,0-.8.06Zm0,4.77a1.83,1.83,0,0,0-.53,1.27c0,.58.32,1,.71,1s.83-.68,1.63-3A2.67,2.67,0,0,0,259.63,204.79Z"/><path class="cls-3" d="M273.84,207.83h3.6a9.79,9.79,0,0,0,1.23-.07v.84a8.68,8.68,0,0,0-1.23-.08h-7.33a9.66,9.66,0,0,0-1.3.08v-.84a10.44,10.44,0,0,0,1.3.07h2.95V200.4a7.73,7.73,0,0,0-.08-1.14h.93a7.63,7.63,0,0,0-.08,1.14v2.26h2.78a8.22,8.22,0,0,0,1.14-.07v.85a8.45,8.45,0,0,0-1.14-.07h-2.78Z"/><path class="cls-3" d="M281.74,199.82a19.09,19.09,0,0,0-.67,4.81c0,.59,0,1.41.09,1.78,0,.21.05.41.07.59a12.28,12.28,0,0,1,.92-2.32l.56.25a10.55,10.55,0,0,0-1.12,3.27v.07l-.76.06a2.74,2.74,0,0,0-.09-.39,12.42,12.42,0,0,1-.41-3.26,22.79,22.79,0,0,1,.44-4.24c.06-.33.07-.4.08-.48s0-.12,0-.26Zm1.12,2.22a8.75,8.75,0,0,0,1.87.15c.44,0,.85,0,1.4-.07a22.37,22.37,0,0,0-.13-2.56l.85,0a2.66,2.66,0,0,0,0,.38c0,.07,0,.12,0,.33s0,.47,0,1.11l0,.67a6.23,6.23,0,0,0,1.75-.46l.05.79a4.67,4.67,0,0,0-.58.12,9.93,9.93,0,0,1-1.2.23c0,.3,0,.47,0,.78,0,2.09-.2,3-.85,3.88a5.18,5.18,0,0,1-1.73,1.41,2.76,2.76,0,0,0-.59-.59,4.4,4.4,0,0,0,1.68-1.27c.56-.72.74-1.52.74-3.27,0-.31,0-.56,0-.87-.48,0-1.12.07-1.61.07-.31,0-.93,0-1.33,0h-.36Zm4.88-3a8.21,8.21,0,0,1,.77,1.8l-.58.2a8,8,0,0,0-.77-1.84Zm1.26-.36a8.51,8.51,0,0,1,.78,1.79l-.57.2a8.74,8.74,0,0,0-.78-1.8Z"/><line class="cls-2" x1="94.52" y1="47.74" x2="77.63" y2="47.74"/><polygon class="cls-3" points="78.75 43.9 72.1 47.74 78.75 51.58 78.75 43.9"/><line class="cls-2" x1="168.81" y1="304.55" x2="151.92" y2="304.55"/><polygon class="cls-3" points="153.04 300.71 146.39 304.55 153.04 308.39 153.04 300.71"/><circle class="cls-1" cx="268.4" cy="92.49" r="8.79"/><polygon class="cls-1" points="263.37 123.88 259.37 93.04 277.43 93.04 273.44 123.88 263.37 123.88"/><line class="cls-2" x1="268.4" y1="123.88" x2="268.4" y2="140.78"/><polygon class="cls-3" points="264.56 139.65 268.4 146.3 272.24 139.65 264.56 139.65"/><line class="cls-2" x1="72.1" y1="87.93" x2="89" y2="87.93"/><polygon class="cls-3" points="87.87 91.77 94.52 87.93 87.87 84.09 87.87 91.77"/><rect class="cls-1" x="265.13" y="234.94" width="12.45" height="22.57" transform="translate(25.13 517.58) rotate(-90)"/><polygon class="cls-1" points="260.07 252.45 251.12 264.91 291.6 264.91 282.64 252.45 260.07 252.45"/><line class="cls-2" x1="269.78" y1="216.94" x2="269.78" y2="233.84"/><polygon class="cls-3" points="265.94 232.71 269.78 239.36 273.62 232.71 265.94 232.71"/><rect class="cls-2" x="466.77" y="41.7" width="59.6" height="54.59"/><path class="cls-3" d="M486,49.91a7.88,7.88,0,0,0-.09-1.25c.39,0,.68,0,1.21,0H489c2.45,0,3.85,1.5,3.85,4.13a4.45,4.45,0,0,1-1.18,3.26,3.69,3.69,0,0,1-2.67,1h-1.86c-.53,0-.83,0-1.21,0a7.68,7.68,0,0,0,.09-1.31Zm3,6.37A2.69,2.69,0,0,0,491,55.5a3.75,3.75,0,0,0,.92-2.68,3.56,3.56,0,0,0-.87-2.61,2.71,2.71,0,0,0-2.07-.75h-2.15v6.82Z"/><path class="cls-3" d="M499.09,50.86a1.79,1.79,0,0,0-.38-.91,2,2,0,0,0-1.63-.64c-1.13,0-1.92.6-1.92,1.5a1.29,1.29,0,0,0,1,1.24,8,8,0,0,0,1.57.4c1.76.37,2.46,1,2.46,2.32,0,1.55-1.07,2.43-3,2.43a3.14,3.14,0,0,1-2.65-1A2.83,2.83,0,0,1,494,54.7l1-.12a1.71,1.71,0,0,0,.34,1.09,2.23,2.23,0,0,0,1.84.76c1.31,0,2.1-.62,2.1-1.64a1.26,1.26,0,0,0-.64-1.18,5.4,5.4,0,0,0-1.82-.54,5,5,0,0,1-1.5-.51,1.88,1.88,0,0,1-1-1.74c0-1.39,1.11-2.28,2.82-2.28a2.9,2.9,0,0,1,2.43,1,2.54,2.54,0,0,1,.48,1.17Z"/><path class="cls-3" d="M501.62,57.05a6.77,6.77,0,0,0,.09-1.23V49.91a8.07,8.07,0,0,0-.09-1.25c.4,0,.7,0,1.21,0h2.24c1.69,0,2.65.87,2.65,2.4A2.4,2.4,0,0,1,505,53.64h-2.45v2.17a6.76,6.76,0,0,0,.09,1.24Zm3.4-4.17a1.62,1.62,0,0,0,1.83-1.75c0-1.1-.64-1.68-1.83-1.68h-2.45v3.43Z"/><path class="cls-3" d="M475.65,67.32c-.13,2.85-1.06,4.19-3.54,5.16a1.93,1.93,0,0,0-.52-.72c2.28-.76,3.14-1.94,3.22-4.44h-3a8.66,8.66,0,0,0-1.27.06v-.81a7.34,7.34,0,0,0,1.28.07h6.44a7.24,7.24,0,0,0,1.28-.07v.81a8.64,8.64,0,0,0-1.26-.06Zm-4-3.49a5.72,5.72,0,0,0,1.27.08h3.32a10,10,0,0,0,1.27-.06v.79l-1.25,0h-3.34a7.69,7.69,0,0,0-1.25.05Zm6.45-.92a8.62,8.62,0,0,1,1.08,1.74l-.56.31a8.39,8.39,0,0,0-1.07-1.78Zm1.35-.42a9.23,9.23,0,0,1,1.08,1.74l-.56.31a8.59,8.59,0,0,0-1.07-1.77Z"/><path class="cls-3" d="M481.52,67.44a7.77,7.77,0,0,0,1.36.07h6.39a8.72,8.72,0,0,0,1.33-.05v.89a12.55,12.55,0,0,0-1.34,0h-6.38a12,12,0,0,0-1.36,0Z"/><path class="cls-3" d="M496.56,63.28a3.6,3.6,0,0,0-.39.73,5.52,5.52,0,0,1-.34.61c.15,0,.15,0,3.4-.06a1.9,1.9,0,0,0,.64-.11l.5.5a2.45,2.45,0,0,0-.32.73,12.52,12.52,0,0,1-2.87,4.73,12.27,12.27,0,0,1-3.48,2.27,2,2,0,0,0-.54-.68,10,10,0,0,0,2.28-1.2,7.73,7.73,0,0,0,1.9-1.74,13.82,13.82,0,0,0-2.46-1.78l.51-.56a15.71,15.71,0,0,1,2.43,1.71,13.12,13.12,0,0,0,1.53-3.19l-3.85.06a10.94,10.94,0,0,1-2.62,2.93,2,2,0,0,0-.64-.53A9.57,9.57,0,0,0,495,64.54a6,6,0,0,0,.65-1.51Z"/><path class="cls-3" d="M503.61,71.48a12.1,12.1,0,0,0,.07,1.35h-.81a10.46,10.46,0,0,0,.07-1.32V69.16c0-.46,0-.79,0-1.28A5,5,0,0,1,501.9,69a1.81,1.81,0,0,0-.4-.62,7.76,7.76,0,0,0,2-2.41,3.55,3.55,0,0,0,.31-.63l.64.37c-.1.15-.12.18-.22.35a8.62,8.62,0,0,1-.67,1Zm1-8.21c-.09.1-.13.15-.31.38a8.83,8.83,0,0,1-2.14,2.1,1.78,1.78,0,0,0-.46-.55,6.44,6.44,0,0,0,2-1.88,1.7,1.7,0,0,0,.26-.47Zm6,6.27a4.18,4.18,0,0,0-.29.31,8.42,8.42,0,0,1-1.58,1.42,9.64,9.64,0,0,0,3.13.89,2.46,2.46,0,0,0-.34.68,10.08,10.08,0,0,1-3.39-1.2,10.59,10.59,0,0,1-3.7,1.22,2.35,2.35,0,0,0-.32-.62,9.37,9.37,0,0,0,3.42-1A6.58,6.58,0,0,1,506.13,70a7.87,7.87,0,0,1-1.51,1.06,2.1,2.1,0,0,0-.45-.52,6.23,6.23,0,0,0,2.58-2.08h-.2a7,7,0,0,0-1,0,7.68,7.68,0,0,0,0-1V66.15c0-.36,0-.64,0-.83a7.88,7.88,0,0,1-.63.77,1.71,1.71,0,0,0-.53-.45A6.55,6.55,0,0,0,506,63.47a2.2,2.2,0,0,0,.21-.63l.73.23a4.64,4.64,0,0,0-.22.43,3.44,3.44,0,0,1-.18.36h3.71a8.31,8.31,0,0,0,1.33-.07v.74a9.48,9.48,0,0,0-1.31-.07h-4.06a7.25,7.25,0,0,1-.43.68c.27,0,.51,0,.88,0h3.12a7.86,7.86,0,0,0,1,0,9.7,9.7,0,0,0,0,1v1.31a10.27,10.27,0,0,0,0,1,7.85,7.85,0,0,0-1,0h-2.31a7.26,7.26,0,0,1-.54.71h2.41a3.62,3.62,0,0,0,.85-.05Zm-4.33-3h3.78v-.83h-3.78Zm0,1.38h3.78V67.1h-3.78Zm.34,1.8a6.81,6.81,0,0,0,1.51,1.2,6.75,6.75,0,0,0,1.45-1.2Z"/><path class="cls-3" d="M513.93,67.86a7.87,7.87,0,0,0-1.13.07v-.78a7.63,7.63,0,0,0,1.13.07h7.53a7.79,7.79,0,0,0,1.14-.07v.78a8,8,0,0,0-1.14-.07h-5.07a11.72,11.72,0,0,1-.54,1.14h4a10.46,10.46,0,0,0,1.23,0,1.15,1.15,0,0,0,0,.2c0,.39,0,.39-.08.57a6.12,6.12,0,0,1-.73,2.73c-.22.26-.57.36-1.27.36-.51,0-1.19,0-1.84-.11A2.39,2.39,0,0,0,517,72a14.91,14.91,0,0,0,2,.19c.5,0,.66-.06.78-.27a7.75,7.75,0,0,0,.51-2.27h-4.75c-.21.35-.31.51-.62,1l-.78-.17a10.22,10.22,0,0,0,1.49-2.55Zm.35-3.73a6.3,6.3,0,0,0,0-.83,11.19,11.19,0,0,0,1.23.06h4.41a8.51,8.51,0,0,0,1.24-.06,6.3,6.3,0,0,0,0,.83v1.43a6.13,6.13,0,0,0,0,.81,11,11,0,0,0-1.16,0H515.4a11.56,11.56,0,0,0-1.17,0,6.46,6.46,0,0,0,0-.81ZM515,64v1.75h5.4V64Z"/><path class="cls-3" d="M481.77,81.33a9.64,9.64,0,0,0,0-1,7.62,7.62,0,0,0,1,0h2.43V79.05h-3.25a8.87,8.87,0,0,0-1.16.07v-.76a8.41,8.41,0,0,0,1.16.07h7.44a8.76,8.76,0,0,0,1.16-.07v.76a9.11,9.11,0,0,0-1.16-.07h-3.51v1.29h2.63a7.82,7.82,0,0,0,1,0,9.08,9.08,0,0,0,0,1v3h.09a6.71,6.71,0,0,0,1.06-.07V85a7.32,7.32,0,0,0-1.06-.07h-.09v2c0,.74-.26.89-1.55.89-.36,0-.75,0-1.11,0a2.61,2.61,0,0,0-.17-.73,10.87,10.87,0,0,0,1.54.11c.48,0,.58-.07.58-.36V85h-6.23v1.83a7.86,7.86,0,0,0,.07,1.16h-.85a9.05,9.05,0,0,0,.07-1.17V85h-.18a7.49,7.49,0,0,0-1,.07v-.75a6.81,6.81,0,0,0,1.06.07h.17Zm3.38,1V81h-2.66v1.35Zm0,2V82.9h-2.66v1.44Zm3.56-2V81h-2.88v1.35Zm0,2V82.9h-2.88v1.44Z"/><path class="cls-3" d="M499.44,84.29l-.34.35a9.38,9.38,0,0,1-1.82,1.52,11.61,11.61,0,0,0,4.33,1,2.79,2.79,0,0,0-.4.73,13,13,0,0,1-4.57-1.4,11.26,11.26,0,0,1-2.42.91,18,18,0,0,1-2.33.43,1.88,1.88,0,0,0-.37-.68A11.37,11.37,0,0,0,496,86.14a8.15,8.15,0,0,1-1.57-1.35,9.26,9.26,0,0,1-1.89,1.13,3.54,3.54,0,0,0-.42-.53,7.59,7.59,0,0,0,2.5-1.54,4.2,4.2,0,0,0,.9-1.09l.65.29c-.08.08-.09.1-.17.19s-.4.46-.58.66H498a7.32,7.32,0,0,0,1-.05Zm-5-3.89a6.24,6.24,0,0,1-.95,1.45,6.51,6.51,0,0,1-1.08,1,2.68,2.68,0,0,0-.57-.47,5,5,0,0,0,1.09-.9,4.4,4.4,0,0,0,.88-1.37ZM493,79.7a8,8,0,0,0-1.18.06V79a7.9,7.9,0,0,0,1.21.07h3.13v-.32a3.78,3.78,0,0,0-.07-.77H497a3.86,3.86,0,0,0-.07.77v.32h3.15a8.45,8.45,0,0,0,1.23-.07v.74c-.35,0-.75-.06-1.22-.06h-1.94v2.51c0,.54-.19.7-.78.7-.26,0-.63,0-.92,0a1.58,1.58,0,0,0-.2-.65,6,6,0,0,0,.93.08c.24,0,.3,0,.3-.25V79.7h-1.35c-.06,1.89-.51,2.72-2,3.59a2.11,2.11,0,0,0-.57-.48,2.83,2.83,0,0,0,1.54-1.34,3.9,3.9,0,0,0,.33-1.76ZM495,84.47a7.88,7.88,0,0,0,1.68,1.35,7.05,7.05,0,0,0,1.71-1.35Zm4.2-4.26a17.82,17.82,0,0,1,2.06,2.21l-.62.47a11.38,11.38,0,0,0-1.95-2.3Z"/><path class="cls-3" d="M502.7,79.88a4.81,4.81,0,0,0,.88.06h1.78a4.33,4.33,0,0,0,.88-.06v.72a5,5,0,0,0-.8,0h-1.86a6.44,6.44,0,0,0-.88,0Zm.33,8c0-.32.05-.7.05-1.07V85.35a7.7,7.7,0,0,0,0-.9,3.5,3.5,0,0,0,.7,0h2.17a6.32,6.32,0,0,0,0,.85v1.28c0,.32,0,.53,0,.67-.12,0-.33,0-.62,0h-1.57v.65Zm0-6.45a4.39,4.39,0,0,0,.75,0h1.41a4.21,4.21,0,0,0,.73,0v.68a4.56,4.56,0,0,0-.73,0h-1.41a4.5,4.5,0,0,0-.75,0Zm0,1.51a4.23,4.23,0,0,0,.75,0h1.4a4.18,4.18,0,0,0,.74,0v.68a4.62,4.62,0,0,0-.74,0H503.8a4.36,4.36,0,0,0-.74,0Zm0-4.59a3.86,3.86,0,0,0,.79.06h1.33a3.92,3.92,0,0,0,.79-.06v.69a5.39,5.39,0,0,0-.79,0h-1.33a5.49,5.49,0,0,0-.79,0Zm.62,8.31h1.58V85H503.7Zm8.5.26a.78.78,0,0,1-.29.69,1.7,1.7,0,0,1-.87.14c-.24,0-.39,0-1.06-.05a2.29,2.29,0,0,0-.14-.7,7.59,7.59,0,0,0,1.3.12c.32,0,.4-.07.4-.33V79h-4.1V80.3a40.3,40.3,0,0,1-.26,5.46,6.32,6.32,0,0,1-.69,2.2,1.35,1.35,0,0,0-.56-.48,5,5,0,0,0,.64-2.1,44.21,44.21,0,0,0,.23-5.25,12.33,12.33,0,0,0-.07-1.75,8.8,8.8,0,0,0,1.07,0h3.39a8.45,8.45,0,0,0,1.07,0,9,9,0,0,0,0,1.08Zm-3.6-6.06a5.59,5.59,0,0,0-.78,0v-.64a4.62,4.62,0,0,0,.77.05h.55v-.15a4.44,4.44,0,0,0-.06-.86h.69a4.51,4.51,0,0,0-.05.87v.14h.57a4.38,4.38,0,0,0,.8-.05v.64a5.24,5.24,0,0,0-.8,0h-.57V82h.73a3.76,3.76,0,0,0,.78-.06v.66a3.75,3.75,0,0,0-.77-.05h-2a3.72,3.72,0,0,0-.75.05V82a3.61,3.61,0,0,0,.75.06h.69V80.87Zm2.17,4.65a4.16,4.16,0,0,0,0,.59h-.26l-.52,0h-1.39v.73H508a5.29,5.29,0,0,0,0-.84V84.08a6.39,6.39,0,0,0,0-.71,7.44,7.44,0,0,0,.76,0H510a6.64,6.64,0,0,0,.78,0,5.64,5.64,0,0,0,0,.68Zm-2.13,0h1.55V83.95h-1.55Z"/><line class="cls-2" x1="444.37" y1="47.74" x2="461.26" y2="47.74"/><polygon class="cls-3" points="460.14 51.58 466.79 47.74 460.14 43.9 460.14 51.58"/><line class="cls-2" x1="466.79" y1="87.93" x2="449.9" y2="87.93"/><polygon class="cls-3" points="451.02 84.09 444.37 87.93 451.02 91.77 451.02 84.09"/><rect class="cls-1" x="169.45" y="331.88" width="12.45" height="22.57" transform="translate(351.35 686.33) rotate(-180)"/><polygon class="cls-1" points="181.9 354.45 194.35 363.4 194.35 322.93 181.9 331.88 181.9 354.45"/><circle class="cls-1" cx="200.2" cy="304.55" r="8.79"/><polygon class="cls-1" points="168.81 299.51 199.66 295.52 199.66 313.58 168.81 309.58 168.81 299.51"/><rect class="cls-1" x="359.83" y="331.88" width="12.45" height="22.57"/><polygon class="cls-1" points="359.83 354.45 347.37 363.4 347.37 322.93 359.83 331.88 359.83 354.45"/><circle class="cls-1" cx="342.53" cy="304.55" r="8.79"/><polygon class="cls-1" points="373.92 299.51 343.07 295.52 343.07 313.58 373.92 309.58 373.92 299.51"/><line class="cls-2" x1="146.39" y1="344.74" x2="163.28" y2="344.74"/><polygon class="cls-3" points="162.16 348.58 168.81 344.74 162.16 340.9 162.16 348.58"/><rect class="cls-2" x="396.05" y="298.5" width="96.23" height="54.59"/><path class="cls-3" d="M426.38,305.43a4.6,4.6,0,0,0-.07-.75h.84a4.2,4.2,0,0,0-.07.75v.34h2.76a7.91,7.91,0,0,0,1.2-.07v.73a11.34,11.34,0,0,0-1.14,0h-.55a15.58,15.58,0,0,1-.86,1.82h2a8.27,8.27,0,0,0,1.29-.07v.75a8.92,8.92,0,0,0-1.29-.05h-7.2a9.13,9.13,0,0,0-1.29.05v-.75a8.93,8.93,0,0,0,1.31.07H425a9.22,9.22,0,0,0-.74-1.82h-.57a10.53,10.53,0,0,0-1.08,0v-.73a7,7,0,0,0,1.13.07h2.65Zm2.85,4.28c.36,0,.63,0,1,0a7.43,7.43,0,0,0,0,.86v3.25a6.48,6.48,0,0,0,.07,1h-.77v-.55h-5.29v.55h-.75a6.69,6.69,0,0,0,.07-1v-3.25a7.83,7.83,0,0,0,0-.86,9.88,9.88,0,0,0,1,0Zm-5,1.87h5.29v-1.25h-5.29Zm0,2h5.29V312.2h-5.29Zm3.58-5.37a10.27,10.27,0,0,0,.83-1.82H425a14.14,14.14,0,0,1,.73,1.82Z"/><path class="cls-3" d="M434.8,311.81a6.2,6.2,0,0,1-.49,1.71,4.59,4.59,0,0,1-.88,1.28,2.47,2.47,0,0,0-.65-.48c1-.92,1.45-2.21,1.45-4.46,0-.37,0-.56,0-.86a6.21,6.21,0,0,0,.93.05h5.54a6.27,6.27,0,0,0,.95-.05,5.88,5.88,0,0,0,0,.83v1.61a6.58,6.58,0,0,0,.07,1h-.77v-.6Zm2.66-6.07a5.3,5.3,0,0,0-.07-1h.81a5.9,5.9,0,0,0-.07,1v.14h3.38a7.72,7.72,0,0,0,1.2-.07v.75a9.17,9.17,0,0,0-1.19-.07h-3.39v1.08h2.59a7,7,0,0,0,1.18-.07v.71a8.39,8.39,0,0,0-1.19-.05h-5.65a8.61,8.61,0,0,0-1.18.05v-.71a6.91,6.91,0,0,0,1.17.07h2.41V306.5h-3.06a9.28,9.28,0,0,0-1.21.07v-.75a7.85,7.85,0,0,0,1.22.07h3Zm0,5.46v-1.55h-2.54a13,13,0,0,1-.07,1.55Zm3.4,0v-1.55h-2.73v1.55Z"/><path class="cls-3" d="M446.86,306.14c-.21,0-.47,0-.84.05v-.79a4.13,4.13,0,0,0,.84.05h1.45a5.26,5.26,0,0,0,1-.07,5.65,5.65,0,0,0,0,.73,8,8,0,0,0,.93,3.84,9.86,9.86,0,0,0,1.65,2.28,8.94,8.94,0,0,0,2.06,1.59,2.43,2.43,0,0,0-.62.7,10.32,10.32,0,0,1-2.13-1.88,10.15,10.15,0,0,1-1.57-2.38,8.64,8.64,0,0,1-.69-2,9.47,9.47,0,0,1-1.54,3.56,10.86,10.86,0,0,1-2.87,2.75,2,2,0,0,0-.59-.65,9.22,9.22,0,0,0,2.55-2.17,8.88,8.88,0,0,0,1.69-3.2,9.55,9.55,0,0,0,.35-2.4Z"/><path class="cls-3" d="M462.33,307.08a8.88,8.88,0,0,0,1.29-.06c0,.4,0,.4-.06,1.44a34,34,0,0,1-.38,4.64c-.2,1-.53,1.25-1.41,1.25a13.65,13.65,0,0,1-2-.18,3.44,3.44,0,0,0-.19-.83,9.89,9.89,0,0,0,2.09.28c.58,0,.73-.28.89-1.61a40.82,40.82,0,0,0,.24-4.28h-3.4a9.67,9.67,0,0,1-1.09,3.88,7.51,7.51,0,0,1-3.06,2.85,1.77,1.77,0,0,0-.58-.62,6.77,6.77,0,0,0,1.85-1.19c1.28-1.16,1.89-2.57,2.15-4.93h-2.16a9.8,9.8,0,0,0-1.35.07V307a9.52,9.52,0,0,0,1.36.07h2.19c0-.5,0-.85,0-1.3a6.25,6.25,0,0,0-.07-1.07h.87a7.68,7.68,0,0,0-.06.89c0,.52,0,.52-.05,1.47Z"/><path class="cls-3" d="M408,339.15a10.14,10.14,0,0,1-.12,1.17,4.33,4.33,0,0,1-1.49,2.9,6.48,6.48,0,0,1-1.94,1.09,1.91,1.91,0,0,0-.52-.71,4.17,4.17,0,0,0,2.78-2.17,6.31,6.31,0,0,0,.44-2.28h-3a10,10,0,0,0-1.27.06v-.81a8,8,0,0,0,1.28.07h6.44a8,8,0,0,0,1.28-.07v.81a10,10,0,0,0-1.26-.06Zm-4-3.49a6.05,6.05,0,0,0,1.27.08h4.28a6,6,0,0,0,1.26-.08v.84a8.86,8.86,0,0,0-1.25-.05h-4.3a8.87,8.87,0,0,0-1.25.05Z"/><path class="cls-3" d="M416.51,336.14a3.79,3.79,0,0,0-.24-.94l.87-.14a5.65,5.65,0,0,0,.12.93l.22,1.21,2.49-.38a5.18,5.18,0,0,0,1-.22l.15.79c-.3,0-.3,0-1,.14l-2.5.39.42,2.22,2.73-.44a6.77,6.77,0,0,0,1.09-.25l.15.81a3.33,3.33,0,0,0-.48.06l-.34.05-.25,0-2.76.44.45,2.43a6.11,6.11,0,0,0,.24,1l-.88.17a8.67,8.67,0,0,0-.13-1.06l-.45-2.46-2.95.47a5.85,5.85,0,0,0-1.06.22l-.14-.84a5.78,5.78,0,0,0,1.09-.1l2.93-.47-.4-2.22-2.27.35a9.09,9.09,0,0,0-1.1.24l-.15-.84a8.19,8.19,0,0,0,1.14-.11l2.24-.35Z"/><path class="cls-3" d="M430.77,344a20.45,20.45,0,0,0-3.52-3.4,11.9,11.9,0,0,1-2.1,2,14.09,14.09,0,0,1-2.16,1.32,2.45,2.45,0,0,0-.54-.73,8.81,8.81,0,0,0,2.23-1.27,11.92,11.92,0,0,0,3.93-5c0-.07,0-.08.05-.13a.22.22,0,0,0,0-.08h-.26l-3.67.05a7.41,7.41,0,0,0-1.13.09l0-.89a5.18,5.18,0,0,0,.87.05h.29l3.93,0a2.06,2.06,0,0,0,.7-.09l.46.47a2.07,2.07,0,0,0-.31.54,13.34,13.34,0,0,1-1.82,3.08,27.29,27.29,0,0,1,3.66,3.3Z"/><path class="cls-3" d="M434,344.27a7.1,7.1,0,0,0,.07-1.16v-6.83a6.55,6.55,0,0,0-.07-1.12h.95a6.93,6.93,0,0,0-.05,1.14v2.06a27.35,27.35,0,0,1,4.9,2.32l-.47.81a22.51,22.51,0,0,0-4.1-2.18,1.19,1.19,0,0,1-.34-.19h0a3.83,3.83,0,0,1,0,.65v3.31a7.49,7.49,0,0,0,.05,1.17Z"/><path class="cls-3" d="M441.23,336.61a4.73,4.73,0,0,0,.88.05h1.72a4.36,4.36,0,0,0,.88-.05v.71a5,5,0,0,0-.8,0h-1.79a6.62,6.62,0,0,0-.88,0Zm.36,8c0-.35.06-.71.06-1.07v-1.52a7.63,7.63,0,0,0,0-.89,3.44,3.44,0,0,0,.7,0h1.55a4,4,0,0,0,.66,0,4.93,4.93,0,0,0,0,.86v1.25a7.05,7.05,0,0,0,0,.73l-.65,0h-1.58v.65Zm0-6.51a4.35,4.35,0,0,0,.75,0h1.4a4,4,0,0,0,.74,0v.67a4.45,4.45,0,0,0-.74,0h-1.4a4.52,4.52,0,0,0-.75,0Zm0,1.52a4.35,4.35,0,0,0,.75,0h1.4a4.2,4.2,0,0,0,.74,0v.67a4.62,4.62,0,0,0-.74,0h-1.4a4.43,4.43,0,0,0-.75,0Zm0-4.57a4,4,0,0,0,.79.06h1.29a4.11,4.11,0,0,0,.79-.06v.69a5.38,5.38,0,0,0-.79,0h-1.29a5.58,5.58,0,0,0-.79,0Zm.65,8.34h1.61v-1.66h-1.61Zm5-3.06c0,.13,0,.29,0,.46a4.66,4.66,0,0,1-.7,2.64,3.81,3.81,0,0,1-1.65,1.32,1.68,1.68,0,0,0-.47-.57,3.59,3.59,0,0,0,1.35-.86,2.5,2.5,0,0,0,.62-1.13,5.44,5.44,0,0,0,.19-1.38,2.44,2.44,0,0,0,0-.52Zm3.09.66v-1.3h-4.85V341h-.68a5.24,5.24,0,0,0,0-.7v-.51a4,4,0,0,0,0-.73l.3,0h4.78a8.2,8.2,0,0,0,1.17-.06,6.46,6.46,0,0,0,0,.7v.61a5,5,0,0,0,0,.65Zm-4.42-4.53a7.28,7.28,0,0,0-1.07.07v-.74a7,7,0,0,0,1.09.07h1.52v-.3a5.37,5.37,0,0,0-.07-.89h.78a5.18,5.18,0,0,0-.07.91v.28H450a7.3,7.3,0,0,0,1.11-.07v.74a7.12,7.12,0,0,0-1.08-.07h-1.9v1.14h1.44a6.9,6.9,0,0,0,1.06-.07v.71a6.92,6.92,0,0,0-1.06-.07h-3.37a7,7,0,0,0-1.06.07v-.71a6.8,6.8,0,0,0,1.06.07h1.28v-1.14Zm3.09,3.87a5.31,5.31,0,0,0-.07.92v2.38c0,.23.11.28.7.28s.64-.07.73-.24a5.2,5.2,0,0,0,.19-1.43,2,2,0,0,0,.65.29c-.15,1.85-.3,2-1.61,2-1.08,0-1.32-.13-1.32-.76v-2.53a5.41,5.41,0,0,0-.07-.92Z"/><path class="cls-3" d="M453.53,335.7a5.27,5.27,0,0,0,1.07.07c.61,0,1.49,0,1.85-.08a.82.82,0,0,0,.41-.13l.58.46a5.79,5.79,0,0,0-.61,1.59c-.24.75-.32,1-.52,1.54a8.65,8.65,0,0,1,3,.87,12.49,12.49,0,0,0,.13-2.23,2.65,2.65,0,0,0,0-.54h.83a4.12,4.12,0,0,0,0,.68,15,15,0,0,1-.2,2.39c.59.31,1,.51,1.51.83a2.14,2.14,0,0,0,.32.17l-.3.85a12.82,12.82,0,0,0-1.72-1.09,5.2,5.2,0,0,1-1.13,2,5.93,5.93,0,0,1-1.75,1.34,2.82,2.82,0,0,0-.58-.57,4.85,4.85,0,0,0,1.78-1.27,4.28,4.28,0,0,0,1-1.85,8.12,8.12,0,0,0-3-.91,21.15,21.15,0,0,1-1,2.65c-.4.76-.8,1.09-1.33,1.09a1.63,1.63,0,0,1-1.45-1.8,2.47,2.47,0,0,1,1.31-2.18,3.58,3.58,0,0,1,2-.47c.36-1.08.5-1.5.88-2.77-.87.07-1,.08-2.08.11a6,6,0,0,0-.8.05Zm0,4.77a1.83,1.83,0,0,0-.53,1.27c0,.58.32,1,.71,1s.83-.68,1.63-3A2.67,2.67,0,0,0,453.53,340.47Z"/><path class="cls-3" d="M467.74,343.51h3.6a9.78,9.78,0,0,0,1.23-.07v.84a8.76,8.76,0,0,0-1.23-.08H464a9.74,9.74,0,0,0-1.3.08v-.84a10.43,10.43,0,0,0,1.3.07H467v-7.43a7.72,7.72,0,0,0-.08-1.14h.93a7.62,7.62,0,0,0-.08,1.14v2.26h2.78a8.21,8.21,0,0,0,1.14-.07v.85a8.44,8.44,0,0,0-1.14-.07h-2.78Z"/><path class="cls-3" d="M475.64,335.5a19.1,19.1,0,0,0-.67,4.81c0,.59,0,1.41.09,1.78,0,.21.05.41.07.59a12.28,12.28,0,0,1,.92-2.32l.56.25a10.54,10.54,0,0,0-1.12,3.27v.07l-.76.06a2.72,2.72,0,0,0-.09-.39,12.42,12.42,0,0,1-.41-3.26,22.8,22.8,0,0,1,.44-4.24c.06-.33.07-.4.08-.48s0-.12,0-.26Zm1.12,2.22a8.78,8.78,0,0,0,1.87.15c.44,0,.85,0,1.4-.07a22.37,22.37,0,0,0-.13-2.56l.85,0a2.66,2.66,0,0,0,0,.38c0,.07,0,.12,0,.33s0,.47,0,1.11l0,.67a6.25,6.25,0,0,0,1.75-.46l.05.79a4.67,4.67,0,0,0-.58.12,10,10,0,0,1-1.2.23c0,.3,0,.47,0,.78,0,2.09-.2,3-.85,3.88a5.18,5.18,0,0,1-1.73,1.41,2.77,2.77,0,0,0-.59-.59,4.4,4.4,0,0,0,1.68-1.27c.56-.71.74-1.52.74-3.27,0-.31,0-.56,0-.87-.48,0-1.12.07-1.61.07-.31,0-.93,0-1.33,0h-.36Zm4.88-3a8.21,8.21,0,0,1,.77,1.8l-.58.2a8,8,0,0,0-.77-1.84Zm1.26-.36a8.52,8.52,0,0,1,.78,1.79l-.57.2a8.72,8.72,0,0,0-.78-1.8Z"/><rect class="cls-2" x="46.41" y="298.5" width="96.23" height="54.59"/><path class="cls-3" d="M76.73,305.43a4.6,4.6,0,0,0-.07-.75h.84a4.2,4.2,0,0,0-.07.75v.34H80.2a7.91,7.91,0,0,0,1.2-.07v.73a11.34,11.34,0,0,0-1.14,0H79.7a15.58,15.58,0,0,1-.86,1.82h2a8.27,8.27,0,0,0,1.29-.07v.75a8.92,8.92,0,0,0-1.29-.05h-7.2a9.13,9.13,0,0,0-1.29.05v-.75a8.93,8.93,0,0,0,1.31.07h1.69a9.22,9.22,0,0,0-.74-1.82H74a10.53,10.53,0,0,0-1.08,0v-.73a7,7,0,0,0,1.13.07h2.65Zm2.85,4.28c.36,0,.63,0,1,0a7.43,7.43,0,0,0,0,.86v3.25a6.48,6.48,0,0,0,.07,1h-.77v-.55H74.54v.55H73.8a6.69,6.69,0,0,0,.07-1v-3.25a7.83,7.83,0,0,0,0-.86,9.88,9.88,0,0,0,1,0Zm-5,1.87h5.29v-1.25H74.54Zm0,2h5.29V312.2H74.54Zm3.58-5.37a10.27,10.27,0,0,0,.83-1.82h-3.6a14.14,14.14,0,0,1,.73,1.82Z"/><path class="cls-3" d="M85.16,311.81a6.2,6.2,0,0,1-.49,1.71,4.59,4.59,0,0,1-.88,1.28,2.47,2.47,0,0,0-.65-.48c1-.92,1.45-2.21,1.45-4.46,0-.37,0-.56,0-.86a6.21,6.21,0,0,0,.93.05H91A6.27,6.27,0,0,0,92,309a5.88,5.88,0,0,0,0,.83v1.61a6.58,6.58,0,0,0,.07,1h-.77v-.6Zm2.66-6.07a5.3,5.3,0,0,0-.07-1h.81a5.9,5.9,0,0,0-.07,1v.14h3.38a7.72,7.72,0,0,0,1.2-.07v.75a9.17,9.17,0,0,0-1.19-.07H88.5v1.08h2.59a7,7,0,0,0,1.18-.07v.71a8.39,8.39,0,0,0-1.19-.05H85.42a8.61,8.61,0,0,0-1.18.05v-.71a6.91,6.91,0,0,0,1.17.07h2.41V306.5H84.76a9.28,9.28,0,0,0-1.21.07v-.75a7.85,7.85,0,0,0,1.22.07h3Zm0,5.46v-1.55H85.29a13,13,0,0,1-.07,1.55Zm3.4,0v-1.55H88.5v1.55Z"/><path class="cls-3" d="M97.21,306.14c-.21,0-.47,0-.84.05v-.79a4.13,4.13,0,0,0,.84.05h1.45a5.26,5.26,0,0,0,1-.07,5.65,5.65,0,0,0,0,.73,8,8,0,0,0,.93,3.84,9.86,9.86,0,0,0,1.65,2.28,8.94,8.94,0,0,0,2.06,1.59,2.43,2.43,0,0,0-.62.7,10.32,10.32,0,0,1-2.13-1.88,10.15,10.15,0,0,1-1.57-2.38,8.64,8.64,0,0,1-.69-2,9.47,9.47,0,0,1-1.54,3.56,10.86,10.86,0,0,1-2.87,2.75,2,2,0,0,0-.59-.65,9.22,9.22,0,0,0,2.55-2.17,8.88,8.88,0,0,0,1.69-3.2,9.55,9.55,0,0,0,.35-2.4Z"/><path class="cls-3" d="M112.68,307.08A8.88,8.88,0,0,0,114,307c0,.4,0,.4-.06,1.44a34,34,0,0,1-.38,4.64c-.2,1-.53,1.25-1.41,1.25a13.65,13.65,0,0,1-2-.18,3.44,3.44,0,0,0-.19-.83,9.89,9.89,0,0,0,2.09.28c.58,0,.73-.28.89-1.61a40.82,40.82,0,0,0,.24-4.28h-3.4a9.67,9.67,0,0,1-1.09,3.88,7.51,7.51,0,0,1-3.06,2.85,1.77,1.77,0,0,0-.58-.62,6.77,6.77,0,0,0,1.85-1.19c1.28-1.16,1.89-2.57,2.15-4.93h-2.16a9.8,9.8,0,0,0-1.35.07V307a9.52,9.52,0,0,0,1.36.07h2.19c0-.5,0-.85,0-1.3a6.25,6.25,0,0,0-.07-1.07H110a7.68,7.68,0,0,0-.06.89c0,.52,0,.52-.05,1.47Z"/><path class="cls-3" d="M58.34,339.15a10.14,10.14,0,0,1-.12,1.17,4.33,4.33,0,0,1-1.49,2.9,6.48,6.48,0,0,1-1.94,1.09,1.91,1.91,0,0,0-.52-.71,4.17,4.17,0,0,0,2.78-2.17,6.31,6.31,0,0,0,.44-2.28h-3a10,10,0,0,0-1.27.06v-.81a8,8,0,0,0,1.28.07H61a8,8,0,0,0,1.28-.07v.81a10,10,0,0,0-1.26-.06Zm-4-3.49a6.05,6.05,0,0,0,1.27.08h4.28a6,6,0,0,0,1.26-.08v.84a8.86,8.86,0,0,0-1.25-.05h-4.3a8.87,8.87,0,0,0-1.25.05Z"/><path class="cls-3" d="M66.86,336.14a3.79,3.79,0,0,0-.24-.94l.87-.14a5.65,5.65,0,0,0,.12.93l.22,1.21,2.49-.38a5.18,5.18,0,0,0,1-.22l.15.79c-.3,0-.3,0-1,.14l-2.5.39.42,2.22,2.73-.44a6.77,6.77,0,0,0,1.09-.25l.15.81a3.33,3.33,0,0,0-.48.06l-.34.05-.25,0-2.76.44.45,2.43a6.11,6.11,0,0,0,.24,1l-.88.17a8.67,8.67,0,0,0-.13-1.06L67.74,341l-2.95.47a5.85,5.85,0,0,0-1.06.22l-.14-.84a5.78,5.78,0,0,0,1.09-.1l2.93-.47-.4-2.22-2.27.35a9.09,9.09,0,0,0-1.1.24l-.15-.84a8.19,8.19,0,0,0,1.14-.11l2.24-.35Z"/><path class="cls-3" d="M81.13,344a20.45,20.45,0,0,0-3.52-3.4,11.9,11.9,0,0,1-2.1,2,14.09,14.09,0,0,1-2.16,1.32,2.45,2.45,0,0,0-.54-.73A8.81,8.81,0,0,0,75,341.92,11.92,11.92,0,0,0,79,337c0-.07,0-.08.05-.13a.22.22,0,0,0,0-.08H78.8l-3.67.05a7.41,7.41,0,0,0-1.13.09l0-.89a5.18,5.18,0,0,0,.87.05h.29L79,336a2.06,2.06,0,0,0,.7-.09l.46.47a2.07,2.07,0,0,0-.31.54A13.34,13.34,0,0,1,78.09,340a27.29,27.29,0,0,1,3.66,3.3Z"/><path class="cls-3" d="M84.35,344.27a7.1,7.1,0,0,0,.07-1.16v-6.83a6.55,6.55,0,0,0-.07-1.12h.95a6.93,6.93,0,0,0-.05,1.14v2.06a27.35,27.35,0,0,1,4.9,2.32l-.47.81a22.51,22.51,0,0,0-4.1-2.18,1.19,1.19,0,0,1-.34-.19h0a3.83,3.83,0,0,1,0,.65v3.31a7.49,7.49,0,0,0,.05,1.17Z"/><path class="cls-3" d="M91.59,336.61a4.73,4.73,0,0,0,.88.05h1.72a4.36,4.36,0,0,0,.88-.05v.71a5,5,0,0,0-.8,0H92.47a6.62,6.62,0,0,0-.88,0Zm.36,8c0-.35.06-.71.06-1.07v-1.52a7.63,7.63,0,0,0,0-.89,3.44,3.44,0,0,0,.7,0h1.55a4,4,0,0,0,.66,0,4.93,4.93,0,0,0,0,.86v1.25a7.05,7.05,0,0,0,0,.73l-.65,0H92.63v.65Zm0-6.51a4.35,4.35,0,0,0,.75,0h1.4a4,4,0,0,0,.74,0v.67a4.45,4.45,0,0,0-.74,0h-1.4a4.52,4.52,0,0,0-.75,0Zm0,1.52a4.35,4.35,0,0,0,.75,0h1.4a4.2,4.2,0,0,0,.74,0v.67a4.62,4.62,0,0,0-.74,0h-1.4a4.43,4.43,0,0,0-.75,0Zm0-4.57a4,4,0,0,0,.79.06h1.29a4.11,4.11,0,0,0,.79-.06v.69a5.38,5.38,0,0,0-.79,0H92.78a5.58,5.58,0,0,0-.79,0Zm.65,8.34h1.61v-1.66H92.63Zm5-3.06c0,.13,0,.29,0,.46a4.66,4.66,0,0,1-.7,2.64,3.81,3.81,0,0,1-1.65,1.32,1.68,1.68,0,0,0-.47-.57,3.59,3.59,0,0,0,1.35-.86,2.5,2.5,0,0,0,.62-1.13,5.44,5.44,0,0,0,.19-1.38,2.44,2.44,0,0,0,0-.52Zm3.09.66v-1.3H95.87V341h-.68a5.24,5.24,0,0,0,0-.7v-.51a4,4,0,0,0,0-.73l.3,0h4.78a8.2,8.2,0,0,0,1.17-.06,6.46,6.46,0,0,0,0,.7v.61a5,5,0,0,0,0,.65Zm-4.42-4.53a7.28,7.28,0,0,0-1.07.07v-.74a7,7,0,0,0,1.09.07h1.52v-.3a5.37,5.37,0,0,0-.07-.89h.78a5.18,5.18,0,0,0-.07.91v.28h1.87a7.3,7.3,0,0,0,1.11-.07v.74a7.12,7.12,0,0,0-1.08-.07h-1.9v1.14h1.44a6.9,6.9,0,0,0,1.06-.07v.71a6.92,6.92,0,0,0-1.06-.07H96.56a7,7,0,0,0-1.06.07v-.71a6.8,6.8,0,0,0,1.06.07h1.28v-1.14Zm3.09,3.87a5.31,5.31,0,0,0-.07.92v2.38c0,.23.11.28.7.28s.64-.07.73-.24a5.2,5.2,0,0,0,.19-1.43,2,2,0,0,0,.65.29c-.15,1.85-.3,2-1.61,2-1.08,0-1.32-.13-1.32-.76v-2.53a5.41,5.41,0,0,0-.07-.92Z"/><path class="cls-3" d="M103.89,335.7a5.27,5.27,0,0,0,1.07.07c.61,0,1.49,0,1.85-.08a.82.82,0,0,0,.41-.13l.58.46a5.79,5.79,0,0,0-.61,1.59c-.24.75-.32,1-.52,1.54a8.65,8.65,0,0,1,3,.87,12.49,12.49,0,0,0,.13-2.23,2.65,2.65,0,0,0,0-.54h.83a4.12,4.12,0,0,0,0,.68,15,15,0,0,1-.2,2.39c.59.31,1,.51,1.51.83a2.14,2.14,0,0,0,.32.17l-.3.85a12.82,12.82,0,0,0-1.72-1.09,5.2,5.2,0,0,1-1.13,2,5.93,5.93,0,0,1-1.75,1.34,2.82,2.82,0,0,0-.58-.57,4.85,4.85,0,0,0,1.78-1.27,4.28,4.28,0,0,0,1-1.85,8.12,8.12,0,0,0-3-.91,21.15,21.15,0,0,1-1,2.65c-.4.76-.8,1.09-1.33,1.09a1.63,1.63,0,0,1-1.45-1.8,2.47,2.47,0,0,1,1.31-2.18,3.58,3.58,0,0,1,2-.47c.36-1.08.5-1.5.88-2.77-.87.07-1,.08-2.08.11a6,6,0,0,0-.8.05Zm0,4.77a1.83,1.83,0,0,0-.53,1.27c0,.58.32,1,.71,1s.83-.68,1.63-3A2.67,2.67,0,0,0,103.89,340.47Z"/><path class="cls-3" d="M118.1,343.51h3.6a9.78,9.78,0,0,0,1.23-.07v.84a8.76,8.76,0,0,0-1.23-.08h-7.33a9.74,9.74,0,0,0-1.3.08v-.84a10.43,10.43,0,0,0,1.3.07h2.95v-7.43a7.72,7.72,0,0,0-.08-1.14h.93a7.62,7.62,0,0,0-.08,1.14v2.26h2.78a8.21,8.21,0,0,0,1.14-.07v.85a8.44,8.44,0,0,0-1.14-.07H118.1Z"/><path class="cls-3" d="M126,335.5a19.1,19.1,0,0,0-.67,4.81c0,.59,0,1.41.09,1.78,0,.21.05.41.07.59a12.28,12.28,0,0,1,.92-2.32l.56.25a10.54,10.54,0,0,0-1.12,3.27v.07l-.76.06a2.72,2.72,0,0,0-.09-.39,12.42,12.42,0,0,1-.41-3.26,22.8,22.8,0,0,1,.44-4.24c.06-.33.07-.4.08-.48s0-.12,0-.26Zm1.12,2.22a8.78,8.78,0,0,0,1.87.15c.44,0,.85,0,1.4-.07a22.37,22.37,0,0,0-.13-2.56l.85,0a2.66,2.66,0,0,0,0,.38c0,.07,0,.12,0,.33s0,.47,0,1.11l0,.67a6.25,6.25,0,0,0,1.75-.46l.05.79a4.67,4.67,0,0,0-.58.12,10,10,0,0,1-1.2.23c0,.3,0,.47,0,.78,0,2.09-.2,3-.85,3.88a5.18,5.18,0,0,1-1.73,1.41,2.77,2.77,0,0,0-.59-.59,4.4,4.4,0,0,0,1.68-1.27c.56-.71.74-1.52.74-3.27,0-.31,0-.56,0-.87-.48,0-1.12.07-1.61.07-.31,0-.93,0-1.33,0h-.36Zm4.88-3a8.21,8.21,0,0,1,.77,1.8l-.58.2a8,8,0,0,0-.77-1.84Zm1.26-.36a8.52,8.52,0,0,1,.78,1.79l-.57.2a8.72,8.72,0,0,0-.78-1.8Z"/><line class="cls-2" x1="373.66" y1="304.55" x2="390.55" y2="304.55"/><polygon class="cls-3" points="389.43 308.39 396.08 304.55 389.43 300.71 389.43 308.39"/><line class="cls-2" x1="396.08" y1="344.74" x2="379.18" y2="344.74"/><polygon class="cls-3" points="380.31 340.9 373.66 344.74 380.31 348.58 380.31 340.9"/><rect class="cls-2" x="0.5" y="0.5" width="535.67" height="381.44"/><path class="cls-3" d="M497.13,40.36a6.51,6.51,0,1,1,6.51-6.51A6.51,6.51,0,0,1,497.13,40.36ZM491,33.84a6.08,6.08,0,1,0,6.08-6.08A6.07,6.07,0,0,0,491,33.84Zm5.77-2.76h0l-1.21.64-.18-.73,1.46-.76h.87v7.2h-.92Z"/><path class="cls-3" d="M325.38,193a6.51,6.51,0,1,1,6.51-6.51A6.51,6.51,0,0,1,325.38,193Zm-6.08-6.51a6.08,6.08,0,1,0,6.08-6.08A6.07,6.07,0,0,0,319.3,186.44Zm3.94,2.38a3.63,3.63,0,0,0,1.75.49c1.5,0,1.79-.94,1.79-1.34,0-1.15-1.21-1.43-2.1-1.43h-.59v-.73h.62c.84,0,1.78-.34,1.78-1.16,0-.49-.32-1.06-1.39-1.06a2.9,2.9,0,0,0-1.58.49l-.25-.69a3.73,3.73,0,0,1,2-.59c1.6,0,2.18.9,2.18,1.69a1.75,1.75,0,0,1-1.39,1.64v0a1.92,1.92,0,0,1,1.7,1.81c0,1-.87,2.12-2.79,2.12a3.69,3.69,0,0,1-2-.53Z"/><path class="cls-3" d="M443,290.44a6.51,6.51,0,1,1,6.51-6.51A6.51,6.51,0,0,1,443,290.44Zm-6.08-6.51a6.08,6.08,0,1,0,6.08-6.08A6.07,6.07,0,0,0,436.92,283.93Zm6.65,3.6v-1.89h-3.73V285l3.7-4.68h.94v4.57h1.08v.74h-1.08v1.89Zm0-2.63v-2.76c0-.25,0-.63,0-.88h0c-.17.29-.35.59-.52.84l-2.33,2.79v0Z"/><path class="cls-3" d="M93.11,293.77a6.51,6.51,0,1,1,6.51-6.51A6.51,6.51,0,0,1,93.11,293.77ZM87,287.26a6.08,6.08,0,1,0,6.08-6.08A6.07,6.07,0,0,0,87,287.26Zm8.28-2.75H92.38l-.27,1.82a3.28,3.28,0,0,1,.7-.07c1.4,0,2.68.76,2.68,2.23a2.52,2.52,0,0,1-2.76,2.41,3.84,3.84,0,0,1-1.93-.48l.24-.73a3.49,3.49,0,0,0,1.69.43,1.66,1.66,0,0,0,1.79-1.5c0-.94-.59-1.62-2.14-1.62a7.78,7.78,0,0,0-1.13.1l.42-3.38h3.64Z"/><path class="cls-3" d="M42.31,38.72a6.51,6.51,0,1,1,6.51-6.51A6.51,6.51,0,0,1,42.31,38.72Zm-6.08-6.51a6.08,6.08,0,1,0,6.08-6.08A6.07,6.07,0,0,0,36.23,32.21Zm3.63,3.53v-.59l.78-.7c2.31-2,3-2.72,3-3.66A1.4,1.4,0,0,0,42,29.35a2.84,2.84,0,0,0-1.69.66L40,29.35a3.4,3.4,0,0,1,2.19-.78,2.1,2.1,0,0,1,2.34,2.06c0,1.37-1,2.24-2.89,3.89l-.5.41v0h3.59v.78Z"/><path class="cls-3" d="M278.46,129.32a5.06,5.06,0,0,0,0,7.36v0H278a5.29,5.29,0,0,1,0-7.44h.48Z"/><path class="cls-3" d="M278.94,130a7.71,7.71,0,0,1,1.38-.12c2,0,2.13,1.26,2.13,1.74a2,2,0,0,1-2.22,1.94,2.52,2.52,0,0,1-.62-.06V136h-.66Zm.66,3a2.43,2.43,0,0,0,.64.06c1,0,1.54-.48,1.54-1.35s-.62-1.25-1.46-1.25a3.55,3.55,0,0,0-.73.06Z"/><path class="cls-3" d="M287.18,135.85a3.73,3.73,0,0,1-1.52.27,2.75,2.75,0,0,1-2.83-3.08,2.91,2.91,0,0,1,3-3.19,3,3,0,0,1,1.34.25l-.18.56a2.65,2.65,0,0,0-1.15-.25c-1.38,0-2.33.93-2.33,2.61a2.23,2.23,0,0,0,2.29,2.54,3,3,0,0,0,1.22-.25Z"/><path class="cls-3" d="M294.4,130.67V136c0,.38-.09.55-.36.65a6.1,6.1,0,0,1-1.5.1,2.05,2.05,0,0,0-.19-.55l.82,0c.66,0,.7,0,.7-.21V131.2h-2.5a5.91,5.91,0,0,1-.14,1,23.73,23.73,0,0,1,2.33,2.31l-.44.34a22.14,22.14,0,0,0-2.05-2.13,4.36,4.36,0,0,1-2,2.28,2,2,0,0,0-.38-.41,3.74,3.74,0,0,0,2.17-3.41h-2.37v5.52h-.54v-6.05h2.92v-1.4l.7,0c0,.06,0,.1-.16.11v1.24Z"/><path class="cls-3" d="M300.31,131.91a13.3,13.3,0,0,0,.37,2.45,8,8,0,0,0,.74-2l.65.16c0,.06-.08.09-.18.09a8.3,8.3,0,0,1-1,2.38c.29.79.63,1.19.94,1.19s.27-.21.32-1a1.28,1.28,0,0,0,.45.26c-.1,1.08-.3,1.27-.8,1.27s-.91-.42-1.25-1.22a5.37,5.37,0,0,1-1.4,1.26,2.69,2.69,0,0,0-.38-.35,4.32,4.32,0,0,0,.62-.43h-2.21v.43h-.43v-4h2.88v.39H298.5v.6h1.08v1.5H298.5v.63h1.18v.15a5.53,5.53,0,0,0,.66-.77,14.12,14.12,0,0,1-.52-3h-3.52v1.54a5.64,5.64,0,0,1-.8,3.28,2.29,2.29,0,0,0-.42-.29,5,5,0,0,0,.73-3v-2h4c0-.23,0-.46,0-.71h.17v-.35h-2.19v.55h-.53v-.55h-1.92v-.46h1.92v-.63l.69,0c0,.06-.06.1-.16.11v.48h2.19v-.63l.7,0c0,.06-.06.1-.16.11v.48h2v.46h-2v.51h-.18c0,.18,0,.37,0,.54h1.46a4,4,0,0,0-.88-.7l.33-.25a3.55,3.55,0,0,1,.91.7l-.3.26h.63v.47Zm-2.24.89h-.9v.6h.9Zm1.1,1.72v-.74h-2v.74Zm-2,.38v.63h.9v-.63Z"/><path class="cls-3" d="M309.93,130.82a.19.19,0,0,1-.12.08,13.41,13.41,0,0,1-3.23,3.21,15.66,15.66,0,0,1,1.64,1.56l-.49.42A16.8,16.8,0,0,0,304,133l.38-.41a16,16,0,0,1,1.78,1.18,12,12,0,0,0,2.81-2.73h-5.87v-.54h6.29l.1,0Z"/><path class="cls-3" d="M316.86,130a.18.18,0,0,1-.15.06h-.08a19.51,19.51,0,0,1-2.28,1.91l.19.09a.2.2,0,0,1-.18.1v4.29h-.58v-4.11a23.12,23.12,0,0,1-3,1.78,2.92,2.92,0,0,0-.34-.44,20.29,20.29,0,0,0,5.86-4.13Z"/><path class="cls-3" d="M323.14,131a.51.51,0,0,1-.12.11,8.39,8.39,0,0,1-4.36,5.37,2.07,2.07,0,0,0-.41-.44,7.51,7.51,0,0,0,4.05-4.73h-2.85a8.18,8.18,0,0,1-1.79,2,3.17,3.17,0,0,0-.46-.37,8.12,8.12,0,0,0,2.55-3.47l.76.22c0,.08-.13.1-.23.1-.16.35-.33.69-.51,1h2.81l.1,0Z"/><path class="cls-3" d="M324.1,129.75a6.37,6.37,0,0,1,0,7.37h-.54a6.51,6.51,0,0,0,0-7.37Z"/><path class="cls-3" d="M156.48,8.18l2.64,2.64,2.64-2.64.23.23L159.35,11,162,13.69l-.23.23-2.64-2.64-2.65,2.65-.23-.23L158.88,11l-2.64-2.64Zm.36,3.47a.6.6,0,1,1,.6-.6A.6.6,0,0,1,156.84,11.65Zm1.68-2.88a.6.6,0,1,1,.6.6A.6.6,0,0,1,158.51,8.77Zm1.2,4.56a.6.6,0,1,1-.6-.6A.6.6,0,0,1,159.71,13.33Zm1.68-2.88a.6.6,0,1,1-.6.6A.6.6,0,0,1,161.39,10.45Z"/><path class="cls-3" d="M169.83,7.83v6.24c0,.7-.37.71-1.75.7a2.28,2.28,0,0,0-.18-.5l.74,0c.6,0,.66,0,.66-.22V8.34h-4.78v2a7.65,7.65,0,0,1-1.06,4.41,2,2,0,0,0-.42-.35,6.88,6.88,0,0,0,1-4.06V7.83Zm-5,2.69h1.7V9.67h-1.5V9.23h1.5V8.49l.67,0c0,.06-.06.1-.15.11v.58h1.58v.44h-1.58v.86h1.78V11h-4Zm3.57,3.26h-2.65v.46h-.5V11.67h3.16Zm-.51-1.67h-2.14v1.23h2.14Z"/><path class="cls-3" d="M171,9.59a6.1,6.1,0,0,1,1.44.83l-.31.45a6,6,0,0,0-1.42-.88Zm-.1,4.73a24.71,24.71,0,0,0,1.33-2.62l.42.33c-.37.86-.86,1.85-1.21,2.46a.16.16,0,0,1,0,.11.13.13,0,0,1,0,.09Zm.54-6.91a5.34,5.34,0,0,1,1.4.9l-.31.43a6,6,0,0,0-1.39-.94Zm5.78,3.12.35.18a.16.16,0,0,1-.09.09,5.88,5.88,0,0,1-1.39,2.46,5.42,5.42,0,0,0,2.14,1.06,2.22,2.22,0,0,0-.35.46,5.53,5.53,0,0,1-2.16-1.17,6.37,6.37,0,0,1-2,1.16,2.36,2.36,0,0,0-.34-.45,6,6,0,0,0,2-1.08,6.17,6.17,0,0,1-1.25-2.06l.46-.14a5.15,5.15,0,0,0,1.17,1.85A5.09,5.09,0,0,0,176.9,11h-3.09a6.41,6.41,0,0,1-1.06,3.72,2,2,0,0,0-.46-.27,6.22,6.22,0,0,0,1-3.89v-2h2V7.33l.69,0c0,.06,0,.1-.16.11V8.57h2l.31,0a8.28,8.28,0,0,1-.7,1.69l-.46-.15a10.15,10.15,0,0,0,.44-1.06h-1.63v1.49h1.35Zm-2-1.46h-1.46v1.49h1.46Z"/><path class="cls-3" d="M180.17,10.91v-1a5.24,5.24,0,0,1-1.47,1.24,2.05,2.05,0,0,0-.3-.41A4.13,4.13,0,0,0,180,9.34h-1.58V8.88h1.72V7.35l.66,0c0,.06,0,.1-.15.1V8.88h1.7v.46h-1.7v.18c.33.19,1.18.74,1.4.9l-.31.39c-.19-.18-.7-.58-1.09-.86v1Zm2.23,1.26h-.72a3.49,3.49,0,0,1-.57,1.27A7.55,7.55,0,0,1,182,14l-.36.4a6.45,6.45,0,0,0-.91-.58,4.51,4.51,0,0,1-2,1,1.29,1.29,0,0,0-.26-.46,4,4,0,0,0,1.77-.74c-.3-.15-.62-.3-.93-.42l-.16.29-.47-.18c.18-.3.39-.69.6-1.1h-.9v-.47h1.14c.13-.26.26-.53.36-.77l.63.14c0,.06-.07.08-.18.07l-.26.55h2.27ZM179.2,7.57a4,4,0,0,1,.56,1.06l-.42.2a4.28,4.28,0,0,0-.54-1.08Zm.7,4.59-.31.59c.36.14.72.29,1.06.45a2.8,2.8,0,0,0,.5-1ZM181,8.64a7.44,7.44,0,0,0,.65-1.08l.56.25c0,.06-.09.06-.16.06a8.45,8.45,0,0,1-.68,1Zm4.85.71h-.54a9.41,9.41,0,0,1-1,3.3,4,4,0,0,0,1.61,1.66,2.15,2.15,0,0,0-.38.46A4.47,4.47,0,0,1,184,13.17a5.05,5.05,0,0,1-2,1.61,2.14,2.14,0,0,0-.3-.46,4.48,4.48,0,0,0,2-1.69,10.4,10.4,0,0,1-.76-2.32,5.44,5.44,0,0,1-.52,1,2.16,2.16,0,0,0-.41-.34,9.49,9.49,0,0,0,1.21-3.6l.68.14c0,.06-.07.1-.18.1-.08.42-.18.86-.29,1.27h2.41Zm-2.56,0,0,.08a11,11,0,0,0,.74,2.63,9.37,9.37,0,0,0,.76-2.71Z"/><path class="cls-3" d="M186.92,14.32a8.77,8.77,0,0,1-.34-2.81A20.34,20.34,0,0,1,187,7.77l.78.15a.21.21,0,0,1-.21.14,15.36,15.36,0,0,0-.46,3.45,9.48,9.48,0,0,0,.07,1.51c.18-.48.5-1.25.66-1.62l.36.34a9.37,9.37,0,0,0-.82,2.13,1.09,1.09,0,0,0,.08.38Zm2-4.71c.67,0,1.34,0,2,0,0-.69-.06-1.28-.07-1.87l.81,0c0,.08-.08.14-.21.17,0,.51,0,1,0,1.64a7.1,7.1,0,0,0,1.57-.32l.07.56a7.71,7.71,0,0,1-1.62.29c0,.89.07,1.82.1,2.33a5.89,5.89,0,0,1,1.63,1l-.31.51a4.8,4.8,0,0,0-1.3-.91c0,.68-.14,1.44-1.34,1.44-.94,0-1.56-.45-1.56-1.15s.82-1.18,1.56-1.18a2.77,2.77,0,0,1,.76.1c0-.5-.07-1.34-.11-2.13l-.82,0H189Zm2.19,3.14a2.72,2.72,0,0,0-.79-.14c-.49,0-1.07.18-1.07.68s.48.67,1.06.67.81-.29.81-.93Z"/><path class="cls-3" d="M198.48,11.22l-.33,0V14.2c0,.57-.28.57-1.11.57a1.56,1.56,0,0,0-.14-.44h.45c.34,0,.38,0,.38-.13V11.33l-1.2.16a7.46,7.46,0,0,1-.68,3.3,1.34,1.34,0,0,0-.35-.25,6.72,6.72,0,0,0,.61-3l-.3,0a.15.15,0,0,1-.11.11l-.09-.34-.35.15v2.64c0,.57-.26.63-1.19.62a2.12,2.12,0,0,0-.16-.48h.46c.36,0,.4,0,.4-.14V11.72l-.7.29a.13.13,0,0,1-.1.13l-.21-.59c.28-.09.62-.22,1-.36V9.51h-.92V9h.92V7.34l.65,0c0,.06,0,.1-.16.11V9h.55v.5h-.55V11l.46-.17.06.28.35,0V8.44h.63a9.25,9.25,0,0,0,.25-1.1l.61.16s-.07.07-.17.08c-.06.24-.15.58-.25.86h1v2.41l.32,0Zm-1.94-2.33V11l1.19-.14v-2Zm.64,1.67a5.4,5.4,0,0,0-.46-1.18l.3-.14a4.82,4.82,0,0,1,.47,1.14Zm-.24,1.2.46,0s0,.08-.13.09v1.83h-.33Zm3.7-.77.3.11a.16.16,0,0,1-.06.09,6.12,6.12,0,0,1-.84,2.2,3.14,3.14,0,0,0,1.29,1,1.75,1.75,0,0,0-.33.4,3.43,3.43,0,0,1-1.25-1,4.09,4.09,0,0,1-1.14,1,1.94,1.94,0,0,0-.3-.38,3.47,3.47,0,0,0,1.16-1,5.89,5.89,0,0,1-.71-1.81l.42-.1a5,5,0,0,0,.57,1.5,5.47,5.47,0,0,0,.6-1.5h-1.77V11h2Zm-1.41-2.81v.66a3,3,0,0,1-.55,1.91,1.59,1.59,0,0,0-.34-.28,2.5,2.5,0,0,0,.46-1.63V7.75h1.62V9.87c0,.3,0,.34.12.34s.33,0,.34-.22,0-.37,0-.7a1.1,1.1,0,0,0,.36.18c0,.8,0,1.11-.53,1.11h-.29c-.46,0-.46-.28-.46-.77V8.19Z"/><path class="cls-3" d="M203.24,10.54v2.61c.62,1,1.77,1,3.21,1,.86,0,1.88,0,2.5-.06a2,2,0,0,0-.18.54c-.55,0-1.43,0-2.22,0-1.65,0-2.74,0-3.55-1-.39.35-.82.71-1.16,1a.11.11,0,0,1-.07.13l-.31-.59a13.8,13.8,0,0,0,1.26-1V11h-1.18v-.51Zm-1.19-3a5.79,5.79,0,0,1,1.43,1.26l-.42.36a5.74,5.74,0,0,0-1.41-1.3Zm6.78,3.55H206.7a3,3,0,0,0,2.14,2.1,1.73,1.73,0,0,0-.34.45,3.41,3.41,0,0,1-2.18-2.19,3.57,3.57,0,0,1-2.16,2.16,1.88,1.88,0,0,0-.36-.4,3,3,0,0,0,2.07-2.12h-2.14v-.5h2.2c0-.1,0-.19,0-.28V9.39H204V8.9h3.18l-.41-.18a8.74,8.74,0,0,0,.8-1.38l.64.24c0,.06-.08.07-.18.08a10.19,10.19,0,0,1-.83,1.24h1.39v.5h-2.12v.92c0,.09,0,.18,0,.28h2.37ZM205.05,8.9a4.56,4.56,0,0,0-.73-1.34l.46-.19a4.28,4.28,0,0,1,.75,1.31Z"/><path class="cls-3" d="M209.44,9.59a6.09,6.09,0,0,1,1.44.83l-.31.45a6.05,6.05,0,0,0-1.42-.88Zm-.1,4.73a24.71,24.71,0,0,0,1.33-2.62l.42.33c-.37.86-.86,1.85-1.21,2.46a.16.16,0,0,1,0,.11.13.13,0,0,1,0,.09Zm.54-6.91a5.35,5.35,0,0,1,1.4.9l-.31.43a6,6,0,0,0-1.39-.94Zm5.78,3.12.35.18a.16.16,0,0,1-.09.09,5.89,5.89,0,0,1-1.39,2.46,5.42,5.42,0,0,0,2.13,1.06,2.22,2.22,0,0,0-.35.46,5.53,5.53,0,0,1-2.16-1.17,6.37,6.37,0,0,1-2,1.16,2.36,2.36,0,0,0-.34-.45,6,6,0,0,0,2-1.08,6.17,6.17,0,0,1-1.25-2.06l.46-.14a5.15,5.15,0,0,0,1.17,1.85A5.1,5.1,0,0,0,215.31,11h-3.09a6.41,6.41,0,0,1-1.06,3.72,2,2,0,0,0-.46-.27,6.22,6.22,0,0,0,1-3.89v-2h2V7.33l.69,0c0,.06,0,.1-.16.11V8.57h2l.31,0a8.28,8.28,0,0,1-.7,1.69l-.46-.15a10.15,10.15,0,0,0,.44-1.06h-1.63v1.49h1.35Zm-2-1.46h-1.46v1.49h1.46Z"/><path class="cls-3" d="M223.59,7.83v6.24c0,.7-.37.71-1.75.7a2.28,2.28,0,0,0-.18-.5l.74,0c.6,0,.66,0,.66-.22V8.34h-4.78v2a7.65,7.65,0,0,1-1.06,4.41,2,2,0,0,0-.42-.35,6.88,6.88,0,0,0,1-4.06V7.83Zm-5,2.69h1.7V9.67h-1.5V9.23h1.5V8.49l.67,0c0,.06-.06.1-.15.11v.58h1.58v.44h-1.58v.86h1.78V11h-4Zm3.57,3.26h-2.65v.46H219V11.67h3.16Zm-.51-1.67h-2.14v1.23h2.14Z"/><path class="cls-3" d="M224.8,9.59a6.09,6.09,0,0,1,1.44.83l-.31.45a6.05,6.05,0,0,0-1.42-.88Zm-.1,4.73A24.71,24.71,0,0,0,226,11.71l.42.33c-.37.86-.86,1.85-1.21,2.46a.16.16,0,0,1,0,.11.13.13,0,0,1,0,.09Zm.54-6.91a5.35,5.35,0,0,1,1.4.9l-.31.43a6,6,0,0,0-1.39-.94ZM231,10.54l.35.18a.16.16,0,0,1-.09.09,5.89,5.89,0,0,1-1.39,2.46A5.42,5.42,0,0,0,232,14.33a2.22,2.22,0,0,0-.35.46,5.53,5.53,0,0,1-2.16-1.17,6.37,6.37,0,0,1-2,1.16,2.36,2.36,0,0,0-.34-.45,6,6,0,0,0,2-1.08,6.17,6.17,0,0,1-1.25-2.06l.46-.14a5.15,5.15,0,0,0,1.17,1.85A5.1,5.1,0,0,0,230.67,11h-3.09a6.41,6.41,0,0,1-1.06,3.72,2,2,0,0,0-.46-.27,6.22,6.22,0,0,0,1-3.89v-2h2V7.33l.69,0c0,.06,0,.1-.16.11V8.57h2l.31,0a8.28,8.28,0,0,1-.7,1.69l-.46-.15a10.15,10.15,0,0,0,.44-1.06h-1.63v1.49h1.35Zm-2-1.46h-1.46v1.49H229Z"/><path class="cls-3" d="M233.93,10.91v-1a5.24,5.24,0,0,1-1.47,1.24,2.05,2.05,0,0,0-.3-.41,4.13,4.13,0,0,0,1.62-1.35h-1.58V8.88h1.72V7.35l.66,0c0,.06,0,.1-.15.1V8.88h1.7v.46h-1.7v.18c.33.19,1.18.74,1.4.9l-.31.39c-.19-.18-.7-.58-1.09-.86v1Zm2.23,1.26h-.72a3.49,3.49,0,0,1-.57,1.27,7.55,7.55,0,0,1,.93.57l-.36.4a6.45,6.45,0,0,0-.91-.58,4.51,4.51,0,0,1-2,1,1.29,1.29,0,0,0-.26-.46,4,4,0,0,0,1.77-.74c-.3-.15-.62-.3-.93-.42l-.16.29-.47-.18c.18-.3.39-.69.6-1.1h-.9v-.47h1.14c.13-.26.26-.53.36-.77l.63.14c0,.06-.07.08-.18.07l-.26.55h2.27ZM233,7.57a4,4,0,0,1,.56,1.06l-.42.2a4.28,4.28,0,0,0-.54-1.08Zm.7,4.59-.31.59c.36.14.72.29,1.06.45a2.8,2.8,0,0,0,.5-1Zm1.12-3.52a7.44,7.44,0,0,0,.65-1.08l.56.25c0,.06-.09.06-.16.06a8.45,8.45,0,0,1-.68,1Zm4.85.71h-.54a9.41,9.41,0,0,1-1,3.3,4,4,0,0,0,1.61,1.66,2.15,2.15,0,0,0-.38.46,4.47,4.47,0,0,1-1.55-1.61,5.05,5.05,0,0,1-2,1.61,2.14,2.14,0,0,0-.3-.46,4.48,4.48,0,0,0,2-1.69,10.4,10.4,0,0,1-.76-2.32,5.44,5.44,0,0,1-.52,1,2.16,2.16,0,0,0-.41-.34A9.49,9.49,0,0,0,237,7.34l.68.14c0,.06-.07.1-.18.1-.08.42-.18.86-.29,1.27h2.41Zm-2.56,0,0,.08a11,11,0,0,0,.74,2.63,9.37,9.37,0,0,0,.76-2.71Z"/><path class="cls-3" d="M363.1,281.48a5.06,5.06,0,0,0,0,7.36v0h-.48a5.29,5.29,0,0,1,0-7.44h.48Z"/><path class="cls-3" d="M363.58,282.18a7.71,7.71,0,0,1,1.38-.12c2,0,2.13,1.26,2.13,1.74a2,2,0,0,1-2.22,1.94,2.52,2.52,0,0,1-.62-.06v2.5h-.66Zm.66,3a2.43,2.43,0,0,0,.64.06c1,0,1.54-.48,1.54-1.35s-.62-1.25-1.46-1.25a3.55,3.55,0,0,0-.73.06Z"/><path class="cls-3" d="M371.82,288a3.74,3.74,0,0,1-1.52.27,2.75,2.75,0,0,1-2.83-3.08,2.91,2.91,0,0,1,3-3.19,3,3,0,0,1,1.34.25l-.18.56a2.65,2.65,0,0,0-1.15-.25c-1.38,0-2.33.93-2.33,2.61a2.23,2.23,0,0,0,2.29,2.54,3,3,0,0,0,1.22-.25Z"/><path class="cls-3" d="M379,282.84v5.31c0,.38-.09.55-.36.65a6.1,6.1,0,0,1-1.5.1,2,2,0,0,0-.19-.55l.82,0c.66,0,.7,0,.7-.21v-4.78H376a6,6,0,0,1-.14,1,23.68,23.68,0,0,1,2.33,2.31l-.44.34a22.14,22.14,0,0,0-2.05-2.13,4.36,4.36,0,0,1-2,2.28,2,2,0,0,0-.38-.41,3.74,3.74,0,0,0,2.17-3.41h-2.37v5.52h-.54v-6.05h2.92v-1.4l.7,0c0,.06,0,.1-.16.11v1.24Z"/><path class="cls-3" d="M385,284.07a13.29,13.29,0,0,0,.37,2.45,8,8,0,0,0,.74-2l.65.16c0,.06-.08.09-.18.09a8.31,8.31,0,0,1-1,2.38c.29.79.63,1.19.94,1.19s.27-.21.32-1a1.28,1.28,0,0,0,.45.26c-.1,1.08-.3,1.27-.8,1.27s-.91-.42-1.25-1.22a5.38,5.38,0,0,1-1.4,1.26,2.69,2.69,0,0,0-.38-.35,4.32,4.32,0,0,0,.62-.43h-2.21v.43h-.43v-4h2.88V285h-1.12v.6h1.08v1.5h-1.08v.63h1.17v.15a5.54,5.54,0,0,0,.66-.77,14.09,14.09,0,0,1-.52-3h-3.52v1.54a5.64,5.64,0,0,1-.8,3.28,2.29,2.29,0,0,0-.42-.29,5,5,0,0,0,.73-3v-2h4c0-.23,0-.46,0-.71h.17v-.35h-2.19v.55h-.53v-.55h-1.92v-.46h1.92v-.63l.69,0c0,.06-.06.1-.16.11v.48h2.19v-.63l.7,0c0,.06-.06.1-.16.11v.48h2v.46h-2v.51h-.18c0,.18,0,.37,0,.54h1.46a4,4,0,0,0-.88-.7l.33-.25a3.53,3.53,0,0,1,.91.7l-.3.26h.63v.47Zm-2.24.89h-.9v.6h.9Zm1.1,1.72v-.74h-2v.74Zm-2,.38v.63h.9v-.63Z"/><path class="cls-3" d="M394.57,283a.19.19,0,0,1-.12.08,13.4,13.4,0,0,1-3.23,3.21,15.65,15.65,0,0,1,1.64,1.56l-.49.42a16.8,16.8,0,0,0-3.77-3.09l.38-.41a15.92,15.92,0,0,1,1.78,1.18,12,12,0,0,0,2.81-2.73h-5.87v-.54H394l.1,0Z"/><path class="cls-3" d="M401.51,282.18a.18.18,0,0,1-.15.06h-.08a19.42,19.42,0,0,1-2.28,1.91l.19.09a.2.2,0,0,1-.18.1v4.29h-.58v-4.11a23.07,23.07,0,0,1-3,1.78,2.89,2.89,0,0,0-.34-.44,20.31,20.31,0,0,0,5.86-4.13Z"/><path class="cls-3" d="M407.78,283.19a.54.54,0,0,1-.12.11,8.39,8.39,0,0,1-4.36,5.37,2.08,2.08,0,0,0-.41-.44,7.51,7.51,0,0,0,4.05-4.73h-2.85a8.2,8.2,0,0,1-1.79,2,3.17,3.17,0,0,0-.46-.37,8.13,8.13,0,0,0,2.55-3.47l.76.22c0,.08-.13.1-.23.1-.16.35-.33.69-.51,1h2.81l.1,0Z"/><path class="cls-3" d="M408.74,281.92a6.36,6.36,0,0,1,0,7.37h-.54a6.51,6.51,0,0,0,0-7.37Z"/><path class="cls-3" d="M130.14,285a5.06,5.06,0,0,0,0,7.36v0h-.48a5.29,5.29,0,0,1,0-7.44h.48Z"/><path class="cls-3" d="M130.63,285.72a7.71,7.71,0,0,1,1.38-.12c2,0,2.13,1.26,2.13,1.74a2,2,0,0,1-2.22,1.94,2.52,2.52,0,0,1-.62-.06v2.5h-.66Zm.66,3a2.43,2.43,0,0,0,.64.06c1,0,1.54-.48,1.54-1.35s-.62-1.25-1.46-1.25a3.55,3.55,0,0,0-.73.06Z"/><path class="cls-3" d="M138.87,291.55a3.73,3.73,0,0,1-1.52.27,2.75,2.75,0,0,1-2.83-3.08,2.91,2.91,0,0,1,3-3.19,3,3,0,0,1,1.34.25l-.18.56a2.65,2.65,0,0,0-1.15-.25c-1.38,0-2.33.93-2.33,2.61a2.23,2.23,0,0,0,2.29,2.54,3,3,0,0,0,1.22-.25Z"/><path class="cls-3" d="M146.09,286.38v5.31c0,.38-.09.55-.36.65a6.1,6.1,0,0,1-1.5.1,2.05,2.05,0,0,0-.19-.55l.82,0c.66,0,.7,0,.7-.21v-4.78h-2.5a5.91,5.91,0,0,1-.14,1,23.73,23.73,0,0,1,2.33,2.31l-.44.34a22.14,22.14,0,0,0-2.05-2.13,4.36,4.36,0,0,1-2,2.28,2,2,0,0,0-.38-.41,3.74,3.74,0,0,0,2.17-3.41h-2.37v5.52h-.54v-6.05h2.92V285l.7,0c0,.06,0,.1-.16.11v1.24Z"/><path class="cls-3" d="M152,287.61a13.3,13.3,0,0,0,.37,2.45,8,8,0,0,0,.74-2l.65.16c0,.06-.08.09-.18.09a8.3,8.3,0,0,1-1,2.38c.29.79.63,1.19.94,1.19s.27-.21.32-1a1.28,1.28,0,0,0,.45.26c-.1,1.08-.3,1.27-.8,1.27s-.91-.42-1.25-1.22a5.37,5.37,0,0,1-1.4,1.26,2.69,2.69,0,0,0-.38-.35,4.32,4.32,0,0,0,.62-.43h-2.21v.43h-.43v-4h2.88v.39h-1.12v.6h1.08v1.5h-1.08v.63h1.18v.15a5.53,5.53,0,0,0,.66-.77,14.12,14.12,0,0,1-.52-3H148v1.54a5.64,5.64,0,0,1-.8,3.28,2.29,2.29,0,0,0-.42-.29,5,5,0,0,0,.73-3v-2h4c0-.23,0-.46,0-.71h.17v-.35H149.4v.55h-.53v-.55H147v-.46h1.92V285l.69,0c0,.06-.06.1-.16.11v.48h2.19V285l.7,0c0,.06-.06.1-.16.11v.48h2v.46h-2v.51H152c0,.18,0,.37,0,.54h1.46a4,4,0,0,0-.88-.7l.33-.25a3.55,3.55,0,0,1,.91.7l-.3.26h.63v.47Zm-2.24.89h-.9v.6h.9Zm1.1,1.72v-.74h-2v.74Zm-2,.38v.63h.9v-.63Z"/><path class="cls-3" d="M161.62,286.52a.19.19,0,0,1-.12.08,13.41,13.41,0,0,1-3.23,3.21,15.66,15.66,0,0,1,1.64,1.56l-.49.42a16.8,16.8,0,0,0-3.77-3.09l.38-.41a16,16,0,0,1,1.78,1.18,12,12,0,0,0,2.81-2.73h-5.87v-.54H161l.1,0Z"/><path class="cls-3" d="M168.55,285.72a.18.18,0,0,1-.15.06h-.08a19.47,19.47,0,0,1-2.28,1.91l.19.09a.2.2,0,0,1-.18.1v4.29h-.58v-4.11a23.09,23.09,0,0,1-3,1.78,2.92,2.92,0,0,0-.34-.44,20.3,20.3,0,0,0,5.86-4.13Z"/><path class="cls-3" d="M174.82,286.73a.53.53,0,0,1-.12.11,8.39,8.39,0,0,1-4.36,5.37,2.08,2.08,0,0,0-.41-.44A7.51,7.51,0,0,0,174,287h-2.85a8.19,8.19,0,0,1-1.79,2,3.17,3.17,0,0,0-.46-.37,8.13,8.13,0,0,0,2.55-3.47l.76.22c0,.08-.13.1-.23.1-.16.35-.33.69-.51,1h2.81l.1,0Z"/><path class="cls-3" d="M175.79,285.46a6.37,6.37,0,0,1,0,7.37h-.54a6.51,6.51,0,0,0,0-7.37Z"/><path class="cls-3" d="M275,225a5.06,5.06,0,0,0,0,7.36v0h-.48a5.29,5.29,0,0,1,0-7.44H275Z"/><path class="cls-3" d="M275.5,225.69a7.71,7.71,0,0,1,1.38-.12c2,0,2.13,1.26,2.13,1.74a2,2,0,0,1-2.22,1.94,2.52,2.52,0,0,1-.62-.06v2.5h-.66Zm.66,3a2.43,2.43,0,0,0,.64.06c1,0,1.54-.48,1.54-1.35s-.62-1.25-1.46-1.25a3.55,3.55,0,0,0-.73.06Z"/><path class="cls-3" d="M283.74,231.52a3.73,3.73,0,0,1-1.52.27,2.75,2.75,0,0,1-2.83-3.08,2.91,2.91,0,0,1,3-3.19,3,3,0,0,1,1.34.25l-.18.56a2.65,2.65,0,0,0-1.15-.25c-1.38,0-2.33.93-2.33,2.61a2.23,2.23,0,0,0,2.29,2.54,3,3,0,0,0,1.22-.25Z"/><path class="cls-3" d="M291,226.34v5.31c0,.38-.09.55-.36.65a6.1,6.1,0,0,1-1.5.1,2.05,2.05,0,0,0-.19-.55l.82,0c.66,0,.7,0,.7-.21v-4.78h-2.5a5.91,5.91,0,0,1-.14,1,23.73,23.73,0,0,1,2.33,2.31l-.44.34a22.2,22.2,0,0,0-2.05-2.13,4.36,4.36,0,0,1-2,2.28,2,2,0,0,0-.38-.41,3.74,3.74,0,0,0,2.17-3.41H285v5.52h-.54v-6.05h2.92v-1.4l.7,0c0,.06,0,.1-.16.11v1.24Z"/><path class="cls-3" d="M296.88,227.58a13.25,13.25,0,0,0,.37,2.45,8,8,0,0,0,.74-2l.65.16c0,.06-.08.09-.18.09a8.27,8.27,0,0,1-1,2.38c.29.79.63,1.19.94,1.19s.27-.21.32-1a1.28,1.28,0,0,0,.45.26c-.1,1.08-.3,1.27-.8,1.27s-.91-.42-1.25-1.22a5.37,5.37,0,0,1-1.4,1.26,2.69,2.69,0,0,0-.38-.35,4.32,4.32,0,0,0,.62-.43h-2.21V232h-.43v-4h2.88v.39h-1.12v.6h1.08v1.5h-1.08v.63h1.18v.15a5.5,5.5,0,0,0,.66-.77,14.12,14.12,0,0,1-.52-3h-3.52v1.54a5.64,5.64,0,0,1-.8,3.28,2.29,2.29,0,0,0-.42-.29,5,5,0,0,0,.73-3v-2h4c0-.23,0-.46,0-.71h.17V226h-2.19v.55h-.53V226h-1.92v-.46h1.92V225l.69,0c0,.06-.06.1-.16.11v.48h2.19V225l.7,0c0,.06-.06.1-.16.11v.48h2V226h-2v.51h-.18c0,.18,0,.37,0,.54h1.46a4,4,0,0,0-.88-.7l.33-.25a3.55,3.55,0,0,1,.91.7l-.3.26H299v.47Zm-2.24.89h-.9v.6h.9Zm1.1,1.72v-.74h-2v.74Zm-2,.38v.63h.9v-.63Z"/><path class="cls-3" d="M304.91,226a.17.17,0,0,1-.1.09,12.36,12.36,0,0,1-1.6,2.75,29.31,29.31,0,0,1,2.93,2.71l-.49.42a26.1,26.1,0,0,0-2.81-2.69,12.59,12.59,0,0,1-3.08,2.69,3,3,0,0,0-.42-.43,11.46,11.46,0,0,0,4.69-5.22H300.1v-.54h4.24l.1,0Z"/><path class="cls-3" d="M311.4,231.25a14.07,14.07,0,0,0,1.68-.12c0,.18,0,.4,0,.58-.53.06-1.33.09-1.66.09h-2c-1.21,0-1.79-.52-1.79-1.66v-4.67l.78,0c0,.08-.07.13-.22.15v2.6a26.29,26.29,0,0,0,4-1.58l.41.55-.09,0-.12,0a30.08,30.08,0,0,1-4.17,1.58v1.34c0,.82.39,1.11,1.22,1.11Zm1.66-6.37a.9.9,0,1,1-.9.9A.89.89,0,0,1,313.06,224.88Zm.62.9a.63.63,0,1,0-.62.64A.63.63,0,0,0,313.68,225.78Z"/><path class="cls-3" d="M314.25,228.24h6.68v.57h-6.37a.37.37,0,0,1-.26.15Z"/><path class="cls-3" d="M328,227.06a.28.28,0,0,1-.07.1,12.75,12.75,0,0,1-.64,4.32,1.09,1.09,0,0,1-1,.58,8.46,8.46,0,0,1-1.43-.18,2.72,2.72,0,0,0,0-.57,8.36,8.36,0,0,0,1.4.2.6.6,0,0,0,.62-.38,12.24,12.24,0,0,0,.52-3.63h-2.56a7.31,7.31,0,0,1-2.64,4.58,2.69,2.69,0,0,0-.46-.35,6.62,6.62,0,0,0,2.5-4.23h-2.21V227h2.32a15.41,15.41,0,0,0,.18-1.74l.79.06c0,.09-.08.14-.2.14,0,.58-.09,1-.18,1.54h2.59l.13,0Z"/><path class="cls-3" d="M329,228.24h6.68v.57h-6.37a.37.37,0,0,1-.26.15Z"/><path class="cls-3" d="M336.74,225.42a6.36,6.36,0,0,1,0,7.37h-.54a6.51,6.51,0,0,0,0-7.37Z"/><path class="cls-3" d="M355.06,364.09a5.06,5.06,0,0,0,0,7.36v0h-.48a5.29,5.29,0,0,1,0-7.44h.48Z"/><path class="cls-3" d="M355.54,364.79a7.71,7.71,0,0,1,1.38-.12c2,0,2.13,1.26,2.13,1.74a2,2,0,0,1-2.22,1.94,2.52,2.52,0,0,1-.62-.06v2.5h-.66Zm.66,3a2.43,2.43,0,0,0,.64.06c1,0,1.54-.48,1.54-1.35s-.62-1.25-1.46-1.25a3.56,3.56,0,0,0-.73.06Z"/><path class="cls-3" d="M363.78,370.62a3.73,3.73,0,0,1-1.52.27,2.75,2.75,0,0,1-2.83-3.08,2.91,2.91,0,0,1,3-3.19,3,3,0,0,1,1.34.25l-.18.56a2.64,2.64,0,0,0-1.15-.25c-1.38,0-2.33.93-2.33,2.61a2.23,2.23,0,0,0,2.29,2.54,3,3,0,0,0,1.22-.25Z"/><path class="cls-3" d="M371,365.45v5.31c0,.38-.09.55-.36.65a6.1,6.1,0,0,1-1.5.1,2.07,2.07,0,0,0-.19-.55l.82,0c.66,0,.7,0,.7-.21V366H368a5.86,5.86,0,0,1-.14,1,23.79,23.79,0,0,1,2.33,2.31l-.44.34a22.14,22.14,0,0,0-2.05-2.13,4.36,4.36,0,0,1-2,2.28,2,2,0,0,0-.38-.41,3.74,3.74,0,0,0,2.17-3.41H365v5.52h-.54v-6.05h2.92V364l.7,0c0,.06,0,.1-.16.11v1.24Z"/><path class="cls-3" d="M376.92,366.68a13.21,13.21,0,0,0,.37,2.45,8,8,0,0,0,.74-2l.65.16c0,.06-.08.09-.18.09a8.26,8.26,0,0,1-1,2.38c.29.79.63,1.19.94,1.19s.27-.21.32-1a1.27,1.27,0,0,0,.45.26c-.1,1.08-.3,1.27-.8,1.27s-.91-.42-1.25-1.22a5.35,5.35,0,0,1-1.4,1.26,2.69,2.69,0,0,0-.38-.35,4.33,4.33,0,0,0,.62-.43h-2.21v.43h-.43v-4h2.88v.39H375.1v.6h1.08v1.5H375.1v.63h1.18v.15a5.46,5.46,0,0,0,.66-.77,14.15,14.15,0,0,1-.52-3h-3.52v1.54a5.64,5.64,0,0,1-.8,3.28,2.29,2.29,0,0,0-.42-.29,5,5,0,0,0,.73-3v-2h4c0-.23,0-.46,0-.71h.17v-.35h-2.19v.55h-.53v-.55h-1.92v-.46h1.92v-.63l.69,0c0,.06-.06.1-.16.11v.48h2.19v-.63l.7,0c0,.06-.06.1-.16.11v.48h2v.46h-2v.51h-.18c0,.18,0,.37,0,.54h1.46a4,4,0,0,0-.88-.7l.33-.25a3.56,3.56,0,0,1,.91.7l-.3.26H379v.47Zm-2.24.89h-.9v.6h.9Zm1.1,1.72v-.74h-2v.74Zm-2,.38v.63h.9v-.63Z"/><path class="cls-3" d="M384.95,365.1a.17.17,0,0,1-.1.09,12.38,12.38,0,0,1-1.6,2.75,29.3,29.3,0,0,1,2.93,2.71l-.49.42a26.15,26.15,0,0,0-2.81-2.69,12.58,12.58,0,0,1-3.08,2.69,3,3,0,0,0-.42-.43,11.46,11.46,0,0,0,4.69-5.22h-3.93v-.54h4.24l.1,0Z"/><path class="cls-3" d="M391.44,370.36a14.07,14.07,0,0,0,1.68-.12c0,.18,0,.4,0,.58-.53.06-1.33.09-1.66.09h-2c-1.21,0-1.79-.52-1.79-1.66v-4.67l.78,0c0,.08-.07.13-.22.15v2.6a26.3,26.3,0,0,0,4-1.58l.41.55-.09,0-.12,0a30.07,30.07,0,0,1-4.17,1.58v1.34c0,.82.39,1.11,1.21,1.11ZM393.1,364a.9.9,0,1,1-.9.9A.89.89,0,0,1,393.1,364Zm.62.9a.63.63,0,1,0-.62.64A.63.63,0,0,0,393.72,364.88Z"/><path class="cls-3" d="M394.29,367.34H401v.57h-6.37a.37.37,0,0,1-.26.15Z"/><path class="cls-3" d="M408,366.17a.28.28,0,0,1-.07.1,12.75,12.75,0,0,1-.64,4.32,1.09,1.09,0,0,1-1,.58,8.46,8.46,0,0,1-1.43-.18,2.72,2.72,0,0,0,0-.57,8.36,8.36,0,0,0,1.4.2.6.6,0,0,0,.62-.38,12.24,12.24,0,0,0,.52-3.63h-2.56a7.31,7.31,0,0,1-2.64,4.58,2.69,2.69,0,0,0-.46-.35,6.62,6.62,0,0,0,2.5-4.23H402v-.54h2.32a15.41,15.41,0,0,0,.18-1.74l.79.06c0,.09-.08.14-.2.14,0,.58-.09,1-.18,1.54h2.59l.13,0Z"/><path class="cls-3" d="M409.09,367.34h6.68v.57h-6.37a.37.37,0,0,1-.26.15Z"/><path class="cls-3" d="M416.78,364.53a6.36,6.36,0,0,1,0,7.37h-.54a6.51,6.51,0,0,0,0-7.37Z"/><path class="cls-3" d="M122.1,364.09a5.06,5.06,0,0,0,0,7.36v0h-.48a5.29,5.29,0,0,1,0-7.44h.48Z"/><path class="cls-3" d="M122.59,364.79a7.71,7.71,0,0,1,1.38-.12c2,0,2.13,1.26,2.13,1.74a2,2,0,0,1-2.22,1.94,2.52,2.52,0,0,1-.62-.06v2.5h-.66Zm.66,3a2.43,2.43,0,0,0,.64.06c1,0,1.54-.48,1.54-1.35s-.62-1.26-1.46-1.26a3.5,3.5,0,0,0-.73.06Z"/><path class="cls-3" d="M130.83,370.62a3.73,3.73,0,0,1-1.52.27,2.75,2.75,0,0,1-2.83-3.08,2.91,2.91,0,0,1,3-3.19,3,3,0,0,1,1.34.25l-.18.56a2.65,2.65,0,0,0-1.15-.25c-1.38,0-2.33.93-2.33,2.61a2.23,2.23,0,0,0,2.29,2.54,3,3,0,0,0,1.22-.25Z"/><path class="cls-3" d="M138,365.45v5.31c0,.38-.09.55-.36.65a6.1,6.1,0,0,1-1.5.1,2.05,2.05,0,0,0-.19-.55l.82,0c.66,0,.7,0,.7-.21V366H135a5.9,5.9,0,0,1-.14,1,23.79,23.79,0,0,1,2.33,2.31l-.44.34a22.2,22.2,0,0,0-2.05-2.13,4.36,4.36,0,0,1-2,2.28,2,2,0,0,0-.38-.41,3.74,3.74,0,0,0,2.17-3.41h-2.37v5.53h-.54v-6.05h2.92V364l.7,0c0,.06,0,.1-.16.11v1.24Z"/><path class="cls-3" d="M144,366.68a13.25,13.25,0,0,0,.37,2.45,8,8,0,0,0,.74-2l.65.16c0,.06-.08.09-.18.09a8.27,8.27,0,0,1-1,2.38c.29.79.63,1.19.94,1.19s.27-.21.32-1a1.26,1.26,0,0,0,.45.26c-.1,1.08-.3,1.27-.8,1.27s-.91-.42-1.25-1.22a5.37,5.37,0,0,1-1.4,1.26,2.69,2.69,0,0,0-.38-.35,4.32,4.32,0,0,0,.62-.43h-2.21v.43h-.43v-4h2.88v.39h-1.12v.6h1.08v1.5h-1.08v.63h1.18v.15a5.44,5.44,0,0,0,.66-.77,14.11,14.11,0,0,1-.52-3h-3.52v1.54a5.64,5.64,0,0,1-.8,3.28,2.32,2.32,0,0,0-.42-.29,5,5,0,0,0,.73-3v-2h4c0-.23,0-.46,0-.71h.17v-.35h-2.19v.55h-.53v-.55h-1.92v-.46h1.92v-.63l.69,0c0,.06-.06.1-.16.11v.48h2.19v-.63l.7,0c0,.06-.06.1-.16.11v.48h2v.46h-2v.51h-.18c0,.18,0,.37,0,.54h1.46a4,4,0,0,0-.88-.7l.33-.25a3.55,3.55,0,0,1,.91.7l-.3.26h.63v.47Zm-2.24.89h-.9v.6h.9Zm1.1,1.72v-.74h-2v.74Zm-2,.38v.63h.9v-.63Z"/><path class="cls-3" d="M152,365.1a.17.17,0,0,1-.1.09,12.36,12.36,0,0,1-1.6,2.75,29.31,29.31,0,0,1,2.93,2.71l-.49.42a26.1,26.1,0,0,0-2.81-2.69,12.59,12.59,0,0,1-3.08,2.69,3,3,0,0,0-.42-.43,11.46,11.46,0,0,0,4.69-5.22h-3.93v-.54h4.24l.1,0Z"/><path class="cls-3" d="M158.48,370.36a14.07,14.07,0,0,0,1.68-.12c0,.18,0,.4,0,.58-.53.06-1.33.09-1.65.09h-2c-1.21,0-1.79-.52-1.79-1.66v-4.67l.78,0c0,.08-.07.13-.22.15v2.6a26.31,26.31,0,0,0,4-1.58l.41.55-.09,0-.12,0a30.11,30.11,0,0,1-4.17,1.58v1.34c0,.82.39,1.11,1.22,1.11Zm1.66-6.37a.9.9,0,1,1-.9.9A.89.89,0,0,1,160.14,364Zm.62.9a.63.63,0,1,0-.62.64A.63.63,0,0,0,160.77,364.88Z"/><path class="cls-3" d="M161.33,367.34H168v.57h-6.37a.37.37,0,0,1-.26.15Z"/><path class="cls-3" d="M175.06,366.17a.27.27,0,0,1-.07.1,12.74,12.74,0,0,1-.64,4.32,1.09,1.09,0,0,1-1,.58,8.51,8.51,0,0,1-1.43-.18,2.72,2.72,0,0,0,0-.57,8.36,8.36,0,0,0,1.4.2.6.6,0,0,0,.62-.38,12.22,12.22,0,0,0,.52-3.63h-2.56a7.31,7.31,0,0,1-2.64,4.58,2.73,2.73,0,0,0-.46-.35,6.61,6.61,0,0,0,2.49-4.23H169v-.54h2.32a15.53,15.53,0,0,0,.18-1.74l.79.06c0,.09-.08.14-.2.14,0,.58-.09,1-.18,1.54h2.59l.13,0Z"/><path class="cls-3" d="M176.13,367.34h6.68v.57h-6.37a.37.37,0,0,1-.26.15Z"/><path class="cls-3" d="M183.83,364.53a6.36,6.36,0,0,1,0,7.37h-.54a6.51,6.51,0,0,0,0-7.37Z"/><path class="cls-3" d="M155.84,106.54c0,.07-.1.13-.23.14a13.59,13.59,0,0,1-2.16,5.77,2.76,2.76,0,0,0-.6-.32,12.3,12.3,0,0,0,2.09-5.77Zm4.53,5.85a30.45,30.45,0,0,0-2.4-5.8l.59-.28a29,29,0,0,1,2.47,5.82Zm-.12-7.65a1,1,0,1,1-1,1A1,1,0,0,1,160.26,104.74Zm.71,1a.71.71,0,1,0-.71.71A.71.71,0,0,0,161,105.76Z"/><path class="cls-3" d="M169.25,105.71a.2.2,0,0,1-.17.07H169a21.91,21.91,0,0,1-2.57,2.15l.22.1a.23.23,0,0,1-.2.12V113h-.66v-4.63a26,26,0,0,1-3.43,2,3.27,3.27,0,0,0-.38-.5,22.85,22.85,0,0,0,6.6-4.65Z"/><path class="cls-3" d="M177.27,106.37v5.94h-.65v-.57h-5v.59H171v-6Zm-.65,4.77V107h-5v4.17Z"/><path class="cls-3" d="M179.79,107.55a9.77,9.77,0,0,1,.68,1.94l-.5.14a10.09,10.09,0,0,0-.66-1.92Zm5.37.06c0,.08-.11.1-.19.09a6.92,6.92,0,0,1-4.2,5.12,2.43,2.43,0,0,0-.35-.41c2.15-.85,3.39-2.32,4-5Zm-3.19-.5a12.35,12.35,0,0,1,.42,2l-.53.1a10.84,10.84,0,0,0-.42-2Z"/><path class="cls-3" d="M191.72,109.93a32.55,32.55,0,0,0-3.16-1.47V113h-.68v-7.82l.91.05c0,.1-.08.16-.23.19V108l.13-.19a31.35,31.35,0,0,1,3.39,1.5Z"/><path class="cls-3" d="M198.83,109.93a32.55,32.55,0,0,0-3.16-1.47V113H195v-7.82l.91.05c0,.1-.08.16-.23.19V108l.13-.19a31.35,31.35,0,0,1,3.39,1.5Z"/><path class="cls-3" d="M200.76,108.59h7.52v.64h-7.18a.41.41,0,0,1-.29.17Z"/><path class="cls-3" d="M209.93,105.87a11.21,11.21,0,0,1,2.68,1.22l-.34.57a11.51,11.51,0,0,0-2.63-1.25Zm0,6.24a9.59,9.59,0,0,0,6.4-5.28,3.47,3.47,0,0,0,.59.37,10.32,10.32,0,0,1-6.37,5.4.3.3,0,0,1-.13.21Z"/><path class="cls-3" d="M221.79,112.48v-6h0l-1.11.64-.18-.56,1.4-.78h.64v6.74Z"/><path class="cls-3" d="M228.59,105.74v.62h-2.42l-.28,1.91a3.71,3.71,0,0,1,.52,0,2.08,2.08,0,0,1,2.27,2.07,2.23,2.23,0,0,1-2.32,2.29,3,3,0,0,1-1.55-.4l.22-.58a2.5,2.5,0,0,0,1.33.38,1.53,1.53,0,0,0,1.57-1.59c0-.93-.59-1.58-1.85-1.58a5.39,5.39,0,0,0-.86.06l.42-3.14Z"/><path class="cls-3" d="M233.91,112.48H233l-1.69-2.42-.45.51v1.91h-.75v-7.2h.75v4.58h0c.12-.17.29-.39.42-.55l1.47-1.74h.9l-1.85,2Z"/><path class="cls-3" d="M239.37,112.48h-.75v-3.28h-3.28v3.28h-.75v-6.85h.75v2.93h3.28v-2.93h.75Z"/><path class="cls-3" d="M244.05,107.58v.48l-2.24,3.06c-.19.26-.37.5-.57.74v0h2.84v.61h-3.77V112l2.26-3.08c.2-.26.38-.5.59-.75v0h-2.64v-.61Z"/></g></g></svg>