<svg xmlns="http://www.w3.org/2000/svg" viewBox="0 0 458.3 193.67"><defs><style>.cls-1{fill:#fff;}.cls-1,.cls-2{stroke:#231815;stroke-miterlimit:10;}.cls-2,.cls-3{fill:none;}.cls-4{fill:#231815;}</style></defs><title>Asset 10</title><g id="Layer_2" data-name="Layer 2"><g id="Layer_1-2" data-name="Layer 1"><rect class="cls-1" x="80.63" y="22.01" width="315.05" height="40.48"/><rect class="cls-1" x="410.01" y="30.96" width="12.45" height="22.57"/><polygon class="cls-1" points="410.01 53.53 397.55 62.48 397.55 22.01 410.01 30.96 410.01 53.53"/><circle class="cls-1" cx="69.88" cy="42.25" r="8.79"/><polygon class="cls-1" points="38.49 37.21 69.34 33.22 69.34 51.27 38.49 47.28 38.49 37.21"/><path class="cls-2" d="M393.72,56.59a20.27,20.27,0,0,1,0-28.68"/><path class="cls-3" d="M374,56.59a20.27,20.27,0,0,1,0-28.68"/><path class="cls-2" d="M354.3,56.59a20.27,20.27,0,0,1,0-28.68"/><path class="cls-2" d="M374,55.89a20.27,20.27,0,0,1,0-28.68"/><path class="cls-2" d="M344.45,56.59a20.27,20.27,0,0,1,0-28.68"/><path class="cls-2" d="M334.59,56.59a20.27,20.27,0,0,1,0-28.68"/><path class="cls-2" d="M314.89,56.59a20.27,20.27,0,0,1,0-28.68"/><path class="cls-2" d="M305,56.59a20.27,20.27,0,0,1,0-28.68"/><path class="cls-2" d="M285.32,56.59a20.27,20.27,0,0,1,0-28.68"/><path class="cls-2" d="M275.47,56.59a20.27,20.27,0,0,1,0-28.68"/><path class="cls-2" d="M265.62,56.59a20.27,20.27,0,0,1,0-28.68"/><path class="cls-2" d="M226.34,56.59a20.27,20.27,0,0,1,0-28.68"/><path class="cls-2" d="M216.49,56.59a20.27,20.27,0,0,1,0-28.68"/><path class="cls-2" d="M206.63,56.59a20.27,20.27,0,0,1,0-28.68"/><path class="cls-2" d="M196.78,56.59a20.27,20.27,0,0,1,0-28.68"/><path class="cls-2" d="M177.07,56.59a20.27,20.27,0,0,1,0-28.68"/><path class="cls-2" d="M157.51,56.59a20.27,20.27,0,0,1,0-28.68"/><path class="cls-2" d="M147.65,56.59a20.27,20.27,0,0,1,0-28.68"/><path class="cls-2" d="M137.8,56.59a20.27,20.27,0,0,1,0-28.68"/><path class="cls-2" d="M127.94,27.9"/><path class="cls-2" d="M127.94,56.59"/><path class="cls-2" d="M118.09,56.59a20.27,20.27,0,0,1,0-28.68"/><path class="cls-2" d="M108.24,56.59a20.27,20.27,0,0,1,0-28.68"/><path class="cls-2" d="M88.53,56.59a20.27,20.27,0,0,1,0-28.68"/><rect class="cls-2" x="100.34" y="66.47" width="9.85" height="32.24"/><rect class="cls-2" x="90.48" y="66.47" width="9.85" height="32.24"/><rect class="cls-2" x="80.63" y="66.47" width="9.85" height="32.24"/><rect class="cls-2" x="110.19" y="66.47" width="9.85" height="32.24"/><rect class="cls-2" x="120.04" y="66.47" width="9.85" height="32.24"/><rect class="cls-2" x="129.9" y="66.47" width="9.85" height="32.24"/><rect class="cls-2" x="139.75" y="66.47" width="9.85" height="32.24"/><rect class="cls-2" x="149.61" y="66.47" width="9.85" height="32.24"/><rect class="cls-2" x="159.46" y="66.47" width="9.85" height="32.24"/><rect class="cls-2" x="169.17" y="66.47" width="9.85" height="32.24"/><rect class="cls-2" x="179.03" y="66.47" width="9.85" height="32.24"/><rect class="cls-2" x="188.88" y="66.47" width="9.85" height="32.24"/><rect class="cls-2" x="198.73" y="66.47" width="9.85" height="32.24"/><rect class="cls-2" x="208.59" y="66.47" width="9.85" height="32.24"/><rect class="cls-2" x="218.44" y="66.47" width="9.85" height="32.24"/><rect class="cls-2" x="228.3" y="66.47" width="9.85" height="32.24"/><rect class="cls-2" x="238.15" y="66.47" width="9.85" height="32.24"/><rect class="cls-2" x="248.01" y="66.47" width="9.85" height="32.24"/><rect class="cls-2" x="257.72" y="66.47" width="9.85" height="32.24"/><rect class="cls-2" x="267.57" y="66.47" width="9.85" height="32.24"/><rect class="cls-2" x="277.42" y="66.47" width="9.85" height="32.24"/><rect class="cls-2" x="287.28" y="66.47" width="9.85" height="32.24"/><rect class="cls-2" x="297.13" y="66.47" width="9.85" height="32.24"/><rect class="cls-2" x="306.99" y="66.47" width="9.85" height="32.24"/><rect class="cls-2" x="316.84" y="66.47" width="9.85" height="32.24"/><rect class="cls-2" x="326.7" y="66.47" width="9.85" height="32.24"/><rect class="cls-2" x="336.55" y="66.47" width="9.85" height="32.24"/><rect class="cls-2" x="346.4" y="66.47" width="9.85" height="32.24"/><rect class="cls-2" x="356.26" y="66.47" width="9.85" height="32.24"/><rect class="cls-2" x="366.11" y="66.47" width="9.85" height="32.24"/><rect class="cls-2" x="375.97" y="66.47" width="9.85" height="32.24"/><rect class="cls-2" x="385.82" y="66.47" width="9.85" height="32.24"/><path class="cls-4" d="M85.14,79.46H83.71l.69-1.17h2v8.29H85.14Z"/><path class="cls-4" d="M104.85,79.46h-1.43l.69-1.17h2v8.29h-1.25Z"/><path class="cls-4" d="M114.7,79.46h-1.43l.69-1.17h2v8.29H114.7Z"/><path class="cls-4" d="M134.41,79.46H133l.69-1.17h2v8.29h-1.25Z"/><path class="cls-4" d="M144.27,79.46h-1.43l.69-1.17h2v8.29h-1.25Z"/><path class="cls-4" d="M154.12,79.46h-1.43l.69-1.17h2v8.29h-1.25Z"/><path class="cls-4" d="M262.23,79.46h-1.43l.69-1.17h2v8.29h-1.25Z"/><path class="cls-4" d="M272.08,79.46h-1.43l.69-1.17h2v8.29h-1.25Z"/><path class="cls-4" d="M281.94,79.46H280.5l.69-1.17h2v8.29h-1.25Z"/><path class="cls-4" d="M331.21,79.46h-1.43l.69-1.17h2v8.29h-1.25Z"/><path class="cls-4" d="M341.06,79.46h-1.43l.69-1.17h2v8.29h-1.25Z"/><path class="cls-4" d="M350.92,79.46h-1.43l.69-1.17h2v8.29h-1.25Z"/><path class="cls-4" d="M301.65,79.46h-1.43l.69-1.17h2v8.29h-1.25Z"/><path class="cls-4" d="M311.5,79.46h-1.43l.69-1.17h2v8.29H311.5Z"/><path class="cls-4" d="M370.63,79.46h-1.43l.69-1.17h2v8.29h-1.25Z"/><path class="cls-4" d="M390.33,79.46H388.9l.69-1.17h2v8.29h-1.25Z"/><path class="cls-4" d="M193.39,79.46H192l.69-1.17h2v8.29h-1.25Z"/><path class="cls-4" d="M203.25,79.46h-1.43l.69-1.17h2v8.29h-1.25Z"/><path class="cls-4" d="M213.1,79.46h-1.43l.69-1.17h2v8.29H213.1Z"/><path class="cls-4" d="M173.76,79.46h-1.43l.69-1.17h2v8.29h-1.25Z"/><path class="cls-4" d="M223,79.46h-1.43l.69-1.17h2v8.29H223Z"/><path class="cls-4" d="M92.48,82.39a5,5,0,0,1,.92-3.16,2.41,2.41,0,0,1,4,0,6.05,6.05,0,0,1,0,6.43,2.46,2.46,0,0,1-2,1.07,2.49,2.49,0,0,1-2-1.07A5.18,5.18,0,0,1,92.48,82.39Zm1.23,0a4.91,4.91,0,0,0,.48,2.29,1.28,1.28,0,0,0,2.44,0,5.49,5.49,0,0,0,0-4.51,1.28,1.28,0,0,0-2.43,0A4.58,4.58,0,0,0,93.71,82.39Z"/><path class="cls-4" d="M122,82.39a5,5,0,0,1,.92-3.16,2.41,2.41,0,0,1,4,0,6.05,6.05,0,0,1,0,6.43,2.46,2.46,0,0,1-2,1.07,2.49,2.49,0,0,1-2-1.07A5.18,5.18,0,0,1,122,82.39Zm1.23,0a4.91,4.91,0,0,0,.48,2.29,1.28,1.28,0,0,0,2.44,0,5.49,5.49,0,0,0,0-4.51,1.28,1.28,0,0,0-2.43,0A4.58,4.58,0,0,0,123.27,82.39Z"/><path class="cls-4" d="M161.39,82.39a5,5,0,0,1,.92-3.16,2.41,2.41,0,0,1,4,0,6.05,6.05,0,0,1,0,6.43,2.46,2.46,0,0,1-2,1.07,2.49,2.49,0,0,1-2-1.07A5.18,5.18,0,0,1,161.39,82.39Zm1.23,0a4.91,4.91,0,0,0,.48,2.29,1.28,1.28,0,0,0,2.44,0,5.49,5.49,0,0,0,0-4.51,1.28,1.28,0,0,0-2.43,0A4.58,4.58,0,0,0,162.62,82.39Z"/><path class="cls-4" d="M181,82.39a5,5,0,0,1,.92-3.16,2.41,2.41,0,0,1,4,0,6.05,6.05,0,0,1,0,6.43,2.46,2.46,0,0,1-2,1.07,2.49,2.49,0,0,1-2-1.07A5.18,5.18,0,0,1,181,82.39Zm1.23,0a4.92,4.92,0,0,0,.48,2.29,1.28,1.28,0,0,0,2.44,0,5.49,5.49,0,0,0,0-4.51,1.28,1.28,0,0,0-2.43,0A4.58,4.58,0,0,0,182.18,82.39Z"/><path class="cls-4" d="M230.22,82.39a5,5,0,0,1,.92-3.16,2.41,2.41,0,0,1,4,0,6.05,6.05,0,0,1,0,6.43,2.46,2.46,0,0,1-2,1.07,2.49,2.49,0,0,1-2-1.07A5.18,5.18,0,0,1,230.22,82.39Zm1.23,0a4.91,4.91,0,0,0,.48,2.29,1.28,1.28,0,0,0,2.44,0,5.49,5.49,0,0,0,0-4.51,1.28,1.28,0,0,0-2.43,0A4.58,4.58,0,0,0,231.45,82.39Z"/><path class="cls-4" d="M240.08,82.39a5,5,0,0,1,.92-3.16,2.41,2.41,0,0,1,4,0,6.05,6.05,0,0,1,0,6.43,2.46,2.46,0,0,1-2,1.07,2.49,2.49,0,0,1-2-1.07A5.18,5.18,0,0,1,240.08,82.39Zm1.23,0a4.91,4.91,0,0,0,.48,2.29,1.28,1.28,0,0,0,2.44,0,5.49,5.49,0,0,0,0-4.51,1.28,1.28,0,0,0-2.43,0A4.58,4.58,0,0,0,241.31,82.39Z"/><path class="cls-4" d="M249.93,82.39a5,5,0,0,1,.92-3.16,2.41,2.41,0,0,1,4,0,6.05,6.05,0,0,1,0,6.43,2.46,2.46,0,0,1-2,1.07,2.49,2.49,0,0,1-2-1.07A5.18,5.18,0,0,1,249.93,82.39Zm1.23,0a4.91,4.91,0,0,0,.48,2.29,1.28,1.28,0,0,0,2.44,0,5.49,5.49,0,0,0,0-4.51,1.28,1.28,0,0,0-2.43,0A4.58,4.58,0,0,0,251.16,82.39Z"/><path class="cls-4" d="M289.21,82.39a5,5,0,0,1,.92-3.16,2.41,2.41,0,0,1,4,0,6.05,6.05,0,0,1,0,6.43,2.46,2.46,0,0,1-2,1.07,2.49,2.49,0,0,1-2-1.07A5.18,5.18,0,0,1,289.21,82.39Zm1.23,0a4.91,4.91,0,0,0,.48,2.29,1.28,1.28,0,0,0,2.44,0,5.49,5.49,0,0,0,0-4.51,1.28,1.28,0,0,0-2.43,0A4.58,4.58,0,0,0,290.44,82.39Z"/><path class="cls-4" d="M318.84,82.39a5,5,0,0,1,.92-3.16,2.41,2.41,0,0,1,4,0,6.05,6.05,0,0,1,0,6.43,2.46,2.46,0,0,1-2,1.07,2.49,2.49,0,0,1-2-1.07A5.18,5.18,0,0,1,318.84,82.39Zm1.23,0a4.91,4.91,0,0,0,.48,2.29,1.28,1.28,0,0,0,2.44,0,5.49,5.49,0,0,0,0-4.51,1.28,1.28,0,0,0-2.43,0A4.58,4.58,0,0,0,320.07,82.39Z"/><path class="cls-4" d="M358.26,82.39a5,5,0,0,1,.92-3.16,2.41,2.41,0,0,1,4,0,6.05,6.05,0,0,1,0,6.43,2.46,2.46,0,0,1-2,1.07,2.49,2.49,0,0,1-2-1.07A5.18,5.18,0,0,1,358.26,82.39Zm1.23,0a4.91,4.91,0,0,0,.48,2.29,1.28,1.28,0,0,0,2.44,0,5.49,5.49,0,0,0,0-4.51,1.28,1.28,0,0,0-2.43,0A4.58,4.58,0,0,0,359.49,82.39Z"/><path class="cls-4" d="M378,82.39a5,5,0,0,1,.92-3.16,2.41,2.41,0,0,1,4,0,6.05,6.05,0,0,1,0,6.43,2.46,2.46,0,0,1-2,1.07,2.49,2.49,0,0,1-2-1.07A5.18,5.18,0,0,1,378,82.39Zm1.23,0a4.91,4.91,0,0,0,.48,2.29,1.28,1.28,0,0,0,2.44,0,5.49,5.49,0,0,0,0-4.51,1.28,1.28,0,0,0-2.43,0A4.58,4.58,0,0,0,379.2,82.39Z"/><path class="cls-2" d="M38.49,42.25H19v79H80.63"/><rect class="cls-1" x="80.63" y="109.04" width="49.27" height="24.48"/><path class="cls-4" d="M84.22,119a11.6,11.6,0,0,1,1.84,1.34l-.42.61a8.66,8.66,0,0,0-1.82-1.41ZM86,122.47a15.6,15.6,0,0,1-1.38,3.19,2.58,2.58,0,0,1-.12.23l-.63-.56a3,3,0,0,0,.46-.63,12.71,12.71,0,0,0,1.1-2.66Zm.13-4.16a8.45,8.45,0,0,0-1.75-1.49l.46-.5a11.54,11.54,0,0,1,1.75,1.46Zm1.62,2.57A9.35,9.35,0,0,1,86.43,126a2.06,2.06,0,0,0-.62-.43,5.26,5.26,0,0,0,.89-1.93,18.3,18.3,0,0,0,.41-4.75,13.41,13.41,0,0,0,0-1.37,6.25,6.25,0,0,0,1.07.05h1.67v-.4a6.08,6.08,0,0,0-.07-1.09h.79a5.75,5.75,0,0,0-.07,1.09v.4h1.8a4.82,4.82,0,0,0,1-.05l.39.4a2.27,2.27,0,0,0-.22.4,13.83,13.83,0,0,1-.78,1.41,2.36,2.36,0,0,0-.63-.26,5.11,5.11,0,0,0,.73-1.25h-2.3v2.13h1.1a4.1,4.1,0,0,0,.88-.06l.4.41c-.09.17-.12.24-.24.5A9.26,9.26,0,0,1,91,123.72a9.19,9.19,0,0,0,2.88,1.57,2.38,2.38,0,0,0-.44.66,9.55,9.55,0,0,1-2.89-1.77,9.15,9.15,0,0,1-2.78,1.8,1.85,1.85,0,0,0-.42-.62A8.35,8.35,0,0,0,90,123.73a7.52,7.52,0,0,1-1.73-2.84Zm2-.6v-2.13h-2v.79c0,.4,0,.76,0,1.34Zm-.84.6a6.41,6.41,0,0,0,1.51,2.39,7.45,7.45,0,0,0,1.5-2.39Z"/><path class="cls-4" d="M96.1,117.28a5.53,5.53,0,0,0-.95.05v-.76a6.84,6.84,0,0,0,1,.07h3.45a6.59,6.59,0,0,0,1-.07v.76a5.31,5.31,0,0,0-.94-.05h-.24V120h.34a5.56,5.56,0,0,0,1-.06v.77a5.64,5.64,0,0,0-1-.06h-.34v4.13a7.7,7.7,0,0,0,.07,1.14h-.81a6.94,6.94,0,0,0,.07-1.14v-4.14H97.08a13,13,0,0,1-.19,2A6.39,6.39,0,0,1,95.25,126a2.2,2.2,0,0,0-.58-.5c1.2-1.16,1.68-2.52,1.73-4.83h-.45a6.37,6.37,0,0,0-1,.07v-.79a6.14,6.14,0,0,0,1,.07h.45v-2.73Zm1,2.73h1.66v-2.73H97.08Zm7.93,2.31a8.72,8.72,0,0,0-.76.83,11.74,11.74,0,0,1-1.87,1.68,11.31,11.31,0,0,1-1.95,1.14,3.4,3.4,0,0,0-.43-.64,10.12,10.12,0,0,0,3.6-2.5,5.57,5.57,0,0,0,.78-1Zm-.77-5.63c-.13.11-.22.2-.57.53a11.55,11.55,0,0,1-2.92,2.12,2.39,2.39,0,0,0-.44-.63,8.48,8.48,0,0,0,2.54-1.69,4.57,4.57,0,0,0,.75-.81Zm.4,2.78a3.71,3.71,0,0,0-.46.43,12.39,12.39,0,0,1-3.39,2.54,3,3,0,0,0-.43-.65,9,9,0,0,0,2.83-1.87,5.08,5.08,0,0,0,.84-1Z"/><path class="cls-4" d="M110.16,116.84a4.9,4.9,0,0,0,.9-.06v.65a6.81,6.81,0,0,0-.89,0h-1.43v.66h1a6.16,6.16,0,0,0,.9,0,4.67,4.67,0,0,0,0,.66v.6a6.09,6.09,0,0,0,0,.69,5.8,5.8,0,0,0-.83,0h-.73a4.13,4.13,0,0,0,1.58,1.06,1.63,1.63,0,0,0-.37.51,4.81,4.81,0,0,1-1.6-1.39.81.81,0,0,1,0,.14,5.41,5.41,0,0,1,0,.55v.38a3.87,3.87,0,0,0,0,.66h-.67a3.17,3.17,0,0,0,0-.66v-.4a6.51,6.51,0,0,1,0-.67,5.4,5.4,0,0,1-2.17,1.81,1.8,1.8,0,0,0-.44-.51,5.46,5.46,0,0,0,2.2-1.5h-.66a5.21,5.21,0,0,0-.84,0c0-.22,0-.46,0-.7v-.6a5.11,5.11,0,0,0,0-.66,6,6,0,0,0,.89,0h1v-.66h-1.31a5.36,5.36,0,0,0-.95.06v-.66a5.42,5.42,0,0,0,1,.06h1.3a3.9,3.9,0,0,0-.06-.72h.69a3.53,3.53,0,0,0-.06.72Zm.26,5.87h-2.92a6.68,6.68,0,0,0-1,.06v-.68a6.35,6.35,0,0,0,1,.06h6.43a6.7,6.7,0,0,0,1.1-.06v.68a7.13,7.13,0,0,0-1.1-.06h-2.87v.87h2.43a5.65,5.65,0,0,0,1-.05v.68a6.4,6.4,0,0,0-1-.05h-2.43v1h3.53a8,8,0,0,0,1.12-.07v.7a8.57,8.57,0,0,0-1.12-.07H107a8.74,8.74,0,0,0-1.13.07v-.7a8.28,8.28,0,0,0,1.13.07h1v-1a4,4,0,0,0-.06-.8h.77a4.46,4.46,0,0,0-.05.8v1h1.79Zm-3.52-4.17v.91h1.25v-.91Zm1.84.91H110v-.91h-1.3ZM115.6,118a4.79,4.79,0,0,0-.87-.05,5.45,5.45,0,0,1-1.13,2.19,5.61,5.61,0,0,0,2.15,1.17,2.16,2.16,0,0,0-.36.64,6.76,6.76,0,0,1-2.2-1.38,5.71,5.71,0,0,1-2.23,1.33,1.77,1.77,0,0,0-.36-.56,5,5,0,0,0,2.18-1.2,5.51,5.51,0,0,1-1-1.53,8.14,8.14,0,0,1-.69.88,1.79,1.79,0,0,0-.46-.44,4.6,4.6,0,0,0,1.06-1.36,5.17,5.17,0,0,0,.55-1.57l.67.14a8.36,8.36,0,0,1-.44,1.11h2.11a7.49,7.49,0,0,0,1-.07Zm-3.41-.05-.06.11a5.19,5.19,0,0,0,1,1.67,4.29,4.29,0,0,0,.9-1.78Z"/><path class="cls-4" d="M118.1,117.28a5.53,5.53,0,0,0-.95.05v-.76a6.84,6.84,0,0,0,1,.07h3.45a6.59,6.59,0,0,0,1-.07v.76a5.31,5.31,0,0,0-.94-.05h-.24V120h.34a5.56,5.56,0,0,0,1-.06v.77a5.64,5.64,0,0,0-1-.06h-.34v4.13a7.7,7.7,0,0,0,.07,1.14h-.81a6.94,6.94,0,0,0,.07-1.14v-4.14h-1.66a13,13,0,0,1-.19,2,6.39,6.39,0,0,1-1.64,3.31,2.2,2.2,0,0,0-.58-.5c1.2-1.16,1.68-2.52,1.73-4.83h-.45a6.37,6.37,0,0,0-1,.07v-.79a6.14,6.14,0,0,0,1,.07h.45v-2.73Zm1,2.73h1.66v-2.73h-1.66Zm7.93,2.31a8.72,8.72,0,0,0-.76.83,11.74,11.74,0,0,1-1.87,1.68,11.31,11.31,0,0,1-1.95,1.14,3.4,3.4,0,0,0-.43-.64,10.12,10.12,0,0,0,3.6-2.5,5.57,5.57,0,0,0,.78-1Zm-.77-5.63c-.13.11-.22.2-.57.53a11.55,11.55,0,0,1-2.92,2.12,2.39,2.39,0,0,0-.44-.63,8.48,8.48,0,0,0,2.54-1.69,4.57,4.57,0,0,0,.75-.81Zm.4,2.78a3.71,3.71,0,0,0-.46.43,12.39,12.39,0,0,1-3.39,2.54,3,3,0,0,0-.43-.65,9,9,0,0,0,2.83-1.87,5.08,5.08,0,0,0,.84-1Z"/><rect class="cls-1" x="321.77" y="109.04" width="49.27" height="39.94"/><polyline class="cls-2" points="129.9 121.28 163.14 121.28 163.14 151.81 196.79 151.81"/><path class="cls-4" d="M202.83,151.81a30.22,30.22,0,0,0-8.55,4.76l1.72-4.76-1.72-4.75A30.2,30.2,0,0,0,202.83,151.81Z"/><path class="cls-4" d="M214,149.62c-.13,2.85-1.06,4.19-3.54,5.16a1.93,1.93,0,0,0-.52-.72c2.28-.76,3.14-1.94,3.22-4.44h-3a8.64,8.64,0,0,0-1.27.06v-.81a7.33,7.33,0,0,0,1.28.07h6.44a7.24,7.24,0,0,0,1.28-.07v.81a8.64,8.64,0,0,0-1.26-.06Zm-4-3.49a5.72,5.72,0,0,0,1.27.08h3.32a10,10,0,0,0,1.27-.06v.79l-1.25,0h-3.34a7.69,7.69,0,0,0-1.25.05Zm6.45-.92a8.62,8.62,0,0,1,1.08,1.74l-.56.31a8.39,8.39,0,0,0-1.07-1.78Zm1.35-.42a9.23,9.23,0,0,1,1.08,1.74l-.56.31a8.59,8.59,0,0,0-1.07-1.77Z"/><path class="cls-4" d="M219.91,149.74a7.77,7.77,0,0,0,1.36.07h6.39a8.72,8.72,0,0,0,1.33-.05v.89a12.55,12.55,0,0,0-1.34,0h-6.38a12,12,0,0,0-1.36,0Z"/><path class="cls-4" d="M234.95,145.58a3.63,3.63,0,0,0-.39.73,5.52,5.52,0,0,1-.34.61c.15,0,.15,0,3.4-.06a1.92,1.92,0,0,0,.64-.11l.5.5a2.45,2.45,0,0,0-.32.73,12.52,12.52,0,0,1-2.87,4.73,12.27,12.27,0,0,1-3.48,2.27,2,2,0,0,0-.54-.68,10,10,0,0,0,2.28-1.2,7.73,7.73,0,0,0,1.9-1.74,13.82,13.82,0,0,0-2.46-1.78l.51-.56a15.71,15.71,0,0,1,2.43,1.71,13.12,13.12,0,0,0,1.53-3.19l-3.85.06a10.94,10.94,0,0,1-2.62,2.93,2,2,0,0,0-.64-.53,9.57,9.57,0,0,0,2.81-3.14,6.07,6.07,0,0,0,.65-1.51Z"/><path class="cls-4" d="M244.37,146.31a4.41,4.41,0,0,0-.08-1h.89a5,5,0,0,0-.08,1v2.78H248V147a6,6,0,0,0,0-.8h.83a5.44,5.44,0,0,0-.06.84v2.19c0,.22,0,.37,0,.56l-.68,0h-3v4h3.28v-2.09a5.85,5.85,0,0,0-.05-.95h.84a6.12,6.12,0,0,0-.05,1v2.49a5.51,5.51,0,0,0,.07.92h-.79v-.66h-7.15v.66h-.79a5.79,5.79,0,0,0,.07-.92v-2.42a6.13,6.13,0,0,0-.05-1h.84a5.53,5.53,0,0,0-.06.94v2h3.14v-4h-2.75l-.68,0c0-.21,0-.37,0-.56v-2.18a8,8,0,0,0-.05-.85h.82a5.77,5.77,0,0,0,0,.81v2.07h2.68Z"/><path class="cls-4" d="M258,147.57a8.9,8.9,0,0,0,1.29-.06c0,.4,0,.4-.06,1.44a34,34,0,0,1-.38,4.64c-.2,1-.53,1.25-1.41,1.25a13.65,13.65,0,0,1-2-.18,3.44,3.44,0,0,0-.19-.83,9.92,9.92,0,0,0,2.09.27c.58,0,.73-.27.89-1.61a40.83,40.83,0,0,0,.24-4.28h-3.4a9.68,9.68,0,0,1-1.09,3.88A7.51,7.51,0,0,1,251,155a1.77,1.77,0,0,0-.58-.62,6.77,6.77,0,0,0,1.85-1.19c1.28-1.16,1.89-2.57,2.15-4.93h-2.16a9.78,9.78,0,0,0-1.35.07v-.8a9.52,9.52,0,0,0,1.36.07h2.19c0-.5,0-.85,0-1.3a6.24,6.24,0,0,0-.07-1.07h.87a7.66,7.66,0,0,0-.06.89c0,.52,0,.52-.05,1.47Z"/><path class="cls-4" d="M213.63,169.25c-.13,2.85-1.06,4.19-3.54,5.16a1.92,1.92,0,0,0-.52-.72c2.28-.76,3.14-1.94,3.22-4.44h-3a8.64,8.64,0,0,0-1.27.06v-.81a7.33,7.33,0,0,0,1.28.07h6.44a7.26,7.26,0,0,0,1.28-.07v.81a8.65,8.65,0,0,0-1.27-.06Zm-4-3.49a5.72,5.72,0,0,0,1.27.08h3.32a9.94,9.94,0,0,0,1.27-.06v.79l-1.25,0h-3.34a7.69,7.69,0,0,0-1.25.05Zm6.45-.92a8.58,8.58,0,0,1,1.08,1.74l-.56.31a8.39,8.39,0,0,0-1.07-1.78Zm1.35-.42a9.15,9.15,0,0,1,1.08,1.74l-.56.31a8.63,8.63,0,0,0-1.07-1.77Z"/><path class="cls-4" d="M219.5,169.37a7.77,7.77,0,0,0,1.36.07h6.39a8.7,8.7,0,0,0,1.33-.05v.89a12.54,12.54,0,0,0-1.34,0h-6.38a12,12,0,0,0-1.36,0Z"/><path class="cls-4" d="M234.54,165.22a3.65,3.65,0,0,0-.38.73,5.53,5.53,0,0,1-.34.61c.15,0,.15,0,3.4-.06a1.91,1.91,0,0,0,.64-.11l.5.5a2.46,2.46,0,0,0-.32.73,12.52,12.52,0,0,1-2.87,4.73,12.27,12.27,0,0,1-3.48,2.27,2,2,0,0,0-.54-.68,9.93,9.93,0,0,0,2.28-1.2,7.73,7.73,0,0,0,1.9-1.74,13.82,13.82,0,0,0-2.46-1.78l.51-.56a15.68,15.68,0,0,1,2.43,1.71,13.15,13.15,0,0,0,1.53-3.19l-3.85.06a10.93,10.93,0,0,1-2.62,2.93,2,2,0,0,0-.64-.53,9.57,9.57,0,0,0,2.81-3.14,6,6,0,0,0,.65-1.51Z"/><path class="cls-4" d="M242.69,166.26c-.21,0-.47,0-.84.06v-.79a4.14,4.14,0,0,0,.84.06h1.45a5.24,5.24,0,0,0,1-.07,5.66,5.66,0,0,0,0,.73,8,8,0,0,0,.94,3.84,9.8,9.8,0,0,0,1.65,2.28,8.93,8.93,0,0,0,2.06,1.6,2.43,2.43,0,0,0-.62.7,10.3,10.3,0,0,1-2.13-1.88,10.1,10.1,0,0,1-1.57-2.38,8.68,8.68,0,0,1-.69-2,9.47,9.47,0,0,1-1.54,3.56,10.89,10.89,0,0,1-2.87,2.75,2,2,0,0,0-.59-.65,9.23,9.23,0,0,0,2.55-2.17,8.9,8.9,0,0,0,1.69-3.2,9.56,9.56,0,0,0,.35-2.4Z"/><path class="cls-4" d="M258.16,167.21a8.9,8.9,0,0,0,1.29-.06c0,.4,0,.4-.06,1.44a34,34,0,0,1-.38,4.64c-.2,1-.53,1.25-1.41,1.25a13.65,13.65,0,0,1-2-.18,3.44,3.44,0,0,0-.19-.83,9.92,9.92,0,0,0,2.09.27c.58,0,.73-.27.89-1.61a40.83,40.83,0,0,0,.24-4.28h-3.4a9.68,9.68,0,0,1-1.09,3.88,7.51,7.51,0,0,1-3.06,2.85,1.77,1.77,0,0,0-.58-.62,6.77,6.77,0,0,0,1.85-1.19c1.28-1.16,1.89-2.57,2.15-4.93h-2.16a9.78,9.78,0,0,0-1.35.07v-.8a9.52,9.52,0,0,0,1.36.07h2.19c0-.5,0-.85,0-1.3a6.24,6.24,0,0,0-.07-1.07h.87a7.66,7.66,0,0,0-.06.89c0,.52,0,.52-.05,1.47Z"/><rect class="cls-2" x="202.83" y="143.61" width="62.75" height="13.54"/><rect class="cls-2" x="202.83" y="163.32" width="62.75" height="13.54"/><polyline class="cls-2" points="321.77 138.43 305.03 138.43 305.03 170.09 273.09 170.09"/><polygon class="cls-4" points="265.62 165.1 273.99 170.09 265.62 175.07 265.62 165.1"/><path class="cls-2" d="M294.55,166.49"/><line class="cls-2" x1="163.14" y1="121.28" x2="321.77" y2="121.28"/><circle class="cls-1" cx="326.7" cy="121.28" r="2.03"/><circle class="cls-1" cx="326.7" cy="138.43" r="2.03"/><polyline class="cls-2" points="328.72 121.28 358.02 129.01 371.04 129.01 440.07 129.01 440.07 42.25 422.46 42.25"/><circle class="cls-4" cx="358.02" cy="129.01" r="2.03"/><rect class="cls-2" x="0.5" y="0.5" width="457.3" height="192.67"/></g></g></svg>