<svg xmlns="http://www.w3.org/2000/svg" viewBox="0 0 458.3 212.06"><defs><style>.cls-1{fill:#c6c6c6;}.cls-1,.cls-2,.cls-3,.cls-6{stroke:#231815;stroke-miterlimit:10;}.cls-2{fill:#fff;}.cls-3,.cls-4,.cls-6{fill:none;}.cls-5{fill:#231815;}.cls-6{stroke-width:0.75px;stroke-dasharray:1;}</style></defs><title>Asset 13</title><g id="Layer_2" data-name="Layer 2"><g id="Layer_1-2" data-name="Layer 1"><rect class="cls-1" x="80.63" y="40.39" width="315.05" height="40.48"/><rect class="cls-2" x="410.01" y="49.35" width="12.45" height="22.57"/><polygon class="cls-2" points="410.01 71.92 397.55 80.87 397.55 40.39 410.01 49.35 410.01 71.92"/><circle class="cls-2" cx="69.88" cy="60.63" r="8.79"/><polygon class="cls-2" points="38.49 55.6 69.34 51.61 69.34 69.66 38.49 65.67 38.49 55.6"/><path class="cls-3" d="M393.72,75a20.27,20.27,0,0,1,0-28.68"/><path class="cls-4" d="M374,75a20.27,20.27,0,0,1,0-28.68"/><path class="cls-3" d="M354.3,75a20.27,20.27,0,0,1,0-28.68"/><path class="cls-3" d="M374,74.28a20.27,20.27,0,0,1,0-28.68"/><path class="cls-3" d="M344.45,75a20.27,20.27,0,0,1,0-28.68"/><path class="cls-3" d="M334.59,75a20.27,20.27,0,0,1,0-28.68"/><path class="cls-3" d="M314.89,75a20.27,20.27,0,0,1,0-28.68"/><path class="cls-3" d="M305,75a20.27,20.27,0,0,1,0-28.68"/><path class="cls-3" d="M285.32,75a20.27,20.27,0,0,1,0-28.68"/><path class="cls-3" d="M275.47,75a20.27,20.27,0,0,1,0-28.68"/><path class="cls-3" d="M265.62,75a20.27,20.27,0,0,1,0-28.68"/><path class="cls-3" d="M226.34,75a20.27,20.27,0,0,1,0-28.68"/><path class="cls-3" d="M216.49,75a20.27,20.27,0,0,1,0-28.68"/><path class="cls-3" d="M206.63,75a20.27,20.27,0,0,1,0-28.68"/><path class="cls-3" d="M196.78,75a20.27,20.27,0,0,1,0-28.68"/><path class="cls-3" d="M177.07,75a20.27,20.27,0,0,1,0-28.68"/><path class="cls-3" d="M157.51,75a20.27,20.27,0,0,1,0-28.68"/><path class="cls-3" d="M147.65,75a20.27,20.27,0,0,1,0-28.68"/><path class="cls-3" d="M137.8,75a20.27,20.27,0,0,1,0-28.68"/><path class="cls-3" d="M127.94,46.29"/><path class="cls-3" d="M127.94,75"/><path class="cls-3" d="M118.09,75a20.27,20.27,0,0,1,0-28.68"/><path class="cls-3" d="M108.24,75a20.27,20.27,0,0,1,0-28.68"/><path class="cls-3" d="M88.53,75a20.27,20.27,0,0,1,0-28.68"/><rect class="cls-3" x="100.34" y="84.85" width="9.85" height="32.24"/><rect class="cls-3" x="90.48" y="84.85" width="9.85" height="32.24"/><rect class="cls-3" x="80.63" y="84.85" width="9.85" height="32.24"/><rect class="cls-3" x="110.19" y="84.85" width="9.85" height="32.24"/><rect class="cls-3" x="120.04" y="84.85" width="9.85" height="32.24"/><rect class="cls-3" x="129.9" y="84.85" width="9.85" height="32.24"/><rect class="cls-3" x="139.75" y="84.85" width="9.85" height="32.24"/><rect class="cls-3" x="149.61" y="84.85" width="9.85" height="32.24"/><rect class="cls-3" x="159.46" y="84.85" width="9.85" height="32.24"/><rect class="cls-3" x="169.17" y="84.85" width="9.85" height="32.24"/><rect class="cls-3" x="179.03" y="84.85" width="9.85" height="32.24"/><rect class="cls-3" x="188.88" y="84.85" width="9.85" height="32.24"/><rect class="cls-3" x="198.73" y="84.85" width="9.85" height="32.24"/><rect class="cls-3" x="208.59" y="84.85" width="9.85" height="32.24"/><rect class="cls-3" x="218.44" y="84.85" width="9.85" height="32.24"/><rect class="cls-3" x="228.3" y="84.85" width="9.85" height="32.24"/><rect class="cls-3" x="238.15" y="84.85" width="9.85" height="32.24"/><rect class="cls-3" x="248.01" y="84.85" width="9.85" height="32.24"/><rect class="cls-3" x="257.72" y="84.85" width="9.85" height="32.24"/><rect class="cls-3" x="267.57" y="84.85" width="9.85" height="32.24"/><rect class="cls-3" x="277.42" y="84.85" width="9.85" height="32.24"/><rect class="cls-3" x="287.28" y="84.85" width="9.85" height="32.24"/><rect class="cls-3" x="297.13" y="84.85" width="9.85" height="32.24"/><rect class="cls-3" x="306.99" y="84.85" width="9.85" height="32.24"/><rect class="cls-3" x="316.84" y="84.85" width="9.85" height="32.24"/><rect class="cls-3" x="326.7" y="84.85" width="9.85" height="32.24"/><rect class="cls-3" x="336.55" y="84.85" width="9.85" height="32.24"/><rect class="cls-3" x="346.4" y="84.85" width="9.85" height="32.24"/><rect class="cls-3" x="356.26" y="84.85" width="9.85" height="32.24"/><rect class="cls-3" x="366.11" y="84.85" width="9.85" height="32.24"/><rect class="cls-3" x="375.97" y="84.85" width="9.85" height="32.24"/><rect class="cls-3" x="385.82" y="84.85" width="9.85" height="32.24"/><path class="cls-5" d="M85.14,97.85H83.71l.69-1.17h2V105H85.14Z"/><path class="cls-5" d="M104.85,97.85h-1.43l.69-1.17h2V105h-1.25Z"/><path class="cls-5" d="M114.7,97.85h-1.43l.69-1.17h2V105H114.7Z"/><path class="cls-5" d="M134.41,97.85H133l.69-1.17h2V105h-1.25Z"/><path class="cls-5" d="M144.27,97.85h-1.43l.69-1.17h2V105h-1.25Z"/><path class="cls-5" d="M154.12,97.85h-1.43l.69-1.17h2V105h-1.25Z"/><path class="cls-5" d="M262.23,97.85h-1.43l.69-1.17h2V105h-1.25Z"/><path class="cls-5" d="M272.08,97.85h-1.43l.69-1.17h2V105h-1.25Z"/><path class="cls-5" d="M281.94,97.85H280.5l.69-1.17h2V105h-1.25Z"/><path class="cls-5" d="M331.21,97.85h-1.43l.69-1.17h2V105h-1.25Z"/><path class="cls-5" d="M341.06,97.85h-1.43l.69-1.17h2V105h-1.25Z"/><path class="cls-5" d="M350.92,97.85h-1.43l.69-1.17h2V105h-1.25Z"/><path class="cls-5" d="M301.65,97.85h-1.43l.69-1.17h2V105h-1.25Z"/><path class="cls-5" d="M311.5,97.85h-1.43l.69-1.17h2V105H311.5Z"/><path class="cls-5" d="M370.63,97.85h-1.43l.69-1.17h2V105h-1.25Z"/><path class="cls-5" d="M390.33,97.85H388.9l.69-1.17h2V105h-1.25Z"/><path class="cls-5" d="M193.39,97.85H192l.69-1.17h2V105h-1.25Z"/><path class="cls-5" d="M203.25,97.85h-1.43l.69-1.17h2V105h-1.25Z"/><path class="cls-5" d="M213.1,97.85h-1.43l.69-1.17h2V105H213.1Z"/><path class="cls-5" d="M173.76,97.85h-1.43l.69-1.17h2V105h-1.25Z"/><path class="cls-5" d="M223,97.85h-1.43l.69-1.17h2V105H223Z"/><path class="cls-5" d="M92.48,100.77a5,5,0,0,1,.92-3.16,2.41,2.41,0,0,1,4,0,6.05,6.05,0,0,1,0,6.43,2.46,2.46,0,0,1-2,1.07,2.49,2.49,0,0,1-2-1.07A5.18,5.18,0,0,1,92.48,100.77Zm1.23,0a4.91,4.91,0,0,0,.48,2.29,1.28,1.28,0,0,0,2.44,0,5.49,5.49,0,0,0,0-4.51,1.28,1.28,0,0,0-2.43,0A4.58,4.58,0,0,0,93.71,100.78Z"/><path class="cls-5" d="M122,100.77a5,5,0,0,1,.92-3.16,2.41,2.41,0,0,1,4,0,6.05,6.05,0,0,1,0,6.43,2.46,2.46,0,0,1-2,1.07,2.49,2.49,0,0,1-2-1.07A5.18,5.18,0,0,1,122,100.77Zm1.23,0a4.91,4.91,0,0,0,.48,2.29,1.28,1.28,0,0,0,2.44,0,5.49,5.49,0,0,0,0-4.51,1.28,1.28,0,0,0-2.43,0A4.58,4.58,0,0,0,123.27,100.78Z"/><path class="cls-5" d="M161.39,100.77a5,5,0,0,1,.92-3.16,2.41,2.41,0,0,1,4,0,6.05,6.05,0,0,1,0,6.43,2.46,2.46,0,0,1-2,1.07,2.49,2.49,0,0,1-2-1.07A5.18,5.18,0,0,1,161.39,100.77Zm1.23,0a4.91,4.91,0,0,0,.48,2.29,1.28,1.28,0,0,0,2.44,0,5.49,5.49,0,0,0,0-4.51,1.28,1.28,0,0,0-2.43,0A4.58,4.58,0,0,0,162.62,100.78Z"/><path class="cls-5" d="M181,100.77a5,5,0,0,1,.92-3.16,2.41,2.41,0,0,1,4,0,6.05,6.05,0,0,1,0,6.43,2.46,2.46,0,0,1-2,1.07,2.49,2.49,0,0,1-2-1.07A5.18,5.18,0,0,1,181,100.77Zm1.23,0a4.92,4.92,0,0,0,.48,2.29,1.28,1.28,0,0,0,2.44,0,5.49,5.49,0,0,0,0-4.51,1.28,1.28,0,0,0-2.43,0A4.58,4.58,0,0,0,182.18,100.78Z"/><path class="cls-5" d="M230.22,100.77a5,5,0,0,1,.92-3.16,2.41,2.41,0,0,1,4,0,6.05,6.05,0,0,1,0,6.43,2.46,2.46,0,0,1-2,1.07,2.49,2.49,0,0,1-2-1.07A5.18,5.18,0,0,1,230.22,100.77Zm1.23,0a4.91,4.91,0,0,0,.48,2.29,1.28,1.28,0,0,0,2.44,0,5.49,5.49,0,0,0,0-4.51,1.28,1.28,0,0,0-2.43,0A4.58,4.58,0,0,0,231.45,100.78Z"/><path class="cls-5" d="M240.08,100.77a5,5,0,0,1,.92-3.16,2.41,2.41,0,0,1,4,0,6.05,6.05,0,0,1,0,6.43,2.46,2.46,0,0,1-2,1.07,2.49,2.49,0,0,1-2-1.07A5.18,5.18,0,0,1,240.08,100.77Zm1.23,0a4.91,4.91,0,0,0,.48,2.29,1.28,1.28,0,0,0,2.44,0,5.49,5.49,0,0,0,0-4.51,1.28,1.28,0,0,0-2.43,0A4.58,4.58,0,0,0,241.31,100.78Z"/><path class="cls-5" d="M249.93,100.77a5,5,0,0,1,.92-3.16,2.41,2.41,0,0,1,4,0,6.05,6.05,0,0,1,0,6.43,2.46,2.46,0,0,1-2,1.07,2.49,2.49,0,0,1-2-1.07A5.18,5.18,0,0,1,249.93,100.77Zm1.23,0a4.91,4.91,0,0,0,.48,2.29,1.28,1.28,0,0,0,2.44,0,5.49,5.49,0,0,0,0-4.51,1.28,1.28,0,0,0-2.43,0A4.58,4.58,0,0,0,251.16,100.78Z"/><path class="cls-5" d="M289.21,100.77a5,5,0,0,1,.92-3.16,2.41,2.41,0,0,1,4,0,6.05,6.05,0,0,1,0,6.43,2.46,2.46,0,0,1-2,1.07,2.49,2.49,0,0,1-2-1.07A5.18,5.18,0,0,1,289.21,100.77Zm1.23,0a4.91,4.91,0,0,0,.48,2.29,1.28,1.28,0,0,0,2.44,0,5.49,5.49,0,0,0,0-4.51,1.28,1.28,0,0,0-2.43,0A4.58,4.58,0,0,0,290.44,100.78Z"/><path class="cls-5" d="M318.84,100.77a5,5,0,0,1,.92-3.16,2.41,2.41,0,0,1,4,0,6.05,6.05,0,0,1,0,6.43,2.46,2.46,0,0,1-2,1.07,2.49,2.49,0,0,1-2-1.07A5.18,5.18,0,0,1,318.84,100.77Zm1.23,0a4.91,4.91,0,0,0,.48,2.29,1.28,1.28,0,0,0,2.44,0,5.49,5.49,0,0,0,0-4.51,1.28,1.28,0,0,0-2.43,0A4.58,4.58,0,0,0,320.07,100.78Z"/><path class="cls-5" d="M358.26,100.77a5,5,0,0,1,.92-3.16,2.41,2.41,0,0,1,4,0,6.05,6.05,0,0,1,0,6.43,2.46,2.46,0,0,1-2,1.07,2.49,2.49,0,0,1-2-1.07A5.18,5.18,0,0,1,358.26,100.77Zm1.23,0a4.91,4.91,0,0,0,.48,2.29,1.28,1.28,0,0,0,2.44,0,5.49,5.49,0,0,0,0-4.51,1.28,1.28,0,0,0-2.43,0A4.58,4.58,0,0,0,359.49,100.78Z"/><path class="cls-5" d="M378,100.77a5,5,0,0,1,.92-3.16,2.41,2.41,0,0,1,4,0,6.05,6.05,0,0,1,0,6.43,2.46,2.46,0,0,1-2,1.07,2.49,2.49,0,0,1-2-1.07A5.18,5.18,0,0,1,378,100.77Zm1.23,0a4.91,4.91,0,0,0,.48,2.29,1.28,1.28,0,0,0,2.44,0,5.49,5.49,0,0,0,0-4.51,1.28,1.28,0,0,0-2.43,0A4.58,4.58,0,0,0,379.2,100.78Z"/><path class="cls-3" d="M38.49,60.63H19v89H80.63"/><rect class="cls-2" x="80.63" y="137.42" width="49.27" height="24.48"/><path class="cls-5" d="M84.22,147.34a11.6,11.6,0,0,1,1.84,1.34l-.42.61a8.66,8.66,0,0,0-1.82-1.41ZM86,150.86a15.6,15.6,0,0,1-1.38,3.19,2.58,2.58,0,0,1-.12.23l-.63-.56a3,3,0,0,0,.46-.63,12.71,12.71,0,0,0,1.1-2.66Zm.13-4.16a8.45,8.45,0,0,0-1.75-1.49l.46-.5a11.54,11.54,0,0,1,1.75,1.46Zm1.62,2.57a9.35,9.35,0,0,1-1.33,5.06,2.06,2.06,0,0,0-.62-.43,5.26,5.26,0,0,0,.89-1.93,18.3,18.3,0,0,0,.41-4.75,13.41,13.41,0,0,0,0-1.37,6.25,6.25,0,0,0,1.07.05h1.67v-.4a6.08,6.08,0,0,0-.07-1.09h.79a5.75,5.75,0,0,0-.07,1.09v.4h1.8a4.82,4.82,0,0,0,1-.05l.39.4a2.27,2.27,0,0,0-.22.4,13.83,13.83,0,0,1-.78,1.41,2.36,2.36,0,0,0-.63-.26,5.11,5.11,0,0,0,.73-1.25h-2.3v2.13h1.1a4.1,4.1,0,0,0,.88-.06l.4.41c-.09.17-.12.24-.24.5A9.26,9.26,0,0,1,91,152.1a9.19,9.19,0,0,0,2.88,1.57,2.38,2.38,0,0,0-.44.66,9.55,9.55,0,0,1-2.89-1.77,9.15,9.15,0,0,1-2.78,1.8,1.85,1.85,0,0,0-.42-.62A8.35,8.35,0,0,0,90,152.12a7.52,7.52,0,0,1-1.73-2.84Zm2-.6v-2.13h-2v.79c0,.4,0,.76,0,1.34Zm-.84.6a6.41,6.41,0,0,0,1.51,2.39,7.45,7.45,0,0,0,1.5-2.39Z"/><path class="cls-5" d="M96.1,145.67a5.53,5.53,0,0,0-.95.05V145a6.84,6.84,0,0,0,1,.07h3.45a6.59,6.59,0,0,0,1-.07v.76a5.31,5.31,0,0,0-.94-.05h-.24v2.73h.34a5.56,5.56,0,0,0,1-.06v.77a5.64,5.64,0,0,0-1-.06h-.34v4.13a7.7,7.7,0,0,0,.07,1.14h-.81a6.94,6.94,0,0,0,.07-1.14v-4.14H97.08a13,13,0,0,1-.19,2,6.39,6.39,0,0,1-1.64,3.31,2.2,2.2,0,0,0-.58-.5c1.2-1.16,1.68-2.52,1.73-4.83h-.45a6.37,6.37,0,0,0-1,.07v-.79a6.14,6.14,0,0,0,1,.07h.45v-2.73Zm1,2.73h1.66v-2.73H97.08Zm7.93,2.31a8.72,8.72,0,0,0-.76.83,11.74,11.74,0,0,1-1.87,1.68,11.31,11.31,0,0,1-1.95,1.14,3.4,3.4,0,0,0-.43-.64,10.12,10.12,0,0,0,3.6-2.5,5.57,5.57,0,0,0,.78-1Zm-.77-5.63c-.13.11-.22.2-.57.53a11.55,11.55,0,0,1-2.92,2.12,2.39,2.39,0,0,0-.44-.63,8.48,8.48,0,0,0,2.54-1.69,4.57,4.57,0,0,0,.75-.81Zm.4,2.78a3.71,3.71,0,0,0-.46.43,12.39,12.39,0,0,1-3.39,2.54,3,3,0,0,0-.43-.65,9,9,0,0,0,2.83-1.87,5.08,5.08,0,0,0,.84-1Z"/><path class="cls-5" d="M110.16,145.23a4.9,4.9,0,0,0,.9-.06v.65a6.81,6.81,0,0,0-.89,0h-1.43v.66h1a6.16,6.16,0,0,0,.9,0,4.67,4.67,0,0,0,0,.66v.6a6.09,6.09,0,0,0,0,.69,5.8,5.8,0,0,0-.83,0h-.73a4.13,4.13,0,0,0,1.58,1.06,1.63,1.63,0,0,0-.37.51,4.81,4.81,0,0,1-1.6-1.39.81.81,0,0,1,0,.14,5.41,5.41,0,0,1,0,.55v.38a3.87,3.87,0,0,0,0,.66h-.67a3.17,3.17,0,0,0,0-.66v-.4a6.51,6.51,0,0,1,0-.67,5.4,5.4,0,0,1-2.17,1.81,1.8,1.8,0,0,0-.44-.51,5.46,5.46,0,0,0,2.2-1.5h-.66a5.21,5.21,0,0,0-.84,0c0-.22,0-.46,0-.7v-.6a5.11,5.11,0,0,0,0-.66,6,6,0,0,0,.89,0h1v-.66h-1.31a5.36,5.36,0,0,0-.95.06v-.66a5.42,5.42,0,0,0,1,.06h1.3a3.9,3.9,0,0,0-.06-.72h.69a3.53,3.53,0,0,0-.06.72Zm.26,5.87h-2.92a6.68,6.68,0,0,0-1,.06v-.68a6.35,6.35,0,0,0,1,.06h6.43a6.7,6.7,0,0,0,1.1-.06v.68a7.13,7.13,0,0,0-1.1-.06h-2.87V152h2.43a5.65,5.65,0,0,0,1-.05v.68a6.4,6.4,0,0,0-1-.05h-2.43v1h3.53a8,8,0,0,0,1.12-.07v.7a8.57,8.57,0,0,0-1.12-.07H107a8.74,8.74,0,0,0-1.13.07v-.7a8.28,8.28,0,0,0,1.13.07h1v-1a4,4,0,0,0-.06-.8h.77a4.46,4.46,0,0,0-.05.8v1h1.79Zm-3.52-4.17v.91h1.25v-.91Zm1.84.91H110v-.91h-1.3Zm6.86-1.44a4.79,4.79,0,0,0-.87-.05,5.45,5.45,0,0,1-1.13,2.19,5.61,5.61,0,0,0,2.15,1.17,2.16,2.16,0,0,0-.36.64,6.76,6.76,0,0,1-2.2-1.38A5.71,5.71,0,0,1,111,150.3a1.77,1.77,0,0,0-.36-.56,5,5,0,0,0,2.18-1.2,5.51,5.51,0,0,1-1-1.53,8.14,8.14,0,0,1-.69.88,1.79,1.79,0,0,0-.46-.44,4.6,4.6,0,0,0,1.06-1.36,5.17,5.17,0,0,0,.55-1.57l.67.14a8.36,8.36,0,0,1-.44,1.11h2.11a7.49,7.49,0,0,0,1-.07Zm-3.41-.05-.06.11a5.19,5.19,0,0,0,1,1.67,4.29,4.29,0,0,0,.9-1.78Z"/><path class="cls-5" d="M118.1,145.67a5.53,5.53,0,0,0-.95.05V145a6.84,6.84,0,0,0,1,.07h3.45a6.59,6.59,0,0,0,1-.07v.76a5.31,5.31,0,0,0-.94-.05h-.24v2.73h.34a5.56,5.56,0,0,0,1-.06v.77a5.64,5.64,0,0,0-1-.06h-.34v4.13a7.7,7.7,0,0,0,.07,1.14h-.81a6.94,6.94,0,0,0,.07-1.14v-4.14h-1.66a13,13,0,0,1-.19,2,6.39,6.39,0,0,1-1.64,3.31,2.2,2.2,0,0,0-.58-.5c1.2-1.16,1.68-2.52,1.73-4.83h-.45a6.37,6.37,0,0,0-1,.07v-.79a6.14,6.14,0,0,0,1,.07h.45v-2.73Zm1,2.73h1.66v-2.73h-1.66Zm7.93,2.31a8.72,8.72,0,0,0-.76.83,11.74,11.74,0,0,1-1.87,1.68,11.31,11.31,0,0,1-1.95,1.14,3.4,3.4,0,0,0-.43-.64,10.12,10.12,0,0,0,3.6-2.5,5.57,5.57,0,0,0,.78-1Zm-.77-5.63c-.13.11-.22.2-.57.53a11.55,11.55,0,0,1-2.92,2.12,2.39,2.39,0,0,0-.44-.63,8.48,8.48,0,0,0,2.54-1.69,4.57,4.57,0,0,0,.75-.81Zm.4,2.78a3.71,3.71,0,0,0-.46.43,12.39,12.39,0,0,1-3.39,2.54,3,3,0,0,0-.43-.65,9,9,0,0,0,2.83-1.87,5.08,5.08,0,0,0,.84-1Z"/><rect class="cls-2" x="321.77" y="137.42" width="49.27" height="39.94"/><polyline class="cls-3" points="129.9 149.67 163.14 149.67 163.14 180.19 196.79 180.19"/><path class="cls-5" d="M202.83,180.19a30.22,30.22,0,0,0-8.55,4.76l1.72-4.76-1.72-4.75A30.2,30.2,0,0,0,202.83,180.19Z"/><path class="cls-5" d="M214,178c-.13,2.85-1.06,4.19-3.54,5.16a1.93,1.93,0,0,0-.52-.72c2.28-.76,3.14-1.94,3.22-4.44h-3a8.64,8.64,0,0,0-1.27.06v-.81a7.33,7.33,0,0,0,1.28.07h6.44a7.24,7.24,0,0,0,1.28-.07v.81a8.64,8.64,0,0,0-1.26-.06Zm-4-3.49a5.72,5.72,0,0,0,1.27.08h3.32a10,10,0,0,0,1.27-.06v.79l-1.25,0h-3.34a7.69,7.69,0,0,0-1.25.05Zm6.45-.92a8.62,8.62,0,0,1,1.08,1.74l-.56.31a8.39,8.39,0,0,0-1.07-1.78Zm1.35-.42a9.23,9.23,0,0,1,1.08,1.74l-.56.31a8.59,8.59,0,0,0-1.07-1.77Z"/><path class="cls-5" d="M219.91,178.12a7.77,7.77,0,0,0,1.36.07h6.39a8.72,8.72,0,0,0,1.33-.05V179a12.55,12.55,0,0,0-1.34,0h-6.38a12,12,0,0,0-1.36,0Z"/><path class="cls-5" d="M234.95,174a3.63,3.63,0,0,0-.39.73,5.52,5.52,0,0,1-.34.61c.15,0,.15,0,3.4-.06a1.92,1.92,0,0,0,.64-.11l.5.5a2.45,2.45,0,0,0-.32.73,12.52,12.52,0,0,1-2.87,4.73,12.27,12.27,0,0,1-3.48,2.27,2,2,0,0,0-.54-.68,10,10,0,0,0,2.28-1.2,7.73,7.73,0,0,0,1.9-1.74,13.82,13.82,0,0,0-2.46-1.78l.51-.56a15.71,15.71,0,0,1,2.43,1.71,13.12,13.12,0,0,0,1.53-3.19l-3.85.06a10.94,10.94,0,0,1-2.62,2.93,2,2,0,0,0-.64-.53,9.57,9.57,0,0,0,2.81-3.14,6.07,6.07,0,0,0,.65-1.51Z"/><path class="cls-5" d="M244.37,174.7a4.41,4.41,0,0,0-.08-1h.89a5,5,0,0,0-.08,1v2.78H248v-2.08a6,6,0,0,0,0-.8h.83a5.44,5.44,0,0,0-.06.84v2.19c0,.22,0,.37,0,.56l-.68,0h-3v4h3.28V180.1a5.85,5.85,0,0,0-.05-.95h.84a6.12,6.12,0,0,0-.05,1v2.49a5.51,5.51,0,0,0,.07.92h-.79v-.66h-7.15v.66h-.79a5.79,5.79,0,0,0,.07-.92V180.2a6.13,6.13,0,0,0-.05-1h.84a5.53,5.53,0,0,0-.06.94v2h3.14v-4h-2.75l-.68,0c0-.21,0-.37,0-.56v-2.18a8,8,0,0,0-.05-.85h.82a5.77,5.77,0,0,0,0,.81v2.07h2.68Z"/><path class="cls-5" d="M258,176a8.9,8.9,0,0,0,1.29-.06c0,.4,0,.4-.06,1.44a34,34,0,0,1-.38,4.64c-.2,1-.53,1.25-1.41,1.25a13.65,13.65,0,0,1-2-.18,3.44,3.44,0,0,0-.19-.83,9.92,9.92,0,0,0,2.09.27c.58,0,.73-.27.89-1.61a40.83,40.83,0,0,0,.24-4.28h-3.4a9.68,9.68,0,0,1-1.09,3.88,7.51,7.51,0,0,1-3.06,2.85,1.77,1.77,0,0,0-.58-.62,6.77,6.77,0,0,0,1.85-1.19c1.28-1.16,1.89-2.57,2.15-4.93h-2.16a9.78,9.78,0,0,0-1.35.07v-.8a9.52,9.52,0,0,0,1.36.07h2.19c0-.5,0-.85,0-1.3a6.24,6.24,0,0,0-.07-1.07h.87a7.66,7.66,0,0,0-.06.89c0,.52,0,.52-.05,1.47Z"/><path class="cls-5" d="M213.63,197.64c-.13,2.85-1.06,4.19-3.54,5.16a1.92,1.92,0,0,0-.52-.72c2.28-.76,3.14-1.94,3.22-4.44h-3a8.64,8.64,0,0,0-1.27.06v-.81a7.33,7.33,0,0,0,1.28.07h6.44a7.26,7.26,0,0,0,1.28-.07v.81a8.65,8.65,0,0,0-1.27-.06Zm-4-3.49a5.72,5.72,0,0,0,1.27.08h3.32a9.94,9.94,0,0,0,1.27-.06V195l-1.25,0h-3.34a7.69,7.69,0,0,0-1.25.05Zm6.45-.92a8.58,8.58,0,0,1,1.08,1.74l-.56.31a8.39,8.39,0,0,0-1.07-1.78Zm1.35-.42a9.15,9.15,0,0,1,1.08,1.74l-.56.31a8.63,8.63,0,0,0-1.07-1.77Z"/><path class="cls-5" d="M219.5,197.76a7.77,7.77,0,0,0,1.36.07h6.39a8.7,8.7,0,0,0,1.33-.05v.89a12.54,12.54,0,0,0-1.34,0h-6.38a12,12,0,0,0-1.36,0Z"/><path class="cls-5" d="M234.54,193.6a3.65,3.65,0,0,0-.38.73,5.53,5.53,0,0,1-.34.61c.15,0,.15,0,3.4-.06a1.91,1.91,0,0,0,.64-.11l.5.5a2.46,2.46,0,0,0-.32.73,12.52,12.52,0,0,1-2.87,4.73,12.27,12.27,0,0,1-3.48,2.27,2,2,0,0,0-.54-.68,9.93,9.93,0,0,0,2.28-1.2,7.73,7.73,0,0,0,1.9-1.74,13.82,13.82,0,0,0-2.46-1.78l.51-.56a15.68,15.68,0,0,1,2.43,1.71,13.15,13.15,0,0,0,1.53-3.19l-3.85.06a10.93,10.93,0,0,1-2.62,2.93,2,2,0,0,0-.64-.53,9.57,9.57,0,0,0,2.81-3.14,6,6,0,0,0,.65-1.51Z"/><path class="cls-5" d="M242.69,194.65c-.21,0-.47,0-.84.06v-.79a4.14,4.14,0,0,0,.84.06h1.45a5.24,5.24,0,0,0,1-.07,5.66,5.66,0,0,0,0,.73,8,8,0,0,0,.94,3.84,9.8,9.8,0,0,0,1.65,2.28,8.93,8.93,0,0,0,2.06,1.6,2.43,2.43,0,0,0-.62.7,10.3,10.3,0,0,1-2.13-1.88,10.1,10.1,0,0,1-1.57-2.38,8.68,8.68,0,0,1-.69-2,9.47,9.47,0,0,1-1.54,3.56,10.89,10.89,0,0,1-2.87,2.75,2,2,0,0,0-.59-.65,9.23,9.23,0,0,0,2.55-2.17A8.9,8.9,0,0,0,244,197a9.56,9.56,0,0,0,.35-2.4Z"/><path class="cls-5" d="M258.16,195.59a8.9,8.9,0,0,0,1.29-.06c0,.4,0,.4-.06,1.44a34,34,0,0,1-.38,4.64c-.2,1-.53,1.25-1.41,1.25a13.65,13.65,0,0,1-2-.18,3.44,3.44,0,0,0-.19-.83,9.92,9.92,0,0,0,2.09.27c.58,0,.73-.27.89-1.61a40.83,40.83,0,0,0,.24-4.28h-3.4a9.68,9.68,0,0,1-1.09,3.88,7.51,7.51,0,0,1-3.06,2.85,1.77,1.77,0,0,0-.58-.62,6.77,6.77,0,0,0,1.85-1.19c1.28-1.16,1.89-2.57,2.15-4.93h-2.16a9.78,9.78,0,0,0-1.35.07v-.8a9.52,9.52,0,0,0,1.36.07h2.19c0-.5,0-.85,0-1.3a6.24,6.24,0,0,0-.07-1.07h.87a7.66,7.66,0,0,0-.06.89c0,.52,0,.52-.05,1.47Z"/><rect class="cls-3" x="202.83" y="172" width="62.75" height="13.54"/><rect class="cls-3" x="202.83" y="191.7" width="62.75" height="13.54"/><polyline class="cls-3" points="321.77 166.82 305.03 166.82 305.03 198.48 273.09 198.48"/><polygon class="cls-5" points="265.62 193.49 273.99 198.48 265.62 203.46 265.62 193.49"/><path class="cls-3" d="M294.55,194.88"/><line class="cls-3" x1="163.14" y1="149.67" x2="321.77" y2="149.67"/><circle class="cls-2" cx="326.7" cy="149.67" r="2.03"/><circle class="cls-2" cx="326.7" cy="166.82" r="2.03"/><polyline class="cls-3" points="328.72 149.67 358.02 157.4 371.04 157.4 440.07 157.4 440.07 60.63 422.46 60.63"/><circle class="cls-5" cx="358.02" cy="157.39" r="2.03"/><rect class="cls-3" x="0.5" y="0.5" width="457.3" height="211.06"/><path class="cls-5" d="M379.17,16.54l.06.45c-1,.34-2.15.7-2.85.92a.13.13,0,0,1-.1.12l-.24-.58.46-.13V13.87l.6,0s-.06.09-.15.1V17.2l.6-.18V13.08l.18,0a6.33,6.33,0,0,0,.66-.86h-2.23v-.49h2.61l.09,0,.41.26a.14.14,0,0,1-.11.06A8.19,8.19,0,0,1,378,13.43V14.6h1.08v.49H378v1.79Zm4-.7H381.8a5.33,5.33,0,0,0,1.8,2.06,2.65,2.65,0,0,0-.38.42,6.15,6.15,0,0,1-1.71-2.13v2.5H381V16.19a6.53,6.53,0,0,1-2.16,2.2,2.26,2.26,0,0,0-.37-.42,5.67,5.67,0,0,0,2.21-2.14h-1.26V13.48H381v-.77h-1.84v-.48H381v-1l.67,0c0,.06-.06.1-.16.11v.82h2v.48h-2v.77h1.64Zm-3.22-1.92V15.4H381V13.92Zm2.71,0h-1.13V15.4h1.13Z"/><path class="cls-5" d="M388.83,15.32c.37,0,.43-.11.46-.86a1.43,1.43,0,0,0,.46.18c-.07.9-.22,1.12-.87,1.12h-1.64a1.41,1.41,0,0,1-.81-.14,15.93,15.93,0,0,1-2,.73,2.8,2.8,0,0,0-.3-.42,14,14,0,0,0,2.15-.74V13.44l.64,0c0,.06,0,.09-.15.1V15a7.21,7.21,0,0,0,2.57-2l.56.27a.16.16,0,0,1-.13.06h-.06a7.79,7.79,0,0,1-2.61,2.06h1.77Zm-4.68-.16a2.36,2.36,0,0,0,1.11-1.47l.45.15a2.5,2.5,0,0,1-1.14,1.61Zm.9-2.58V13.7h-.53V12.08h3v-.83l.71,0c0,.06-.06.1-.16.1v.68h3.06V13.7h-.54V12.58Zm5,5.26V16.38l.7,0c0,.06-.06.1-.17.11v2.13H390v-.33h-4.37v.35h-.53V16.38l.69,0c0,.06-.06.1-.16.11v1.3h1.87V15.9l.7,0c0,.06-.06.1-.16.11v1.78Zm-3.1-5.22a6.15,6.15,0,0,1,1.41.88l-.3.35a6,6,0,0,0-1.39-.91Zm4.23,3a7.41,7.41,0,0,0-1.5-1.61l.38-.28a7.15,7.15,0,0,1,1.52,1.58Z"/><path class="cls-5" d="M396.27,12.71a.21.21,0,0,1-.2.13c-.29,2.49-1.12,4.65-2.45,4.65-.67,0-1.28-.67-1.28-1.94a3.51,3.51,0,0,1,3.6-3.53,3,3,0,0,1,3.31,3c0,1.9-1.1,2.82-3,3.27a3.18,3.18,0,0,0-.34-.49c1.84-.35,2.78-1.25,2.78-2.76a2.45,2.45,0,0,0-2.72-2.52l-.24,0Zm-.77-.1a2.94,2.94,0,0,0-2.61,2.93c0,.86.37,1.39.75,1.39C394.61,16.94,395.3,14.8,395.5,12.61Z"/><path class="cls-5" d="M402.81,12.73c0,.06-.09.11-.21.12A12.07,12.07,0,0,1,400.69,18a2.43,2.43,0,0,0-.54-.29A10.92,10.92,0,0,0,402,12.56Zm4,5.2a27,27,0,0,0-2.13-5.15l.52-.25a25.73,25.73,0,0,1,2.19,5.17Zm-.1-6.8a.9.9,0,1,1-.9.9A.9.9,0,0,1,406.73,11.13Zm.63.9a.63.63,0,1,0-.63.63A.63.63,0,0,0,407.36,12Z"/><path class="cls-5" d="M410.25,12.74c0,.07-.08.12-.18.14,0,2.15-.22,4.11-1.46,5.54a4.51,4.51,0,0,0-.48-.3c1.19-1.3,1.34-3.29,1.36-5.45Zm2.07,4.61A5.26,5.26,0,0,0,415,14.13a3.23,3.23,0,0,0,.5.31,6,6,0,0,1-3.26,3.61.34.34,0,0,1-.14.16l-.42-.53.09-.12V11.7l.74,0a.18.18,0,0,1-.18.15Z"/><path class="cls-5" d="M421.56,12.31a.17.17,0,0,1-.1.09,12.36,12.36,0,0,1-1.6,2.75,29.31,29.31,0,0,1,2.93,2.71l-.49.42a26.1,26.1,0,0,0-2.81-2.69,12.59,12.59,0,0,1-3.08,2.69,3,3,0,0,0-.42-.43,11.47,11.47,0,0,0,4.69-5.22h-3.93v-.54H421l.1,0Z"/><path class="cls-5" d="M425,19.1a5.83,5.83,0,0,1-1.18-3.67,5.88,5.88,0,0,1,1.18-3.7h.54a6,6,0,0,0-1.14,3.71,6,6,0,0,0,1.14,3.66Z"/><path class="cls-5" d="M431.95,12.69a.19.19,0,0,1-.18.07,8.67,8.67,0,0,1-.62,1.17h2.21v.5H426.1v-.5h2.13a4.15,4.15,0,0,0-.51-1.27l.51-.12a4.27,4.27,0,0,1,.54,1.26l-.5.14H431l-.34-.13a8,8,0,0,0,.6-1.3h-4.68V12h2.85v-.76l.71,0c0,.06,0,.1-.16.11V12h2.94v.49h-1.61Zm-4.61,6V15.16h4.89v3.51h-.54v-.29h-3.82v.31Zm4.35-3.07h-3.82v.91h3.82Zm-3.82,2.29h3.82V17h-3.82Z"/><path class="cls-5" d="M434.29,13.51a6.1,6.1,0,0,1,1.44.83l-.31.45a6,6,0,0,0-1.42-.88Zm-.1,4.73a24.71,24.71,0,0,0,1.33-2.62l.42.33c-.37.86-.86,1.85-1.21,2.46a.16.16,0,0,1,0,.11.13.13,0,0,1,0,.09Zm.54-6.91a5.34,5.34,0,0,1,1.4.9l-.31.43a6,6,0,0,0-1.39-.94Zm5.78,3.12.35.18a.16.16,0,0,1-.09.09,5.88,5.88,0,0,1-1.39,2.46,5.42,5.42,0,0,0,2.14,1.06,2.22,2.22,0,0,0-.35.46A5.53,5.53,0,0,1,439,17.54a6.37,6.37,0,0,1-2,1.16,2.36,2.36,0,0,0-.34-.45,6,6,0,0,0,2-1.08,6.17,6.17,0,0,1-1.25-2.06l.46-.14A5.15,5.15,0,0,0,439,16.83,5.09,5.09,0,0,0,440.16,15h-3.09A6.41,6.41,0,0,1,436,18.69a2,2,0,0,0-.46-.27,6.22,6.22,0,0,0,1-3.89v-2h2V11.25l.69,0c0,.06,0,.1-.16.11v1.09h2l.31,0a8.28,8.28,0,0,1-.7,1.69l-.46-.15a10.15,10.15,0,0,0,.44-1.06h-1.63v1.49h1.35Zm-2-1.46h-1.46v1.49h1.46Z"/><path class="cls-5" d="M442.44,11.73a5.85,5.85,0,0,1,1.18,3.69,5.87,5.87,0,0,1-1.18,3.69h-.54A6,6,0,0,0,443,15.41a6,6,0,0,0-1.14-3.68Z"/><path class="cls-5" d="M262.92,13a.46.46,0,0,1,0,.11,11.25,11.25,0,0,1-.7,3.48,6.25,6.25,0,0,1,.8.84l-.32.42a5.9,5.9,0,0,0-.7-.78,4.17,4.17,0,0,1-1.45,1.62,1.91,1.91,0,0,0-.33-.43,3.5,3.5,0,0,0,1.38-1.56c-.26-.23-.54-.46-.8-.66l-.1.37-.44-.26c.18-.7.42-1.7.62-2.7h-.73v-.5h.83c.12-.59.22-1.18.31-1.69l.66.07c0,.06-.06.1-.16.1-.08.46-.18,1-.3,1.51h1.08l.09,0Zm-1.57.45c-.15.72-.32,1.46-.47,2.1.29.21.6.44.89.68a10,10,0,0,0,.59-2.78Zm6.18,2.89h-1.75A5.89,5.89,0,0,0,267.59,18a2.17,2.17,0,0,0-.38.42,7.19,7.19,0,0,1-1.77-1.83v2.1h-.52V16.6A6.78,6.78,0,0,1,263,18.46a2.42,2.42,0,0,0-.38-.42,5.94,5.94,0,0,0,1.89-1.7h-1.69v-.47h2.05v-.78h-1.23V12.63h-.9v-.47h.9v-.9l.66,0c0,.06,0,.09-.16.1v.75h2v-.9l.67,0c0,.06,0,.09-.15.1v.75h.85v.47h-.85v2.46h-1.13s-.06.06-.15.08v.7h2.1Zm-1.34-3.71h-2v.78h2Zm-2,1.21v.8h2v-.8Z"/><path class="cls-5" d="M270.32,12.91h-1a2.54,2.54,0,0,1-.75,1.46,1.4,1.4,0,0,0-.37-.35,2.18,2.18,0,0,0,.68-1.7v-.82l.44.13a12.38,12.38,0,0,0,1.94-.36l.41.38-.08,0h-.06a15.3,15.3,0,0,1-2.15.34v.48h2.49v.42h-1v1h-.5Zm.89,4.89a.18.18,0,0,1-.18,0,13.35,13.35,0,0,1-2.41.86c-.1-.1-.26-.3-.37-.39a9.87,9.87,0,0,0,2.38-.8Zm-1.94-.4V14.12h5.25V17.4Zm.52-2.89v.58H274v-.58Zm0,1V16H274v-.59Zm0,1V17H274v-.61Zm2.84-4.14a1.93,1.93,0,0,1,0,.21h2.84v.42h-1.23v1h-.49v-1h-1.2a2,2,0,0,1-.84,1.12,1.2,1.2,0,0,0-.34-.36,1.58,1.58,0,0,0,.78-1.42v-.72l.47.12a14,14,0,0,0,2.06-.36l.41.38-.08,0h-.06a17.52,17.52,0,0,1-2.32.35Zm2.24,6.43a17.32,17.32,0,0,0-2.3-.89l.44-.28a24.54,24.54,0,0,1,2.45.88Z"/><path class="cls-5" d="M279.71,11.29A4.82,4.82,0,0,0,278.13,15a4.8,4.8,0,0,0,1.58,3.68v0h-.48A5.07,5.07,0,0,1,277.71,15a5.07,5.07,0,0,1,1.53-3.72h.48Z"/><path class="cls-5" d="M282.76,13.37l.38.18a.25.25,0,0,1-.09.1A6.74,6.74,0,0,1,280.47,18a2.22,2.22,0,0,0-.43-.43,5.72,5.72,0,0,0,2.38-3.58h-2.17v-.54h2.42Zm1.36-.62a10.52,10.52,0,0,0,.7,1.9,15,15,0,0,0,2-2.05l.57.42a.2.2,0,0,1-.18,0,21.72,21.72,0,0,1-2.14,2,5.59,5.59,0,0,0,2.59,2.49,2.25,2.25,0,0,0-.42.49,6.64,6.64,0,0,1-3.11-3.85v3.7c0,.73-.34.79-1.84.79a2.39,2.39,0,0,0-.22-.58h.81c.67,0,.7,0,.7-.22V11.28l.72,0c0,.06,0,.1-.16.11Z"/><path class="cls-5" d="M291.42,17.21l0,.46-3,.58a.14.14,0,0,1-.11.11l-.18-.61,1.44-.23V15.15h-1.37v-.49h1.37v-.91h-.9v-.19c-.1.1-.19.21-.3.3a1.6,1.6,0,0,0-.38-.36,7.15,7.15,0,0,0,1.6-2.25l.66.1c0,.06-.06.1-.16.1h0a11.7,11.7,0,0,1,1.46,1.37,3.52,3.52,0,0,0-.33.42,11.41,11.41,0,0,0-1.36-1.35,9,9,0,0,1-1,1.39h2.12v.47h-1v.91h1.3v.49h-1.3v2.28Zm-2.62,0a6.51,6.51,0,0,0-.36-1.52l.4-.1a6.58,6.58,0,0,1,.38,1.5Zm2.57-1.5a.16.16,0,0,1-.16.07,12.42,12.42,0,0,1-.49,1.35l-.37-.14a10.62,10.62,0,0,0,.46-1.48Zm2.23-.62a7.13,7.13,0,0,0,.43,1.3,9.24,9.24,0,0,0,1.08-1l.46.42a.19.19,0,0,1-.18,0,13.76,13.76,0,0,1-1.17.91,3.34,3.34,0,0,0,1.42,1.45,1.75,1.75,0,0,0-.35.45,5.16,5.16,0,0,1-2.15-3.61h-.8V17.8l1.66-.3,0,.47c-.93.21-1.89.42-2.49.54a.16.16,0,0,1-.11.12l-.22-.62.62-.1V11.6h3.33v3.49Zm1-3h-2.3v1h2.3Zm-2.3,1.47v1h2.3v-1Z"/><path class="cls-5" d="M299.22,11.49a.26.26,0,0,1-.25.14c-.06.35-.13.77-.2,1.08a11,11,0,0,0,2.35-.39l.09.54a16.16,16.16,0,0,1-2.54.38,11.86,11.86,0,0,1-1.7,3.93l-.54-.22a10.65,10.65,0,0,0,1.62-3.7h-1.59v-.52h1.69a13.22,13.22,0,0,0,.22-1.35Zm2.13,3.41c0,.65.06,1.09.1,1.64a8.16,8.16,0,0,1,1.7.93l-.29.51a7.56,7.56,0,0,0-1.42-.84c0,.8-.32,1.42-1.5,1.42-.89,0-1.57-.4-1.56-1.15s.84-1.18,1.58-1.18a3.42,3.42,0,0,1,.9.14c0-.51-.07-1-.07-1.41Zm-.44,2a2.67,2.67,0,0,0-1-.18c-.48,0-1,.19-1.06.69s.45.67,1.07.67.94-.28.94-.81C300.92,17.14,300.92,17,300.91,16.9Zm2.19-2.82a11.42,11.42,0,0,0-2.83.39l-.09-.5a11.18,11.18,0,0,1,2.89-.43Z"/><path class="cls-5" d="M309.73,14.1h-.06a.32.32,0,0,1-.17,0c-2.37.7-4.53,1.74-4.52,2.81,0,.77.85,1,2.14,1a19.2,19.2,0,0,0,2.83-.18l0,.58a25.87,25.87,0,0,1-2.86.14c-1.58,0-2.73-.37-2.74-1.54,0-.86.85-1.61,2.1-2.25a7.72,7.72,0,0,1-.37-3.22l.88.07c0,.1-.09.17-.25.19a7.13,7.13,0,0,0,.26,2.7,22.51,22.51,0,0,1,2.49-1Zm-1-2.49a5,5,0,0,1,1,1.19l-.34.23a4.86,4.86,0,0,0-1-1.19Zm1.07-.46a4.81,4.81,0,0,1,1,1.18l-.33.22a5,5,0,0,0-1-1.17Z"/><path class="cls-5" d="M310.84,18.65A4.82,4.82,0,0,0,312.42,15a4.8,4.8,0,0,0-1.58-3.68v0h.48A5,5,0,0,1,312.85,15a5,5,0,0,1-1.53,3.72h-.48Z"/><path class="cls-5" d="M208,123h-3a4.15,4.15,0,0,0,3.08,1.67,2.42,2.42,0,0,0-.33.48,4.33,4.33,0,0,1-3.32-2.15h-.12c-.41.82-1.3,1.58-3.21,2.15a2.33,2.33,0,0,0-.33-.44,4.82,4.82,0,0,0,2.92-1.71h-2.85v-.47h3.09a3.09,3.09,0,0,0,.15-.74h-2.26v-.46h2.28v-.69h-2.49v-.46h2.49v-.8l.7,0c0,.06,0,.1-.15.11v.64h2.55v-1h-5.61v1.06h-.53v-1.54h3v-1l.71,0c0,.06-.06.1-.16.1v.83h3.09v1.54h-.51v.42h-2.59v.69h2.41v.46h-2.42a3.39,3.39,0,0,1-.14.74H208Z"/><path class="cls-5" d="M210.66,118.07l.33.2a.16.16,0,0,1-.06.07c-.17.62-.42,1.46-.64,2.13a3.07,3.07,0,0,1,.67,1.78c0,1.11-.53,1.13-1.1,1.1a1.27,1.27,0,0,0-.11-.45H210c.25,0,.46,0,.46-.69a3,3,0,0,0-.66-1.7c.2-.61.4-1.37.54-1.94h-.9v6.6H209V118.1h1.58Zm1.34,1.1a4.56,4.56,0,0,1,.61.42,5.2,5.2,0,0,0,.26-.73h-1a4.33,4.33,0,0,1-.91,1.25,2.4,2.4,0,0,0-.34-.26,4.71,4.71,0,0,0,1.23-2.11l.56.15c0,.06-.07.08-.16.08,0,.15-.11.31-.18.46h1l.1,0a1.53,1.53,0,0,1,.3.13.25.25,0,0,1-.06.09A5.29,5.29,0,0,1,211.2,122a1.49,1.49,0,0,0-.31-.37,3.84,3.84,0,0,0,1.06-.94,4.92,4.92,0,0,0-.66-.54l.25-.24a4.75,4.75,0,0,1,.62.49,5.26,5.26,0,0,0,.28-.45,3.7,3.7,0,0,0-.66-.49Zm.3,4.26a5.3,5.3,0,0,1-1.17,1.47,3.4,3.4,0,0,0-.35-.31,4.39,4.39,0,0,0,1.1-1.43l.58.2S212.4,123.43,212.31,123.43Zm3.32-.61h-1.88v1.79c0,.5-.19.57-1.33.57a1.74,1.74,0,0,0-.18-.46h.86c.1,0,.13,0,.13-.12v-1.77h-1.79v-.46h4.18Zm-3.42-1.26v-.45h2.61v.45Zm3.52-3.16.34.21s-.06.06-.09.07a7,7,0,0,1-1,1.84,3.51,3.51,0,0,0,1.24,1,1.66,1.66,0,0,0-.34.41,5.47,5.47,0,0,1-2.49-3.92l.43-.1a6.64,6.64,0,0,0,.9,2.25,5.64,5.64,0,0,0,.7-1.3h-1.14v-.42h1.38Zm-.15,6.43a7,7,0,0,0-1.14-1.4l.39-.25a7,7,0,0,1,1.17,1.37Z"/><path class="cls-5" d="M218.5,118.33c0,.09-.1.14-.26.13a19.19,19.19,0,0,0-.42,3.6,8.79,8.79,0,0,0,.1,1.58c.15-.39.5-1.23.61-1.51l.34.35c-.33.81-.57,1.26-.68,1.62a1.37,1.37,0,0,0-.06.38.83.83,0,0,0,0,.25l-.57.1a8.78,8.78,0,0,1-.35-2.75,23.39,23.39,0,0,1,.42-3.89Zm5.09,5.84-.88,0a11,11,0,0,1-1.49-.09c-1-.14-1.44-.69-1.44-1.33a2.44,2.44,0,0,1,.75-1.54l.52.22a1.89,1.89,0,0,0-.68,1.26c0,.93,1.36.93,2.19.93.34,0,.7,0,1,0Zm-3.7-4.89a26.06,26.06,0,0,0,3.49-.3l0,.56a30.24,30.24,0,0,1-3.52.3Z"/><path class="cls-5" d="M230.93,121.82l.71,0c0,.06,0,.1-.16.1v3.18h-.55v-.5h-5.2v.53h-.54v-3.36l.7,0c0,.06-.06.1-.17.11v2.15H228v-2.84h-2.5v-2.77l.7,0s-.06.09-.17.1v2.09h2v-3l.71,0c0,.06-.06.1-.16.11v2.82h2v-2.25l.71,0c0,.06,0,.1-.16.11v2.61h-2.6v2.84h2.37Z"/><path class="cls-5" d="M239,119.53h.26l.31,0a1.51,1.51,0,0,1,0,.18c-.12,3.51-.24,4.7-.56,5.07s-.48.33-1,.33c-.27,0-.62,0-.94,0a1.21,1.21,0,0,0-.19-.56c.57,0,1.08.06,1.28.06a.41.41,0,0,0,.35-.12c.26-.26.39-1.42.5-4.41h-2.87a6,6,0,0,1-3,5.13,1.9,1.9,0,0,0-.42-.42,5.57,5.57,0,0,0,2.89-4.71h-2.65v-.54h2.68c0-.14,0-.28,0-.42v-1.36l.72,0c0,.06-.06.1-.16.11v1.2c0,.14,0,.27,0,.42Z"/><path class="cls-5" d="M247.31,119.58a15.51,15.51,0,0,1-2.66.44c.31,1.09.65,1.74,1.51,2.11l-.39.49a2.75,2.75,0,0,0-1.78-.55l-.1-.47a7.78,7.78,0,0,1,.89.12,4.34,4.34,0,0,1-.71-1.66c-.36,0-.85,0-1.33,0l-1.88,0v-.54c.48,0,1.16,0,1.89,0,.41,0,.87,0,1.19,0-.1-.43-.18-1-.28-1.64l.86,0c0,.1-.08.15-.21.18,0,.46.13,1,.22,1.4a13.54,13.54,0,0,0,2.66-.47Zm-1.43,5.26c-.38,0-.79,0-1.49,0-1.67,0-2.85-.51-2.85-1.58a2,2,0,0,1,.72-1.34l.43.34a1.4,1.4,0,0,0-.58,1c0,.79,1,1,2.29,1,.7,0,1.1,0,1.51,0Z"/><path class="cls-5" d="M248.33,119.57a7.78,7.78,0,0,0,1.5-.12c0-.48,0-.74.06-1.47l.82.06c0,.09-.09.14-.22.16,0,.35-.06.85-.08,1.14l.25.1a4.16,4.16,0,0,0-.32,1.14,4.53,4.53,0,0,1,2.52-1.41c.75,0,1.13.53,1.13,1.46,0,.1,0,.21,0,.31-.06.7-.14,1.7-.14,2.34,0,.48.06.74.39.74a2.17,2.17,0,0,0,1.06-.54,5.63,5.63,0,0,0,.11.61,2.42,2.42,0,0,1-1.26.52c-.67,0-.9-.4-.9-1.23,0-.42.14-2.61.14-2.62,0-.7-.24-1-.63-1a4.42,4.42,0,0,0-2.44,1.53c0,1.16,0,2.58,0,3.67h-.56c0-.46,0-2.74,0-3.25a8.34,8.34,0,0,1-1.46,1.93l-.29-.5a8.11,8.11,0,0,0,1.76-2.41c0-.23,0-.45,0-.7a8.25,8.25,0,0,1-1.47.14Z"/><path class="cls-5" d="M258.2,121.25a4.84,4.84,0,0,1,2-.46,1.86,1.86,0,0,1,2.07,1.92c0,1.45-1.27,2.25-2.88,2.25-1,0-1.75-.42-1.75-1.12a1.21,1.21,0,0,1,1.31-1.07,1.69,1.69,0,0,1,1.63,1.45,1.57,1.57,0,0,0,1.1-1.5c0-.86-.64-1.42-1.65-1.42a4.56,4.56,0,0,0-2.9,1c-.24.22-.55.56-.77.81l-.41-.41c.72-.75,3-2.93,4.09-3.95-.46.06-2.06.13-3,.16a.26.26,0,0,1-.17.12l-.06-.68c1.08,0,3.14-.09,3.73-.18l.12-.06.42.52a.39.39,0,0,1-.19.07c-.57.46-2.09,1.89-2.71,2.49Zm1.1,3.2a3.47,3.47,0,0,0,.73-.08,1.23,1.23,0,0,0-1.14-1.14c-.42,0-.78.22-.78.59S258.78,124.45,259.31,124.45Z"/><path class="cls-5" d="M269.91,121.11h-2.64l.14,0s-.07.09-.16.1a4.61,4.61,0,0,1-2.47,3.69,3.52,3.52,0,0,0-.43-.39,4,4,0,0,0,2.31-3.44H263.6v-.54h6.31Zm-1.18-2.18h-4.44v-.54h4.44Zm.1-1.18a5.81,5.81,0,0,1,.88,1.26l-.32.22a5.34,5.34,0,0,0-.87-1.26Zm.94-.27a6.46,6.46,0,0,1,.9,1.26l-.33.2a5.92,5.92,0,0,0-.88-1.25Z"/><path class="cls-5" d="M271.25,121h6.68v.57h-6.37a.37.37,0,0,1-.26.15Z"/><path class="cls-5" d="M284.8,119.32a.14.14,0,0,1-.1.09,10.45,10.45,0,0,1-1.18,2.65c.34.2.74.45,1,.66l-.34.53c-.29-.22-.7-.49-1-.7a7.53,7.53,0,0,1-2.89,2.43,1.68,1.68,0,0,0-.44-.42,7.58,7.58,0,0,0,2.83-2.3,13.59,13.59,0,0,0-1.77-.83l.3-.45a13.49,13.49,0,0,1,1.8.81,8.22,8.22,0,0,0,1-2.12h-2.71a8.66,8.66,0,0,1-1.85,2.2,4.24,4.24,0,0,0-.46-.36,8.3,8.3,0,0,0,2.52-3.61l.76.18c0,.09-.11.11-.22.1-.11.26-.3.66-.45,1h2.65l.11,0Z"/><polyline class="cls-6" points="410.01 22.07 410.01 32.92 387.77 32.92 387.77 59.94"/><polyline class="cls-6" points="268.83 22.07 268.83 32.92 246.6 32.92 246.6 59.94"/></g></g></svg>