<svg xmlns="http://www.w3.org/2000/svg" xmlns:xlink="http://www.w3.org/1999/xlink" viewBox="0 0 451.56 255.05"><defs><style>.cls-1,.cls-2,.cls-5,.cls-7,.cls-8{fill:none;}.cls-2,.cls-4,.cls-5,.cls-8{stroke:#231815;}.cls-2{stroke-width:2.16px;}.cls-3,.cls-7{stroke:#040000;}.cls-3,.cls-4,.cls-5,.cls-7,.cls-8{stroke-miterlimit:10;}.cls-3,.cls-4,.cls-5,.cls-7{stroke-width:0.5px;}.cls-3{fill:url(#_10_lpi_30_);}.cls-4{fill:#fff;}.cls-6{fill:#231815;}</style><pattern id="_10_lpi_30_" data-name="10 lpi 30%" width="72" height="72" patternTransform="translate(431.57 -568.47) rotate(-45) scale(1.41)" patternUnits="userSpaceOnUse" viewBox="0 0 72 72"><rect class="cls-1" width="72" height="72"/><line class="cls-2" x1="71.75" y1="68.4" x2="144.25" y2="68.4"/><line class="cls-2" x1="71.75" y1="54" x2="144.25" y2="54"/><line class="cls-2" x1="71.75" y1="39.6" x2="144.25" y2="39.6"/><line class="cls-2" x1="71.75" y1="25.2" x2="144.25" y2="25.2"/><line class="cls-2" x1="71.75" y1="10.8" x2="144.25" y2="10.8"/><line class="cls-2" x1="71.75" y1="61.2" x2="144.25" y2="61.2"/><line class="cls-2" x1="71.75" y1="46.8" x2="144.25" y2="46.8"/><line class="cls-2" x1="71.75" y1="32.4" x2="144.25" y2="32.4"/><line class="cls-2" x1="71.75" y1="18" x2="144.25" y2="18"/><line class="cls-2" x1="71.75" y1="3.6" x2="144.25" y2="3.6"/><line class="cls-2" x1="-0.25" y1="68.4" x2="72.25" y2="68.4"/><line class="cls-2" x1="-0.25" y1="54" x2="72.25" y2="54"/><line class="cls-2" x1="-0.25" y1="39.6" x2="72.25" y2="39.6"/><line class="cls-2" x1="-0.25" y1="25.2" x2="72.25" y2="25.2"/><line class="cls-2" x1="-0.25" y1="10.8" x2="72.25" y2="10.8"/><line class="cls-2" x1="-0.25" y1="61.2" x2="72.25" y2="61.2"/><line class="cls-2" x1="-0.25" y1="46.8" x2="72.25" y2="46.8"/><line class="cls-2" x1="-0.25" y1="32.4" x2="72.25" y2="32.4"/><line class="cls-2" x1="-0.25" y1="18" x2="72.25" y2="18"/><line class="cls-2" x1="-0.25" y1="3.6" x2="72.25" y2="3.6"/><line class="cls-2" x1="-72.25" y1="68.4" x2="0.25" y2="68.4"/><line class="cls-2" x1="-72.25" y1="54" x2="0.25" y2="54"/><line class="cls-2" x1="-72.25" y1="39.6" x2="0.25" y2="39.6"/><line class="cls-2" x1="-72.25" y1="25.2" x2="0.25" y2="25.2"/><line class="cls-2" x1="-72.25" y1="10.8" x2="0.25" y2="10.8"/><line class="cls-2" x1="-72.25" y1="61.2" x2="0.25" y2="61.2"/><line class="cls-2" x1="-72.25" y1="46.8" x2="0.25" y2="46.8"/><line class="cls-2" x1="-72.25" y1="32.4" x2="0.25" y2="32.4"/><line class="cls-2" x1="-72.25" y1="18" x2="0.25" y2="18"/><line class="cls-2" x1="-72.25" y1="3.6" x2="0.25" y2="3.6"/></pattern></defs><title>Asset 9</title><g id="Layer_2" data-name="Layer 2"><g id="Layer_1-2" data-name="Layer 1"><rect class="cls-3" x="258.99" y="29.38" width="128.76" height="199.28"/><rect class="cls-4" x="227.84" y="54.29" width="130.07" height="149.46"/><rect class="cls-5" x="61.89" y="29.38" width="325.86" height="199.28"/><rect class="cls-5" x="122.79" y="70.86" width="20.44" height="20.45"/><path class="cls-6" d="M132.38,76.54h-2.21l1.06-1.8h3.07V87.49h-1.92Z"/><rect class="cls-5" x="122.79" y="168.49" width="20.44" height="20.45"/><path class="cls-6" d="M132,182.68h4.75v1.81h-8.57l4.43-5.36q.65-.8,1.09-1.39a10.66,10.66,0,0,0,.67-1,2.76,2.76,0,0,0,.47-1.4,2,2,0,0,0-.63-1.5,2.16,2.16,0,0,0-1.55-.6q-1.93,0-2.21,2.29h-1.92q.46-4,4.07-4a4.11,4.11,0,0,1,2.92,1.11,3.6,3.6,0,0,1,1.19,2.74,4.17,4.17,0,0,1-.55,2,10,10,0,0,1-.82,1.23q-.54.71-1.37,1.69Z"/><rect class="cls-4" x="217.61" y="118.8" width="20.44" height="20.45"/><path class="cls-6" d="M227,128.87v-1.64a3.36,3.36,0,0,0,1.64-.27,1.69,1.69,0,0,0,.75-1.54,1.74,1.74,0,0,0-.54-1.33,1.92,1.92,0,0,0-1.4-.52,1.81,1.81,0,0,0-1.24.39,2.57,2.57,0,0,0-.63,1.34h-1.92a4.42,4.42,0,0,1,1.22-2.64,3.71,3.71,0,0,1,2.59-.84,3.84,3.84,0,0,1,2.73,1,3.31,3.31,0,0,1,1.06,2.54,3.14,3.14,0,0,1-1.39,2.73,3.25,3.25,0,0,1,1.59,3,3.69,3.69,0,0,1-1.16,2.81,4.15,4.15,0,0,1-3,1.09,3.81,3.81,0,0,1-3.42-1.69,4.41,4.41,0,0,1-.59-2h1.86a2.26,2.26,0,0,0,.72,1.42,2.23,2.23,0,0,0,1.5.49,2.08,2.08,0,0,0,1.54-.62,2.23,2.23,0,0,0,.61-1.61,2,2,0,0,0-.92-1.83A3.4,3.4,0,0,0,227,128.87Z"/><rect class="cls-5" x="276.13" y="102.51" width="20.44" height="20.45"/><path class="cls-6" d="M289.47,114.95h1.36v1.75h-1.36v1.81h-1.92V116.7h-6.26l8.19-11.9Zm-1.92,0v-4.27l-2.94,4.27Z"/><rect class="cls-5" x="276.13" y="135.28" width="20.44" height="20.45"/><path class="cls-6" d="M290,140.32H286.1l-.63,2.12.27,0H286a4,4,0,0,1,3,1.26,4.8,4.8,0,0,1-.16,6.52,4.72,4.72,0,0,1-3.41,1.31,4.49,4.49,0,0,1-4-2.38l1.45-1.23a4.5,4.5,0,0,0,1.21,1.45,2.81,2.81,0,0,0,3.44-.4,2.85,2.85,0,0,0,.79-2,2.71,2.71,0,0,0-.78-2,2.59,2.59,0,0,0-1.94-.8,2.83,2.83,0,0,0-2.24,1.13h-.64l2-6.71H290Z"/><path class="cls-7" d="M230.48,228.66a12.87,12.87,0,0,0-12.87-12.87v12.87Z"/><path class="cls-5" d="M230.48,228.66a12.87,12.87,0,0,1,12.87-12.87v12.87Z"/><path class="cls-6" d="M224.72,234.57h.75a9.66,9.66,0,0,0,4.7,8.88,4,4,0,0,0-.59.63,9.76,9.76,0,0,1-4.53-6.4c-.79,2.94-2.22,5.14-4.53,6.41a5.13,5.13,0,0,0-.62-.56c2.43-1.27,3.85-3.61,4.54-6.81l.45.11a11.32,11.32,0,0,1-.14-1.5h-2.81v-.75h2.78Z"/><path class="cls-6" d="M231.74,234.86h8.67V244h-.79V243H232.5v1h-.76Zm.76,7.42h7.12V235.6H232.5Z"/><path class="cls-6" d="M283.38,57.56l.55.33a.24.24,0,0,1-.14.09,8,8,0,0,1-2.2,2.08A14.63,14.63,0,0,0,286,61.31a3.33,3.33,0,0,0-.47.69c-.54-.09-1.06-.2-1.57-.33V65h-.76v-.37h-4.68V65h-.71v-3.2c-.58.18-1.18.34-1.75.46a2.53,2.53,0,0,0-.36-.65,16.77,16.77,0,0,0,4.52-1.54,7.69,7.69,0,0,1-1.62-1.4,9.71,9.71,0,0,1-1.81,1.16,2,2,0,0,0-.51-.52,7.72,7.72,0,0,0,3.21-2.57l.92.15c0,.09-.09.13-.22.14-.13.18-.28.36-.44.55h3.49ZM277,56.62v1.29h-.71v-2h4.19V54.8l1,.07c0,.08-.08.13-.22.14v.92h4.26v2h-.75V56.62Zm6.68,5a13.37,13.37,0,0,1-2.76-1.1,16.35,16.35,0,0,1-2.44,1.1ZM278.52,64h4.68V62.23h-4.68Zm.64-5.79,0,0a6.7,6.7,0,0,0,1.77,1.45,7.65,7.65,0,0,0,1.8-1.48Z"/><path class="cls-6" d="M292.55,55.94h4.33v.68h-8.53v2.55c0,1.72-.13,4.21-1.1,5.9a2.39,2.39,0,0,0-.61-.42,11.61,11.61,0,0,0,1-5.48V55.94h4.15V54.81l1,.07c0,.08-.07.13-.22.15Zm2.6,1.07c0,.08-.07.13-.21.14V58h1.84v.63h-1.84v1.85H293.1v.94h3.07v2.4c0,.78-.35.8-2,.8a2.54,2.54,0,0,0-.22-.65l.95,0c.52,0,.56,0,.56-.19V62H293.1v3h-.74V62h-2.24v2.62h-.71V61.38h3v-.94h-1.87V58.59h-1.75V58h1.75v-1l.91.07c0,.08-.07.13-.22.14V58h3v-1Zm-.93,2.81V58.59h-3v1.22Z"/><line class="cls-5" x1="249.35" y1="54.29" x2="249.35" y2="203.75"/><line class="cls-5" x1="271.35" y1="54.29" x2="271.35" y2="203.75"/><line class="cls-5" x1="299.35" y1="54.29" x2="299.35" y2="203.75"/><line class="cls-5" x1="326.35" y1="54.29" x2="326.35" y2="203.75"/><rect class="cls-8" x="0.5" y="0.5" width="450.56" height="254.05"/></g></g></svg>