<svg xmlns="http://www.w3.org/2000/svg" viewBox="0 0 474.99 236.33"><defs><style>.cls-1,.cls-2{fill:none;stroke-miterlimit:10;}.cls-1{stroke:#231815;}.cls-2{stroke:#4c4c4c;stroke-width:0.5px;}.cls-3{fill:#231815;}</style></defs><title>Asset 5</title><g id="Layer_2" data-name="Layer 2"><g id="Layer_1-2" data-name="Layer 1"><line class="cls-1" x1="96.16" y1="45.54" x2="96.16" y2="18.52"/><line class="cls-1" x1="96.16" y1="18.52" x2="97.06" y2="19.37"/><line class="cls-1" x1="97.06" y1="19.37" x2="97.95" y2="21.86"/><line class="cls-1" x1="97.95" y1="21.86" x2="98.85" y2="25.84"/><line class="cls-1" x1="98.85" y1="25.84" x2="99.74" y2="31.06"/><line class="cls-1" x1="99.74" y1="31.06" x2="100.63" y2="37.19"/><line class="cls-1" x1="100.63" y1="37.19" x2="101.53" y2="43.84"/><line class="cls-1" x1="101.53" y1="43.84" x2="102.42" y2="50.6"/><line class="cls-1" x1="102.42" y1="50.6" x2="103.32" y2="57.04"/><line class="cls-1" x1="103.32" y1="57.04" x2="104.21" y2="62.75"/><line class="cls-1" x1="104.21" y1="62.75" x2="105.11" y2="67.39"/><line class="cls-1" x1="105.11" y1="67.39" x2="106" y2="70.65"/><line class="cls-1" x1="106" y1="70.65" x2="106.89" y2="72.34"/><line class="cls-1" x1="106.89" y1="72.34" x2="107.79" y2="72.34"/><line class="cls-1" x1="107.79" y1="72.34" x2="108.68" y2="70.65"/><line class="cls-1" x1="108.68" y1="70.65" x2="109.58" y2="67.39"/><line class="cls-1" x1="109.58" y1="67.39" x2="110.47" y2="62.75"/><line class="cls-1" x1="110.47" y1="62.75" x2="111.37" y2="57.04"/><line class="cls-1" x1="111.37" y1="57.04" x2="112.26" y2="50.6"/><line class="cls-1" x1="112.26" y1="50.6" x2="113.16" y2="43.84"/><line class="cls-1" x1="113.16" y1="43.84" x2="114.05" y2="37.19"/><line class="cls-1" x1="114.05" y1="37.19" x2="114.94" y2="31.06"/><line class="cls-1" x1="114.94" y1="31.06" x2="115.84" y2="25.84"/><line class="cls-1" x1="115.84" y1="25.84" x2="116.73" y2="21.86"/><line class="cls-1" x1="116.73" y1="21.86" x2="117.63" y2="19.37"/><line class="cls-1" x1="117.63" y1="19.37" x2="118.52" y2="18.52"/><line class="cls-1" x1="118.52" y1="18.52" x2="119.42" y2="19.37"/><line class="cls-1" x1="119.42" y1="19.37" x2="120.31" y2="21.86"/><line class="cls-1" x1="120.31" y1="21.86" x2="121.2" y2="25.84"/><line class="cls-1" x1="121.2" y1="25.84" x2="122.1" y2="31.06"/><line class="cls-1" x1="122.1" y1="31.06" x2="122.99" y2="37.19"/><line class="cls-1" x1="122.99" y1="37.19" x2="123.89" y2="43.84"/><line class="cls-1" x1="123.89" y1="43.84" x2="124.78" y2="50.6"/><line class="cls-1" x1="124.78" y1="50.6" x2="125.68" y2="57.04"/><line class="cls-1" x1="125.68" y1="57.04" x2="126.57" y2="62.75"/><line class="cls-1" x1="126.57" y1="62.75" x2="127.47" y2="67.39"/><line class="cls-1" x1="127.47" y1="67.39" x2="128.36" y2="70.65"/><line class="cls-1" x1="128.36" y1="70.65" x2="129.25" y2="72.34"/><line class="cls-1" x1="129.25" y1="72.34" x2="130.15" y2="72.34"/><line class="cls-1" x1="130.15" y1="72.34" x2="131.04" y2="70.65"/><line class="cls-1" x1="131.04" y1="70.65" x2="131.94" y2="67.39"/><line class="cls-1" x1="131.94" y1="67.39" x2="132.83" y2="62.75"/><line class="cls-1" x1="132.83" y1="62.75" x2="133.73" y2="57.04"/><line class="cls-1" x1="133.73" y1="57.04" x2="134.62" y2="50.6"/><line class="cls-1" x1="134.62" y1="50.6" x2="135.52" y2="43.84"/><line class="cls-1" x1="135.52" y1="43.84" x2="136.41" y2="37.19"/><line class="cls-1" x1="136.41" y1="37.19" x2="137.3" y2="31.06"/><line class="cls-1" x1="137.3" y1="31.06" x2="138.2" y2="25.84"/><line class="cls-1" x1="138.2" y1="25.84" x2="139.09" y2="21.86"/><line class="cls-1" x1="139.09" y1="21.86" x2="139.99" y2="19.37"/><line class="cls-1" x1="139.99" y1="19.37" x2="140.88" y2="18.52"/><line class="cls-1" x1="140.88" y1="18.52" x2="141.78" y2="19.37"/><line class="cls-1" x1="141.78" y1="19.37" x2="142.67" y2="21.86"/><line class="cls-1" x1="142.67" y1="21.86" x2="143.56" y2="25.84"/><line class="cls-1" x1="143.56" y1="25.84" x2="144.46" y2="31.06"/><line class="cls-1" x1="144.46" y1="31.06" x2="145.35" y2="37.19"/><line class="cls-1" x1="145.35" y1="37.19" x2="146.25" y2="43.84"/><line class="cls-1" x1="146.25" y1="43.84" x2="147.14" y2="50.6"/><line class="cls-1" x1="147.14" y1="50.6" x2="148.04" y2="57.04"/><line class="cls-1" x1="148.04" y1="57.04" x2="148.93" y2="62.75"/><line class="cls-1" x1="148.93" y1="62.75" x2="149.83" y2="67.39"/><line class="cls-1" x1="149.83" y1="67.39" x2="150.72" y2="70.65"/><line class="cls-1" x1="150.72" y1="70.65" x2="151.61" y2="72.34"/><line class="cls-1" x1="151.61" y1="72.34" x2="152.51" y2="72.34"/><line class="cls-1" x1="152.51" y1="72.34" x2="153.4" y2="70.65"/><line class="cls-1" x1="153.4" y1="70.65" x2="154.3" y2="67.39"/><line class="cls-1" x1="154.3" y1="67.39" x2="155.19" y2="62.75"/><line class="cls-1" x1="155.19" y1="62.75" x2="156.09" y2="57.04"/><line class="cls-1" x1="156.09" y1="57.04" x2="156.98" y2="50.6"/><line class="cls-1" x1="156.98" y1="50.6" x2="157.87" y2="43.84"/><line class="cls-1" x1="157.87" y1="43.84" x2="158.77" y2="37.19"/><line class="cls-1" x1="158.77" y1="37.19" x2="159.66" y2="31.06"/><line class="cls-1" x1="159.66" y1="31.06" x2="160.56" y2="25.84"/><line class="cls-1" x1="160.56" y1="25.84" x2="161.45" y2="21.86"/><line class="cls-1" x1="161.45" y1="21.86" x2="162.35" y2="19.37"/><line class="cls-1" x1="162.35" y1="19.37" x2="163.24" y2="18.52"/><line class="cls-1" x1="163.24" y1="18.52" x2="164.14" y2="19.37"/><line class="cls-1" x1="164.14" y1="19.37" x2="165.03" y2="21.86"/><line class="cls-1" x1="165.03" y1="21.86" x2="165.92" y2="25.84"/><line class="cls-1" x1="165.92" y1="25.84" x2="166.82" y2="31.06"/><line class="cls-1" x1="166.82" y1="31.06" x2="167.71" y2="37.19"/><line class="cls-1" x1="167.71" y1="37.19" x2="168.61" y2="43.84"/><line class="cls-1" x1="168.61" y1="43.84" x2="169.5" y2="50.6"/><line class="cls-1" x1="169.5" y1="50.6" x2="170.4" y2="57.04"/><line class="cls-1" x1="170.4" y1="57.04" x2="171.29" y2="62.75"/><line class="cls-1" x1="171.29" y1="62.75" x2="172.19" y2="67.39"/><line class="cls-1" x1="172.19" y1="67.39" x2="173.08" y2="70.65"/><line class="cls-1" x1="173.08" y1="70.65" x2="173.97" y2="72.34"/><line class="cls-1" x1="173.97" y1="72.34" x2="174.87" y2="72.34"/><line class="cls-1" x1="174.87" y1="72.34" x2="175.76" y2="70.65"/><line class="cls-1" x1="175.76" y1="70.65" x2="176.66" y2="67.39"/><line class="cls-1" x1="176.66" y1="67.39" x2="177.55" y2="62.75"/><line class="cls-1" x1="177.55" y1="62.75" x2="178.45" y2="57.04"/><line class="cls-1" x1="178.45" y1="57.04" x2="179.34" y2="50.6"/><line class="cls-1" x1="179.34" y1="50.6" x2="180.23" y2="43.84"/><line class="cls-1" x1="180.23" y1="43.84" x2="181.13" y2="37.19"/><line class="cls-1" x1="181.13" y1="37.19" x2="182.02" y2="31.06"/><line class="cls-1" x1="182.02" y1="31.06" x2="182.92" y2="25.84"/><line class="cls-1" x1="182.92" y1="25.84" x2="183.81" y2="21.86"/><line class="cls-1" x1="183.81" y1="21.86" x2="184.71" y2="19.37"/><line class="cls-1" x1="185.6" y1="18.52" x2="186.5" y2="19.37"/><line class="cls-1" x1="186.5" y1="19.37" x2="187.39" y2="21.86"/><line class="cls-1" x1="187.39" y1="21.86" x2="188.28" y2="25.84"/><line class="cls-1" x1="188.28" y1="25.84" x2="189.18" y2="31.06"/><line class="cls-1" x1="189.18" y1="31.06" x2="190.07" y2="37.19"/><line class="cls-1" x1="190.07" y1="37.19" x2="190.97" y2="43.84"/><line class="cls-1" x1="190.97" y1="43.84" x2="191.86" y2="50.6"/><line class="cls-1" x1="191.86" y1="50.6" x2="192.76" y2="57.04"/><line class="cls-1" x1="192.76" y1="57.04" x2="193.65" y2="62.75"/><line class="cls-1" x1="193.65" y1="62.75" x2="194.54" y2="67.39"/><line class="cls-1" x1="194.54" y1="67.39" x2="195.44" y2="70.65"/><line class="cls-1" x1="195.44" y1="70.65" x2="196.33" y2="72.34"/><line class="cls-1" x1="196.33" y1="72.34" x2="197.23" y2="72.34"/><line class="cls-1" x1="197.23" y1="72.34" x2="198.12" y2="70.65"/><line class="cls-1" x1="198.12" y1="70.65" x2="199.02" y2="67.39"/><line class="cls-1" x1="199.02" y1="67.39" x2="199.91" y2="62.75"/><line class="cls-1" x1="199.91" y1="62.75" x2="200.81" y2="57.04"/><line class="cls-1" x1="200.81" y1="57.04" x2="201.7" y2="50.6"/><line class="cls-1" x1="201.7" y1="50.6" x2="202.59" y2="43.84"/><line class="cls-1" x1="202.59" y1="43.84" x2="203.49" y2="37.19"/><line class="cls-1" x1="203.49" y1="37.19" x2="204.38" y2="31.06"/><line class="cls-1" x1="204.38" y1="31.06" x2="205.28" y2="25.84"/><line class="cls-1" x1="205.28" y1="25.84" x2="206.17" y2="21.86"/><line class="cls-1" x1="206.17" y1="21.86" x2="207.07" y2="19.37"/><line class="cls-1" x1="207.07" y1="19.37" x2="207.96" y2="18.52"/><line class="cls-1" x1="207.96" y1="18.52" x2="208.86" y2="19.37"/><line class="cls-1" x1="208.86" y1="19.37" x2="209.75" y2="21.86"/><line class="cls-1" x1="209.75" y1="21.86" x2="210.64" y2="25.84"/><line class="cls-1" x1="210.64" y1="25.84" x2="211.54" y2="31.06"/><line class="cls-1" x1="211.54" y1="31.06" x2="212.43" y2="37.19"/><line class="cls-1" x1="212.43" y1="37.19" x2="213.33" y2="43.84"/><line class="cls-1" x1="213.33" y1="43.84" x2="214.22" y2="50.6"/><line class="cls-1" x1="214.22" y1="50.6" x2="215.12" y2="57.04"/><line class="cls-1" x1="215.12" y1="57.04" x2="216.01" y2="62.75"/><line class="cls-1" x1="216.01" y1="62.75" x2="216.9" y2="67.39"/><line class="cls-1" x1="216.9" y1="67.39" x2="217.8" y2="70.65"/><line class="cls-1" x1="217.8" y1="70.65" x2="218.69" y2="72.34"/><line class="cls-1" x1="218.69" y1="72.34" x2="219.59" y2="72.34"/><line class="cls-1" x1="219.59" y1="72.34" x2="220.48" y2="70.65"/><line class="cls-1" x1="220.48" y1="70.65" x2="221.38" y2="67.39"/><line class="cls-1" x1="221.38" y1="67.39" x2="222.27" y2="62.75"/><line class="cls-1" x1="222.27" y1="62.75" x2="223.17" y2="57.04"/><line class="cls-1" x1="223.17" y1="57.04" x2="224.06" y2="50.6"/><line class="cls-1" x1="224.06" y1="50.6" x2="224.95" y2="43.84"/><line class="cls-1" x1="224.95" y1="43.84" x2="225.85" y2="37.19"/><line class="cls-1" x1="225.85" y1="37.19" x2="226.74" y2="31.06"/><line class="cls-1" x1="226.74" y1="31.06" x2="227.64" y2="25.84"/><line class="cls-1" x1="227.64" y1="25.84" x2="228.53" y2="21.86"/><line class="cls-1" x1="228.53" y1="21.86" x2="229.43" y2="19.37"/><line class="cls-1" x1="229.43" y1="19.37" x2="230.32" y2="18.52"/><line class="cls-1" x1="230.32" y1="18.52" x2="231.21" y2="19.37"/><line class="cls-1" x1="231.21" y1="19.37" x2="232.11" y2="21.86"/><line class="cls-1" x1="232.11" y1="21.86" x2="233" y2="25.84"/><line class="cls-1" x1="233" y1="25.84" x2="233.9" y2="31.06"/><line class="cls-1" x1="233.9" y1="31.06" x2="234.79" y2="37.19"/><line class="cls-1" x1="234.79" y1="37.19" x2="235.69" y2="43.84"/><line class="cls-1" x1="235.69" y1="43.84" x2="236.58" y2="50.6"/><line class="cls-1" x1="236.58" y1="50.6" x2="237.48" y2="57.04"/><line class="cls-1" x1="237.48" y1="57.04" x2="238.37" y2="62.75"/><line class="cls-1" x1="238.37" y1="62.75" x2="239.26" y2="67.39"/><line class="cls-1" x1="239.26" y1="67.39" x2="240.16" y2="70.65"/><line class="cls-1" x1="240.16" y1="70.65" x2="241.05" y2="72.34"/><line class="cls-1" x1="241.05" y1="72.34" x2="241.95" y2="72.34"/><line class="cls-1" x1="241.95" y1="72.34" x2="242.84" y2="70.65"/><line class="cls-1" x1="242.84" y1="70.65" x2="243.74" y2="67.39"/><line class="cls-1" x1="243.74" y1="67.39" x2="244.63" y2="62.75"/><line class="cls-1" x1="244.63" y1="62.75" x2="245.53" y2="57.04"/><line class="cls-1" x1="245.53" y1="57.04" x2="246.42" y2="50.6"/><line class="cls-1" x1="246.42" y1="50.6" x2="247.31" y2="43.84"/><line class="cls-1" x1="247.31" y1="43.84" x2="248.21" y2="37.19"/><line class="cls-1" x1="248.21" y1="37.19" x2="249.1" y2="31.06"/><line class="cls-1" x1="249.1" y1="31.06" x2="250" y2="25.84"/><line class="cls-1" x1="250" y1="25.84" x2="250.89" y2="21.86"/><line class="cls-1" x1="250.89" y1="21.86" x2="251.79" y2="19.37"/><line class="cls-1" x1="251.79" y1="19.37" x2="252.68" y2="18.52"/><line class="cls-1" x1="252.68" y1="18.52" x2="253.57" y2="19.37"/><line class="cls-1" x1="253.57" y1="19.37" x2="254.47" y2="21.86"/><line class="cls-1" x1="254.47" y1="21.86" x2="255.36" y2="25.84"/><line class="cls-1" x1="255.36" y1="25.84" x2="256.26" y2="31.06"/><line class="cls-1" x1="256.26" y1="31.06" x2="257.15" y2="37.19"/><line class="cls-1" x1="257.15" y1="37.19" x2="258.05" y2="43.84"/><line class="cls-1" x1="258.05" y1="43.84" x2="258.94" y2="50.6"/><line class="cls-1" x1="258.94" y1="50.6" x2="259.84" y2="57.04"/><line class="cls-1" x1="259.84" y1="57.04" x2="260.73" y2="62.75"/><line class="cls-1" x1="260.73" y1="62.75" x2="261.62" y2="67.39"/><line class="cls-1" x1="261.62" y1="67.39" x2="262.52" y2="70.65"/><line class="cls-1" x1="262.52" y1="70.65" x2="263.41" y2="72.34"/><line class="cls-1" x1="263.41" y1="72.34" x2="264.31" y2="72.34"/><line class="cls-1" x1="264.31" y1="72.34" x2="265.2" y2="70.65"/><line class="cls-1" x1="265.2" y1="70.65" x2="266.1" y2="67.39"/><line class="cls-1" x1="266.1" y1="67.39" x2="266.99" y2="62.75"/><line class="cls-1" x1="266.99" y1="62.75" x2="267.88" y2="57.04"/><line class="cls-1" x1="267.88" y1="57.04" x2="268.78" y2="50.6"/><line class="cls-1" x1="268.78" y1="50.6" x2="269.67" y2="43.84"/><line class="cls-1" x1="269.67" y1="43.84" x2="270.57" y2="37.19"/><line class="cls-1" x1="270.57" y1="37.19" x2="271.46" y2="31.06"/><line class="cls-1" x1="271.46" y1="31.06" x2="272.36" y2="25.84"/><line class="cls-1" x1="272.36" y1="25.84" x2="273.25" y2="21.86"/><line class="cls-1" x1="273.25" y1="21.86" x2="274.15" y2="19.37"/><line class="cls-1" x1="275.04" y1="18.52" x2="275.93" y2="19.37"/><line class="cls-1" x1="275.93" y1="19.37" x2="276.83" y2="21.86"/><line class="cls-1" x1="276.83" y1="21.86" x2="277.72" y2="25.84"/><line class="cls-1" x1="277.72" y1="25.84" x2="278.62" y2="31.06"/><line class="cls-1" x1="278.62" y1="31.06" x2="279.51" y2="37.19"/><line class="cls-1" x1="279.51" y1="37.19" x2="280.41" y2="43.84"/><line class="cls-1" x1="280.41" y1="43.84" x2="281.3" y2="50.6"/><line class="cls-1" x1="281.3" y1="50.6" x2="282.2" y2="57.04"/><line class="cls-1" x1="282.2" y1="57.04" x2="283.09" y2="62.75"/><line class="cls-1" x1="283.09" y1="62.75" x2="283.98" y2="67.39"/><line class="cls-1" x1="283.98" y1="67.39" x2="284.88" y2="70.65"/><line class="cls-1" x1="284.88" y1="70.65" x2="285.77" y2="72.34"/><line class="cls-1" x1="285.77" y1="72.34" x2="286.67" y2="72.34"/><line class="cls-1" x1="286.67" y1="72.34" x2="287.56" y2="70.65"/><line class="cls-1" x1="287.56" y1="70.65" x2="288.46" y2="67.39"/><line class="cls-1" x1="288.46" y1="67.39" x2="289.35" y2="62.75"/><line class="cls-1" x1="289.35" y1="62.75" x2="290.24" y2="57.04"/><line class="cls-1" x1="290.24" y1="57.04" x2="291.14" y2="50.6"/><line class="cls-1" x1="291.14" y1="50.6" x2="292.03" y2="43.84"/><line class="cls-1" x1="292.03" y1="43.84" x2="292.93" y2="37.19"/><line class="cls-1" x1="292.93" y1="37.19" x2="293.82" y2="31.06"/><line class="cls-1" x1="293.82" y1="31.06" x2="294.72" y2="25.84"/><line class="cls-1" x1="294.72" y1="25.84" x2="295.61" y2="21.86"/><line class="cls-1" x1="295.61" y1="21.86" x2="296.51" y2="19.37"/><line class="cls-1" x1="296.51" y1="19.37" x2="297.4" y2="18.52"/><line class="cls-1" x1="297.4" y1="18.52" x2="298.29" y2="19.37"/><line class="cls-1" x1="298.29" y1="19.37" x2="299.19" y2="21.86"/><line class="cls-1" x1="299.19" y1="21.86" x2="300.08" y2="25.84"/><line class="cls-1" x1="300.08" y1="25.84" x2="300.98" y2="31.06"/><line class="cls-1" x1="300.98" y1="31.06" x2="301.87" y2="37.19"/><line class="cls-1" x1="301.87" y1="37.19" x2="302.77" y2="43.84"/><line class="cls-1" x1="302.77" y1="43.84" x2="303.66" y2="50.6"/><line class="cls-1" x1="303.66" y1="50.6" x2="304.55" y2="57.04"/><line class="cls-1" x1="304.55" y1="57.04" x2="305.45" y2="62.75"/><line class="cls-1" x1="305.45" y1="62.75" x2="306.34" y2="67.39"/><line class="cls-1" x1="306.34" y1="67.39" x2="307.24" y2="70.65"/><line class="cls-1" x1="307.24" y1="70.65" x2="308.13" y2="72.34"/><line class="cls-1" x1="308.13" y1="72.34" x2="309.03" y2="72.34"/><line class="cls-1" x1="309.03" y1="72.34" x2="309.92" y2="70.65"/><line class="cls-1" x1="309.92" y1="70.65" x2="310.82" y2="67.39"/><line class="cls-1" x1="310.82" y1="67.39" x2="311.71" y2="62.75"/><line class="cls-1" x1="311.71" y1="62.75" x2="312.6" y2="57.04"/><line class="cls-1" x1="312.6" y1="57.04" x2="313.5" y2="50.6"/><line class="cls-1" x1="313.5" y1="50.6" x2="314.39" y2="43.84"/><line class="cls-1" x1="314.39" y1="43.84" x2="315.29" y2="37.19"/><line class="cls-1" x1="315.29" y1="37.19" x2="316.18" y2="31.06"/><line class="cls-1" x1="316.18" y1="31.06" x2="317.08" y2="25.84"/><line class="cls-1" x1="317.08" y1="25.84" x2="317.97" y2="21.86"/><line class="cls-1" x1="317.97" y1="21.86" x2="318.87" y2="19.37"/><line class="cls-1" x1="318.87" y1="19.37" x2="319.76" y2="18.52"/><line class="cls-1" x1="319.76" y1="18.52" x2="320.65" y2="19.37"/><line class="cls-1" x1="320.65" y1="19.37" x2="321.55" y2="21.86"/><line class="cls-1" x1="321.55" y1="21.86" x2="322.44" y2="25.84"/><line class="cls-1" x1="322.44" y1="25.84" x2="323.34" y2="31.06"/><line class="cls-1" x1="323.34" y1="31.06" x2="324.23" y2="37.19"/><line class="cls-1" x1="324.23" y1="37.19" x2="325.13" y2="43.84"/><line class="cls-1" x1="325.13" y1="43.84" x2="326.02" y2="50.6"/><line class="cls-1" x1="326.02" y1="50.6" x2="326.91" y2="57.04"/><line class="cls-1" x1="326.91" y1="57.04" x2="327.81" y2="62.75"/><line class="cls-1" x1="327.81" y1="62.75" x2="328.7" y2="67.39"/><line class="cls-1" x1="328.7" y1="67.39" x2="329.6" y2="70.65"/><line class="cls-1" x1="329.6" y1="70.65" x2="330.49" y2="72.34"/><line class="cls-1" x1="330.49" y1="72.34" x2="331.39" y2="72.34"/><line class="cls-1" x1="331.39" y1="72.34" x2="332.28" y2="70.65"/><line class="cls-1" x1="332.28" y1="70.65" x2="333.18" y2="67.39"/><line class="cls-1" x1="333.18" y1="67.39" x2="334.07" y2="62.75"/><line class="cls-1" x1="334.07" y1="62.75" x2="334.96" y2="57.04"/><line class="cls-1" x1="334.96" y1="57.04" x2="335.86" y2="50.6"/><line class="cls-1" x1="335.86" y1="50.6" x2="336.75" y2="43.84"/><line class="cls-1" x1="336.75" y1="43.84" x2="337.65" y2="37.19"/><line class="cls-1" x1="337.65" y1="37.19" x2="338.54" y2="31.06"/><line class="cls-1" x1="338.54" y1="31.06" x2="339.44" y2="25.84"/><line class="cls-1" x1="339.44" y1="25.84" x2="340.33" y2="21.86"/><line class="cls-1" x1="340.33" y1="21.86" x2="341.22" y2="19.37"/><line class="cls-1" x1="341.22" y1="19.37" x2="342.12" y2="18.52"/><line class="cls-1" x1="342.12" y1="18.52" x2="343.01" y2="19.37"/><line class="cls-1" x1="343.01" y1="19.37" x2="343.91" y2="21.86"/><line class="cls-1" x1="343.91" y1="21.86" x2="344.8" y2="25.84"/><line class="cls-1" x1="344.8" y1="25.84" x2="345.7" y2="31.06"/><line class="cls-1" x1="345.7" y1="31.06" x2="346.59" y2="37.19"/><line class="cls-1" x1="346.59" y1="37.19" x2="347.49" y2="43.84"/><line class="cls-1" x1="347.49" y1="43.84" x2="348.38" y2="50.6"/><line class="cls-1" x1="348.38" y1="50.6" x2="349.27" y2="57.04"/><line class="cls-1" x1="349.27" y1="57.04" x2="350.17" y2="62.75"/><line class="cls-1" x1="350.17" y1="62.75" x2="351.06" y2="67.39"/><line class="cls-1" x1="351.06" y1="67.39" x2="351.96" y2="70.65"/><line class="cls-1" x1="351.96" y1="70.65" x2="352.85" y2="72.34"/><line class="cls-1" x1="352.85" y1="72.34" x2="353.75" y2="72.34"/><line class="cls-1" x1="353.75" y1="72.34" x2="354.64" y2="70.65"/><line class="cls-1" x1="354.64" y1="70.65" x2="355.54" y2="67.39"/><line class="cls-1" x1="355.54" y1="67.39" x2="356.43" y2="62.75"/><line class="cls-1" x1="356.43" y1="62.75" x2="357.32" y2="57.04"/><line class="cls-1" x1="357.32" y1="57.04" x2="358.22" y2="50.6"/><line class="cls-1" x1="358.22" y1="50.6" x2="359.11" y2="43.84"/><line class="cls-1" x1="359.11" y1="43.84" x2="360.01" y2="37.19"/><line class="cls-1" x1="360.01" y1="37.19" x2="360.9" y2="31.06"/><line class="cls-1" x1="360.9" y1="31.06" x2="361.8" y2="25.84"/><line class="cls-1" x1="361.8" y1="25.84" x2="362.69" y2="21.86"/><line class="cls-1" x1="362.69" y1="21.86" x2="363.58" y2="19.37"/><line class="cls-1" x1="364.48" y1="18.52" x2="365.37" y2="19.37"/><line class="cls-1" x1="365.37" y1="19.37" x2="366.27" y2="21.86"/><line class="cls-1" x1="366.27" y1="21.86" x2="367.16" y2="25.84"/><line class="cls-1" x1="367.16" y1="25.84" x2="368.06" y2="31.06"/><line class="cls-1" x1="368.06" y1="31.06" x2="368.95" y2="37.19"/><line class="cls-1" x1="368.95" y1="37.19" x2="369.85" y2="43.84"/><line class="cls-1" x1="369.85" y1="43.84" x2="370.74" y2="50.6"/><line class="cls-1" x1="370.74" y1="50.6" x2="371.63" y2="57.04"/><line class="cls-1" x1="371.63" y1="57.04" x2="372.53" y2="62.75"/><line class="cls-1" x1="372.53" y1="62.75" x2="373.42" y2="67.39"/><line class="cls-1" x1="373.42" y1="67.39" x2="374.32" y2="70.65"/><line class="cls-1" x1="374.32" y1="70.65" x2="375.21" y2="72.34"/><line class="cls-1" x1="375.21" y1="72.34" x2="376.11" y2="72.34"/><line class="cls-1" x1="376.11" y1="72.34" x2="377" y2="70.65"/><line class="cls-1" x1="377" y1="70.65" x2="377.89" y2="67.39"/><line class="cls-1" x1="377.89" y1="67.39" x2="378.79" y2="62.75"/><line class="cls-1" x1="378.79" y1="62.75" x2="379.68" y2="57.04"/><line class="cls-1" x1="379.68" y1="57.04" x2="380.58" y2="50.6"/><line class="cls-1" x1="380.58" y1="50.6" x2="381.47" y2="43.84"/><line class="cls-1" x1="381.47" y1="43.84" x2="382.37" y2="37.19"/><line class="cls-1" x1="382.37" y1="37.19" x2="383.26" y2="31.06"/><line class="cls-1" x1="383.26" y1="31.06" x2="384.16" y2="25.84"/><line class="cls-1" x1="384.16" y1="25.84" x2="385.05" y2="21.86"/><line class="cls-1" x1="385.05" y1="21.86" x2="385.94" y2="19.37"/><line class="cls-1" x1="385.94" y1="19.37" x2="386.84" y2="18.52"/><line class="cls-1" x1="386.84" y1="18.52" x2="387.73" y2="19.37"/><line class="cls-1" x1="387.73" y1="19.37" x2="388.63" y2="21.86"/><line class="cls-1" x1="388.63" y1="21.86" x2="389.52" y2="25.84"/><line class="cls-1" x1="389.52" y1="25.84" x2="390.42" y2="31.06"/><line class="cls-1" x1="390.42" y1="31.06" x2="391.31" y2="37.19"/><line class="cls-1" x1="391.31" y1="37.19" x2="392.21" y2="43.84"/><line class="cls-1" x1="392.21" y1="43.84" x2="393.1" y2="50.6"/><line class="cls-1" x1="393.1" y1="50.6" x2="393.99" y2="57.04"/><line class="cls-1" x1="393.99" y1="57.04" x2="394.89" y2="62.75"/><line class="cls-1" x1="394.89" y1="62.75" x2="395.78" y2="67.39"/><line class="cls-1" x1="395.78" y1="67.39" x2="396.68" y2="70.65"/><line class="cls-1" x1="396.68" y1="70.65" x2="397.57" y2="72.34"/><line class="cls-1" x1="397.57" y1="72.34" x2="398.47" y2="72.34"/><line class="cls-1" x1="398.47" y1="72.34" x2="399.36" y2="70.65"/><line class="cls-1" x1="399.36" y1="70.65" x2="400.25" y2="67.39"/><line class="cls-1" x1="400.25" y1="67.39" x2="401.15" y2="62.75"/><line class="cls-1" x1="401.15" y1="62.75" x2="402.04" y2="57.04"/><line class="cls-1" x1="402.04" y1="57.04" x2="402.94" y2="50.6"/><line class="cls-1" x1="402.94" y1="50.6" x2="403.83" y2="43.84"/><line class="cls-1" x1="403.83" y1="43.84" x2="404.73" y2="37.19"/><line class="cls-1" x1="404.73" y1="37.19" x2="405.62" y2="31.06"/><line class="cls-1" x1="405.62" y1="31.06" x2="406.52" y2="25.84"/><line class="cls-1" x1="406.52" y1="25.84" x2="407.41" y2="21.86"/><line class="cls-1" x1="407.41" y1="21.86" x2="408.3" y2="19.37"/><line class="cls-1" x1="408.3" y1="19.37" x2="409.2" y2="18.52"/><line class="cls-1" x1="409.2" y1="18.52" x2="410.09" y2="19.37"/><line class="cls-1" x1="410.09" y1="19.37" x2="410.99" y2="21.86"/><line class="cls-1" x1="410.99" y1="21.86" x2="411.88" y2="25.84"/><line class="cls-1" x1="411.88" y1="25.84" x2="412.78" y2="31.06"/><line class="cls-1" x1="412.78" y1="31.06" x2="413.67" y2="37.19"/><line class="cls-1" x1="413.67" y1="37.19" x2="414.56" y2="43.84"/><line class="cls-1" x1="414.56" y1="43.84" x2="415.46" y2="50.6"/><line class="cls-1" x1="415.46" y1="50.6" x2="416.35" y2="57.04"/><line class="cls-1" x1="416.35" y1="57.04" x2="417.25" y2="62.75"/><line class="cls-1" x1="417.25" y1="62.75" x2="418.14" y2="67.39"/><line class="cls-1" x1="418.14" y1="67.39" x2="419.04" y2="70.65"/><line class="cls-1" x1="419.04" y1="70.65" x2="419.93" y2="72.34"/><line class="cls-1" x1="419.93" y1="72.34" x2="420.83" y2="72.34"/><line class="cls-1" x1="420.83" y1="72.34" x2="421.72" y2="70.65"/><line class="cls-1" x1="421.72" y1="70.65" x2="422.61" y2="67.39"/><line class="cls-1" x1="422.61" y1="67.39" x2="423.51" y2="62.75"/><line class="cls-1" x1="423.51" y1="62.75" x2="424.4" y2="57.04"/><line class="cls-1" x1="424.4" y1="57.04" x2="425.3" y2="50.6"/><line class="cls-1" x1="425.3" y1="50.6" x2="426.19" y2="43.84"/><line class="cls-1" x1="426.19" y1="43.84" x2="427.09" y2="37.19"/><line class="cls-1" x1="427.09" y1="37.19" x2="427.98" y2="31.06"/><line class="cls-1" x1="427.98" y1="31.06" x2="428.87" y2="25.84"/><line class="cls-1" x1="428.87" y1="25.84" x2="429.77" y2="21.86"/><line class="cls-1" x1="429.77" y1="21.86" x2="430.66" y2="19.37"/><line class="cls-1" x1="430.66" y1="19.37" x2="431.56" y2="18.52"/><line class="cls-1" x1="431.56" y1="18.52" x2="432.45" y2="19.37"/><line class="cls-1" x1="432.45" y1="19.37" x2="433.35" y2="21.86"/><line class="cls-1" x1="433.35" y1="21.86" x2="434.24" y2="25.84"/><line class="cls-1" x1="434.24" y1="25.84" x2="435.14" y2="31.06"/><line class="cls-1" x1="435.14" y1="31.06" x2="436.03" y2="37.19"/><line class="cls-1" x1="436.03" y1="37.19" x2="436.92" y2="43.84"/><line class="cls-1" x1="436.92" y1="43.84" x2="437.82" y2="50.6"/><line class="cls-1" x1="437.82" y1="50.6" x2="438.71" y2="57.04"/><line class="cls-1" x1="438.71" y1="57.04" x2="439.61" y2="62.75"/><line class="cls-1" x1="439.61" y1="62.75" x2="440.5" y2="67.39"/><line class="cls-1" x1="440.5" y1="67.39" x2="441.4" y2="70.65"/><line class="cls-1" x1="441.4" y1="70.65" x2="442.29" y2="72.34"/><line class="cls-1" x1="442.29" y1="72.34" x2="443.19" y2="72.34"/><line class="cls-1" x1="443.19" y1="72.34" x2="444.08" y2="70.65"/><line class="cls-1" x1="444.08" y1="70.65" x2="444.97" y2="67.39"/><line class="cls-1" x1="444.97" y1="67.39" x2="445.87" y2="62.75"/><line class="cls-1" x1="445.87" y1="62.75" x2="446.76" y2="57.04"/><line class="cls-1" x1="446.76" y1="57.04" x2="447.66" y2="50.6"/><line class="cls-1" x1="447.66" y1="50.6" x2="448.55" y2="43.84"/><line class="cls-1" x1="448.55" y1="43.84" x2="449.45" y2="37.19"/><line class="cls-1" x1="449.45" y1="37.19" x2="450.34" y2="31.06"/><line class="cls-1" x1="450.34" y1="31.06" x2="451.23" y2="25.84"/><line class="cls-1" x1="451.23" y1="25.84" x2="452.13" y2="21.86"/><line class="cls-1" x1="452.13" y1="21.86" x2="453.02" y2="19.37"/><line class="cls-2" x1="96.16" y1="8.29" x2="96.16" y2="172.87"/><line class="cls-2" x1="185.37" y1="9.43" x2="185.37" y2="174.02"/><line class="cls-2" x1="274.37" y1="9.43" x2="274.37" y2="174.02"/><line class="cls-2" x1="364.37" y1="9.43" x2="364.37" y2="174.02"/><line class="cls-2" x1="453.37" y1="9.43" x2="453.37" y2="174.02"/><path class="cls-3" d="M30.29,49.34a7.93,7.93,0,0,0-1.07,0v-.79a4.92,4.92,0,0,0,1.09.07h4.76V43.83H30.52a8.38,8.38,0,0,0-1.15,0v-.8a5.42,5.42,0,0,0,1.15.07h4.8l.52,0c0,.25,0,.42,0,.78V49a6.63,6.63,0,0,0,.05.91h-.8v-.6Z"/><path class="cls-3" d="M43.27,44.18v-1a6.57,6.57,0,0,0,0-1H44a6.76,6.76,0,0,0,0,.93v1h.86A7.29,7.29,0,0,0,46,44.12v.76a9.16,9.16,0,0,0-1.16-.05H44c0,2-.12,2.67-.49,3.39a4.23,4.23,0,0,1-1.63,1.65,7.41,7.41,0,0,1-1.16.51,1.79,1.79,0,0,0-.45-.63,4.42,4.42,0,0,0,1.91-1,3.25,3.25,0,0,0,1.07-2.5c0-.32,0-.63,0-1.44h-3V46.5a5.46,5.46,0,0,0,0,.81h-.81a5.76,5.76,0,0,0,0-.84V44.83h-.84a9.16,9.16,0,0,0-1.16.05v-.76a7.29,7.29,0,0,0,1.17.06h.83V43a5.82,5.82,0,0,0,0-.84h.81a4.31,4.31,0,0,0,0,.81v1.18Z"/><path class="cls-3" d="M54.26,42.61a2.27,2.27,0,0,0-.44.42,17.55,17.55,0,0,1-2.34,2V49.3a6.69,6.69,0,0,0,0,1.06h-.87a5.23,5.23,0,0,0,.06-1v-3.8a15.67,15.67,0,0,1-3.86,1.75,2.3,2.3,0,0,0-.39-.67A14.09,14.09,0,0,0,51.66,44a8.39,8.39,0,0,0,1.91-1.89Z"/><path class="cls-3" d="M55.75,49.19a8.71,8.71,0,0,0,2.91-.77A7.56,7.56,0,0,0,62.74,44a2,2,0,0,0,.61.59,8.77,8.77,0,0,1-3,3.82,10.08,10.08,0,0,1-3.73,1.49A5.15,5.15,0,0,0,56,50Zm.64-6.2a13.06,13.06,0,0,1,2.41,1.88l-.52.62a11,11,0,0,0-2.38-2Z"/><path class="cls-3" d="M64.72,44.31a10.55,10.55,0,0,1,1.67,1.22l-.38.55a7.88,7.88,0,0,0-1.65-1.28Zm1.63,3.2a14.18,14.18,0,0,1-1.25,2.9,2.35,2.35,0,0,1-.11.21l-.57-.51a2.72,2.72,0,0,0,.42-.57,11.52,11.52,0,0,0,1-2.42Zm.12-3.78a7.67,7.67,0,0,0-1.59-1.35l.42-.45a10.5,10.5,0,0,1,1.59,1.33Zm1.47,2.34a8.5,8.5,0,0,1-1.21,4.6,1.88,1.88,0,0,0-.56-.39A4.78,4.78,0,0,0,67,48.53a16.65,16.65,0,0,0,.37-4.32,12,12,0,0,0,0-1.25,5.67,5.67,0,0,0,1,0H69.8v-.36a5.52,5.52,0,0,0-.06-1h.72a5.22,5.22,0,0,0-.06,1V43H72A4.36,4.36,0,0,0,73,43l.35.36a2.14,2.14,0,0,0-.2.36A12.57,12.57,0,0,1,72.4,45a2.15,2.15,0,0,0-.57-.24,4.63,4.63,0,0,0,.66-1.14H70.4v1.94h1a3.69,3.69,0,0,0,.8-.05l.36.37c-.08.15-.11.22-.22.45a8.42,8.42,0,0,1-1.5,2.35,8.33,8.33,0,0,0,2.62,1.43,2.17,2.17,0,0,0-.4.6,8.68,8.68,0,0,1-2.63-1.61A8.31,8.31,0,0,1,67.9,50.7a1.69,1.69,0,0,0-.38-.56A7.6,7.6,0,0,0,70,48.65a6.83,6.83,0,0,1-1.57-2.58Zm1.86-.55V43.58H68v.72c0,.36,0,.69,0,1.22Zm-.76.55a5.83,5.83,0,0,0,1.37,2.17,6.76,6.76,0,0,0,1.36-2.17Z"/><path class="cls-3" d="M32,131.21c-.12,2.59-1,3.81-3.22,4.69a1.74,1.74,0,0,0-.47-.65c2.07-.69,2.85-1.76,2.93-4H28.56a7.86,7.86,0,0,0-1.15,0v-.74a6.66,6.66,0,0,0,1.16.06h5.85a6.58,6.58,0,0,0,1.16-.06v.74a7.85,7.85,0,0,0-1.15,0ZM28.42,128a5.23,5.23,0,0,0,1.15.07h3a9,9,0,0,0,1.15,0v.72l-1.14,0h-3a7,7,0,0,0-1.14,0Zm5.86-.84a7.78,7.78,0,0,1,1,1.58l-.51.28a7.63,7.63,0,0,0-1-1.62Zm1.23-.38a8.32,8.32,0,0,1,1,1.58l-.51.28a7.79,7.79,0,0,0-1-1.61Z"/><path class="cls-3" d="M37.37,131.32a7,7,0,0,0,1.24.06h5.81a7.89,7.89,0,0,0,1.21,0v.81a11.35,11.35,0,0,0-1.22,0h-5.8a10.84,10.84,0,0,0-1.24,0Z"/><path class="cls-3" d="M51,127.54a3.3,3.3,0,0,0-.35.66,5,5,0,0,1-.31.55c.14,0,.14,0,3.09,0a1.74,1.74,0,0,0,.58-.1l.45.45a2.25,2.25,0,0,0-.29.66A11.37,11.37,0,0,1,51.6,134a11.16,11.16,0,0,1-3.16,2.06,1.78,1.78,0,0,0-.49-.62A9,9,0,0,0,50,134.36a7,7,0,0,0,1.73-1.58,12.51,12.51,0,0,0-2.24-1.62l.46-.51a14.24,14.24,0,0,1,2.21,1.55,11.92,11.92,0,0,0,1.39-2.9l-3.5,0A9.93,9.93,0,0,1,47.69,132a1.83,1.83,0,0,0-.58-.48,8.7,8.7,0,0,0,2.55-2.85,5.47,5.47,0,0,0,.59-1.37Z"/><path class="cls-3" d="M57.44,135.13a10.07,10.07,0,0,0,0,1.17h-.72a10.28,10.28,0,0,0,.06-1.2v-3.34c0-.5,0-.67,0-1.21a6.94,6.94,0,0,1-.94,1.48,1.73,1.73,0,0,0-.4-.55,8.52,8.52,0,0,0,1.68-2.87,5.76,5.76,0,0,0,.38-1.41l.68.21a5.14,5.14,0,0,0-.19.56,12.7,12.7,0,0,1-.63,1.62Zm.72-6a5.08,5.08,0,0,0,.84.06h4.78a6.45,6.45,0,0,0,1-.06v.69a7,7,0,0,0-1-.06H59a5.35,5.35,0,0,0-.84.06Zm1.29,7.22h-.66a7.49,7.49,0,0,0,0-.92v-1.19c0-.37,0-.69,0-1a6.22,6.22,0,0,0,.83,0h3.3a7.12,7.12,0,0,0,.94,0,8.59,8.59,0,0,0,0,1v1.19a6.44,6.44,0,0,0,.05.92H63.2v-.53H59.45Zm4.42-5.17a5.15,5.15,0,0,0-.86,0H59.69a4.46,4.46,0,0,0-.8,0v-.64a4.2,4.2,0,0,0,.8,0H63a5,5,0,0,0,.87,0Zm0,1.37a5.08,5.08,0,0,0-.86,0H59.69a5.74,5.74,0,0,0-.8,0v-.63a4.2,4.2,0,0,0,.8,0H63a4.93,4.93,0,0,0,.86,0Zm0-4.13a8.33,8.33,0,0,0-1,0h-3.1a5.07,5.07,0,0,0-.86,0v-.67a5.86,5.86,0,0,0,.89.06h3a6.29,6.29,0,0,0,1-.06Zm-.66,6.85v-1.39H59.45v1.39Z"/><path class="cls-3" d="M66.83,131.7a7.19,7.19,0,0,0-1,.06v-.71a6.93,6.93,0,0,0,1,.06h6.84a7.07,7.07,0,0,0,1-.06v.71a7.34,7.34,0,0,0-1-.06H69.06a10.68,10.68,0,0,1-.49,1h3.65a9.58,9.58,0,0,0,1.12,0,1.08,1.08,0,0,0,0,.18c0,.35,0,.35-.07.52a5.56,5.56,0,0,1-.66,2.48c-.2.24-.52.33-1.15.33-.46,0-1.08,0-1.67-.1a2.15,2.15,0,0,0-.15-.67,13.59,13.59,0,0,0,1.81.17c.45,0,.6,0,.71-.25a7,7,0,0,0,.46-2.06H68.27c-.19.32-.28.46-.56.87L67,134a9.31,9.31,0,0,0,1.35-2.32Zm.32-3.39a5.71,5.71,0,0,0,0-.75,10.24,10.24,0,0,0,1.12,0h4a7.8,7.8,0,0,0,1.13,0,5.71,5.71,0,0,0,0,.75v1.3a5.55,5.55,0,0,0,0,.74,10,10,0,0,0-1,0H68.17a10.45,10.45,0,0,0-1.06,0,5.86,5.86,0,0,0,0-.74Zm.63-.14v1.59h4.91v-1.59Z"/><line class="cls-1" x1="96.31" y1="129.52" x2="96.31" y2="102.83"/><line class="cls-1" x1="96.31" y1="102.83" x2="97.2" y2="110.31"/><line class="cls-1" x1="97.2" y1="110.31" x2="98.1" y2="118.99"/><line class="cls-1" x1="98.1" y1="118.99" x2="98.99" y2="128.33"/><line class="cls-1" x1="98.99" y1="128.33" x2="99.89" y2="137.75"/><line class="cls-1" x1="99.89" y1="137.75" x2="100.78" y2="146.65"/><line class="cls-1" x1="100.78" y1="146.65" x2="101.68" y2="154.47"/><line class="cls-1" x1="101.68" y1="154.47" x2="102.57" y2="160.73"/><line class="cls-1" x1="102.57" y1="160.73" x2="103.46" y2="165.02"/><line class="cls-1" x1="103.46" y1="165.02" x2="104.36" y2="167.08"/><line class="cls-1" x1="104.36" y1="167.08" x2="105.25" y2="166.79"/><line class="cls-1" x1="105.25" y1="166.79" x2="106.15" y2="164.15"/><line class="cls-1" x1="106.15" y1="164.15" x2="107.04" y2="159.33"/><line class="cls-1" x1="107.04" y1="159.33" x2="107.94" y2="152.64"/><line class="cls-1" x1="107.94" y1="152.64" x2="108.83" y2="144.5"/><line class="cls-1" x1="108.83" y1="144.5" x2="109.72" y2="135.42"/><line class="cls-1" x1="109.72" y1="135.42" x2="110.62" y2="125.96"/><line class="cls-1" x1="110.62" y1="125.96" x2="111.51" y2="116.73"/><line class="cls-1" x1="111.51" y1="116.73" x2="112.41" y2="108.3"/><line class="cls-1" x1="112.41" y1="108.3" x2="113.3" y2="101.21"/><line class="cls-1" x1="113.3" y1="101.21" x2="114.2" y2="95.89"/><line class="cls-1" x1="114.2" y1="95.89" x2="115.09" y2="92.69"/><line class="cls-1" x1="115.09" y1="92.69" x2="115.99" y2="91.8"/><line class="cls-1" x1="115.99" y1="91.8" x2="116.88" y2="93.28"/><line class="cls-1" x1="116.88" y1="93.28" x2="117.77" y2="97.03"/><line class="cls-1" x1="117.77" y1="97.03" x2="118.67" y2="102.83"/><line class="cls-1" x1="118.67" y1="102.83" x2="119.56" y2="110.31"/><line class="cls-1" x1="119.56" y1="110.31" x2="120.46" y2="118.99"/><line class="cls-1" x1="120.46" y1="118.99" x2="121.35" y2="128.33"/><line class="cls-1" x1="121.35" y1="128.33" x2="122.25" y2="137.75"/><line class="cls-1" x1="122.25" y1="137.75" x2="123.14" y2="146.65"/><line class="cls-1" x1="123.14" y1="146.65" x2="124.04" y2="154.47"/><line class="cls-1" x1="124.04" y1="154.47" x2="124.93" y2="160.73"/><line class="cls-1" x1="124.93" y1="160.73" x2="125.82" y2="165.02"/><line class="cls-1" x1="125.82" y1="165.02" x2="126.72" y2="167.08"/><line class="cls-1" x1="126.72" y1="167.08" x2="127.61" y2="166.79"/><line class="cls-1" x1="127.61" y1="166.79" x2="128.51" y2="164.15"/><line class="cls-1" x1="128.51" y1="164.15" x2="129.4" y2="159.33"/><line class="cls-1" x1="129.4" y1="159.33" x2="130.3" y2="152.64"/><line class="cls-1" x1="130.3" y1="152.64" x2="131.19" y2="144.5"/><line class="cls-1" x1="131.19" y1="144.5" x2="132.09" y2="135.42"/><line class="cls-1" x1="132.09" y1="135.42" x2="132.98" y2="125.96"/><line class="cls-1" x1="132.98" y1="125.96" x2="133.87" y2="116.73"/><line class="cls-1" x1="133.87" y1="116.73" x2="134.77" y2="108.3"/><line class="cls-1" x1="134.77" y1="108.3" x2="135.66" y2="101.21"/><line class="cls-1" x1="135.66" y1="101.21" x2="136.56" y2="95.89"/><line class="cls-1" x1="136.56" y1="95.89" x2="137.45" y2="92.69"/><line class="cls-1" x1="137.45" y1="92.69" x2="138.35" y2="91.8"/><line class="cls-1" x1="138.35" y1="91.8" x2="139.24" y2="93.28"/><line class="cls-1" x1="139.24" y1="93.28" x2="140.14" y2="97.03"/><line class="cls-1" x1="140.14" y1="97.03" x2="141.03" y2="102.83"/><line class="cls-1" x1="141.03" y1="102.83" x2="141.92" y2="110.31"/><line class="cls-1" x1="141.92" y1="110.31" x2="142.82" y2="118.99"/><line class="cls-1" x1="142.82" y1="118.99" x2="143.71" y2="128.33"/><line class="cls-1" x1="143.71" y1="128.33" x2="144.61" y2="137.75"/><line class="cls-1" x1="144.61" y1="137.75" x2="145.5" y2="146.65"/><line class="cls-1" x1="145.5" y1="146.65" x2="146.4" y2="154.47"/><line class="cls-1" x1="146.4" y1="154.47" x2="147.29" y2="160.73"/><line class="cls-1" x1="147.29" y1="160.73" x2="148.19" y2="165.02"/><line class="cls-1" x1="148.19" y1="165.02" x2="149.08" y2="167.08"/><line class="cls-1" x1="149.08" y1="167.08" x2="149.97" y2="166.79"/><line class="cls-1" x1="149.97" y1="166.79" x2="150.87" y2="164.15"/><line class="cls-1" x1="150.87" y1="164.15" x2="151.76" y2="159.33"/><line class="cls-1" x1="151.76" y1="159.33" x2="152.66" y2="152.64"/><line class="cls-1" x1="152.66" y1="152.64" x2="153.55" y2="144.5"/><line class="cls-1" x1="153.55" y1="144.5" x2="154.45" y2="135.42"/><line class="cls-1" x1="154.45" y1="135.42" x2="155.34" y2="125.96"/><line class="cls-1" x1="155.34" y1="125.96" x2="156.24" y2="116.73"/><line class="cls-1" x1="156.24" y1="116.73" x2="157.13" y2="108.3"/><line class="cls-1" x1="157.13" y1="108.3" x2="158.02" y2="101.21"/><line class="cls-1" x1="158.02" y1="101.21" x2="158.92" y2="95.89"/><line class="cls-1" x1="158.92" y1="95.89" x2="159.81" y2="92.69"/><line class="cls-1" x1="159.81" y1="92.69" x2="160.71" y2="91.8"/><line class="cls-1" x1="160.71" y1="91.8" x2="161.6" y2="93.28"/><line class="cls-1" x1="161.6" y1="93.28" x2="162.5" y2="97.03"/><line class="cls-1" x1="162.5" y1="97.03" x2="163.39" y2="102.83"/><line class="cls-1" x1="163.39" y1="102.83" x2="164.29" y2="110.31"/><line class="cls-1" x1="164.29" y1="110.31" x2="165.18" y2="118.99"/><line class="cls-1" x1="165.18" y1="118.99" x2="166.07" y2="128.33"/><line class="cls-1" x1="166.07" y1="128.33" x2="166.97" y2="137.75"/><line class="cls-1" x1="166.97" y1="137.75" x2="167.86" y2="146.65"/><line class="cls-1" x1="167.86" y1="146.65" x2="168.76" y2="154.47"/><line class="cls-1" x1="168.76" y1="154.47" x2="169.65" y2="160.73"/><line class="cls-1" x1="169.65" y1="160.73" x2="170.55" y2="165.02"/><line class="cls-1" x1="170.55" y1="165.02" x2="171.44" y2="167.08"/><line class="cls-1" x1="171.44" y1="167.08" x2="172.33" y2="166.79"/><line class="cls-1" x1="172.33" y1="166.79" x2="173.23" y2="164.15"/><line class="cls-1" x1="173.23" y1="164.15" x2="174.12" y2="159.33"/><line class="cls-1" x1="174.12" y1="159.33" x2="175.02" y2="152.64"/><line class="cls-1" x1="175.02" y1="152.64" x2="175.91" y2="144.5"/><line class="cls-1" x1="175.91" y1="144.5" x2="176.81" y2="135.42"/><line class="cls-1" x1="176.81" y1="135.42" x2="177.7" y2="125.96"/><line class="cls-1" x1="177.7" y1="125.96" x2="178.6" y2="116.73"/><line class="cls-1" x1="178.6" y1="116.73" x2="179.49" y2="108.3"/><line class="cls-1" x1="179.49" y1="108.3" x2="180.38" y2="101.21"/><line class="cls-1" x1="180.38" y1="101.21" x2="181.28" y2="95.89"/><line class="cls-1" x1="181.28" y1="95.89" x2="182.17" y2="92.69"/><line class="cls-1" x1="182.17" y1="92.69" x2="183.07" y2="91.8"/><line class="cls-1" x1="183.07" y1="91.8" x2="183.96" y2="93.28"/><line class="cls-1" x1="183.96" y1="93.28" x2="184.86" y2="97.03"/><line class="cls-1" x1="184.86" y1="97.03" x2="185.75" y2="156.2"/><line class="cls-1" x1="185.75" y1="156.2" x2="186.65" y2="162"/><line class="cls-1" x1="186.65" y1="162" x2="187.54" y2="165.75"/><line class="cls-1" x1="187.54" y1="165.75" x2="188.43" y2="167.23"/><line class="cls-1" x1="188.43" y1="167.23" x2="189.33" y2="166.34"/><line class="cls-1" x1="189.33" y1="166.34" x2="190.22" y2="163.14"/><line class="cls-1" x1="190.22" y1="163.14" x2="191.12" y2="157.82"/><line class="cls-1" x1="191.12" y1="157.82" x2="192.01" y2="150.73"/><line class="cls-1" x1="192.01" y1="150.73" x2="192.91" y2="142.3"/><line class="cls-1" x1="192.91" y1="142.3" x2="193.8" y2="133.07"/><line class="cls-1" x1="193.8" y1="133.07" x2="194.7" y2="123.61"/><line class="cls-1" x1="194.7" y1="123.61" x2="195.59" y2="114.53"/><line class="cls-1" x1="195.59" y1="114.53" x2="196.48" y2="106.39"/><line class="cls-1" x1="196.48" y1="106.39" x2="197.38" y2="99.7"/><line class="cls-1" x1="197.38" y1="99.7" x2="198.27" y2="94.88"/><line class="cls-1" x1="198.27" y1="94.88" x2="199.17" y2="92.24"/><line class="cls-1" x1="199.17" y1="92.24" x2="200.06" y2="91.95"/><line class="cls-1" x1="200.06" y1="91.95" x2="200.96" y2="94.01"/><line class="cls-1" x1="200.96" y1="94.01" x2="201.85" y2="98.3"/><line class="cls-1" x1="201.85" y1="98.3" x2="202.75" y2="104.56"/><line class="cls-1" x1="202.75" y1="104.56" x2="203.64" y2="112.38"/><line class="cls-1" x1="203.64" y1="112.38" x2="204.53" y2="121.28"/><line class="cls-1" x1="204.53" y1="121.28" x2="205.43" y2="130.7"/><line class="cls-1" x1="205.43" y1="130.7" x2="206.32" y2="140.04"/><line class="cls-1" x1="206.32" y1="140.04" x2="207.22" y2="148.73"/><line class="cls-1" x1="207.22" y1="148.73" x2="208.11" y2="156.2"/><line class="cls-1" x1="208.11" y1="156.2" x2="209.01" y2="162"/><line class="cls-1" x1="209.01" y1="162" x2="209.9" y2="165.75"/><line class="cls-1" x1="209.9" y1="165.75" x2="210.8" y2="167.23"/><line class="cls-1" x1="210.8" y1="167.23" x2="211.69" y2="166.34"/><line class="cls-1" x1="211.69" y1="166.34" x2="212.58" y2="163.14"/><line class="cls-1" x1="212.58" y1="163.14" x2="213.48" y2="157.82"/><line class="cls-1" x1="213.48" y1="157.82" x2="214.37" y2="150.73"/><line class="cls-1" x1="214.37" y1="150.73" x2="215.27" y2="142.3"/><line class="cls-1" x1="215.27" y1="142.3" x2="216.16" y2="133.07"/><line class="cls-1" x1="216.16" y1="133.07" x2="217.06" y2="123.61"/><line class="cls-1" x1="217.06" y1="123.61" x2="217.95" y2="114.53"/><line class="cls-1" x1="217.95" y1="114.53" x2="218.85" y2="106.39"/><line class="cls-1" x1="218.85" y1="106.39" x2="219.74" y2="99.7"/><line class="cls-1" x1="219.74" y1="99.7" x2="220.63" y2="94.88"/><line class="cls-1" x1="220.63" y1="94.88" x2="221.53" y2="92.24"/><line class="cls-1" x1="221.53" y1="92.24" x2="222.42" y2="91.95"/><line class="cls-1" x1="222.42" y1="91.95" x2="223.32" y2="94.01"/><line class="cls-1" x1="223.32" y1="94.01" x2="224.21" y2="98.3"/><line class="cls-1" x1="224.21" y1="98.3" x2="225.11" y2="104.56"/><line class="cls-1" x1="225.11" y1="104.56" x2="226" y2="112.38"/><line class="cls-1" x1="226" y1="112.38" x2="226.9" y2="121.28"/><line class="cls-1" x1="226.9" y1="121.28" x2="227.79" y2="130.7"/><line class="cls-1" x1="227.79" y1="130.7" x2="228.68" y2="140.04"/><line class="cls-1" x1="228.68" y1="140.04" x2="229.58" y2="148.73"/><line class="cls-1" x1="229.58" y1="148.73" x2="230.47" y2="156.2"/><line class="cls-1" x1="230.47" y1="156.2" x2="231.37" y2="162"/><line class="cls-1" x1="231.37" y1="162" x2="232.26" y2="165.75"/><line class="cls-1" x1="232.26" y1="165.75" x2="233.16" y2="167.23"/><line class="cls-1" x1="233.16" y1="167.23" x2="234.05" y2="166.34"/><line class="cls-1" x1="234.05" y1="166.34" x2="234.94" y2="163.14"/><line class="cls-1" x1="234.94" y1="163.14" x2="235.84" y2="157.82"/><line class="cls-1" x1="235.84" y1="157.82" x2="236.73" y2="150.73"/><line class="cls-1" x1="236.73" y1="150.73" x2="237.63" y2="142.3"/><line class="cls-1" x1="237.63" y1="142.3" x2="238.52" y2="133.07"/><line class="cls-1" x1="238.52" y1="133.07" x2="239.42" y2="123.61"/><line class="cls-1" x1="239.42" y1="123.61" x2="240.31" y2="114.53"/><line class="cls-1" x1="240.31" y1="114.53" x2="241.21" y2="106.39"/><line class="cls-1" x1="241.21" y1="106.39" x2="242.1" y2="99.7"/><line class="cls-1" x1="242.1" y1="99.7" x2="242.99" y2="94.88"/><line class="cls-1" x1="242.99" y1="94.88" x2="243.89" y2="92.24"/><line class="cls-1" x1="243.89" y1="92.24" x2="244.78" y2="91.95"/><line class="cls-1" x1="244.78" y1="91.95" x2="245.68" y2="94.01"/><line class="cls-1" x1="245.68" y1="94.01" x2="246.57" y2="98.3"/><line class="cls-1" x1="246.57" y1="98.3" x2="247.47" y2="104.56"/><line class="cls-1" x1="247.47" y1="104.56" x2="248.36" y2="112.38"/><line class="cls-1" x1="248.36" y1="112.38" x2="249.26" y2="121.28"/><line class="cls-1" x1="249.26" y1="121.28" x2="250.15" y2="130.7"/><line class="cls-1" x1="250.15" y1="130.7" x2="251.04" y2="140.04"/><line class="cls-1" x1="251.04" y1="140.04" x2="251.94" y2="148.73"/><line class="cls-1" x1="251.94" y1="148.73" x2="252.83" y2="156.2"/><line class="cls-1" x1="252.83" y1="156.2" x2="253.73" y2="162"/><line class="cls-1" x1="253.73" y1="162" x2="254.62" y2="165.75"/><line class="cls-1" x1="254.62" y1="165.75" x2="255.52" y2="167.23"/><line class="cls-1" x1="255.52" y1="167.23" x2="256.41" y2="166.34"/><line class="cls-1" x1="256.41" y1="166.34" x2="257.31" y2="163.14"/><line class="cls-1" x1="257.31" y1="163.14" x2="258.2" y2="157.82"/><line class="cls-1" x1="258.2" y1="157.82" x2="259.09" y2="150.73"/><line class="cls-1" x1="259.09" y1="150.73" x2="259.99" y2="142.3"/><line class="cls-1" x1="259.99" y1="142.3" x2="260.88" y2="133.07"/><line class="cls-1" x1="260.88" y1="133.07" x2="261.78" y2="123.61"/><line class="cls-1" x1="261.78" y1="123.61" x2="262.67" y2="114.53"/><line class="cls-1" x1="262.67" y1="114.53" x2="263.57" y2="106.39"/><line class="cls-1" x1="263.57" y1="106.39" x2="264.46" y2="99.7"/><line class="cls-1" x1="264.46" y1="99.7" x2="265.36" y2="94.88"/><line class="cls-1" x1="265.36" y1="94.88" x2="266.25" y2="92.24"/><line class="cls-1" x1="266.25" y1="92.24" x2="267.14" y2="91.95"/><line class="cls-1" x1="267.14" y1="91.95" x2="268.04" y2="94.01"/><line class="cls-1" x1="268.04" y1="94.01" x2="268.93" y2="98.3"/><line class="cls-1" x1="268.93" y1="98.3" x2="269.83" y2="104.56"/><line class="cls-1" x1="269.83" y1="104.56" x2="270.72" y2="112.38"/><line class="cls-1" x1="270.72" y1="112.38" x2="271.62" y2="121.28"/><line class="cls-1" x1="271.62" y1="121.28" x2="272.51" y2="130.7"/><line class="cls-1" x1="272.51" y1="130.7" x2="273.41" y2="140.04"/><line class="cls-1" x1="273.41" y1="140.04" x2="274.3" y2="148.73"/><line class="cls-1" x1="274.3" y1="148.73" x2="275.19" y2="156.2"/><line class="cls-1" x1="275.19" y1="156.2" x2="276.09" y2="148.73"/><line class="cls-1" x1="276.09" y1="148.73" x2="276.98" y2="140.04"/><line class="cls-1" x1="276.98" y1="140.04" x2="277.88" y2="130.7"/><line class="cls-1" x1="277.88" y1="130.7" x2="278.77" y2="121.28"/><line class="cls-1" x1="278.77" y1="121.28" x2="279.67" y2="112.38"/><line class="cls-1" x1="279.67" y1="112.38" x2="280.56" y2="104.56"/><line class="cls-1" x1="280.56" y1="104.56" x2="281.46" y2="98.3"/><line class="cls-1" x1="281.46" y1="98.3" x2="282.35" y2="94.01"/><line class="cls-1" x1="282.35" y1="94.01" x2="283.24" y2="91.95"/><line class="cls-1" x1="283.24" y1="91.95" x2="284.14" y2="92.24"/><line class="cls-1" x1="284.14" y1="92.24" x2="285.03" y2="94.88"/><line class="cls-1" x1="285.03" y1="94.88" x2="285.93" y2="99.7"/><line class="cls-1" x1="285.93" y1="99.7" x2="286.82" y2="106.39"/><line class="cls-1" x1="286.82" y1="106.39" x2="287.72" y2="114.53"/><line class="cls-1" x1="287.72" y1="114.53" x2="288.61" y2="123.61"/><line class="cls-1" x1="288.61" y1="123.61" x2="289.5" y2="133.07"/><line class="cls-1" x1="289.5" y1="133.07" x2="290.4" y2="142.3"/><line class="cls-1" x1="290.4" y1="142.3" x2="291.29" y2="150.73"/><line class="cls-1" x1="291.29" y1="150.73" x2="292.19" y2="157.82"/><line class="cls-1" x1="292.19" y1="157.82" x2="293.08" y2="163.14"/><line class="cls-1" x1="293.08" y1="163.14" x2="293.98" y2="166.34"/><line class="cls-1" x1="293.98" y1="166.34" x2="294.87" y2="167.23"/><line class="cls-1" x1="294.87" y1="167.23" x2="295.77" y2="165.75"/><line class="cls-1" x1="295.77" y1="165.75" x2="296.66" y2="162"/><line class="cls-1" x1="296.66" y1="162" x2="297.55" y2="156.2"/><line class="cls-1" x1="297.55" y1="156.2" x2="298.45" y2="148.73"/><line class="cls-1" x1="298.45" y1="148.73" x2="299.34" y2="140.04"/><line class="cls-1" x1="299.34" y1="140.04" x2="300.24" y2="130.7"/><line class="cls-1" x1="300.24" y1="130.7" x2="301.13" y2="121.28"/><line class="cls-1" x1="301.13" y1="121.28" x2="302.03" y2="112.38"/><line class="cls-1" x1="302.03" y1="112.38" x2="302.92" y2="104.56"/><line class="cls-1" x1="302.92" y1="104.56" x2="303.82" y2="98.3"/><line class="cls-1" x1="303.82" y1="98.3" x2="304.71" y2="94.01"/><line class="cls-1" x1="304.71" y1="94.01" x2="305.6" y2="91.95"/><line class="cls-1" x1="305.6" y1="91.95" x2="306.5" y2="92.24"/><line class="cls-1" x1="306.5" y1="92.24" x2="307.39" y2="94.88"/><line class="cls-1" x1="307.39" y1="94.88" x2="308.29" y2="99.7"/><line class="cls-1" x1="308.29" y1="99.7" x2="309.18" y2="106.39"/><line class="cls-1" x1="309.18" y1="106.39" x2="310.08" y2="114.53"/><line class="cls-1" x1="310.08" y1="114.53" x2="310.97" y2="123.61"/><line class="cls-1" x1="310.97" y1="123.61" x2="311.87" y2="133.07"/><line class="cls-1" x1="311.87" y1="133.07" x2="312.76" y2="142.3"/><line class="cls-1" x1="312.76" y1="142.3" x2="313.65" y2="150.73"/><line class="cls-1" x1="313.65" y1="150.73" x2="314.55" y2="157.82"/><line class="cls-1" x1="314.55" y1="157.82" x2="315.44" y2="163.14"/><line class="cls-1" x1="315.44" y1="163.14" x2="316.34" y2="166.34"/><line class="cls-1" x1="316.34" y1="166.34" x2="317.23" y2="167.23"/><line class="cls-1" x1="317.23" y1="167.23" x2="318.13" y2="165.75"/><line class="cls-1" x1="318.13" y1="165.75" x2="319.02" y2="162"/><line class="cls-1" x1="319.02" y1="162" x2="319.92" y2="156.2"/><line class="cls-1" x1="319.92" y1="156.2" x2="320.81" y2="148.73"/><line class="cls-1" x1="320.81" y1="148.73" x2="321.7" y2="140.04"/><line class="cls-1" x1="321.7" y1="140.04" x2="322.6" y2="130.7"/><line class="cls-1" x1="322.6" y1="130.7" x2="323.49" y2="121.28"/><line class="cls-1" x1="323.49" y1="121.28" x2="324.39" y2="112.38"/><line class="cls-1" x1="324.39" y1="112.38" x2="325.28" y2="104.56"/><line class="cls-1" x1="325.28" y1="104.56" x2="326.18" y2="98.3"/><line class="cls-1" x1="326.18" y1="98.3" x2="327.07" y2="94.01"/><line class="cls-1" x1="327.07" y1="94.01" x2="327.97" y2="91.95"/><line class="cls-1" x1="327.97" y1="91.95" x2="328.86" y2="92.24"/><line class="cls-1" x1="328.86" y1="92.24" x2="329.75" y2="94.88"/><line class="cls-1" x1="329.75" y1="94.88" x2="330.65" y2="99.7"/><line class="cls-1" x1="330.65" y1="99.7" x2="331.54" y2="106.39"/><line class="cls-1" x1="331.54" y1="106.39" x2="332.44" y2="114.53"/><line class="cls-1" x1="332.44" y1="114.53" x2="333.33" y2="123.61"/><line class="cls-1" x1="333.33" y1="123.61" x2="334.23" y2="133.07"/><line class="cls-1" x1="334.23" y1="133.07" x2="335.12" y2="142.3"/><line class="cls-1" x1="335.12" y1="142.3" x2="336.02" y2="150.73"/><line class="cls-1" x1="336.02" y1="150.73" x2="336.91" y2="157.82"/><line class="cls-1" x1="336.91" y1="157.82" x2="337.8" y2="163.14"/><line class="cls-1" x1="337.8" y1="163.14" x2="338.7" y2="166.34"/><line class="cls-1" x1="338.7" y1="166.34" x2="339.59" y2="167.23"/><line class="cls-1" x1="339.59" y1="167.23" x2="340.49" y2="165.75"/><line class="cls-1" x1="340.49" y1="165.75" x2="341.38" y2="162"/><line class="cls-1" x1="341.38" y1="162" x2="342.28" y2="156.2"/><line class="cls-1" x1="342.28" y1="156.2" x2="343.17" y2="148.73"/><line class="cls-1" x1="343.17" y1="148.73" x2="344.07" y2="140.04"/><line class="cls-1" x1="344.07" y1="140.04" x2="344.96" y2="130.7"/><line class="cls-1" x1="344.96" y1="130.7" x2="345.85" y2="121.28"/><line class="cls-1" x1="345.85" y1="121.28" x2="346.75" y2="112.38"/><line class="cls-1" x1="346.75" y1="112.38" x2="347.64" y2="104.56"/><line class="cls-1" x1="347.64" y1="104.56" x2="348.54" y2="98.3"/><line class="cls-1" x1="348.54" y1="98.3" x2="349.43" y2="94.01"/><line class="cls-1" x1="349.43" y1="94.01" x2="350.33" y2="91.95"/><line class="cls-1" x1="350.33" y1="91.95" x2="351.22" y2="92.24"/><line class="cls-1" x1="351.22" y1="92.24" x2="352.11" y2="94.88"/><line class="cls-1" x1="352.11" y1="94.88" x2="353.01" y2="99.7"/><line class="cls-1" x1="353.01" y1="99.7" x2="353.9" y2="106.39"/><line class="cls-1" x1="353.9" y1="106.39" x2="354.8" y2="114.53"/><line class="cls-1" x1="354.8" y1="114.53" x2="355.69" y2="123.61"/><line class="cls-1" x1="355.69" y1="123.61" x2="356.59" y2="133.07"/><line class="cls-1" x1="356.59" y1="133.07" x2="357.48" y2="142.3"/><line class="cls-1" x1="357.48" y1="142.3" x2="358.38" y2="150.73"/><line class="cls-1" x1="358.38" y1="150.73" x2="359.27" y2="157.82"/><line class="cls-1" x1="359.27" y1="157.82" x2="360.16" y2="163.14"/><line class="cls-1" x1="360.16" y1="163.14" x2="361.06" y2="166.34"/><line class="cls-1" x1="361.06" y1="166.34" x2="361.95" y2="167.23"/><line class="cls-1" x1="361.95" y1="167.23" x2="362.85" y2="165.75"/><line class="cls-1" x1="362.85" y1="165.75" x2="363.74" y2="162"/><line class="cls-1" x1="363.74" y1="162" x2="364.64" y2="102.83"/><line class="cls-1" x1="364.64" y1="102.83" x2="365.53" y2="97.03"/><line class="cls-1" x1="365.53" y1="97.03" x2="366.43" y2="93.28"/><line class="cls-1" x1="366.43" y1="93.28" x2="367.32" y2="91.8"/><line class="cls-1" x1="367.32" y1="91.8" x2="368.21" y2="92.69"/><line class="cls-1" x1="368.21" y1="92.69" x2="369.11" y2="95.89"/><line class="cls-1" x1="369.11" y1="95.89" x2="370" y2="101.21"/><line class="cls-1" x1="370" y1="101.21" x2="370.9" y2="108.3"/><line class="cls-1" x1="370.9" y1="108.3" x2="371.79" y2="116.73"/><line class="cls-1" x1="371.79" y1="116.73" x2="372.69" y2="125.96"/><line class="cls-1" x1="372.69" y1="125.96" x2="373.58" y2="135.42"/><line class="cls-1" x1="373.58" y1="135.42" x2="374.48" y2="144.5"/><line class="cls-1" x1="374.48" y1="144.5" x2="375.37" y2="152.64"/><line class="cls-1" x1="375.37" y1="152.64" x2="376.26" y2="159.33"/><line class="cls-1" x1="376.26" y1="159.33" x2="377.16" y2="164.15"/><line class="cls-1" x1="377.16" y1="164.15" x2="378.05" y2="166.79"/><line class="cls-1" x1="378.05" y1="166.79" x2="378.95" y2="167.08"/><line class="cls-1" x1="378.95" y1="167.08" x2="379.84" y2="165.02"/><line class="cls-1" x1="379.84" y1="165.02" x2="380.74" y2="160.73"/><line class="cls-1" x1="380.74" y1="160.73" x2="381.63" y2="154.47"/><line class="cls-1" x1="381.63" y1="154.47" x2="382.53" y2="146.65"/><line class="cls-1" x1="382.53" y1="146.65" x2="383.42" y2="137.75"/><line class="cls-1" x1="383.42" y1="137.75" x2="384.31" y2="128.33"/><line class="cls-1" x1="384.31" y1="128.33" x2="385.21" y2="118.99"/><line class="cls-1" x1="385.21" y1="118.99" x2="386.1" y2="110.31"/><line class="cls-1" x1="386.1" y1="110.31" x2="387" y2="102.83"/><line class="cls-1" x1="387" y1="102.83" x2="387.89" y2="97.03"/><line class="cls-1" x1="387.89" y1="97.03" x2="388.79" y2="93.28"/><line class="cls-1" x1="388.79" y1="93.28" x2="389.68" y2="91.8"/><line class="cls-1" x1="389.68" y1="91.8" x2="390.58" y2="92.69"/><line class="cls-1" x1="390.58" y1="92.69" x2="391.47" y2="95.89"/><line class="cls-1" x1="391.47" y1="95.89" x2="392.36" y2="101.21"/><line class="cls-1" x1="392.36" y1="101.21" x2="393.26" y2="108.3"/><line class="cls-1" x1="393.26" y1="108.3" x2="394.15" y2="116.73"/><line class="cls-1" x1="394.15" y1="116.73" x2="395.05" y2="125.96"/><line class="cls-1" x1="395.05" y1="125.96" x2="395.94" y2="135.42"/><line class="cls-1" x1="395.94" y1="135.42" x2="396.84" y2="144.5"/><line class="cls-1" x1="396.84" y1="144.5" x2="397.73" y2="152.64"/><line class="cls-1" x1="397.73" y1="152.64" x2="398.63" y2="159.33"/><line class="cls-1" x1="398.63" y1="159.33" x2="399.52" y2="164.15"/><line class="cls-1" x1="399.52" y1="164.15" x2="400.41" y2="166.79"/><line class="cls-1" x1="400.41" y1="166.79" x2="401.31" y2="167.08"/><line class="cls-1" x1="401.31" y1="167.08" x2="402.2" y2="165.02"/><line class="cls-1" x1="402.2" y1="165.02" x2="403.1" y2="160.73"/><line class="cls-1" x1="403.1" y1="160.73" x2="403.99" y2="154.47"/><line class="cls-1" x1="403.99" y1="154.47" x2="404.89" y2="146.65"/><line class="cls-1" x1="404.89" y1="146.65" x2="405.78" y2="137.75"/><line class="cls-1" x1="405.78" y1="137.75" x2="406.68" y2="128.33"/><line class="cls-1" x1="406.68" y1="128.33" x2="407.57" y2="118.99"/><line class="cls-1" x1="407.57" y1="118.99" x2="408.46" y2="110.31"/><line class="cls-1" x1="408.46" y1="110.31" x2="409.36" y2="102.83"/><line class="cls-1" x1="409.36" y1="102.83" x2="410.25" y2="97.03"/><line class="cls-1" x1="410.25" y1="97.03" x2="411.15" y2="93.28"/><line class="cls-1" x1="411.15" y1="93.28" x2="412.04" y2="91.8"/><line class="cls-1" x1="412.04" y1="91.8" x2="412.94" y2="92.69"/><line class="cls-1" x1="412.94" y1="92.69" x2="413.83" y2="95.89"/><line class="cls-1" x1="413.83" y1="95.89" x2="414.72" y2="101.21"/><line class="cls-1" x1="414.72" y1="101.21" x2="415.62" y2="108.3"/><line class="cls-1" x1="415.62" y1="108.3" x2="416.51" y2="116.73"/><line class="cls-1" x1="416.51" y1="116.73" x2="417.41" y2="125.96"/><line class="cls-1" x1="417.41" y1="125.96" x2="418.3" y2="135.42"/><line class="cls-1" x1="418.3" y1="135.42" x2="419.2" y2="144.5"/><line class="cls-1" x1="419.2" y1="144.5" x2="420.09" y2="152.64"/><line class="cls-1" x1="420.09" y1="152.64" x2="420.99" y2="159.33"/><line class="cls-1" x1="420.99" y1="159.33" x2="421.88" y2="164.15"/><line class="cls-1" x1="421.88" y1="164.15" x2="422.77" y2="166.79"/><line class="cls-1" x1="422.77" y1="166.79" x2="423.67" y2="167.08"/><line class="cls-1" x1="423.67" y1="167.08" x2="424.56" y2="165.02"/><line class="cls-1" x1="424.56" y1="165.02" x2="425.46" y2="160.73"/><line class="cls-1" x1="425.46" y1="160.73" x2="426.35" y2="154.47"/><line class="cls-1" x1="426.35" y1="154.47" x2="427.25" y2="146.65"/><line class="cls-1" x1="427.25" y1="146.65" x2="428.14" y2="137.75"/><line class="cls-1" x1="428.14" y1="137.75" x2="429.04" y2="128.33"/><line class="cls-1" x1="429.04" y1="128.33" x2="429.93" y2="118.99"/><line class="cls-1" x1="429.93" y1="118.99" x2="430.82" y2="110.31"/><line class="cls-1" x1="430.82" y1="110.31" x2="431.72" y2="102.83"/><line class="cls-1" x1="431.72" y1="102.83" x2="432.61" y2="97.03"/><line class="cls-1" x1="432.61" y1="97.03" x2="433.51" y2="93.28"/><line class="cls-1" x1="433.51" y1="93.28" x2="434.4" y2="91.8"/><line class="cls-1" x1="434.4" y1="91.8" x2="435.3" y2="92.69"/><line class="cls-1" x1="435.3" y1="92.69" x2="436.19" y2="95.89"/><line class="cls-1" x1="436.19" y1="95.89" x2="437.09" y2="101.21"/><line class="cls-1" x1="437.09" y1="101.21" x2="437.98" y2="108.3"/><line class="cls-1" x1="437.98" y1="108.3" x2="438.87" y2="116.73"/><line class="cls-1" x1="438.87" y1="116.73" x2="439.77" y2="125.96"/><line class="cls-1" x1="439.77" y1="125.96" x2="440.66" y2="135.42"/><line class="cls-1" x1="440.66" y1="135.42" x2="441.56" y2="144.5"/><line class="cls-1" x1="441.56" y1="144.5" x2="442.45" y2="152.64"/><line class="cls-1" x1="442.45" y1="152.64" x2="443.35" y2="159.33"/><line class="cls-1" x1="443.35" y1="159.33" x2="444.24" y2="164.15"/><line class="cls-1" x1="444.24" y1="164.15" x2="445.14" y2="166.79"/><line class="cls-1" x1="445.14" y1="166.79" x2="446.03" y2="167.08"/><line class="cls-1" x1="446.03" y1="167.08" x2="446.92" y2="165.02"/><line class="cls-1" x1="446.92" y1="165.02" x2="447.82" y2="160.73"/><line class="cls-1" x1="447.82" y1="160.73" x2="448.71" y2="154.47"/><line class="cls-1" x1="448.71" y1="154.47" x2="449.61" y2="146.65"/><line class="cls-1" x1="449.61" y1="146.65" x2="450.5" y2="137.75"/><line class="cls-1" x1="450.5" y1="137.75" x2="451.4" y2="128.33"/><line class="cls-1" x1="451.4" y1="128.33" x2="452.29" y2="118.99"/><line class="cls-1" x1="452.29" y1="118.99" x2="453.19" y2="110.31"/><path class="cls-3" d="M136.92,187.29a4.84,4.84,0,0,0,.83,0h.63a5.68,5.68,0,0,0,.83,0,16.39,16.39,0,0,0-.09,1.66v4.86a6.43,6.43,0,0,0,.08,1.13h-.95a6.31,6.31,0,0,0,.08-1.13V188h-.54a6,6,0,0,0-.87.06Z"/><path class="cls-3" d="M136.92,210.29a4.84,4.84,0,0,0,.83,0h.63a5.68,5.68,0,0,0,.83,0,16.39,16.39,0,0,0-.09,1.66v4.86a6.43,6.43,0,0,0,.08,1.13h-.95a6.31,6.31,0,0,0,.08-1.13V211h-.54a6,6,0,0,0-.87.06Z"/><path class="cls-3" d="M230.72,194.37a2.47,2.47,0,0,1-.6-.92,6.9,6.9,0,0,1-.38-2.31,5.85,5.85,0,0,1,.58-2.72,2.68,2.68,0,0,1,4.07-.52,2.52,2.52,0,0,1,.6.92,6.88,6.88,0,0,1,.38,2.32,5.21,5.21,0,0,1-.7,2.89,2.44,2.44,0,0,1-2.12,1A2.49,2.49,0,0,1,230.72,194.37Zm.58-6a2.05,2.05,0,0,0-.45.73,6.2,6.2,0,0,0-.31,2,5.52,5.52,0,0,0,.47,2.38,1.7,1.7,0,0,0,1.55.87,1.67,1.67,0,0,0,1.23-.47,2,2,0,0,0,.47-.78,6.2,6.2,0,0,0,.31-2,5.65,5.65,0,0,0-.45-2.33,1.69,1.69,0,0,0-1.57-.91A1.63,1.63,0,0,0,231.3,188.4Z"/><path class="cls-3" d="M230.88,210.29a4.84,4.84,0,0,0,.83,0h.63a5.68,5.68,0,0,0,.83,0,16.39,16.39,0,0,0-.09,1.66v4.86a6.43,6.43,0,0,0,.08,1.13h-.95a6.31,6.31,0,0,0,.08-1.13V211h-.54a6,6,0,0,0-.87.06Z"/><path class="cls-3" d="M318.37,194.37a2.46,2.46,0,0,1-.6-.92,6.9,6.9,0,0,1-.38-2.31,5.85,5.85,0,0,1,.58-2.72,2.68,2.68,0,0,1,4.07-.52,2.53,2.53,0,0,1,.6.92,6.88,6.88,0,0,1,.38,2.32,5.21,5.21,0,0,1-.7,2.89,2.44,2.44,0,0,1-2.12,1A2.49,2.49,0,0,1,318.37,194.37Zm.58-6a2.05,2.05,0,0,0-.45.73,6.2,6.2,0,0,0-.31,2,5.51,5.51,0,0,0,.47,2.38,1.7,1.7,0,0,0,1.55.87,1.67,1.67,0,0,0,1.23-.47,2,2,0,0,0,.47-.78,6.2,6.2,0,0,0,.31-2,5.65,5.65,0,0,0-.45-2.33,1.69,1.69,0,0,0-1.57-.91A1.63,1.63,0,0,0,318.95,188.4Z"/><path class="cls-3" d="M318.37,217.37a2.46,2.46,0,0,1-.6-.92,6.9,6.9,0,0,1-.38-2.31,5.85,5.85,0,0,1,.58-2.72,2.68,2.68,0,0,1,4.07-.52,2.53,2.53,0,0,1,.6.92,6.88,6.88,0,0,1,.38,2.32,5.21,5.21,0,0,1-.7,2.89,2.44,2.44,0,0,1-2.12,1A2.49,2.49,0,0,1,318.37,217.37Zm.58-6a2.05,2.05,0,0,0-.45.73,6.2,6.2,0,0,0-.31,2,5.51,5.51,0,0,0,.47,2.38,1.7,1.7,0,0,0,1.55.87,1.67,1.67,0,0,0,1.23-.47,2,2,0,0,0,.47-.78,6.2,6.2,0,0,0,.31-2,5.65,5.65,0,0,0-.45-2.33,1.69,1.69,0,0,0-1.57-.91A1.63,1.63,0,0,0,318.95,211.4Z"/><path class="cls-3" d="M409.31,187.29a4.84,4.84,0,0,0,.83,0h.63a5.69,5.69,0,0,0,.83,0,16.25,16.25,0,0,0-.09,1.66v4.86a6.43,6.43,0,0,0,.08,1.13h-.95a6.26,6.26,0,0,0,.08-1.13V188h-.54a6,6,0,0,0-.87.06Z"/><path class="cls-3" d="M409.15,217.37a2.48,2.48,0,0,1-.6-.92,6.9,6.9,0,0,1-.38-2.31,5.85,5.85,0,0,1,.58-2.72,2.68,2.68,0,0,1,4.07-.52,2.5,2.5,0,0,1,.6.92,6.88,6.88,0,0,1,.38,2.32,5.22,5.22,0,0,1-.7,2.89,2.44,2.44,0,0,1-2.12,1A2.49,2.49,0,0,1,409.15,217.37Zm.58-6a2.05,2.05,0,0,0-.45.73,6.2,6.2,0,0,0-.31,2,5.53,5.53,0,0,0,.47,2.38,1.7,1.7,0,0,0,1.55.87,1.67,1.67,0,0,0,1.23-.47,2,2,0,0,0,.47-.78,6.2,6.2,0,0,0,.31-2,5.66,5.66,0,0,0-.45-2.33,1.69,1.69,0,0,0-1.57-.91A1.63,1.63,0,0,0,409.73,211.4Z"/><path class="cls-3" d="M41.85,190.31a12.13,12.13,0,0,0,4.69-1.92l.51.68-.43.21A15.52,15.52,0,0,1,41.85,191v1.63c0,.7,0,.93.21,1.1a1.2,1.2,0,0,0,.76.26A10.43,10.43,0,0,0,44,194a19.85,19.85,0,0,0,2.29-.16,4.81,4.81,0,0,0,1-.2l.06.8-.33,0h-.13l-.48,0c-.64.07-2,.14-2.65.14a3.62,3.62,0,0,1-2.19-.41,1.32,1.32,0,0,1-.41-1c0-.16,0-.36,0-.78v-4.61a5.5,5.5,0,0,0,0-.83h.82a4.42,4.42,0,0,0,0,.84Zm5-3.72a7.56,7.56,0,0,1,1,1.55l-.5.3a7.41,7.41,0,0,0-1-1.59ZM48,186a8.68,8.68,0,0,1,1,1.56l-.51.28a7.49,7.49,0,0,0-1-1.57Z"/><path class="cls-3" d="M50,189.25a11,11,0,0,1,1,2.22l-.68.23a8.25,8.25,0,0,0-.94-2.24Zm5.64-.06a5.66,5.66,0,0,0-.22.81,9,9,0,0,1-.88,2.24,7.24,7.24,0,0,1-3.31,2.89,2,2,0,0,0-.46-.56A6.41,6.41,0,0,0,53.93,192a7.54,7.54,0,0,0,.85-2.15,4.25,4.25,0,0,0,.11-.68V189Zm-3.6-.34A10,10,0,0,1,53,191l-.66.23a8.8,8.8,0,0,0-.92-2.19Z"/><path class="cls-3" d="M58.45,195.05a6.41,6.41,0,0,0,.06-1v-6.21a5.91,5.91,0,0,0-.06-1h.86a6.24,6.24,0,0,0-.05,1v1.87a24.78,24.78,0,0,1,4.45,2.11l-.43.74a20.38,20.38,0,0,0-3.73-2,1.11,1.11,0,0,1-.31-.17h0a3.46,3.46,0,0,1,0,.59v3a6.77,6.77,0,0,0,.05,1.06Z"/><path class="cls-3" d="M66.21,187a4.88,4.88,0,0,0,.83,0h.63a5.74,5.74,0,0,0,.83,0,16.5,16.5,0,0,0-.09,1.66v4.86a6.41,6.41,0,0,0,.08,1.13h-.95a6.34,6.34,0,0,0,.08-1.13v-5.79h-.54a6,6,0,0,0-.87.06Z"/><path class="cls-3" d="M41,213.31a12.13,12.13,0,0,0,4.69-1.92l.51.68-.43.21A15.52,15.52,0,0,1,41,214v1.63c0,.7,0,.93.21,1.1A1.2,1.2,0,0,0,42,217a10.43,10.43,0,0,0,1.18.06,19.85,19.85,0,0,0,2.29-.16,4.81,4.81,0,0,0,1-.2l.06.8-.33,0H46l-.48,0c-.64.07-2,.14-2.65.14a3.62,3.62,0,0,1-2.19-.41,1.32,1.32,0,0,1-.41-1c0-.16,0-.36,0-.78v-4.61a5.5,5.5,0,0,0,0-.83h.82a4.42,4.42,0,0,0,0,.84Zm5-3.72a7.56,7.56,0,0,1,1,1.55l-.5.3a7.41,7.41,0,0,0-1-1.59Zm1.13-.55a8.68,8.68,0,0,1,1,1.56l-.51.28a7.49,7.49,0,0,0-1-1.57Z"/><path class="cls-3" d="M49.17,212.25a11,11,0,0,1,1,2.22l-.68.23a8.25,8.25,0,0,0-.94-2.24Zm5.64-.06a5.66,5.66,0,0,0-.22.81,9,9,0,0,1-.88,2.24,7.24,7.24,0,0,1-3.31,2.89,2,2,0,0,0-.46-.56A6.41,6.41,0,0,0,53.11,215a7.54,7.54,0,0,0,.85-2.15,4.25,4.25,0,0,0,.11-.68V212Zm-3.6-.34a10,10,0,0,1,1,2.15l-.66.23A8.8,8.8,0,0,0,50.6,212Z"/><path class="cls-3" d="M57.63,218.05a6.41,6.41,0,0,0,.06-1v-6.21a5.91,5.91,0,0,0-.06-1h.86a6.24,6.24,0,0,0-.05,1v1.87a24.78,24.78,0,0,1,4.45,2.11l-.43.74a20.38,20.38,0,0,0-3.73-2,1.11,1.11,0,0,1-.31-.17h0a3.46,3.46,0,0,1,0,.59v3a6.77,6.77,0,0,0,.05,1.06Z"/><path class="cls-3" d="M66.27,217.74a5.77,5.77,0,0,0-1.1.06,4.56,4.56,0,0,1,.29-1.33,4.38,4.38,0,0,1,1.3-1.72,13.57,13.57,0,0,1,1.53-1.1c1-.67,1.32-1.11,1.32-1.72,0-.76-.64-1.25-1.66-1.25a1.65,1.65,0,0,0-1.45.65,2,2,0,0,0-.35,1l-.84-.14a2.72,2.72,0,0,1,.63-1.44,2.55,2.55,0,0,1,2-.77c1.51,0,2.48.76,2.48,1.94a2.08,2.08,0,0,1-.59,1.42,7.89,7.89,0,0,1-1.7,1.29,5.43,5.43,0,0,0-1.44,1.23,2.81,2.81,0,0,0-.57,1.16h3.19a8.68,8.68,0,0,0,1.22-.07v.84a11.23,11.23,0,0,0-1.23-.06Z"/><rect class="cls-1" x="0.5" y="0.5" width="473.99" height="235.33"/><rect class="cls-1" x="16.37" y="180.73" width="438.3" height="47.3"/><line class="cls-1" x1="22.37" y1="204.38" x2="454.67" y2="204.38"/><line class="cls-1" x1="364.61" y1="180.73" x2="364.61" y2="228.03"/><line class="cls-1" x1="274.55" y1="180.73" x2="274.55" y2="228.03"/><line class="cls-1" x1="185.49" y1="180.73" x2="185.49" y2="228.03"/><line class="cls-1" x1="96.43" y1="180.73" x2="96.43" y2="228.03"/></g></g></svg>